<svg width="164" height="164" viewBox="0 0 164 164" fill="none" xmlns="http://www.w3.org/2000/svg">
<rect width="164" height="164" rx="82" stroke="#DFA9A9"/>
<g clip-path="url(#clip0_497_770)">
<g clip-path="url(#clip1_497_770)">
<path d="M-17.5 83V135C-17.5 141.129 -15.0651 147.008 -10.7309 151.342C-6.39674 155.676 -0.518337 158.111 5.61111 158.111H167.389C173.518 158.111 179.397 155.676 183.731 151.342C188.065 147.008 190.5 141.129 190.5 135V83H-17.5Z" fill="#141414"/>
<path d="M190.5 82.9998V30.9998C190.5 24.8703 188.065 18.9919 183.731 14.6578C179.397 10.3236 173.518 7.88867 167.389 7.88867H5.61111C-0.518337 7.88867 -6.39674 10.3236 -10.7309 14.6578C-15.0651 18.9919 -17.5 24.8703 -17.5 30.9998L-17.5 82.9998H190.5Z" fill="#CE1B26"/>
<path d="M83.3338 57.8438L86.812 64.8984L94.6005 66.0309L88.9671 71.5255L90.3018 79.2851L83.3338 75.622L76.3658 79.2851L77.6947 71.5255L72.0556 66.0309L79.8498 64.8984L83.3338 57.8438ZM70.068 78.3086C72.0556 81.5557 88.3951 98.6233 104.284 108.55C106.358 109.902 112.049 114.235 114.216 115.772C113.315 116.945 112.049 118.661 110.697 120.105C108.438 118.302 87.7653 105.568 80.9938 102.142C74.2222 98.71 68.0862 92.7531 68.0862 87.0678C68.0804 81.3766 70.068 78.3086 70.068 78.3086ZM115.296 116.494C114.303 117.938 112.766 119.926 111.864 121.006C113.667 121.278 118.272 123.537 120.624 128.408C122.969 133.284 127.216 130.754 126.852 128.136C126.488 125.519 121.346 119.834 115.296 116.494Z" fill="#F9D616"/>
<path d="M116.88 121.55C117.454 121.55 117.92 121.084 117.92 120.51C117.92 119.935 117.454 119.47 116.88 119.47C116.305 119.47 115.84 119.935 115.84 120.51C115.84 121.084 116.305 121.55 116.88 121.55Z" fill="#292F33"/>
<path d="M122.657 127.327C123.232 127.327 123.697 126.861 123.697 126.287C123.697 125.713 123.232 125.247 122.657 125.247C122.083 125.247 121.617 125.713 121.617 126.287C121.617 126.861 122.083 127.327 122.657 127.327Z" fill="#292F33"/>
<path d="M112.772 117.904C112.598 117.904 112.429 117.852 112.286 117.754L85.3791 99.427C85.1893 99.2981 85.0585 99.0991 85.0151 98.8739C84.9718 98.6486 85.0196 98.4153 85.148 98.2252C85.2769 98.0355 85.4758 97.9046 85.7011 97.8613C85.9263 97.818 86.1596 97.8657 86.3497 97.9941L113.251 116.321C113.65 116.593 113.754 117.13 113.482 117.523C113.403 117.639 113.298 117.735 113.174 117.801C113.05 117.868 112.912 117.903 112.772 117.904Z" fill="#292F33"/>
<path d="M125.939 86.744L125.985 79.2617L119.716 79.3022C119.476 76.9352 119.004 74.5975 118.307 72.3226L123.923 70.0693L121.392 63.0262L115.348 65.4297C114.329 63.5744 113.141 61.8164 111.801 60.1777L115.84 55.5671L110.096 50.7657L106.485 54.868C104.694 53.4188 102.771 52.1402 100.742 51.0488L103.365 45.4617L96.3569 42.8213L93.8031 48.2235C91.7203 47.6126 89.5847 47.1986 87.4244 46.9871L86.6271 54.7697C101.043 56.2546 112.321 68.2897 112.321 83.0924C112.321 91.8111 108.346 99.5129 102.204 104.765L105.399 106.972L113.286 112.842L116.354 109.503L111.541 105.932C113.001 104.183 114.287 102.307 115.4 100.304L121.213 102.662L124.102 95.7573L118.318 93.4115C118.991 91.2545 119.452 89.0368 119.693 86.7902L125.939 86.744ZM97.4547 116.326L95.0742 111.71L92.1276 110.306C89.4067 111.197 86.5664 111.67 83.7036 111.71C77.0661 111.689 70.6468 109.338 65.5671 105.065L60.76 110.722C62.5396 112.195 64.4924 113.455 66.532 114.564L63.9551 120.105L70.8538 123.011L73.4538 117.395C75.449 117.992 77.5079 118.414 79.6302 118.66L79.5898 124.496L87.072 124.415L87.1125 118.863C89.4133 118.655 91.6875 118.217 93.9013 117.557L95.8889 123.3L99.864 122.127L97.3738 116.355L97.4547 116.326Z" fill="#F9D616"/>
</g>
</g>
<rect x="4.1" y="4.1" width="155.8" height="155.8" rx="77.9" stroke="white" stroke-width="8.2"/>
<defs>
<clipPath id="clip0_497_770">
<rect width="164" height="164" rx="82" fill="white"/>
</clipPath>
<clipPath id="clip1_497_770">
<rect width="208" height="208" fill="white" transform="translate(-17.5 -21)"/>
</clipPath>
</defs>
</svg>
