<svg width="164" height="164" viewBox="0 0 164 164" fill="none" xmlns="http://www.w3.org/2000/svg">
<rect width="164" height="164" rx="82" stroke="#DFA9A9"/>
<g clip-path="url(#clip0_497_779)">
<path d="M-27 58.7656H190V106.234H-27V58.7656Z" fill="#E6E7E8"/>
<path d="M156.094 7.90625H6.90625C-15.5634 7.90625 -27 24.6051 -27 45.2031V58.7656H190V45.2031C190 24.6051 178.563 7.90625 156.094 7.90625ZM-27 119.797C-27 140.395 -15.5634 157.094 6.90625 157.094H156.094C178.563 157.094 190 140.395 190 119.797V106.234H-27V119.797Z" fill="#74ACDF"/>
<path fill-rule="evenodd" clip-rule="evenodd" d="M83.7984 68.5911C84.8495 67.2823 84.958 65.9769 84.9851 64.5969C85.0156 63.4272 85.1886 62.2506 85.3988 61.0774C85.4768 60.6401 85.7853 60.2061 86.0905 59.8738C86.2122 59.7712 86.3543 59.6957 86.5075 59.6524C86.6607 59.6092 86.8214 59.5991 86.9788 59.6229C87.1449 59.667 87.3009 60.1213 87.2873 60.3892C87.2636 60.8537 87.0466 61.3148 87.0161 61.7793C86.9483 62.7592 86.9483 63.7221 86.9449 64.6919C86.9313 65.6717 86.9381 66.6415 86.9381 67.7332C87.6366 66.2821 88.3011 64.8851 88.986 63.4984C89.339 62.727 89.7399 61.9785 90.1863 61.2572C90.3592 61.0164 90.8034 60.9486 91.1154 60.8062C91.234 61.1283 91.5358 61.4843 91.468 61.7556C91.0645 63.1898 90.5762 64.6037 90.0982 66.0176C89.6709 67.3128 89.2132 68.5843 88.6775 70.0897C90.0473 69.3235 90.6474 68.2893 91.1832 67.1535C91.7697 65.9057 92.4547 64.6885 93.2311 63.5526C93.6007 63.0203 94.289 62.3591 95.0078 62.9694C95.1943 63.1254 94.8518 64.1561 94.5229 64.6003C93.7567 65.6378 93.2921 66.7364 92.9565 67.9875C92.6717 69.0556 91.9291 70.0084 91.4375 70.9137C91.6172 70.7712 91.9325 70.5068 92.2207 70.2355C93.6142 68.9878 94.9976 67.7231 96.398 66.4787C96.7811 66.1363 97.1948 65.8175 97.6457 65.6005C97.8593 65.4954 98.2764 65.5802 98.4662 65.7294C98.6188 65.8345 98.6392 66.2787 98.5374 66.4652C98.2549 66.9683 97.9196 67.44 97.5372 67.8723C95.9267 69.6795 94.3025 71.4663 92.5292 73.4159C94.2279 73.182 95.2994 72.3513 96.3268 71.3375C97.1337 70.5407 98.0729 69.8524 98.985 69.1573C99.2573 68.9538 99.5846 68.8368 99.9242 68.8216C100.382 68.8352 100.833 69.0285 101.274 69.1573C101.03 69.5201 100.88 70.0355 100.538 70.2355C99.2024 70.9877 98.0584 72.0378 97.1948 73.304C96.6828 74.0635 95.7232 74.4975 94.8179 75.1994C96.7811 74.4975 98.5951 73.8499 100.416 73.2261C101.121 72.9853 101.85 72.7853 102.579 72.6632C102.799 72.6259 103.22 72.8429 103.294 73.0396C103.366 73.2498 103.23 73.6804 103.047 73.8262C102.565 74.1958 102.03 74.5043 101.474 74.7586C99.3681 75.7826 97.2558 76.7727 94.9841 77.8509C96.8184 78.4002 98.256 77.7458 99.7513 77.1897C100.904 76.7659 102.169 76.6099 103.4 76.4946C103.762 76.4607 104.193 76.9591 104.58 77.2168C104.23 77.4949 103.895 77.9899 103.505 78.0238C101.904 78.1967 100.541 78.8375 99.1478 79.6072C98.2289 80.1158 97.0354 80.1362 95.9572 80.3871C98.5001 80.5272 101.044 80.6741 103.589 80.8278C103.62 80.8278 103.657 80.8211 103.691 80.838L105.075 81.628C104.634 81.8993 104.196 82.3875 103.728 82.418C101.426 82.6317 99.1003 82.7266 96.7947 82.869C96.442 82.8826 96.0928 82.9131 95.5164 82.9605C97.1642 84.1744 98.7917 84.0761 100.47 84.1269C101.674 84.1473 102.898 84.5677 104.071 84.9475C104.373 85.039 104.529 85.6018 104.742 85.9477C104.366 86.0833 103.983 86.3173 103.613 86.3173C103.115 86.3173 102.613 86.107 102.108 86.0223C101.677 85.9477 101.219 85.8087 100.809 85.8867C99.0494 86.2088 97.3168 86.4597 95.6317 85.4662C95.6204 85.5521 95.6034 85.638 95.5808 85.7239C97.4886 86.6213 99.3885 87.5232 101.28 88.4296C101.83 88.6941 102.399 88.9653 102.881 89.3315C103.122 89.518 103.196 89.9384 103.339 90.2572C103.023 90.386 102.698 90.664 102.41 90.6267C101.748 90.5352 101.091 90.3046 100.45 90.0842C98.4052 89.3858 96.364 88.6568 94.2347 87.8973C94.7772 89.2298 95.808 89.891 97.8559 90.6912C98.8189 91.0607 99.7106 91.6846 100.524 92.3187C101.046 92.7289 101.82 93.424 101.24 94.1021C100.626 94.8311 99.9378 94.0174 99.419 93.6139C98.4561 92.8713 97.3948 92.4645 96.2216 92.1424C95.0993 91.827 94.1059 91.0506 93.1057 90.4843C94.4212 91.9423 95.808 93.4715 97.1778 95.004C97.605 95.4923 98.0628 95.9704 98.3781 96.5264C98.551 96.8112 98.4459 97.2622 98.4561 97.6318C98.0797 97.6047 97.5914 97.7098 97.3338 97.5131C96.3132 96.7265 95.357 95.8483 94.3839 94.9905C93.1972 93.9462 92.0308 92.8849 90.7153 91.705C90.9797 93.6241 92.0308 94.7904 93.2718 95.8415C94.3093 96.7265 95.1129 97.781 95.3638 99.1406C95.4418 99.5407 95.1977 99.9917 95.0926 100.419C94.723 100.198 94.1839 100.076 94.0008 99.7475C93.2157 98.3894 92.1272 97.2313 90.8204 96.3637C90.0846 95.8653 89.6506 94.9125 89.0064 94.0716C89.3082 94.9735 89.5794 95.8008 89.8676 96.6282C90.3321 97.9437 90.8068 99.2491 91.2645 100.568C91.4009 100.916 91.4721 101.286 91.4748 101.66C91.451 101.948 91.2713 102.382 91.0679 102.446C90.8238 102.518 90.4033 102.331 90.2236 102.101C89.8812 101.687 89.6438 101.182 89.4133 100.704C88.3893 98.5947 87.3823 96.4688 86.2905 94.1666C85.7955 95.7229 86.1684 96.9672 86.6669 98.2217C87.0737 99.2593 87.4501 100.321 87.6671 101.412C87.7892 102.006 87.5925 102.691 87.4535 103.308C87.4026 103.494 87.05 103.721 86.8398 103.715C86.6363 103.715 86.2668 103.45 86.2532 103.284C86.0972 101.148 85.0733 99.3576 84.1849 97.486C83.8628 96.8214 83.9713 95.967 83.734 95.1939C83.6345 97.2464 83.5317 99.2977 83.4254 101.348C83.3983 101.962 83.4119 102.589 83.2389 103.175C83.127 103.559 82.7405 103.891 82.4727 104.233C82.2184 103.881 81.7606 103.542 81.7301 103.165C81.5301 100.894 81.4216 98.6151 81.2961 96.3501C81.2724 95.8517 81.2961 95.3499 81.1571 94.8277C80.4134 95.6973 80.0088 96.8063 80.0178 97.9505C80.0178 99.0626 80.1162 100.205 79.9636 101.304C79.8653 102.05 79.472 102.779 79.0922 103.45C78.9566 103.691 78.4785 103.735 78.1496 103.86C78.0377 103.569 77.8885 103.284 77.8139 102.975C77.7766 102.789 77.858 102.575 77.9055 102.375C78.2513 101.046 78.4175 99.7543 78.0479 98.354C77.8309 97.5199 78.014 96.5773 78.014 95.611C77.2477 97.2046 76.4826 98.7868 75.7185 100.358C75.4337 100.944 75.1557 101.545 74.7861 102.057C74.5996 102.297 74.169 102.358 73.8571 102.494C73.7248 102.179 73.4672 101.836 73.5011 101.538C73.6028 100.873 73.8266 100.222 74.0537 99.5814C74.7658 97.5334 75.4947 95.4957 76.2949 93.2172C74.7319 94.0614 74.1826 95.3329 73.596 96.6078C73.091 97.7158 72.468 98.7662 71.7379 99.7407C71.3548 100.27 70.6665 100.921 69.9545 100.321C69.768 100.178 70.1172 99.1338 70.4529 98.6727C71.209 97.6352 71.6701 96.5434 72.0024 95.2889C72.2872 94.2174 73.0433 93.2748 73.579 92.3017C72.0295 93.6885 70.4461 95.1397 68.8322 96.5671C68.3791 96.977 67.8861 97.3405 67.3606 97.6521C67.1538 97.7708 66.713 97.7335 66.5401 97.5843C66.3909 97.4351 66.3401 96.9842 66.4486 96.7807C66.6961 96.2925 67.0351 95.8585 67.3878 95.4482C68.9983 93.6512 70.6258 91.8711 72.3889 89.9147C70.5105 90.1487 69.4696 91.2235 68.388 92.3221C67.5913 93.0995 66.7019 93.776 65.7399 94.3361C65.1703 94.6989 64.2514 95.1261 63.8208 94.3632C63.3292 93.4783 64.3769 93.1765 64.9363 92.8612C66.0112 92.2102 66.808 91.3523 67.5505 90.3453C68.1879 89.4841 69.1848 88.8806 70.0494 88.1482L64.5227 90.0741C64.0073 90.2606 63.4987 90.5115 62.9732 90.5623C62.5493 90.62 62.0984 90.4199 61.6644 90.3352C61.8848 89.9283 62.017 89.3349 62.3561 89.1484C64.0853 88.2296 65.8925 87.3989 67.6692 86.5343L69.8121 85.4899C68.4558 84.978 67.4115 85.1509 65.5263 85.9748C64.624 86.3592 63.6827 86.6445 62.7189 86.8259C62.1811 86.9149 61.6298 86.8731 61.1117 86.7038C60.8167 86.6224 60.6167 86.2393 60.376 85.9985C60.6167 85.7714 60.8472 85.3679 61.1185 85.3442C62.9087 85.1339 64.4888 84.4626 66.0519 83.5505C66.8453 83.086 67.9472 83.1301 69.1509 82.8961C66.8283 82.7808 64.7431 82.6859 62.668 82.5808C61.9846 82.569 61.3042 82.4883 60.637 82.3401C60.3387 82.2689 60.1352 81.8722 59.8809 81.6314C60.1318 81.3975 60.3522 81.0109 60.6472 80.933C61.3084 80.7736 61.9933 80.7397 62.6748 80.7058C64.8414 80.5905 66.9945 80.4922 69.4391 80.3769C67.8523 79.2173 66.3468 79.0817 64.7736 79.2919C63.4433 79.4794 62.0893 79.1964 60.9456 78.4917C60.6031 78.2781 60.4505 77.7695 60.2166 77.3931C60.6302 77.2745 61.0948 76.9727 61.4508 77.0575C62.9003 77.417 64.407 77.4827 65.8823 77.2507C67.0826 77.0642 68.3846 77.5288 69.6561 77.7152C67.8082 76.8371 65.9128 75.9453 64.0378 75.0231C63.331 74.692 62.6478 74.3125 61.9933 73.8872C61.7763 73.738 61.5966 73.2667 61.6712 73.0396C61.739 72.8361 62.2069 72.6157 62.4714 72.6598C63.1698 72.7683 63.8547 72.9752 64.5261 73.2091C66.5808 73.911 68.6186 74.6467 70.7445 75.3995C70.2189 74.0941 69.1746 73.4464 67.1335 72.6022C66.0349 72.1377 65.0855 71.3171 64.1056 70.6254C63.8746 70.42 63.7114 70.1492 63.6377 69.849C63.5733 69.6218 63.597 69.2556 63.7394 69.1098C63.8819 68.9674 64.2243 69.0115 64.4752 68.9844C64.5136 68.9844 64.5464 68.9957 64.5735 69.0183C66.5096 71.1408 69.8426 70.6763 71.8091 72.8327C71.6871 72.653 71.565 72.4632 71.4158 72.3038C70.0189 70.7667 68.6276 69.2229 67.242 67.6722C66.9343 67.356 66.68 66.9918 66.4892 66.594C66.3841 66.3227 66.374 65.8379 66.5333 65.6853C66.713 65.5226 67.2047 65.5293 67.4522 65.665C67.8964 65.8921 68.2931 66.2346 68.6728 66.5804C70.4427 68.1605 72.2058 69.7608 74.1419 71.5002C73.969 69.8219 73.0501 68.842 72.1109 67.8146C71.2395 66.8585 70.5343 65.7463 69.7714 64.6715C69.658 64.5002 69.6033 64.2968 69.6154 64.0917C69.673 63.6882 69.8154 63.2949 69.9206 62.8914C70.2766 63.0847 70.7852 63.2 70.9649 63.4984C71.8091 64.936 72.8229 66.1193 74.2504 67.0551C74.9489 67.5298 75.3354 68.486 75.9355 69.3133C75.8575 69.0047 75.8304 68.764 75.7423 68.5402C75.1421 66.8313 74.5284 65.1496 73.9283 63.4339C73.7859 63.0576 73.5723 62.6609 73.5723 62.2777C73.5655 61.7827 73.7384 61.2911 73.83 60.7926C74.2436 61.0639 74.837 61.2504 75.0336 61.6437C76.1254 63.7188 77.1053 65.8616 78.1259 67.9774C78.292 68.3063 78.4582 68.625 78.6819 69.0759C79.2109 67.384 78.6684 66.0345 78.1123 64.6376C77.7334 63.627 77.4518 62.5824 77.2714 61.5182C77.1799 61.0469 77.3189 60.4977 77.485 60.0196C77.563 59.8128 77.9157 59.5924 78.1564 59.5686C78.3361 59.5618 78.6989 59.8568 78.7124 60.0264C78.9159 62.0743 79.7907 63.8476 80.7367 65.6378C81.0994 66.3227 80.9977 67.2653 81.2079 68.0893L81.6521 60.5553C81.6589 60.4129 81.6284 60.2535 81.686 60.1552C81.9302 59.7777 82.1833 59.4115 82.4455 59.0566C82.7168 59.433 83.2118 59.7924 83.2355 60.1857C83.4458 62.7253 83.5509 65.2818 83.6933 67.8417C83.717 68.0215 83.7475 68.1842 83.7984 68.5911ZM65.2483 78.9257C66.2078 79.0105 67.2013 79.0105 68.1439 79.2478C69.0153 79.4614 69.8222 79.9564 70.6868 80.2413C71.1073 80.3938 71.5955 80.3396 72.0499 80.3837C70.6699 79.7157 69.334 79.0851 67.9337 78.763C67.103 78.5731 66.1468 78.8579 65.2483 78.9257C63.9079 78.6092 62.5697 78.2905 61.2338 77.9695C62.4205 78.9935 63.8174 79.0478 65.2483 78.9257ZM97.5948 91.1082C98.5205 91.7796 99.4665 92.4339 100.365 93.146C100.565 93.2952 100.613 93.658 100.728 93.9224C100.87 93.7495 100.935 93.5156 100.84 93.3867C100.073 92.1695 99.0562 91.3049 97.5542 91.132C96.2555 90.3725 94.8044 89.8299 93.8923 88.5042C93.5417 88.0421 93.1193 87.6391 92.6411 87.3107C92.3122 87.07 91.885 86.9615 91.4985 86.7919C92.2648 87.7684 93.2074 88.433 93.9703 89.2671C94.8942 90.3274 96.1937 90.9875 97.5948 91.1082ZM67.6522 72.158C66.2233 71.6557 64.9965 70.7025 64.1565 69.4421C63.8547 70.4797 66.1841 72.3411 67.6827 72.1343C67.8184 72.3004 67.954 72.4801 68.1167 72.6157C69.0966 73.3651 70.1037 74.0873 71.0734 74.8502C71.5718 75.2503 71.9956 75.7521 72.5178 76.1284C72.7822 76.3217 73.1722 76.342 73.5078 76.4268C72.8195 75.6164 71.9617 75.074 71.3243 74.3517C70.3858 73.2236 69.0904 72.4497 67.6522 72.158ZM65.3195 85.5679C66.9605 84.9034 68.6728 84.8084 70.419 84.9034C70.9513 84.9271 71.5006 84.7915 72.0194 84.6491C72.1991 84.5982 72.3177 84.327 72.5246 84.0761C70.7547 84.1744 69.1475 84.1473 67.5912 84.4083C66.791 84.5406 66.0925 85.1848 65.333 85.5951L61.6067 86.2427L61.6576 86.497C62.9596 86.5546 64.2311 86.4698 65.3195 85.5679ZM87.5755 91.2472C87.3563 91.1478 87.1348 91.054 86.911 90.9658C86.8364 91.0178 86.7618 91.0732 86.6872 91.132C88.0208 94.3395 89.3511 97.5504 90.678 100.765L90.8916 100.694L87.5586 91.2167C88.2706 92.1932 89.1895 93.0816 89.6472 94.1733C90.3762 95.9026 91.9122 96.5942 93.2616 97.564C92.3055 96.4451 91.1018 95.4889 90.305 94.2784C89.4845 93.051 89.2675 91.4303 87.8841 90.2775C87.7485 90.7047 87.6671 90.976 87.5755 91.2404M79.1566 70.7272C78.3802 69.2014 77.5935 67.6654 76.8307 66.1227C76.1797 64.8105 75.5592 63.4814 74.9217 62.1692L74.6912 62.2743C76.0406 65.5135 77.3878 68.755 78.7328 71.9987L79.1397 71.9139V70.7102L79.7873 71.524C79.7873 70.2457 79.811 68.9607 79.7805 67.679C79.7669 67.1467 79.7805 66.516 79.516 66.1024C78.4955 64.502 78.0954 62.7456 77.9326 60.9113C77.9326 60.874 77.8343 60.8537 77.4376 60.6265C77.7088 61.8607 77.7088 62.9593 78.1666 63.8103C79.4007 66.0312 79.3635 68.3503 79.1566 70.7272ZM67.4793 97.4283C67.6014 97.2724 67.6997 97.0995 67.8489 96.9706C70.2664 94.7803 72.7009 92.5933 75.1014 90.386C75.3422 90.1622 75.4066 89.7316 75.5592 89.3892C75.2269 89.5316 74.8132 89.5757 74.5861 89.8028C72.3617 92.0498 70.151 94.3103 67.954 96.5841C67.737 96.8079 67.6387 97.1401 67.4793 97.4182C66.7876 96.913 67.2996 96.5536 67.6454 96.1975L73.9418 89.7859C74.2809 89.44 74.5725 89.0569 74.9726 88.5856C73.8571 88.6703 66.9911 96.1602 66.8114 97.3334L67.4793 97.4182M85.826 92.6137C86.6363 94.214 87.4501 95.8042 88.2537 97.4182C88.9318 98.7948 89.5828 100.188 90.2541 101.575C90.3253 101.548 90.3965 101.504 90.4745 101.477L86.2532 91.315C86.1176 91.3263 85.982 91.3456 85.8463 91.3727C85.8463 91.8022 85.8441 92.226 85.8395 92.6442L85.0122 91.5524C85.1038 93.424 84.9682 95.082 85.3276 96.6315C85.7921 98.6218 86.6567 100.51 87.3111 102.345C87.4855 101.342 87.2993 100.31 86.7855 99.4322C85.5208 97.2758 85.6192 94.9532 85.826 92.6137ZM92.1665 76.5048L91.8647 77.3694C92.0512 77.3762 92.2648 77.4406 92.414 77.3864C95.6622 76.012 98.907 74.6332 102.148 73.2498C102.132 73.1854 102.098 73.1277 102.081 73.0633L92.1326 76.5387C93.1023 75.8402 94.0889 75.1384 95.0519 74.4263C95.7741 73.8906 96.659 73.4464 97.1608 72.7412C97.8966 71.7172 98.6934 70.8696 99.8021 70.2694C100.206 70.0558 100.545 69.7202 100.914 69.432C100.101 69.7414 99.3306 70.1539 98.6222 70.6594C98.0424 71.0662 97.4287 71.4867 97.0184 72.0427C96.2874 73.0666 95.2725 73.8539 94.0991 74.3077C93.065 74.7213 92.1292 75.3927 91.1594 75.9487L91.2713 76.3488C91.5833 76.4065 91.8681 76.4573 92.1665 76.5048ZM72.9518 86.7106C71.9448 87.4396 71.0327 88.3516 69.9307 88.8704C68.3948 89.5824 67.6014 90.8098 66.8758 92.1695C67.937 91.2676 68.8322 90.1419 69.9918 89.4197C71.1954 88.6602 72.6805 88.3415 73.7893 87.0835L72.9314 86.7343C72.9823 86.4393 73.0433 86.1545 73.1586 85.6425L62.8104 90.0639C62.8443 90.1317 62.8726 90.2007 62.8952 90.2707C66.2474 89.0795 69.5996 87.8928 72.9518 86.7106ZM80.2552 90.3962C82.6795 91.1557 82.6795 91.1557 84.6935 90.4267C84.5409 90.7183 84.429 90.9523 84.2799 91.2235C88.9115 90.7759 92.6649 85.8629 92.2817 80.8855C91.8681 75.508 87.267 71.5579 81.7369 71.8223C76.6069 72.08 72.5178 76.5997 72.6127 81.9061C72.7043 86.7411 76.8103 91.2845 81.1096 91.2913C80.8655 91.037 80.618 90.7827 80.2552 90.3962ZM91.9325 85.7781L91.7799 86.141C92.2783 86.8564 100.436 89.9893 102.301 90.0741C98.8403 88.6432 95.3842 87.2113 91.9325 85.7781ZM82.7914 103.206L82.9439 103.22C83.1304 99.7001 83.3135 96.1738 83.4458 92.6543C83.4627 92.4272 83.1779 92.1797 83.0253 91.9389C82.9462 91.9796 82.8682 92.0146 82.7914 92.044V103.206ZM82.771 71.3816C83.5068 70.8764 83.5068 70.8764 83.2491 65.7836C83.1576 63.8985 83.0287 62.0065 82.9134 60.1145L82.771 60.1281V71.3816ZM90.2609 62.2472C90.1959 62.2068 90.1265 62.1738 90.0541 62.1489C89.7422 62.775 89.4347 63.4057 89.1318 64.0409C88.1045 66.1973 87.0636 68.3334 86.0701 70.5034C85.8429 70.9679 85.47 71.524 86.2837 72.1038C87.64 68.7606 88.9454 65.4954 90.2609 62.2472ZM82.1845 91.7897C81.425 92.5458 81.5775 100.792 82.1845 103.206V91.7897ZM92.7123 81.0618C92.753 81.168 92.7982 81.2765 92.848 81.3873H103.932C100.527 81.0453 97.1119 80.8044 93.6922 80.6651C93.3735 80.6481 93.0446 80.9296 92.7259 81.0618M104.054 82.0349H92.8208L92.8276 82.5706C96.5709 82.6486 100.307 82.2417 104.054 82.0349ZM60.9761 81.7908C60.9761 81.8902 60.9727 81.9886 60.9659 82.0858C62.607 82.1773 64.2514 82.2858 65.9027 82.3706C67.6658 82.4689 69.4289 82.5842 71.1954 82.6283C71.4938 82.635 71.8024 82.3401 72.1041 82.1841C71.8329 82.0552 71.5548 81.8213 71.2904 81.8145C67.8523 81.784 64.4176 81.7908 60.9761 81.7908ZM82.1912 60.1043L82.0556 60.1349C81.8657 63.5594 81.6849 66.9839 81.5131 70.4085C81.5063 70.7102 81.7606 71.0391 81.8895 71.3578C81.9885 71.3204 82.0892 71.2875 82.1912 71.2595V60.0976M61.3423 81.2415H72.3211C71.487 80.5905 63.1088 80.8007 61.3423 81.2415ZM97.3677 66.3736L97.2219 66.2244C94.7241 68.512 92.2252 70.795 89.7252 73.0735C89.5911 73.1812 89.49 73.3246 89.4336 73.4871C89.3963 73.6567 89.4472 73.8499 89.4607 74.0262C89.6404 73.9856 89.854 73.9923 89.9761 73.894C90.288 73.6363 90.5525 73.321 90.8373 73.0362C93.0096 70.8142 95.1864 68.5911 97.3677 66.3668M84.6121 71.446C84.793 71.5115 84.9693 71.5805 85.1411 71.6528C85.2903 71.368 85.4835 71.0967 85.5683 70.7984C85.8599 69.6252 86.1244 68.4419 86.4024 67.262C86.5109 66.8042 86.7821 66.299 86.6804 65.8854C86.2329 64.007 86.4193 62.1794 86.9449 60.3654C86.9754 60.2366 86.8093 60.0569 86.7109 59.8534C86.538 60.6807 86.3583 61.3487 86.2668 62.0302C86.1379 62.9253 85.9311 63.851 86.026 64.7292C86.1684 65.9939 86.0023 67.1297 85.5208 68.2961C85.1072 69.2963 84.9037 70.3813 84.6121 71.446ZM79.1125 91.3388C78.9605 91.3189 78.8078 91.3042 78.6548 91.2947L74.9116 100.622C74.9828 100.649 75.0607 100.694 75.1455 100.721C76.4679 97.9369 77.8004 95.1498 79.0956 92.3424C79.2278 92.0745 79.1125 91.6778 79.1125 91.3388ZM70.2359 99.7814V100.127C70.5309 100.019 70.9581 100.012 71.1174 99.7984C71.8227 98.8694 72.6229 97.9403 73.0806 96.8858C73.7215 95.4279 74.3725 94.0581 75.6677 93.0409C76.217 92.6069 76.6577 92.0135 77.0782 91.4473C77.2375 91.2235 77.1935 90.8471 77.2375 90.5488C76.2576 91.4134 75.4371 92.278 74.7488 93.2274C74.1385 94.0615 73.4299 94.9328 73.2061 95.889C72.8433 97.4589 71.7142 98.4591 70.8733 99.6797C70.7886 99.795 70.4597 99.7611 70.2359 99.7814ZM67.6319 66.1668L67.4522 66.377C68.2727 67.1535 69.1 67.9333 69.9002 68.7233C71.5515 70.3576 73.179 72.0088 74.8437 73.6295C75.0133 73.7923 75.3286 73.8092 75.5795 73.894C75.4947 73.6363 75.471 73.3346 75.3286 73.1142C75.1557 72.8599 74.8844 72.687 74.6674 72.4767C72.7984 70.7817 70.9245 69.092 69.0458 67.4077C68.5847 66.9986 68.1134 66.585 67.6319 66.1668ZM97.3575 97.1232C97.422 97.0591 97.48 96.9887 97.5304 96.913C95.105 94.4898 92.6683 92.0689 90.2202 89.6503C90.0337 89.457 89.6777 89.4366 89.4133 89.3417C89.5116 89.6367 89.5421 90.0063 89.7489 90.2063C90.6441 91.0879 91.5867 91.9287 92.5123 92.773C94.1296 94.2411 95.7503 95.6754 97.3575 97.1232ZM67.2589 66.9975L67.2148 67.0212L68.9102 68.9064C70.5309 70.6899 72.1414 72.4937 73.7859 74.2534C74.0232 74.5043 74.4233 74.5993 74.7454 74.7688L74.837 74.5111C72.3143 72.002 69.7782 69.4964 67.2589 66.9975ZM62.8443 73.26C66.2316 74.6433 69.6154 76.0335 73.2162 77.5152C72.8162 76.4675 65.5467 73.5651 62.8443 73.26ZM90.071 74.5518C90.1999 74.6874 90.3355 74.823 90.4779 74.9587C93.1565 72.3954 95.4723 69.4896 98.0051 66.7907C98.0752 66.8539 98.1407 66.9206 98.2018 66.9907C95.4825 69.5099 92.7835 72.0224 90.071 74.5518ZM92.4818 78.9359C92.5315 79.0285 92.5767 79.1212 92.6174 79.2139C93.8957 79.1291 95.1841 79.1291 96.4454 78.9359C97.388 78.8002 98.3035 78.4307 99.2291 78.1459C100.101 77.8814 100.945 77.5728 101.816 77.3253C102.328 77.1829 102.867 77.1287 103.403 77.0473C103.36 76.8958 103.322 76.7455 103.288 76.5963C102.23 76.8676 101.111 77.0032 100.124 77.4237C98.6324 78.0713 97.1608 78.6036 95.496 78.4002C94.9189 78.3275 94.3343 78.3378 93.76 78.4307C93.3193 78.5019 92.9056 78.7562 92.4818 78.9359ZM87.6162 72.6395L88.0129 72.8327C88.4063 72.3072 88.7351 71.7071 89.2064 71.2493C90.6881 69.832 91.7358 68.2486 92.2919 66.2075C92.6208 65.0411 93.5329 63.9357 94.7433 63.2305C94.3975 63.2814 93.9499 63.3356 93.7634 63.5933C93.0955 64.4715 92.3801 65.3598 91.9427 66.3668C91.3222 67.7841 90.739 69.1743 89.4472 70.144C88.9909 70.505 88.5829 70.9232 88.2333 71.3883C87.9621 71.7545 87.8129 72.219 87.6162 72.6395ZM74.1046 61.9827C74.0359 62.017 73.9645 62.0454 73.891 62.0675C75.0641 65.3259 76.2271 68.5809 77.4342 71.8223C77.5122 72.036 77.8648 72.1444 78.075 72.3174L78.3022 72.1072L74.1046 61.9827ZM72.7246 78.295C72.7404 78.1481 72.7596 78.0001 72.7823 77.8509C69.5657 76.5285 66.3491 75.2028 63.1325 73.8737C65.9705 75.4978 68.9034 76.9049 71.8464 78.2747C72.0973 78.3934 72.4296 78.295 72.7246 78.295ZM74.0673 101.958C74.1588 101.575 74.2402 101.08 74.4233 100.622C75.5592 97.7437 76.7222 94.882 77.875 92.0033C77.9936 91.688 78.0682 91.3625 78.2276 90.8539C77.0951 91.5626 73.7757 100.982 74.0673 101.958ZM102.423 73.8974L102.281 73.677L92.1902 77.9967C92.2783 78.1775 92.3609 78.3629 92.4377 78.5527C95.8283 77.1524 99.0901 75.43 102.423 73.8974ZM101.874 89.3553L101.945 89.1654C99.0336 87.7707 96.1222 86.3885 93.2108 85.0187C92.9327 84.8898 92.5564 84.9949 92.2241 84.9949L92.1529 85.3408C95.3943 86.688 98.6346 88.0261 101.874 89.3553ZM86.7787 72.1885C87.6942 71.8902 90.9357 63.4339 91.0272 61.5996L86.7787 72.1885ZM63.0105 89.1756C63.0557 89.2524 63.1031 89.3281 63.1529 89.4027C66.3536 88.0352 69.5532 86.6642 72.7517 85.2899C72.6704 85.1226 72.5969 84.9508 72.5313 84.7745C69.2662 86.0392 66.2078 87.7685 63.0105 89.1756ZM92.9293 82.9538L92.9666 83.1267C94.3297 83.6251 95.6724 84.1981 97.0659 84.6186C97.7203 84.8118 98.4798 84.8186 99.1647 84.7237C101.03 84.4829 102.691 84.9644 104.356 85.7815C104.159 85.4967 103.949 85.1407 103.664 85.0593C102.599 84.7745 101.491 84.3609 100.419 84.4117C98.707 84.4795 97.1066 84.4049 95.5842 83.5471C95.0695 83.2867 94.5238 83.093 93.9601 82.9707C93.6312 82.8826 93.2752 82.9538 92.9293 82.9538ZM96.8455 95.0142C96.8279 95.051 96.8038 95.0843 96.7743 95.1125C94.862 93.0138 92.9632 90.9014 91.034 88.8094C90.8475 88.6059 90.5152 88.5517 90.2508 88.4228C90.2304 88.4839 90.2067 88.5212 90.1931 88.5754C92.4004 90.7251 94.6314 92.8713 96.8455 95.0142ZM101.877 85.1305C100.185 85.1305 98.629 85.3102 97.1303 85.0729C95.6181 84.8389 94.289 83.6861 92.4886 83.9642C92.6344 84.2456 92.7022 84.544 92.8141 84.5507C95.7639 84.8457 98.5781 86.5682 101.877 85.1305ZM72.3211 79.5055L72.5313 79.024C72.1753 78.8511 71.8397 78.6239 71.4599 78.529C70.6089 78.329 69.6697 78.3662 68.883 78.0238C67.1436 77.2507 65.4924 77.5661 63.7462 78.2272C66.8453 77.0744 69.4391 79.2342 72.3211 79.5055ZM71.6803 65.3293C71.5967 65.3881 71.5187 65.448 71.4463 65.509C72.0024 66.0786 72.4907 66.7195 73.1179 67.1941C74.0503 67.879 74.681 68.7267 75.1252 69.8117C75.4744 70.6831 75.9525 71.5104 76.4373 72.3174C76.5662 72.5276 76.9527 72.5751 77.2172 72.687C77.1494 72.3886 77.1629 72.0258 77.007 71.802C75.3591 69.5371 74.1927 66.8856 71.6803 65.3293ZM80.1908 91.6745C78.9837 92.3661 78.2412 98.0353 79.004 100.351C79.0685 98.9304 78.8752 97.4555 79.1159 96.0721C79.3838 94.6345 80.3772 93.3664 80.1908 91.6745ZM91.0577 87.4836C90.9311 87.6306 90.8057 87.7831 90.6814 87.9414C91.8443 88.8331 92.9429 89.8469 94.2008 90.5962C95.5096 91.3795 96.971 91.9118 98.3713 92.5526L98.5578 92.1458C98.0695 91.9321 97.6152 91.6033 97.1134 91.5083C95.6351 91.2438 94.506 90.4708 93.4854 89.396C92.7937 88.6568 91.8816 88.1075 91.0577 87.4836ZM86.4465 100.887C86.3244 100.412 86.3176 99.6865 85.9684 99.2016C84.8664 97.6657 84.6969 95.967 84.7478 94.153C84.7613 93.3867 84.4901 92.6238 84.3104 91.6405C83.9747 91.9694 83.7916 92.0678 83.8052 92.1356C84.446 95.1634 84.212 98.4421 86.4465 100.887ZM78.9566 102.897C79.056 102.913 79.1532 102.935 79.2482 102.962C79.4414 101.894 79.8653 100.812 79.7771 99.7713C79.6042 97.8386 79.8042 96.0585 80.74 94.3496C80.9604 93.9428 81.0893 93.4579 81.1808 93.0036C81.2419 92.695 81.1401 92.3526 81.1164 92.0237C80.4247 93.6512 79.5601 95.238 79.4753 96.8757C79.3702 98.8524 79.5262 100.836 78.8684 102.765C78.8583 102.789 78.9328 102.857 78.9566 102.897ZM78.5768 62.2743C78.6921 62.7321 78.6921 63.5221 79.0719 64.0578C80.1501 65.6141 80.323 67.3128 80.2755 69.12C80.262 69.8863 80.5332 70.6458 80.679 71.4053C80.8214 71.446 80.9559 71.481 81.0825 71.5104C81.1435 71.385 81.2419 71.2493 81.2181 71.134C80.6248 68.0282 80.6688 64.7393 78.5768 62.2743ZM66.4926 71.1849C67.086 71.3985 67.7065 71.5613 68.2693 71.8427C69.2424 72.3411 70.2054 72.8633 71.1208 73.4736C71.8973 74.0025 72.5652 74.701 73.318 75.274C73.5248 75.4232 73.8978 75.3791 74.1894 75.4232C73.9961 75.1452 73.8605 74.8027 73.6028 74.6196C73.1111 74.267 72.4466 74.1042 72.0533 73.6838C70.5512 72.0902 68.7237 71.1985 66.4926 71.1849ZM92.7463 79.8581L92.8514 80.3599C95.9436 79.7564 99.2223 79.909 101.823 77.6813C101.267 77.8373 100.531 77.8949 100.009 78.251C98.6188 79.2376 97.1168 79.4648 95.4689 79.4377C94.5602 79.4207 93.6448 79.7055 92.7463 79.8581ZM88.4537 73.1413C88.6199 73.2634 88.7996 73.3752 88.9521 73.4973C90.2304 70.8187 93.2006 69.1132 93.065 65.5395C92.831 66.0888 92.5021 66.5499 92.4241 67.0551C92.1766 68.5877 91.3561 69.7235 90.2609 70.7746C89.5523 71.4562 89.0471 72.3513 88.4537 73.1413ZM63.3021 85.5374C63.7191 85.4154 64.3871 85.3882 64.8516 85.0661C66.296 84.0591 67.8523 83.7709 69.5747 83.8218C70.4529 83.8523 71.3514 83.5302 72.2431 83.364C72.1923 83.2013 72.1685 83.0487 72.1245 82.8859C69.0661 83.5742 65.7603 83.303 63.3021 85.5374ZM76.5187 90.1148L76.0135 89.7859C74.7929 92.4645 71.8159 94.1564 71.9515 97.7199C72.1787 97.2079 72.4805 96.8011 72.5517 96.3637C72.7924 94.6955 73.7079 93.4613 74.8912 92.3254C75.549 91.6948 75.983 90.8607 76.5187 90.1148ZM76.0779 73.4261C76.1797 73.3493 76.2825 73.2667 76.3865 73.1786C74.7556 71.4934 74.9522 68.6284 72.6398 67.4654C73.1891 68.3978 73.8198 69.3777 74.3623 70.3983C74.7115 71.0527 74.8946 71.7918 75.2404 72.4462C75.4269 72.8192 75.7863 73.104 76.0779 73.4261ZM83.6323 71.1917C83.8052 71.2459 83.9883 71.2832 84.1748 71.3443C84.2121 69.0352 86.2295 67.167 85.5954 65.0038C85.2055 66.1397 84.724 67.4993 84.2866 68.8657C84.0391 69.6286 83.8526 70.4118 83.6323 71.1917ZM68.544 91.2438C69.6459 90.6878 70.8089 90.108 71.9685 89.5146C72.5483 89.223 73.1349 88.9586 73.6774 88.6059C73.8842 88.4805 73.9859 88.1787 74.1283 87.9583L73.9283 87.7651C72.3923 89.4163 69.6629 89.2162 68.5406 91.2438M90.7356 75.118C90.8351 75.2559 90.9345 75.3893 91.034 75.5181C92.5564 73.8567 95.2621 74.0398 96.3776 72.1716C95.1129 72.7582 93.6549 73.4125 92.2343 74.128C91.6985 74.389 91.2272 74.7824 90.7356 75.118ZM92.2105 95.6652C91.668 94.7362 91.1289 93.858 90.6542 92.9358C90.2914 92.2441 90.071 91.4778 89.715 90.7929C89.5353 90.4572 89.1725 90.2131 88.9013 89.9283L88.6436 90.1419C90.2643 91.7219 90.071 94.4276 92.2105 95.6652ZM68.0761 92.0949C66.7402 92.8578 65.6924 93.8987 64.1734 94.0275C65.0618 94.5768 66.7775 93.7427 68.0761 92.0949ZM93.6855 96.6485L93.421 96.8011C93.8708 97.5809 94.3161 98.3664 94.7569 99.1576C94.862 99.0863 94.9705 99.0287 95.079 98.9541C94.6111 98.1912 94.15 97.4114 93.6855 96.6485ZM70.263 64.0578C70.159 64.1256 70.0539 64.19 69.9477 64.2511L71.3175 66.6279L71.5887 66.4855L70.263 64.0578Z" fill="#7B4022"/>
<path fill-rule="evenodd" clip-rule="evenodd" d="M80.255 90.4012C80.6178 90.7878 80.8653 91.0421 81.106 91.2963C76.8067 91.2896 72.7007 86.7461 72.6091 81.9111C72.5176 76.6082 76.6067 72.0885 81.7333 71.8274C87.2668 71.5629 91.8645 75.513 92.2781 80.8905C92.6579 85.868 88.9079 90.781 84.2763 91.2285C84.4255 90.9573 84.5374 90.7233 84.6899 90.4317C82.6793 91.1607 82.6793 91.1607 80.255 90.4012ZM84.3916 82.7045C84.3554 82.8062 84.3147 82.9091 84.2695 83.013C84.3543 83.0571 84.4594 83.091 84.5136 83.1555C84.7238 83.4041 84.9295 83.6573 85.1307 83.915C84.8289 83.9726 84.5136 84.0506 84.2017 84.0947C84.0288 84.1218 83.7745 84.0234 83.6761 84.1082C82.7674 84.9423 81.9537 84.6711 81.1264 84.1726C80.7195 84.1161 80.3126 84.054 79.9058 83.9862L80.6788 82.7316C80.2787 82.8435 79.804 82.8537 79.5633 83.0876C79.3497 83.2877 79.2344 83.8438 79.37 84.0709C79.5565 84.393 79.9837 84.627 80.3567 84.7728C80.6347 84.8779 80.9704 84.7931 81.2823 84.7931L81.3468 85.0779C80.9636 85.1932 80.5703 85.417 80.1906 85.4C79.6176 85.3797 79.0683 85.4 79.0683 86.0782C79.0751 86.6512 79.4921 87.0343 80.16 87.0343C81.7401 87.0208 83.3201 87.0275 84.8934 87.0208C85.0222 87.0208 85.2155 87.0411 85.2867 86.9631C85.5342 86.6546 85.836 86.3325 85.9343 85.9765C85.958 85.8476 85.463 85.4882 85.1612 85.3967C84.6255 85.2475 84.0627 85.2102 83.5134 85.1356L83.5202 84.8474C83.8524 84.8203 84.1983 84.8575 84.5136 84.766C84.8968 84.6439 85.3986 84.5015 85.5986 84.2065C85.7546 83.9522 85.6902 83.3589 85.4833 83.108C85.2595 82.8469 84.7713 82.8266 84.3916 82.7045ZM76.5795 77.7576C79.743 76.876 81.0314 77.0795 81.1501 78.4798C79.5158 77.8017 77.9528 77.5609 76.5321 79.0562C77.9731 80.5311 79.5701 80.2632 81.2179 79.7275C80.1024 80.7413 78.7733 80.6972 77.3899 80.6227C77.9968 80.9075 78.6377 81.1618 79.2683 81.1414C79.9091 81.1211 80.5398 80.8057 81.2688 80.5989V82.7045C81.8893 81.6704 82.0452 78.4798 81.5604 77.6423C81.4634 77.4614 81.3266 77.3049 81.1603 77.1846C80.0855 76.32 77.4509 76.286 76.5795 77.7576ZM88.4535 79.0528C87.0261 77.5406 85.4393 77.8254 83.6863 78.5103C83.9779 77.1812 84.9849 77.232 85.7715 77.2253C86.6056 77.2253 87.4397 77.5033 88.5078 77.7067C87.3685 76.598 86.2428 76.3979 84.9713 76.6895C83.6626 76.9913 83.2014 77.4762 83.1709 78.7815C83.1438 79.8326 83.232 80.8973 83.293 81.9484C83.3099 82.1688 83.4591 82.3926 83.5507 82.6096L83.7779 82.5655V80.5175C85.1273 81.1414 86.3615 81.5619 87.8398 80.4057C86.2123 80.721 84.89 80.721 83.7779 79.7275C85.4257 80.3005 86.9955 80.5108 88.4535 79.0528ZM80.8823 88.8144H84.1678C83.71 88.5974 83.371 88.4245 83.0353 88.2583C83.033 88.1702 83.0274 88.0877 83.0184 88.0108C83.5982 88.0108 84.1678 87.96 84.734 88.0176C85.463 88.1092 85.7105 88.0007 85.9207 87.4175H79.0717C79.4345 87.6955 79.8854 87.9159 80.3499 87.9803C80.9467 88.0515 81.5502 87.9939 82.1504 87.9939C82.1526 88.082 82.1481 88.1702 82.1368 88.2583C81.7536 88.4245 81.3705 88.6042 80.889 88.8144M72.9516 86.7054L62.8984 90.269L62.8136 90.0622C66.1839 88.6245 69.5406 87.1835 73.1618 85.6408C73.0465 86.1528 72.9821 86.4376 72.9346 86.7326L72.9516 86.7054ZM91.9425 85.79L102.311 90.0893C100.446 90.0045 92.2917 86.8716 91.7899 86.1562L91.9425 85.79ZM92.1798 76.4997L91.2915 76.3505L91.1796 75.9504C92.1493 75.3943 93.0885 74.723 94.1193 74.3093C95.3399 73.8143 96.2791 73.1056 97.0386 72.0444C97.4488 71.4883 98.0625 71.0679 98.6423 70.661C99.325 70.1637 100.089 69.7546 100.934 69.4336C100.565 69.7218 100.226 70.0575 99.8223 70.2711C98.7135 70.8712 97.9134 71.7189 97.181 72.7428C96.6792 73.4481 95.7942 73.8923 95.072 74.428C94.1091 75.14 93.1224 75.8419 92.1527 76.5403L92.1798 76.4997Z" fill="#FDD12E"/>
<path fill-rule="evenodd" clip-rule="evenodd" d="M92.1464 76.5326C95.4601 75.3685 98.7762 74.21 102.094 73.0572C102.111 73.1217 102.145 73.1793 102.162 73.2437L92.4278 77.3803C92.2786 77.4379 92.065 77.3701 91.8785 77.3633L92.1803 76.4987L92.1464 76.5326ZM82.7916 103.217V92.0549C82.8685 92.0233 82.9465 91.9882 83.0256 91.9498C83.1782 92.1905 83.463 92.4381 83.446 92.6652C83.3138 96.1847 83.1273 99.7109 82.9442 103.23L82.7916 103.217ZM82.7713 71.3924V60.139L82.9137 60.1254C83.0256 62.0174 83.1544 63.9093 83.2494 65.7945C83.5071 70.8838 83.5071 70.8838 82.7713 71.3924ZM90.2612 62.2581C88.9456 65.5063 87.6402 68.7715 86.284 72.1113C85.4702 71.5315 85.8398 70.9754 86.0704 70.5109C87.0638 68.3375 88.1081 66.2014 89.1321 64.0483C89.4373 63.4132 89.7447 62.7825 90.0544 62.1564C90.1222 62.1858 90.1911 62.2197 90.2612 62.2581ZM82.1779 91.8006V103.217C81.571 100.803 81.4218 92.5567 82.1779 91.8006ZM92.7228 81.0727C93.0449 80.9404 93.3704 80.659 93.6857 80.676C97.1103 80.8319 100.535 81.032 103.925 81.3982H92.8415L92.7092 81.0727M104.041 82.0458C100.294 82.2526 96.5576 82.6595 92.8143 82.5815L92.8075 82.0458H104.041ZM60.9628 81.8017C64.4043 81.8017 67.8356 81.7949 71.2737 81.8254C71.5382 81.8322 71.8162 82.0661 72.0874 82.195C71.7857 82.3509 71.4771 82.6459 71.1787 82.6391C69.4122 82.5951 67.6491 82.4798 65.886 82.3815C64.2348 82.2967 62.5903 82.1882 60.9492 82.0966C60.9605 81.9994 60.9651 81.9011 60.9628 81.8017ZM82.1779 60.1152V71.2772C82.0762 71.3065 81.9756 71.3393 81.8762 71.3755C81.7473 71.0534 81.493 70.7279 81.4998 70.4261C81.6693 66.9903 81.8502 63.5657 82.0423 60.1525L82.1779 60.122M61.3256 81.2592C63.0921 80.8184 71.4703 80.6116 72.3044 81.2592H61.3256ZM97.3544 66.3947C95.1731 68.6189 92.9963 70.8432 90.824 73.0674C90.5392 73.3522 90.2747 73.6675 89.9628 73.9252C89.8407 74.0236 89.6238 74.0168 89.4474 74.0575C89.4339 73.8812 89.383 73.6879 89.4203 73.5184C89.4767 73.3558 89.5778 73.2124 89.7119 73.1047C92.2119 70.8172 94.7108 68.5341 97.2086 66.2556L97.3544 66.4014M85.8398 92.6483V91.37C85.9754 91.3451 86.1111 91.3259 86.2467 91.3124L90.468 101.474C90.39 101.501 90.3188 101.545 90.2476 101.572C89.5763 100.189 88.9253 98.7955 88.2472 97.4155C87.447 95.8015 86.6298 94.2113 85.8195 92.611L85.8398 92.6483ZM67.4796 97.4257C67.6389 97.1408 67.7373 96.8052 67.9543 96.5848C70.1514 94.3063 72.3621 92.0346 74.5863 89.8035C74.8135 89.5764 75.2272 89.5323 75.5594 89.3899C75.4069 89.7323 75.3458 90.1629 75.1017 90.3867C72.7011 92.594 70.2667 94.781 67.8492 96.9713C67.7 97.1002 67.6016 97.2697 67.4796 97.4257V97.4358ZM84.5988 71.4704C84.8904 70.4058 85.0939 69.3208 85.5075 68.3137C85.9924 67.1474 86.1551 66.0115 86.0127 64.7468C85.9212 63.8686 86.1246 62.943 86.2535 62.0479C86.345 61.3698 86.5247 60.7018 86.6976 59.8711C86.796 60.0779 86.9621 60.2542 86.9316 60.3831C86.4061 62.1971 86.2196 64.0246 86.6671 65.903C86.7688 66.3167 86.4976 66.8219 86.3891 67.2796C86.1111 68.4595 85.8466 69.6429 85.555 70.816C85.4702 71.1144 85.277 71.3857 85.1278 71.6705L84.5988 71.4704ZM79.1264 70.694V71.9044L78.7195 71.9892C77.3746 68.7455 76.0273 65.5041 74.6779 62.2649C74.7513 62.2227 74.8285 62.1875 74.9084 62.1598C75.5459 63.4719 76.163 64.8011 76.8174 66.1132C77.5802 67.656 78.3669 69.1919 79.1433 70.7177L79.1264 70.694Z" fill="#FDD12E"/>
<path fill-rule="evenodd" clip-rule="evenodd" d="M67.4793 97.4171C67.2623 97.3832 67.0396 97.3549 66.8113 97.3323C66.991 96.1592 73.857 88.6693 74.9726 88.5845C74.5725 89.0592 74.2809 89.4423 73.9418 89.7848L67.6454 96.1965C67.2996 96.5525 66.7876 96.9119 67.4793 97.4239V97.4171ZM79.0922 91.3614C79.0922 91.7005 79.2074 92.0972 79.0786 92.3684C77.7834 95.1759 76.4509 97.9596 75.1285 100.747L74.8946 100.648C76.1378 97.5403 77.3855 94.4311 78.6378 91.3207C78.787 91.3275 78.9385 91.3411 79.0922 91.3614ZM70.2223 99.7905C70.4461 99.7702 70.775 99.8075 70.8597 99.6922C71.6972 98.4716 72.8263 97.4713 73.1925 95.9015C73.4162 94.9453 74.1249 94.0739 74.7352 93.2398C75.4235 92.2905 76.244 91.4258 77.2239 90.5612C77.1798 90.8596 77.2239 91.2326 77.0646 91.4598C76.6441 92.026 76.2033 92.6193 75.6541 93.0533C74.3588 94.0705 73.7112 95.4404 73.067 96.8983C72.6093 97.9562 71.8091 98.8818 71.1038 99.8109C70.9445 100.024 70.5173 100.028 70.2223 100.14V99.7905ZM67.6183 66.1894C68.0975 66.6031 68.5677 67.0167 69.0288 67.4304C70.9072 69.1144 72.7811 70.8041 74.6504 72.4994C74.8674 72.7096 75.1421 72.8791 75.3116 73.1368C75.454 73.3572 75.4778 73.659 75.5625 73.9167C75.3116 73.8319 74.9963 73.8149 74.8268 73.6522C73.162 72.0281 71.5345 70.3802 69.8832 68.746C69.077 67.9537 68.2609 67.1715 67.4352 66.3996C67.4962 66.3251 67.5674 66.2572 67.6183 66.1894ZM97.3439 97.1458C95.7367 95.6946 94.116 94.2604 92.4953 92.799C91.5697 91.9548 90.6237 91.1139 89.7319 90.2323C89.5251 90.0323 89.498 89.6627 89.3963 89.3677C89.6607 89.4593 90.0201 89.483 90.2032 89.6763C92.6535 92.0949 95.0903 94.5158 97.5134 96.939C97.4639 97.0134 97.4071 97.0826 97.3439 97.1458ZM67.2453 67.0201L74.8234 74.5337C74.7895 74.6196 74.7589 74.7055 74.7318 74.7914C74.4063 74.6185 74.0096 74.527 73.7723 74.2761C72.1312 72.5129 70.5173 70.7125 68.8966 68.929C68.3235 68.2984 67.7675 67.6711 67.2012 67.0439L67.2453 67.0201ZM62.8307 73.2758C65.533 73.581 72.7992 76.48 73.2026 77.5311C69.6018 76.0528 66.218 74.6592 62.8307 73.2758ZM90.0473 74.5744L98.1746 67.0133L97.9779 66.8133C95.4451 69.5122 93.1293 72.418 90.4507 74.9813L90.0473 74.5744ZM92.4512 78.9585C92.875 78.7788 93.2853 78.5245 93.7295 78.4533C94.3044 78.3688 94.8879 78.3585 95.4655 78.4228C97.1303 78.6262 98.6018 78.0939 100.094 77.4463C101.08 77.0259 102.199 76.8902 103.257 76.619L103.372 77.0699C102.837 77.1513 102.301 77.2056 101.786 77.348C100.914 77.5955 100.07 77.904 99.1986 78.1685C98.2729 78.4533 97.3574 78.8229 96.4149 78.9585C95.1535 79.1518 93.8651 79.1518 92.5868 79.2366C92.5459 79.1419 92.5006 79.0491 92.4512 78.9585ZM87.5925 72.6655C87.7925 72.2451 87.9417 71.7806 88.2062 71.4178C88.5554 70.9499 88.9724 70.5159 89.42 70.1734C90.7118 69.2037 91.2984 67.8135 91.9155 66.3963C92.3529 65.3892 93.0683 64.4975 93.7363 63.6227C93.9228 63.365 94.3737 63.3074 94.7162 63.2599C93.5091 63.9652 92.5936 65.0705 92.2647 66.2369C91.7087 68.2814 90.6576 69.8615 89.1793 71.2788C88.708 71.7365 88.3825 72.3366 87.9858 72.8622C87.8568 72.7924 87.7257 72.7268 87.5925 72.6655ZM74.0808 62.0054L78.2784 72.1298L78.0512 72.34C77.8376 72.1671 77.4884 72.062 77.4104 71.845C76.2067 68.6035 75.0404 65.3486 73.8672 62.0902C73.9407 62.068 74.0121 62.0396 74.0808 62.0054ZM72.7008 78.3177C72.4058 78.3177 72.0702 78.416 71.8227 78.2973C68.8796 76.9275 65.9467 75.5204 63.1088 73.8963C66.3231 75.2254 69.5396 76.5512 72.7585 77.8735C72.7359 78.0227 72.7167 78.1708 72.7008 78.3177ZM74.0435 101.981C73.7519 101.004 77.0747 91.5852 78.2038 90.88C78.0445 91.3852 77.9733 91.7141 77.8512 92.0294C76.6984 94.908 75.5354 97.7697 74.3995 100.648C74.2164 101.103 74.1351 101.598 74.0435 101.981ZM102.386 73.92C99.0528 75.4526 95.7978 77.1751 92.4038 78.5754C92.3269 78.3855 92.2444 78.2002 92.1562 78.0193C95.5265 76.5749 98.8798 75.1373 102.247 73.6997L102.386 73.92ZM79.16 70.7159C79.3702 68.3391 79.4041 66.0165 78.1767 63.799C77.719 62.948 77.719 61.8494 77.4477 60.6152C77.841 60.8424 77.9427 60.8627 77.9427 60.9C78.1055 62.7344 78.5056 64.4941 79.5262 66.0911C79.7906 66.5047 79.7771 67.1354 79.7906 67.6677C79.8211 68.9494 79.7974 70.2344 79.7974 71.5127L79.16 70.7159ZM85.8395 92.6126C85.6293 94.9521 85.531 97.2747 86.7957 99.4277C87.3449 100.353 87.4873 101.435 87.3212 102.34C86.6668 100.506 85.8022 98.6174 85.3377 96.6271C84.9817 95.0776 85.1173 93.4195 85.0224 91.5479L85.8497 92.6397C85.8598 92.6499 85.8395 92.6126 85.8395 92.6126ZM87.5552 91.2055L90.8881 100.689L90.6745 100.76C89.3477 97.5459 88.0174 94.335 86.6838 91.1275C86.7584 91.0687 86.833 91.0133 86.9076 90.9613C87.1313 91.0517 87.3529 91.1456 87.5721 91.2427L87.5552 91.2055ZM101.843 89.3813C98.6041 88.0499 95.3649 86.7118 92.1257 85.3668L92.1969 85.021C92.5292 85.021 92.9056 84.9158 93.1836 85.0447C96.0961 86.4077 99.0053 87.8013 101.918 89.1914L101.843 89.3813ZM86.755 72.2112L91.0034 61.6223C90.9085 63.4566 87.667 71.9128 86.755 72.2112Z" fill="#FDD12E"/>
<path fill-rule="evenodd" clip-rule="evenodd" d="M87.5761 91.2432C87.6676 90.9787 87.749 90.7075 87.8846 90.2836C89.268 91.4365 89.485 93.0538 90.3055 94.2846C91.1023 95.4916 92.306 96.4512 93.2622 97.5701C91.9127 96.5936 90.3733 95.9019 89.6478 94.1795C89.19 93.0877 88.2712 92.1993 87.5591 91.2228L87.5761 91.25M62.9907 89.202C66.188 87.7949 69.2464 86.0657 72.5115 84.801C72.5794 84.9818 72.6528 85.1536 72.7319 85.3164C69.5312 86.6907 66.3316 88.0616 63.1331 89.4292L62.9907 89.202ZM92.9265 82.9734C93.2723 82.9734 93.6283 82.9023 93.9572 82.9904C94.5133 83.126 95.0761 83.2956 95.5813 83.5668C97.1037 84.4246 98.7041 84.4958 100.416 84.4314C101.488 84.3806 102.597 84.7942 103.661 85.079C103.946 85.157 104.156 85.5164 104.353 85.8012C102.688 84.9875 101.027 84.5026 99.1618 84.7434C98.4621 84.8454 97.7491 84.8097 97.063 84.6383C95.6695 84.2178 94.3268 83.6448 92.9638 83.1464L92.9265 82.9734ZM96.8257 95.0407C94.615 92.8978 92.3806 90.7482 90.1699 88.6019C90.1835 88.5476 90.2072 88.5103 90.2276 88.4493C90.492 88.5782 90.8277 88.6358 91.0108 88.8358C92.94 90.9279 94.8388 93.0402 96.7511 95.139C96.7818 95.1111 96.8071 95.0778 96.8257 95.0407Z" fill="#FDD12E"/>
<path fill-rule="evenodd" clip-rule="evenodd" d="M101.843 85.1587C98.5444 86.5963 95.7302 84.8739 92.7769 84.5789C92.6684 84.5721 92.5972 84.2737 92.4514 83.9923C94.2519 83.7143 95.581 84.8671 97.0932 85.101C98.5953 85.3384 100.152 85.1587 101.843 85.1587ZM72.3111 79.5506C69.4257 79.2793 66.8353 77.1195 63.7362 78.2723C65.4655 77.6145 67.1269 77.2992 68.873 78.0689C69.6563 78.4147 70.5989 78.3774 71.4499 78.5741C71.8297 78.6656 72.1653 78.8962 72.5213 79.0691C72.4468 79.2296 72.3767 79.3901 72.3111 79.5506ZM72.9316 86.7387C73.1825 86.837 73.4368 86.9455 73.7894 87.0879C72.6807 88.3459 71.1956 88.668 69.9919 89.4241C68.8324 90.1463 67.9406 91.272 66.876 92.1739C67.6049 90.8176 68.395 89.5868 69.9309 88.8748C71.0295 88.3594 71.9449 87.444 72.952 86.7082L72.9316 86.7387ZM71.6669 65.3574C74.1794 66.9137 75.3457 69.5618 76.9936 71.8335C77.1495 72.0539 77.136 72.4201 77.2038 72.7185C76.9393 72.6066 76.5528 72.5557 76.424 72.3489C75.9175 71.5517 75.4786 70.7135 75.1118 69.8432C74.712 68.7938 74.0143 67.884 73.1045 67.2257C72.4739 66.751 71.989 66.1101 71.433 65.5405L71.6669 65.3574ZM80.1706 91.7026C80.3571 93.3945 79.3636 94.6626 79.0992 96.1002C78.8584 97.4836 79.0483 98.9585 78.9873 100.379C78.221 98.0634 78.9635 92.3943 80.1706 91.7026ZM91.0376 87.5118C91.8581 88.139 92.7735 88.6883 93.4652 89.4241C94.4892 90.4989 95.6183 91.272 97.0932 91.5364C97.5916 91.628 98.0494 91.9569 98.5376 92.1739L98.3511 92.5807C96.9508 91.9399 95.4861 91.4076 94.1807 90.6244C92.9227 89.8716 91.8242 88.8578 90.6612 87.9695C90.7855 87.809 90.911 87.6564 91.0376 87.5118ZM86.4263 100.915C84.1919 98.4703 84.4258 95.1915 83.785 92.1603C83.7714 92.0925 83.9579 91.9942 84.2902 91.6653C84.4699 92.6486 84.7412 93.4148 84.7276 94.1777C84.6767 95.9917 84.8463 97.6904 85.9482 99.2264C86.2975 99.7112 86.3042 100.44 86.4263 100.915Z" fill="#FDD12E"/>
<path fill-rule="evenodd" clip-rule="evenodd" d="M78.9233 102.912C78.8996 102.868 78.825 102.803 78.8385 102.776C79.4929 100.847 79.337 98.8633 79.4455 96.8865C79.5302 95.2523 80.3948 93.6654 81.0865 92.0346C81.1103 92.3634 81.2086 92.7059 81.1509 93.0144C81.0722 93.4827 80.9236 93.9364 80.7102 94.3605C79.7744 96.0694 79.5743 97.8461 79.7472 99.7821C79.832 100.826 79.4082 101.905 79.2183 102.973C79.1211 102.95 79.0228 102.93 78.9233 102.912ZM78.5503 62.292C80.6424 64.757 80.5983 68.0459 81.1916 71.1517C81.2154 71.267 81.117 71.4026 81.056 71.5281L80.6525 71.4229C80.5067 70.6634 80.2355 69.9039 80.249 69.1377C80.2965 67.3305 80.1236 65.6318 79.0454 64.0755C78.6656 63.5397 78.6656 62.7497 78.5503 62.292ZM66.4729 71.2127C68.7006 71.2263 70.5281 72.1214 72.0369 73.7116C72.4303 74.1321 73.0982 74.2982 73.5865 74.6474C73.8442 74.8339 73.9798 75.173 74.173 75.451C73.8815 75.4069 73.5085 75.451 73.3017 75.3018C72.5455 74.7288 71.881 74.0303 71.1045 73.5014C70.1878 72.9007 69.2356 72.356 68.253 71.8705C67.6902 71.5891 67.0663 71.4263 66.4729 71.2127ZM65.3269 85.589C66.0864 85.1787 66.7849 84.5345 67.5851 84.4023C69.1414 84.1446 70.7485 84.1717 72.5184 84.07C72.3082 84.3209 72.1895 84.5921 72.0132 84.643C71.4955 84.8074 70.956 84.8931 70.4128 84.8973C68.6667 84.8057 66.9544 84.8973 65.3133 85.5618L65.3269 85.589ZM92.7232 79.8893C93.6251 79.7334 94.5371 79.4486 95.4458 79.4689C97.0937 79.4994 98.5957 79.2688 99.9859 78.2822C100.508 77.9262 101.244 77.8685 101.8 77.7125C99.1992 79.9402 95.9239 79.7876 92.8283 80.3911C92.7898 80.2261 92.7548 80.0589 92.7232 79.8893ZM88.451 73.1759C89.0443 72.3859 89.5495 71.4908 90.2582 70.8126C91.3499 69.7615 92.1705 68.6257 92.4214 67.0931C92.4994 66.5879 92.8283 66.1268 93.0622 65.5775C93.1978 69.1512 90.2276 70.8567 88.9494 73.5353C88.7934 73.4099 88.6171 73.298 88.451 73.1759Z" fill="#FDD12E"/>
<path fill-rule="evenodd" clip-rule="evenodd" d="M63.282 85.5644C65.7402 83.3299 69.0461 83.6012 72.1044 82.9163C72.1485 83.079 72.1757 83.2316 72.2231 83.3944C71.3314 83.5605 70.4329 83.8826 69.5547 83.8521C67.8323 83.8012 66.276 84.0894 64.8316 85.0964C64.367 85.4152 63.6991 85.4423 63.282 85.5644ZM76.4987 90.1281C75.963 90.8741 75.529 91.7082 74.8712 92.3354C73.6845 93.4713 72.7724 94.7055 72.5317 96.3737C72.4605 96.8111 72.1621 97.2179 71.9315 97.7299C71.7959 94.1664 74.7729 92.4745 75.9935 89.7959C76.1698 89.9089 76.3382 90.0196 76.4987 90.1281ZM67.6661 72.1409C69.141 72.4562 70.3244 73.2021 71.3246 74.3448C71.962 75.067 72.8165 75.6095 73.5082 76.4198C73.1725 76.3385 72.7826 76.3147 72.5181 76.1215C71.9993 75.7451 71.5755 75.2433 71.0737 74.8432C70.104 74.0769 69.097 73.3581 68.1171 72.6088C67.9543 72.4732 67.8187 72.2935 67.6831 72.1273L67.6661 72.1409ZM97.5884 91.1046C96.19 90.9875 94.8935 90.3265 93.9774 89.2635C93.2111 88.4294 92.2685 87.7649 91.5056 86.7884C91.8921 86.9613 92.3193 87.0664 92.6482 87.3071C93.106 87.653 93.5773 88.0293 93.8994 88.5006C94.8149 89.8298 96.2627 90.3723 97.5613 91.1284L97.5884 91.1046ZM76.0579 73.453C75.7663 73.1309 75.4103 72.8461 75.217 72.4765C74.8712 71.8222 74.6881 71.083 74.3389 70.4286C73.7964 69.408 73.1657 68.4281 72.6164 67.4957C74.9322 68.6587 74.7322 71.5238 76.3631 73.2089L76.0579 73.453ZM83.6122 71.2186C83.8326 70.4422 84.0191 69.6555 84.2666 68.8893C84.704 67.5262 85.1855 66.1632 85.5754 65.0273C86.2128 67.1906 84.192 69.0588 84.1547 71.3678C83.9694 71.3136 83.7885 71.2638 83.6122 71.2186ZM68.5138 91.2708C69.6361 89.2432 72.3655 89.4432 73.9015 87.7954L74.1015 87.9887C73.9591 88.209 73.8574 88.5108 73.6506 88.6363C73.1081 88.9889 72.5215 89.2534 71.9417 89.5449C70.7787 90.1349 69.6123 90.7147 68.5138 91.2708ZM65.2588 78.9221C66.1505 78.8509 67.1067 78.5695 67.9408 78.7594C69.3411 79.0815 70.677 79.7087 72.057 80.3801C71.5992 80.336 71.1144 80.3903 70.6939 80.2377C69.8293 79.9529 69.0224 79.4612 68.151 79.2442C67.2084 79.0103 66.2183 79.0103 65.2588 78.9221ZM90.719 75.145C91.214 74.8093 91.6819 74.416 92.2176 74.1549C93.6383 73.4395 95.0963 72.7851 96.361 72.1985C95.2455 74.0701 92.5397 73.8837 91.0174 75.5451L90.719 75.145ZM92.1803 95.6854C90.0409 94.4512 90.2341 91.7421 88.61 90.1654L88.8677 89.9518C89.1389 90.2366 89.5051 90.4808 89.6814 90.8164C90.0375 91.5013 90.2579 92.2676 90.6206 92.9593C91.0987 93.8748 91.6378 94.7529 92.1803 95.6854Z" fill="#FDD12E"/>
<path fill-rule="evenodd" clip-rule="evenodd" d="M67.6829 72.1309C66.1843 72.3411 63.8549 70.4762 64.1567 69.4387C65.0043 70.6898 66.1639 71.6189 67.6592 72.1478L67.6829 72.1309ZM68.0729 92.1152C66.7742 93.763 65.0586 94.5971 64.1702 94.0614C65.6892 93.919 66.7403 92.8781 68.0729 92.1152ZM97.5577 91.1285C99.0564 91.3014 100.077 92.1661 100.843 93.3833C100.935 93.5121 100.874 93.7461 100.731 93.919C100.616 93.6545 100.565 93.2884 100.369 93.1426C99.4666 92.4305 98.5241 91.7795 97.5984 91.1048L97.5577 91.1285ZM65.3264 85.5645C64.2414 86.4664 62.97 86.5512 61.6646 86.4902L61.6137 86.2359L65.34 85.5882L65.3264 85.5645ZM65.2586 78.9223C63.8278 79.0443 62.4308 78.9901 61.2441 77.9661C62.5823 78.2894 63.9205 78.6081 65.2586 78.9223ZM93.6687 96.6722L95.0588 98.9812C94.9537 99.0524 94.8452 99.1101 94.7367 99.1847C94.2962 98.3965 93.8509 97.611 93.4008 96.8282L93.6687 96.6722ZM70.2462 64.0781L71.5754 66.5058L71.3041 66.6482L69.9343 64.2714L70.2462 64.0781Z" fill="#FDD12E"/>
<path fill-rule="evenodd" clip-rule="evenodd" d="M84.3913 82.7024C84.771 82.8244 85.2627 82.8482 85.483 83.1025C85.6933 83.3534 85.7543 83.9467 85.5983 84.201C85.3949 84.496 84.8965 84.6384 84.5133 84.7605C84.198 84.852 83.8522 84.8181 83.5199 84.8419L83.5131 85.1301C84.0624 85.2047 84.6252 85.242 85.1609 85.3911C85.4627 85.4827 85.9543 85.8421 85.934 85.9709C85.8357 86.3269 85.5339 86.6491 85.2864 86.9576C85.2152 87.0322 85.0219 87.0152 84.8931 87.0152C83.3164 87.022 81.7364 87.0152 80.1598 87.0288C79.4918 87.0288 79.0748 86.6457 79.068 86.0727C79.068 85.3945 79.6173 85.3742 80.1903 85.3945C80.5666 85.4115 80.9633 85.1877 81.3465 85.0724L81.2821 84.7876C80.9667 84.7876 80.6345 84.8724 80.3564 84.7673C79.9835 84.6215 79.5562 84.3875 79.3698 84.0654C79.2341 83.8382 79.346 83.2822 79.563 83.0821C79.8038 82.8482 80.2784 82.838 80.6785 82.7261L79.9055 83.9806C80.3124 84.0485 80.7192 84.1106 81.1261 84.1671C81.9534 84.6655 82.7672 84.9402 83.6758 84.1027C83.7742 84.0179 84.0285 84.1163 84.2014 84.0891C84.5167 84.0451 84.832 83.9671 85.1304 83.9094C84.93 83.6521 84.7242 83.3988 84.5133 83.1499C84.4557 83.0855 84.354 83.0516 84.2692 83.0075C84.3144 82.9058 84.3551 82.8041 84.3913 82.7024ZM81.099 85.7878V86.0896H83.9064V85.7878H81.099ZM76.5793 77.7622C77.4507 76.2907 80.0852 76.3246 81.1566 77.1892C81.3229 77.3096 81.4597 77.4661 81.5567 77.647C82.045 78.4844 81.8856 81.675 81.2651 82.7092V80.6036C80.5361 80.8138 79.9089 81.1257 79.2646 81.1461C78.634 81.1664 77.9932 80.9121 77.3862 80.6273C78.7696 80.7019 80.0987 80.746 81.2143 79.7322C79.5664 80.2679 77.9694 80.5324 76.5284 79.0608C77.9491 77.5656 79.5122 77.8063 81.1464 78.4844C81.0278 77.0807 79.7393 76.8807 76.5793 77.7622ZM79.875 79.0371C79.4918 78.7591 79.2273 78.4268 79.0612 78.481C78.8137 78.5522 78.6272 78.871 78.4204 79.088C78.634 79.2677 78.8442 79.5525 79.0612 79.5694C79.2714 79.583 79.4986 79.305 79.875 79.0371ZM88.4498 79.0575C86.9919 80.5154 85.422 80.3018 83.7742 79.7288C84.8863 80.7222 86.2086 80.7222 87.8361 80.4069C86.3544 81.5631 85.1236 81.1427 83.7742 80.5188V82.5667L83.547 82.6108C83.4555 82.3938 83.3063 82.17 83.2893 81.9497C83.2249 80.8986 83.1401 79.8339 83.1673 78.7828C83.1978 77.4774 83.6623 76.9926 84.9677 76.6908C86.2392 76.3992 87.3649 76.5992 88.5041 77.708C87.4394 77.5045 86.602 77.2265 85.7679 77.2265C84.9812 77.2333 83.9742 77.1824 83.6826 78.5116C85.4356 77.83 87.0224 77.5452 88.4498 79.0575ZM85.6628 79.9288L86.1137 79.6881C86.2493 79.4609 86.5341 79.2032 86.5002 79.01C86.446 78.7964 86.1307 78.6336 85.9272 78.4471C85.7272 78.6675 85.4085 78.8676 85.3644 79.1185C85.3237 79.366 85.5509 79.661 85.6628 79.9288ZM80.882 88.8191L82.1263 88.263C82.1376 88.1748 82.1422 88.0867 82.1399 87.9985C81.5398 87.9985 80.9362 88.0596 80.3395 87.985C79.8716 87.9121 79.4309 87.7181 79.0612 87.4221H85.9103C85.7 88.0053 85.4525 88.1138 84.7236 88.0223C84.1573 87.9646 83.5877 88.0155 83.0079 88.0155C83.0169 88.0923 83.0226 88.1748 83.0249 88.263C83.3605 88.4291 83.6996 88.6021 84.1573 88.8191H80.8752" fill="#7B4022"/>
<path fill-rule="evenodd" clip-rule="evenodd" d="M81.0993 85.7937H83.9067V86.0955H81.0993V85.7937ZM79.8752 79.0362C79.4989 79.3007 79.2683 79.5787 79.0615 79.5651C78.8445 79.5482 78.6343 79.2634 78.4207 79.0837C78.6309 78.8701 78.814 78.548 79.0615 78.4767C79.2276 78.4293 79.4921 78.7582 79.8752 79.0362ZM85.6698 79.9212C85.5579 79.6533 85.3274 79.3583 85.3714 79.1108C85.4155 78.8599 85.7342 78.6598 85.9343 78.4395C86.1377 78.6259 86.4531 78.7887 86.5073 79.0023C86.5412 79.199 86.2564 79.4533 86.1208 79.6804L85.6698 79.9212Z" fill="#FDD12E"/>
</g>
<rect x="4.1" y="4.1" width="155.8" height="155.8" rx="77.9" stroke="white" stroke-width="8.2"/>
<defs>
<clipPath id="clip0_497_779">
<rect width="164" height="164" rx="82" fill="white"/>
</clipPath>
</defs>
</svg>
