<svg width="164" height="164" viewBox="0 0 164 164" fill="none" xmlns="http://www.w3.org/2000/svg">
<rect width="164" height="164" rx="82" stroke="#DFA9A9"/>
<g clip-path="url(#clip0_497_894)">
<g clip-path="url(#clip1_497_894)">
<path d="M169.056 5.30371H4.94444C-1.27341 5.30371 -7.23659 7.77374 -11.6333 12.1704C-16.03 16.5671 -18.5 22.5303 -18.5 28.7482L-18.5 52.1926H192.5V28.7482C192.5 22.5303 190.03 16.5671 185.633 12.1704C181.237 7.77374 175.273 5.30371 169.056 5.30371Z" fill="#D90012"/>
<path d="M4.94444 157.693H169.056C175.273 157.693 181.237 155.223 185.633 150.826C190.03 146.429 192.5 140.466 192.5 134.248V110.804H-18.5V134.248C-18.5 140.466 -16.03 146.429 -11.6333 150.826C-7.23659 155.223 -1.27341 157.693 4.94444 157.693Z" fill="#F2A800"/>
<path d="M-18.5 52.1963H192.5V110.807H-18.5V52.1963Z" fill="#0033A0"/>
</g>
</g>
<rect x="4.1" y="4.1" width="155.8" height="155.8" rx="77.9" stroke="white" stroke-width="8.2"/>
<defs>
<clipPath id="clip0_497_894">
<rect width="164" height="164" rx="82" fill="white"/>
</clipPath>
<clipPath id="clip1_497_894">
<rect width="211" height="211" fill="white" transform="translate(-18.5 -24)"/>
</clipPath>
</defs>
</svg>
