<svg width="164" height="164" viewBox="0 0 164 164" fill="none" xmlns="http://www.w3.org/2000/svg">
<rect width="164" height="164" rx="82" stroke="#DFA9A9"/>
<g clip-path="url(#clip0_497_899)">
<path d="M-23 52.835H187V111.168H-23V52.835Z" fill="#EEEEEE"/>
<path d="M163.667 6.16504H0.333334C-5.85505 6.16504 -11.79 8.62336 -16.1658 12.9992C-20.5417 17.3751 -23 23.31 -23 29.4984L-23 52.8317H187V29.4984C187 23.31 184.542 17.3751 180.166 12.9992C175.79 8.62336 169.855 6.16504 163.667 6.16504ZM0.333334 157.832H163.667C169.855 157.832 175.79 155.373 180.166 150.998C184.542 146.622 187 140.687 187 134.498V111.165H-23V134.498C-23 140.687 -20.5417 146.622 -16.1658 150.998C-11.79 155.373 -5.85505 157.832 0.333334 157.832Z" fill="#ED2939"/>
</g>
<rect x="4.1" y="4.1" width="155.8" height="155.8" rx="77.9" stroke="white" stroke-width="8.2"/>
<defs>
<clipPath id="clip0_497_899">
<rect width="164" height="164" rx="82" fill="white"/>
</clipPath>
</defs>
</svg>
