<svg width="164" height="164" viewBox="0 0 164 164" fill="none" xmlns="http://www.w3.org/2000/svg">
<rect width="164" height="164" rx="82" stroke="#DFA9A9"/>
<g clip-path="url(#clip0_497_889)">
<g clip-path="url(#clip1_497_889)">
<path d="M166.389 0.140625H-2.38889C-3.62659 0.140625 -4.84019 0.231042 -6.02967 0.411875L-6.05378 10.9846L-22.5096 10.9605C-25.1135 14.9041 -26.5011 19.526 -26.5 24.2517V132.752C-26.5 139.146 -23.9597 145.279 -19.438 149.801C-14.9163 154.323 -8.78356 156.863 -2.38889 156.863H166.389C172.784 156.863 178.916 154.323 183.438 149.801C187.96 145.279 190.5 139.146 190.5 132.752V24.2517C190.5 17.8571 187.96 11.7243 183.438 7.2026C178.916 2.68089 172.784 0.140625 166.389 0.140625Z" fill="#00247D"/>
<path d="M27.75 126.86L20.3841 133.665L21.1134 123.659L11.1978 122.146L19.4739 116.48L14.4769 107.782L24.0671 110.723L27.75 101.386L31.439 110.723L41.0292 107.782L36.0262 116.48L44.3083 122.146L34.3926 123.659L35.122 133.665L27.75 126.86ZM141.976 27.6365L137.16 32.085L137.636 25.5389L131.145 24.5503L136.563 20.8432L133.296 15.153L139.565 17.0759L141.976 10.9697L144.394 17.0759L150.668 15.153L147.395 20.8432L152.808 24.5503L146.322 25.5389L146.799 32.085L141.976 27.6365ZM117.865 63.8032L113.049 68.2577L113.525 61.7116L107.033 60.723L112.452 57.0099L109.185 51.3197L115.454 53.2425L117.865 47.1364L120.282 53.2425L126.557 51.3197L123.284 57.0099L128.697 60.723L122.211 61.7116L122.688 68.2577L117.865 63.8032ZM172.115 51.7476L167.299 56.2022L167.775 49.656L161.283 48.6674L166.702 44.9543L163.435 39.2641L169.704 41.187L172.115 35.0808L174.532 41.187L180.807 39.2641L177.534 44.9543L182.947 48.6674L176.461 49.656L176.938 56.2022L172.115 51.7476ZM141.976 136.137L137.16 140.591L137.636 134.045L131.145 133.056L136.563 129.343L133.296 123.653L139.565 125.576L141.976 119.47L144.394 125.576L150.668 123.653L147.395 129.343L152.808 133.056L146.322 134.045L146.799 140.591L141.976 136.137ZM160.361 66.4434L162.133 70.0359L166.094 70.6085L163.23 73.3994L163.905 77.3476L160.361 75.485L156.817 77.3476L157.492 73.3994L154.629 70.6085L158.589 70.0359L160.361 66.4434Z" fill="white"/>
<path d="M88.0278 78.5017V0.140625H-2.38889C-4.31778 0.140625 -6.02967 0.411875 -6.02967 0.411875L-6.05378 10.9846L-22.5096 10.9605C-22.5096 10.9605 -22.7628 11.3161 -23.2751 12.1962C-25.3894 15.8621 -26.5016 20.0198 -26.5 24.2517V78.5017H88.0278Z" fill="#00247D"/>
<path d="M88.0278 0.140625H73.977L45.8333 19.8454V0.140625H15.6944V15.626L-6.02967 0.411875C-9.65337 0.952741 -13.1028 2.32467 -16.1081 4.42035L12.2345 24.2517H1.77027L-20.6711 8.52526C-21.3348 9.29737 -21.9488 10.1107 -22.5096 10.9605L-3.51609 24.2517H-26.5V54.3906H-3.08209L-26.5 71.0635V78.5017H-6.41545L15.6944 63.0224V78.5017H45.8333V58.7969L73.971 78.5017H88.0278V66.2714L71.0596 54.3906H88.0278V24.2517H71.0656L88.0278 12.371V0.140625Z" fill="#EEEEEE"/>
<path d="M39.8055 0.140625H21.7222V30.2795H-26.5V48.3628H21.7222V78.5017H39.8055V48.3628H88.0278V30.2795H39.8055V0.140625Z" fill="#CF1B2B"/>
<path d="M88.0278 0.140625H79.2212L45.8334 23.5224V24.2517H55.303L88.0278 1.33412V0.140625ZM-16.1081 4.42035C-17.7977 5.58868 -19.3312 6.96816 -20.6711 8.52526L1.77033 24.2517H12.2285L-16.1081 4.42035ZM12.3008 54.3906L-22.0756 78.5017H-11.6656L15.6945 59.3454V54.3906H12.3008ZM88.0278 77.3082V69.9543L65.8034 54.3906H55.297L88.0278 77.3082Z" fill="#CF1B2B"/>
</g>
</g>
<rect x="4.1" y="4.1" width="155.8" height="155.8" rx="77.9" stroke="white" stroke-width="8.2"/>
<defs>
<clipPath id="clip0_497_889">
<rect width="164" height="164" rx="82" fill="white"/>
</clipPath>
<clipPath id="clip1_497_889">
<rect width="217" height="217" fill="white" transform="translate(-26.5 -30)"/>
</clipPath>
</defs>
</svg>
