<svg width="164" height="164" viewBox="0 0 164 164" fill="none" xmlns="http://www.w3.org/2000/svg">
<rect width="164" height="164" rx="82" stroke="#DFA9A9"/>
<g clip-path="url(#clip0_497_1127)">
<path d="M35 157.834H186.667C192.855 157.834 198.79 155.375 203.166 150.999C207.542 146.624 210 140.689 210 134.5V111.167H35V157.834Z" fill="#4AA657"/>
<path d="M186.667 6.16699H35V111.167H210V29.5003C210 23.3119 207.542 17.377 203.166 13.0012C198.79 8.62532 192.855 6.16699 186.667 6.16699Z" fill="#C8313E"/>
<path d="M23.3333 6.16699C17.145 6.16699 11.21 8.62532 6.83418 13.0012C2.45833 17.377 0 23.3119 0 29.5003L0 134.5C0 140.689 2.45833 146.624 6.83418 150.999C11.21 155.375 17.145 157.834 23.3333 157.834H35V6.16699H23.3333Z" fill="white"/>
<path d="M4.46839 147.264L8.11423 140.794L11.8534 147.45L8.69173 152.531C9.68801 153.341 10.7494 154.066 11.8651 154.701L16.4851 146.319L8.20173 133.042L1.68589 143.11C2.75339 145.794 4.31673 148.197 6.24173 150.285L4.46839 147.264ZM34.8892 146.733L26.1567 133.771L17.3951 146.435L24.8967 157.834H28.6709L34.8892 146.733ZM26.4134 140.789L30.1526 147.444L26.4134 153.459L22.7676 147.264L26.4134 140.789ZM35.0001 83.9428V78.7278L33.1742 81.2712L35.0001 83.9428ZM16.4792 17.9853L11.2642 9.62033C6.70197 12.4012 3.23231 16.6637 1.43506 21.6953L8.93089 31.6878L16.4792 17.9853ZM4.46839 18.9303L8.11423 12.4612L11.8534 19.117L8.11423 25.1253L4.46839 18.9303ZM26.9326 32.5978L34.8892 18.3937L26.6526 6.16699H25.6551L17.4009 18.102L26.9326 32.5978ZM30.1467 19.1112L26.4134 25.1253L22.7676 18.9303L26.4134 12.4612L30.1467 19.1112Z" fill="#C8313E"/>
<path d="M28.8925 64.5006L33.9967 56.0248L35 56.4682V52.834L26.7983 40.0707L16.9517 53.744L8.20167 39.709L0 52.3848V56.1765L5.01083 64.5006L8.56333 59.3032L6.01417 55.7507L7.9275 53.1957L13.4867 60.394L5.285 73.8806L0 66.6065V75.6656L0.338333 75.2165L5.8975 82.4148L0 92.1215V98.9873L5.285 91.7073L13.4867 105.194L8.87833 111.167L7.9275 112.398L7.00583 111.167L6.01417 109.843L8.56917 106.291L5.01667 101.093L0 109.423V112.777L8.38833 125.57L16.555 111.167L16.8642 110.619L17.2025 111.167L26.6175 126.386L35 111.529V109.248L34.2708 109.575L29.1667 101.093L25.6083 106.291L28.1633 109.843L27.1717 111.167L26.25 112.398L25.2992 111.167L20.6908 105.2L28.8925 91.7132L35 100.119V93.4573L28.2508 82.3623L33.81 75.164L35 76.7507V65.1015L28.6183 73.8923L20.4167 60.3998L25.9758 53.2015L27.8892 55.7507L25.3342 59.3032L28.8925 64.5006ZM24.9958 76.3481V87.5948L16.8583 100.446L9.19333 87.5423V76.4123L16.8583 63.5032L24.9958 76.3481Z" fill="#C8313E"/>
<path d="M11.8477 75.1346L15.336 81.4988L11.8477 87.8629L14.4027 89.2629L16.9985 84.5321L19.5944 89.2629L22.1494 87.8629L18.661 81.4988L22.1494 75.1346L19.5944 73.7346L16.9985 78.4654L14.4027 73.7346L11.8477 75.1346ZM0.151855 129.764L3.79769 135.959L7.53686 129.945L3.79769 123.289L0.151855 129.764ZM8.99519 129.764L12.641 135.959L16.3744 129.945L12.641 123.289L8.99519 129.764ZM17.6519 129.764L21.2977 135.959L25.0369 129.945L21.2977 123.289L17.6519 129.764ZM26.9385 129.764L30.5844 135.959L34.3177 129.945L30.5844 123.289L26.9385 129.764ZM0.151855 36.0629L3.79769 42.2637L7.53686 36.2438L3.79769 29.5938L0.151855 36.0629ZM8.99519 36.0629L12.641 42.2637L16.3744 36.2438L12.641 29.5938L8.99519 36.0629ZM17.6519 36.0629L21.2977 42.2637L25.0369 36.2438L21.2977 29.5938L17.6519 36.0629ZM26.9385 36.0629L30.5844 42.2637L34.3177 36.2438L30.5844 29.5938L26.9385 36.0629Z" fill="#C8313E"/>
</g>
<rect x="4.1" y="4.1" width="155.8" height="155.8" rx="77.9" stroke="white" stroke-width="8.2"/>
<defs>
<clipPath id="clip0_497_1127">
<rect width="164" height="164" rx="82" fill="white"/>
</clipPath>
</defs>
</svg>
