<svg width="164" height="164" viewBox="0 0 164 164" fill="none" xmlns="http://www.w3.org/2000/svg">
<rect width="164" height="164" rx="82" stroke="#DFA9A9"/>
<g clip-path="url(#clip0_497_797)">
<path d="M-30 53.001H186V113.001H-30V53.001Z" fill="#EEEEEE"/>
<path d="M162 4.99902H-6C-12.3652 4.99902 -18.4697 7.52759 -22.9706 12.0285C-27.4714 16.5293 -30 22.6338 -30 28.999L-30 58.999H186V28.999C186 22.6338 183.471 16.5293 178.971 12.0285C174.47 7.52759 168.365 4.99902 162 4.99902ZM-30 136.999C-30 143.364 -27.4714 149.469 -22.9706 153.97C-18.4697 158.47 -12.3652 160.999 -6 160.999H162C168.365 160.999 174.47 158.47 178.971 153.97C183.471 149.469 186 143.364 186 136.999V106.999H-30V136.999Z" fill="#75AADB"/>
<path d="M-30 71H186V95H-30V71Z" fill="#141414"/>
</g>
<rect x="4.1" y="4.1" width="155.8" height="155.8" rx="77.9" stroke="white" stroke-width="8.2"/>
<defs>
<clipPath id="clip0_497_797">
<rect width="164" height="164" rx="82" fill="white"/>
</clipPath>
</defs>
</svg>
