<svg width="164" height="164" viewBox="0 0 164 164" fill="none" xmlns="http://www.w3.org/2000/svg">
<rect width="164" height="164" rx="82" stroke="#DFA9A9"/>
<g clip-path="url(#clip0_497_904)">
<path d="M187 134.5C187 140.689 184.542 146.624 180.166 150.999C175.79 155.375 169.855 157.834 163.667 157.834H0.333334C-5.85505 157.834 -11.79 155.375 -16.1658 150.999C-20.5417 146.624 -23 140.689 -23 134.5V29.5003C-23 23.3119 -20.5417 17.377 -16.1658 13.0012C-11.79 8.62532 -5.85505 6.16699 0.333334 6.16699H163.667C169.855 6.16699 175.79 8.62532 180.166 13.0012C184.542 17.377 187 23.3119 187 29.5003V134.5Z" fill="#009B3A"/>
<path d="M167.913 82.0003L82 146.89L-3.91333 82.0003L82 17.1045L167.913 82.0003Z" fill="#FEDF01"/>
<path d="M81.8599 119.228C102.665 119.228 119.532 102.362 119.532 81.5564C119.532 60.7509 102.665 43.8848 81.8599 43.8848C61.0544 43.8848 44.1882 60.7509 44.1882 81.5564C44.1882 102.362 61.0544 119.228 81.8599 119.228Z" fill="#002776"/>
<path d="M48.6158 63.8405C46.6586 67.5273 45.3336 71.5162 44.6958 75.6413C68 73.9496 99.6283 86.6721 113.202 102.445C115.547 98.9221 117.286 94.9788 118.353 90.7554C101.6 74.3754 72.1708 63.7471 48.6158 63.8405Z" fill="#CBE9D4"/>
<path d="M47 83.3594H52.8333V89.1927H47V83.3594ZM52.8333 95.026H58.6667V100.859H52.8333V95.026Z" fill="#88C9F9"/>
<path d="M64.5 83.359H70.3333V89.1924H64.5V83.359ZM76.1667 89.1924H82V95.0257H76.1667V89.1924ZM99.5 100.859H105.333V106.692H99.5V100.859ZM82 106.692H87.8333V112.526H82V106.692ZM99.5 71.6924H105.333V77.5257H99.5V71.6924Z" fill="#55ACEE"/>
<path d="M87.8333 95.0254H93.6666V100.859H87.8333V95.0254Z" fill="#3B88C3"/>
</g>
<rect x="4.1" y="4.1" width="155.8" height="155.8" rx="77.9" stroke="white" stroke-width="8.2"/>
<defs>
<clipPath id="clip0_497_904">
<rect width="164" height="164" rx="82" fill="white"/>
</clipPath>
</defs>
</svg>
