<svg width="164" height="164" viewBox="0 0 164 164" fill="none" xmlns="http://www.w3.org/2000/svg">
<rect width="164" height="164" rx="82" stroke="#DFA9A9"/>
<g clip-path="url(#clip0_497_991)">
<path d="M187 134.5C187 140.689 184.542 146.624 180.166 150.999C175.79 155.375 169.855 157.834 163.667 157.834H0.333334C-5.85505 157.834 -11.79 155.375 -16.1658 150.999C-20.5417 146.624 -23 140.689 -23 134.5V29.5003C-23 23.3119 -20.5417 17.377 -16.1658 13.0012C-11.79 8.62532 -5.85505 6.16699 0.333334 6.16699H163.667C169.855 6.16699 175.79 8.62532 180.166 13.0012C184.542 17.377 187 23.3119 187 29.5003V134.5Z" fill="#032EA1"/>
<path d="M-23 38.6699H187V125.324H-23V38.6699Z" fill="#E01E24"/>
<path d="M134.622 110.566V105.305H131.461V100.049H128.567V96.6305H127.249V93.9996H124.694L123.306 92.0105V82.683L124.887 81.1021V72.4221L123.568 73.6063V70.8413H122.512V72.1596H120.418V67.9421L117.916 70.1821L118.709 67.353L117.257 60.843H116.463C116.463 60.843 115.816 58.078 114.497 58.078C114.497 58.078 115.022 56.3746 113.967 56.3746C112.911 56.3746 113.173 57.6871 113.173 57.6871C113.173 57.6871 111.336 58.4805 111.336 60.4463L110.286 60.318L108.705 67.9421L109.819 70.1821L107.252 67.9421V73.7346H93.3167V68.473L92.5233 69.2605V71.1038H90.6858V69.2605L92.0042 68.0763V65.5796L90.9425 66.6938L89.3616 64.5238V62.6805L88.4458 63.5963L88.1775 62.0213L89.4958 59.9213L89.2975 58.2121L87.7925 60.0496V58.4746L88.4517 57.028L85.4242 49.3921L84.7008 47.2805L83.5866 47.1521V46.0963C83.5866 46.0963 82.7933 44.2588 81.7433 44.2588C80.6933 44.2588 79.9058 46.0963 79.9058 46.0963V47.1521L78.7917 47.2805L78.0625 49.3921L75.0408 57.028L75.7 58.4746V60.0496L74.1891 58.2121L73.985 59.9213L75.3033 62.0213L75.0467 63.5963L74.125 62.6805V64.5238L72.55 66.6938L71.4941 65.5796V68.0763L72.8125 69.2605V71.1038H70.975V69.2605L70.1817 68.473V73.7346H56.2167V67.9421L53.65 70.1821L54.7642 67.9421L53.1833 60.318L52.1275 60.4463C52.1275 58.4805 50.29 57.6871 50.29 57.6871C50.29 57.6871 50.5525 56.3746 49.4967 56.3746C48.4467 56.3746 48.9717 58.078 48.9717 58.078C47.6533 58.078 47 60.843 47 60.843H46.2125L44.7658 67.353L45.5533 70.1821L43.0567 67.9421V72.1538H40.9508V70.8355H39.895V73.6005L38.5825 72.4163V81.0963L40.1575 82.6771V92.0046L38.7633 93.9938H36.7333V96.6246H34.9017V100.043H32.265V105.299H29.3775V110.56H26.4783L26.2158 116.341H137.253L137.516 110.56L134.622 110.566Z" fill="white"/>
<path d="M44.6432 81.2361V91.3569H39.9007L38.769 93.5619H44.6432V116.353H46.6382V81.2361H44.6432ZM124.741 93.5619L123.702 91.3569H119.409V81.2361H117.437V116.353H119.409V93.5619H124.741ZM76.779 81.2361V91.3569H55.2424V81.1777H53.3174V116.294H55.2424V93.5619H76.779V116.353H78.8382V81.2361H76.779ZM108.314 81.2361V91.3569H87.3199V81.2361H85.284V116.353H87.3199V93.5619H108.314V116.353H110.805V81.2361H108.314Z" fill="#DB7F86"/>
</g>
<rect x="4.1" y="4.1" width="155.8" height="155.8" rx="77.9" stroke="white" stroke-width="8.2"/>
<defs>
<clipPath id="clip0_497_991">
<rect width="164" height="164" rx="82" fill="white"/>
</clipPath>
</defs>
</svg>
