<svg width="164" height="164" viewBox="0 0 164 164" fill="none" xmlns="http://www.w3.org/2000/svg">
<rect width="164" height="164" rx="82" stroke="#DFA9A9"/>
<g clip-path="url(#clip0_496_742)">
<path d="M-5.8078 0C-12.4994 0 -18.917 2.65823 -23.6487 7.38992C-28.3803 12.1216 -31.0386 18.5392 -31.0386 25.2308L-31.0386 138.769C-31.0386 145.461 -28.3803 151.878 -23.6487 156.61C-18.917 161.342 -12.4994 164 -5.8078 164H32.0384V0H-5.8078ZM170.808 0H132.961V164H170.808C177.499 164 183.917 161.342 188.648 156.61C193.38 151.878 196.038 145.461 196.038 138.769V25.2308C196.038 18.5392 193.38 12.1216 188.648 7.38992C183.917 2.65823 177.499 0 170.808 0Z" fill="#D52B1E"/>
<path d="M32.0388 0H132.962V164H32.0388V0Z" fill="#EEEEEE"/>
<path d="M86.3795 107.946C93.9361 108.823 100.711 109.611 108.261 110.475L106.337 104.155C106.195 103.611 106.215 103.038 106.393 102.505C106.571 101.972 106.9 101.502 107.34 101.152L129.284 83.2764L124.743 81.1381C122.743 80.4253 123.292 79.2962 124.017 76.5839L127.367 64.3722L114.619 67.0656C113.376 67.2549 112.55 66.4664 112.361 65.7095L110.715 59.9632L100.635 71.2792C99.203 73.0958 96.3015 73.0958 97.2035 68.9075L101.512 45.9853L95.7275 48.9815C94.1064 49.8898 92.4853 50.0412 91.5833 48.4201L83.6041 33.4961L75.6249 48.4201C74.7166 50.0412 73.0955 49.8898 71.4744 48.9815L65.6966 45.9853L70.0047 68.9075C70.913 73.0958 68.0052 73.0958 66.5733 71.2792L56.4936 59.9695L54.8536 65.7158C54.6644 66.4727 53.8318 67.2612 52.5892 67.0719L39.8413 64.3786L43.1907 76.5902C43.9035 79.3026 44.4586 80.4316 42.459 81.1444L37.9175 83.2827L59.8619 101.159C60.7324 101.834 61.1739 103.051 60.8586 104.161L58.9347 110.481L80.8224 107.952C81.491 107.952 81.9326 108.324 81.9262 109.094L80.5764 132.457H86.6065L85.263 109.094C85.2756 108.318 85.7109 107.946 86.3795 107.946Z" fill="#D52B1E"/>
</g>
<rect x="4.1" y="4.1" width="155.8" height="155.8" rx="77.9" stroke="white" stroke-width="8.2"/>
<defs>
<clipPath id="clip0_496_742">
<rect width="164" height="164" rx="82" fill="white"/>
</clipPath>
</defs>
</svg>
