<svg width="164" height="164" viewBox="0 0 164 164" fill="none" xmlns="http://www.w3.org/2000/svg">
<rect width="164" height="164" rx="82" stroke="#DFA9A9"/>
<g clip-path="url(#clip0_497_909)">
<path d="M52.8333 6.16699H0.333334C-5.85505 6.16699 -11.79 8.62532 -16.1658 13.0012C-20.5417 17.377 -23 23.3119 -23 29.5003L-23 82.0003H52.8333V6.16699ZM25.6325 60.3703L14.6542 52.3962L3.67583 60.3703L7.87 47.467L-3.10833 39.487H10.46L14.6542 26.5837L18.8483 39.487H32.4167L21.4383 47.467L25.6325 60.3703Z" fill="#1F429B"/>
<path d="M163.667 6.16699H52.8333V82.0003H187V29.5003C187 23.3119 184.542 17.377 180.166 13.0012C175.79 8.62532 169.855 6.16699 163.667 6.16699Z" fill="#EEEEEE"/>
<path d="M-23 82V134.5C-23 140.688 -20.5417 146.623 -16.1658 150.999C-11.79 155.375 -5.85505 157.833 0.333334 157.833H163.667C169.855 157.833 175.79 155.375 180.166 150.999C184.542 146.623 187 140.688 187 134.5V82H-23Z" fill="#D42D27"/>
<path d="M18.8483 39.4863L14.6541 26.583L10.4599 39.4863H-3.1084L7.86993 47.4663L3.67577 60.3697L14.6541 52.3955L25.6324 60.3697L21.4383 47.4663L32.4166 39.4863H18.8483Z" fill="white"/>
</g>
<rect x="4.1" y="4.1" width="155.8" height="155.8" rx="77.9" stroke="white" stroke-width="8.2"/>
<defs>
<clipPath id="clip0_497_909">
<rect width="164" height="164" rx="82" fill="white"/>
</clipPath>
</defs>
</svg>
