<svg width="164" height="164" viewBox="0 0 164 164" fill="none" xmlns="http://www.w3.org/2000/svg">
<rect width="164" height="164" rx="82" stroke="#DFA9A9"/>
<g clip-path="url(#clip0_497_815)">
<path d="M200.032 138.802C200.032 145.494 197.399 151.912 192.71 156.643C188.022 161.375 181.663 164.033 175.032 164.033H0.0324722C-6.59794 164.033 -12.9568 161.375 -17.6452 156.643C-22.3336 151.912 -24.9675 145.494 -24.9675 138.802V25.264C-24.9675 18.5724 -22.3336 12.1548 -17.6452 7.42312C-12.9568 2.69144 -6.59794 0.0332031 0.0324722 0.0332031H175.032C181.663 0.0332031 188.022 2.69144 192.71 7.42312C197.399 12.1548 200.032 18.5724 200.032 25.264V138.802Z" fill="#DE2910"/>
<path d="M44.6325 25.1189L49.2325 27.3644L52.9137 23.7943L52.22 28.9035L56.72 31.3383L51.695 32.2466L50.795 37.318L48.3825 32.7764L43.32 33.4766L46.8575 29.7614L44.6325 25.1189ZM73.7887 43.6698L71.5637 48.306L75.1012 52.0275L70.045 51.321L67.6325 55.8689L66.7325 50.7912L61.7012 49.8829L66.2075 47.4481L65.5075 42.3452L69.195 45.9154L73.7887 43.6698ZM67.8075 67.5066L69.4825 72.3761L74.5887 72.4834L70.52 75.593L72.0012 80.532L67.8075 77.5863L63.6137 80.532L65.0887 75.593L61.02 72.4834L66.1262 72.3761L67.8075 67.5066ZM44.6325 88.1958L49.2325 90.4414L52.9137 86.8712L52.22 91.9804L56.72 94.4152L51.695 95.3235L50.795 100.395L48.3825 95.8533L43.32 96.5535L46.8575 92.8383L44.6325 88.1958ZM18.7825 37.5703L24.5887 54.4181L42.2512 54.784L28.17 65.5575L33.2887 82.6261L18.7825 72.4392L4.27622 82.6261L9.39497 65.5575L-4.68628 54.784L12.9762 54.4181L18.7825 37.5703Z" fill="#FFDE02"/>
</g>
<rect x="4.1" y="4.1" width="155.8" height="155.8" rx="77.9" stroke="white" stroke-width="8.2"/>
<defs>
<clipPath id="clip0_497_815">
<rect width="164" height="164" rx="82" fill="white"/>
</clipPath>
</defs>
</svg>
