<svg width="164" height="164" viewBox="0 0 164 164" fill="none" xmlns="http://www.w3.org/2000/svg">
<rect width="164" height="164" rx="82" stroke="#DFA9A9"/>
<g clip-path="url(#clip0_497_1173)">
<g clip-path="url(#clip1_497_1173)">
<path d="M163.667 6.16699H0.333334C-5.85505 6.16699 -11.79 8.62532 -16.1658 13.0012C-20.5417 17.377 -23 23.3119 -23 29.5003L-23 134.5C-23 140.689 -20.5417 146.624 -16.1658 150.999C-11.79 155.375 -5.85505 157.834 0.333334 157.834H163.667C169.855 157.834 175.79 155.375 180.166 150.999C184.542 146.624 187 140.689 187 134.5V29.5003C187 23.3119 184.542 17.377 180.166 13.0012C175.79 8.62532 169.855 6.16699 163.667 6.16699Z" fill="#002A8F"/>
<path d="M57.7684 64.4997H187V35.333H17.3843L57.7684 64.4997ZM17.3843 128.666H187V99.4997H57.7684L17.3843 128.666Z" fill="#EEEEEE"/>
<path d="M57.7683 64.4999L17.3842 35.3333L-14.9383 11.9883C-17.461 14.1569 -19.4868 16.8435 -20.878 19.8654C-22.2691 22.8872 -22.9929 26.1733 -23 29.4999L-23 134.5C-23 141.517 -19.8383 147.736 -14.9383 152.012L17.3842 128.667L57.7683 99.4999L82 81.9999L57.7683 64.4999Z" fill="#CF142B"/>
<path d="M20.7208 85.512L32.4167 77.0361H17.9617L13.4758 63.2578L8.9725 77.0361H-5.5L6.20167 85.5178L1.70417 99.2845L13.4583 90.7736L25.2125 99.2845L20.7208 85.512Z" fill="white"/>
</g>
</g>
<rect x="4.1" y="4.1" width="155.8" height="155.8" rx="77.9" stroke="white" stroke-width="8.2"/>
<defs>
<clipPath id="clip0_497_1173">
<rect width="164" height="164" rx="82" fill="white"/>
</clipPath>
<clipPath id="clip1_497_1173">
<rect width="210" height="210" fill="white" transform="translate(-23 -23)"/>
</clipPath>
</defs>
</svg>
