<svg width="164" height="164" viewBox="0 0 164 164" fill="none" xmlns="http://www.w3.org/2000/svg">
<rect width="164" height="164" rx="82" stroke="#DFA9A9"/>
<g clip-path="url(#clip0_497_1219)">
<g clip-path="url(#clip1_497_1219)">
<path d="M-14.9326 151.842C-10.797 155.718 -5.33413 157.861 0.333216 157.833H163.667C176.552 157.833 187 147.386 187 131.583V82H79.0832L-14.9326 151.842Z" fill="#D7141A"/>
<path d="M163.667 6.16699H0.333437C-5.35686 6.16548 -10.8496 8.25379 -15.1016 12.0353L79.0834 82.0003H187V29.5003C187 23.3119 184.542 17.377 180.166 13.0012C175.79 8.62532 169.855 6.16699 163.667 6.16699Z" fill="#EEEEEE"/>
<path d="M-14.9325 151.843L79.0833 82.0002L-15.1017 12.0352C-17.5798 14.221 -19.5654 16.9083 -20.927 19.9192C-22.2886 22.93 -22.9952 26.1957 -23 29.5002V131.583C-23 140.217 -19.8675 147.234 -14.9325 151.843Z" fill="#11457E"/>
</g>
</g>
<rect x="4.1" y="4.1" width="155.8" height="155.8" rx="77.9" stroke="white" stroke-width="8.2"/>
<defs>
<clipPath id="clip0_497_1219">
<rect width="164" height="164" rx="82" fill="white"/>
</clipPath>
<clipPath id="clip1_497_1219">
<rect width="210" height="210" fill="white" transform="translate(-23 -23)"/>
</clipPath>
</defs>
</svg>
