<svg width="164" height="164" viewBox="0 0 164 164" fill="none" xmlns="http://www.w3.org/2000/svg">
<rect width="164" height="164" rx="82" stroke="#DFA9A9"/>
<g clip-path="url(#clip0_497_1242)">
<path d="M163.667 6.16699H64.5V70.3337H187V29.5003C187 23.3119 184.542 17.377 180.166 13.0012C175.79 8.62532 169.855 6.16699 163.667 6.16699ZM64.5 157.834H163.667C176.553 157.834 187 147.386 187 131.584V93.667H64.5V157.834ZM-23 93.667V131.584C-23 147.386 -12.5525 157.834 0.333334 157.834H41.1667V93.667H-23ZM41.1667 6.16699H0.333334C-5.85505 6.16699 -11.79 8.62532 -16.1658 13.0012C-20.5417 17.377 -23 23.3119 -23 29.5003L-23 70.3337H41.1667V6.16699Z" fill="#C60C30"/>
<path d="M64.5 6.16699H41.1667V70.3337H-23V93.667H41.1667V157.834H64.5V93.667H187V70.3337H64.5V6.16699Z" fill="#EEEEEE"/>
</g>
<rect x="4.1" y="4.1" width="155.8" height="155.8" rx="77.9" stroke="white" stroke-width="8.2"/>
<defs>
<clipPath id="clip0_497_1242">
<rect width="164" height="164" rx="82" fill="white"/>
</clipPath>
</defs>
</svg>
