<svg width="164" height="164" viewBox="0 0 164 164" fill="none" xmlns="http://www.w3.org/2000/svg">
<rect width="164" height="164" rx="82" stroke="#DFA9A9"/>
<g clip-path="url(#clip0_497_1099)">
<path d="M187 134.5C187 140.689 184.542 146.624 180.166 150.999C175.79 155.375 169.855 157.834 163.667 157.834H0.333334C-5.85505 157.834 -11.79 155.375 -16.1658 150.999C-20.5417 146.624 -23 140.689 -23 134.5V29.5003C-23 23.3119 -20.5417 17.377 -16.1658 13.0012C-11.79 8.62532 -5.85505 6.16699 0.333334 6.16699H163.667C169.855 6.16699 175.79 8.62532 180.166 13.0012C184.542 17.377 187 23.3119 187 29.5003V134.5Z" fill="#ED1C23"/>
<path d="M-23 76.167H187V117H-23V76.167Z" fill="#034EA2"/>
<path d="M187 76.167V29.5003C187 23.3119 184.542 17.377 180.166 13.0012C175.79 8.62532 169.855 6.16699 163.667 6.16699H0.333334C-5.85505 6.16699 -11.79 8.62532 -16.1658 13.0012C-20.5417 17.377 -23 23.3119 -23 29.5003L-23 76.167H187Z" fill="#FFDD00"/>
<path d="M111.167 87.8337C111.167 90.9279 109.938 93.8953 107.75 96.0832C105.562 98.2712 102.594 99.5003 99.5002 99.5003H64.5002C61.406 99.5003 58.4385 98.2712 56.2506 96.0832C54.0627 93.8953 52.8335 90.9279 52.8335 87.8337V70.3337C52.8335 67.2395 54.0627 64.272 56.2506 62.0841C58.4385 59.8962 61.406 58.667 64.5002 58.667H99.5002C102.594 58.667 105.562 59.8962 107.75 62.0841C109.938 64.272 111.167 67.2395 111.167 70.3337V87.8337Z" fill="#FFDD00"/>
<path d="M105.333 82C105.333 88.44 100.107 99.5 93.6665 99.5H70.3332C63.8932 99.5 58.6665 88.44 58.6665 82V76.1667C58.6665 73.0725 59.8957 70.105 62.0836 67.9171C64.2715 65.7292 67.239 64.5 70.3332 64.5H93.6665C96.7607 64.5 99.7282 65.7292 101.916 67.9171C104.104 70.105 105.333 73.0725 105.333 76.1667V82Z" fill="#034EA2"/>
<path d="M99.5 82C99.5 88.44 94.2733 99.5 87.8333 99.5H76.1667C69.7267 99.5 64.5 88.44 64.5 82V76.1667C64.5 73.0725 65.7292 70.105 67.9171 67.9171C70.105 65.7292 73.0725 64.5 76.1667 64.5H87.8333C90.9275 64.5 93.895 65.7292 96.0829 67.9171C98.2708 70.105 99.5 73.0725 99.5 76.1667V82Z" fill="#ED1C23"/>
<path d="M93.509 59.4541C92.7331 62.3008 87.9031 64.4999 81.9998 64.4999C76.0965 64.4999 71.2665 62.3008 70.4906 59.4541C63.4615 60.4574 64.4998 62.3299 64.4998 64.4999C64.4998 67.7199 69.114 70.3333 81.9998 70.3333C94.8856 70.3333 99.4998 67.7199 99.4998 64.4999C99.4998 62.3299 100.538 60.4574 93.509 59.4541Z" fill="#6DBE46"/>
<path d="M87.8332 87.8333C87.8332 89.3804 87.2186 90.8642 86.1246 91.9581C85.0307 93.0521 83.5469 93.6667 81.9998 93.6667C80.4527 93.6667 78.969 93.0521 77.875 91.9581C76.7811 90.8642 76.1665 89.3804 76.1665 87.8333V70.3333C76.1665 68.7862 76.7811 67.3025 77.875 66.2085C78.969 65.1146 80.4527 64.5 81.9998 64.5C83.5469 64.5 85.0307 65.1146 86.1246 66.2085C87.2186 67.3025 87.8332 68.7862 87.8332 70.3333V87.8333Z" fill="#A6D388"/>
<path d="M102.417 46.9996C104.983 46.9996 107.422 47.3029 109.685 47.7988C106.051 41.5221 93.6666 35.3329 81.9999 46.9996C70.3333 35.3329 57.9491 41.5221 54.3149 47.7988C56.7017 47.2706 59.1387 47.0026 61.5833 46.9996C72.8591 46.9996 81.9999 52.2263 81.9999 58.6663C81.9999 52.2263 91.1349 46.9996 102.417 46.9996Z" fill="#662113"/>
<path d="M82.0002 99.5003C88.4435 99.5003 93.6668 90.3595 93.6668 79.0837C93.6668 67.8078 88.4435 58.667 82.0002 58.667C75.5568 58.667 70.3335 67.8078 70.3335 79.0837C70.3335 90.3595 75.5568 99.5003 82.0002 99.5003Z" fill="#8ED2E7"/>
<path d="M79.0835 76.167C75.9568 76.167 73.0343 76.9253 70.386 78.1795C70.3802 78.4828 70.3335 78.7745 70.3335 79.0837C70.3335 90.3595 75.5602 99.5003 82.0002 99.5003C87.851 99.5003 92.646 91.9462 93.4918 82.1228C89.666 78.3097 84.485 76.1681 79.0835 76.167Z" fill="#6DBE46"/>
<path d="M82 111.167C91.665 111.167 99.5 108.555 99.5 105.333C99.5 102.112 91.665 99.5 82 99.5C72.335 99.5 64.5 102.112 64.5 105.333C64.5 108.555 72.335 111.167 82 111.167Z" fill="#FFCC4D"/>
<path d="M93.6668 111.167C93.6668 115.997 88.4402 117 82.0002 117C75.5602 117 70.3335 115.997 70.3335 111.167C70.3335 106.337 75.5602 99.5 82.0002 99.5C88.4402 99.5 93.6668 106.337 93.6668 111.167Z" fill="#034EA2"/>
<path d="M76.1665 111.167C76.1665 106.337 78.7798 99.5 81.9998 99.5C85.2198 99.5 87.8332 106.337 87.8332 111.167C87.8332 115.997 85.2198 117 81.9998 117C78.7798 117 76.1665 115.997 76.1665 111.167Z" fill="#ED1C23"/>
<path d="M76.1665 41.1665C76.1665 37.9465 78.7798 41.1665 81.9998 41.1665C85.2198 41.1665 87.8332 37.9465 87.8332 41.1665C87.8332 42.7136 87.2186 44.1973 86.1246 45.2913C85.0307 46.3852 83.5469 46.9998 81.9998 46.9998C80.4527 46.9998 78.969 46.3852 77.875 45.2913C76.7811 44.1973 76.1665 42.7136 76.1665 41.1665Z" fill="#CCD6DD"/>
<path d="M81.9998 82.0003C85.2215 82.0003 87.8332 80.6945 87.8332 79.0837C87.8332 77.4728 85.2215 76.167 81.9998 76.167C78.7782 76.167 76.1665 77.4728 76.1665 79.0837C76.1665 80.6945 78.7782 82.0003 81.9998 82.0003Z" fill="white"/>
<path d="M52.8333 70.3333C56.055 70.3333 58.6667 69.0275 58.6667 67.4167C58.6667 65.8058 56.055 64.5 52.8333 64.5C49.6117 64.5 47 65.8058 47 67.4167C47 69.0275 49.6117 70.3333 52.8333 70.3333Z" fill="#C1694F"/>
<path d="M58.6668 58.6663C61.8885 58.6663 64.5002 57.3605 64.5002 55.7497C64.5002 54.1388 61.8885 52.833 58.6668 52.833C55.4452 52.833 52.8335 54.1388 52.8335 55.7497C52.8335 57.3605 55.4452 58.6663 58.6668 58.6663Z" fill="#C1694F"/>
<path d="M111.167 70.3333C114.388 70.3333 117 69.0275 117 67.4167C117 65.8058 114.388 64.5 111.167 64.5C107.945 64.5 105.333 65.8058 105.333 67.4167C105.333 69.0275 107.945 70.3333 111.167 70.3333Z" fill="#C1694F"/>
<path d="M105.333 58.6663C108.555 58.6663 111.167 57.3605 111.167 55.7497C111.167 54.1388 108.555 52.833 105.333 52.833C102.112 52.833 99.5 54.1388 99.5 55.7497C99.5 57.3605 102.112 58.6663 105.333 58.6663Z" fill="#C1694F"/>
</g>
<rect x="4.1" y="4.1" width="155.8" height="155.8" rx="77.9" stroke="white" stroke-width="8.2"/>
<defs>
<clipPath id="clip0_497_1099">
<rect width="164" height="164" rx="82" fill="white"/>
</clipPath>
</defs>
</svg>
