<svg width="164" height="164" viewBox="0 0 164 164" fill="none" xmlns="http://www.w3.org/2000/svg">
<rect width="164" height="164" rx="82" stroke="#DFA9A9"/>
<rect x="4.1" y="4.1" width="155.8" height="155.8" rx="77.9" stroke="white" stroke-width="8.2"/>
<path d="M31.8125 32.8125H81.5V82.5H31.8125V32.8125Z" fill="#2A5F9E"/>
<path d="M48.9548 23.125V37.7828H30.8188L66.5938 82.5016H81.5001V63.8687L48.9548 23.125Z" fill="white"/>
<path d="M81.5 7.96875V82.5H6.96875C6.96875 123.741 40.2594 157.031 81.5 157.031C122.741 157.031 156.031 123.741 156.031 82.5C156.031 41.2594 122.741 7.96875 81.5 7.96875Z" fill="#42ADE2"/>
<path d="M29.3281 49.9531H14.4219C9.70156 59.8906 6.96875 70.8219 6.96875 82.4984H36.7812V37.5312H29.3281V49.9531Z" fill="white"/>
<path d="M81.5 70.3266L49.2031 30.3281H34.2969L76.5312 82.5H81.5V70.3266Z" fill="#ED4C5C"/>
<path d="M48.9547 15.4219V30.3281H29.3281V37.7812H81.5V7.96875C69.8234 7.96875 58.8922 10.7016 48.9547 15.4219Z" fill="white"/>
<path d="M81.5 15.4219H48.9547C34.0484 22.6266 21.6266 35.0484 14.4219 49.9547V82.5H29.3281V30.3281H81.5V15.4219Z" fill="#ED4C5C"/>
<path d="M99.1392 69.8281V102.373C99.1392 113.056 118.517 119.516 118.517 119.516C118.517 119.516 137.895 113.056 137.895 102.373V69.8281H99.1392Z" fill="white"/>
<path d="M137.895 82.4984V69.8281H99.1392V82.4984H115.784V95.9141H99.1392V101.38H115.784V118.522L118.517 119.516L121.25 118.522V101.38H137.895V95.9141H121.25V82.4984H137.895Z" fill="#ED4C5C"/>
<path d="M136.653 79.0203C136.653 78.7719 135.908 78.7719 135.659 78.275C135.411 77.0328 135.163 76.5359 134.417 76.5359C133.672 76.2875 133.423 76.5359 133.423 76.5359C133.175 76.7844 132.181 76.7844 131.684 76.7844C131.188 76.7844 129.945 75.5422 129.945 75.2938C130.691 75.2938 131.188 75.0453 131.933 74.0516C132.927 73.0578 133.423 73.5547 133.423 73.5547C132.927 74.3 133.672 74.3 133.672 74.3C134.914 73.8031 133.423 71.5672 133.175 71.5672C131.684 73.8031 131.684 71.3188 129.448 71.0703C128.206 71.0703 125.722 71.5672 124.728 72.0641C123.734 72.3125 121.002 71.5672 119.511 71.8156C115.784 72.3125 115.784 70.325 115.784 70.325C115.784 70.325 113.548 72.3125 118.02 74.3C118.02 74.3 116.281 72.5609 124.728 73.0578C126.716 72.8094 129.945 71.3187 130.939 72.3125C130.939 72.3125 130.939 73.0578 131.436 73.0578C131.436 73.0578 131.436 73.8031 128.952 73.5547C122.741 73.3062 114.294 76.2875 113.052 74.0516C112.306 72.8094 114.791 72.3125 114.791 72.3125C114.294 71.5672 113.052 72.0641 113.052 72.0641C113.052 71.3187 112.803 70.325 112.803 70.325C111.561 70.5734 111.064 71.3188 111.064 71.3188C111.064 70.325 109.822 69.8281 109.822 69.8281C110.319 70.325 110.07 74.7969 106.841 73.5547C106.841 73.5547 105.102 72.5609 104.605 72.5609C104.108 72.5609 100.878 74.0516 101.623 74.7969C101.623 74.7969 104.108 73.3062 105.35 74.5484C106.841 76.0391 109.077 76.0391 109.077 76.0391C108.828 76.7844 107.834 78.7719 107.834 78.7719C107.834 78.7719 106.592 79.2687 105.847 79.7656C105.847 79.7656 101.623 76.2875 101.375 79.7656C101.375 80.5109 104.853 81.7531 107.338 80.7594C108.828 80.5109 109.325 79.7656 109.325 79.7656C109.822 79.7656 116.281 80.2625 123.238 76.7844C124.728 74.7969 126.716 75.7906 126.716 75.7906C126.716 75.7906 123.238 75.7906 123.486 78.0266C123.486 78.5234 124.977 79.0203 124.728 79.5172C123.983 80.5109 122.244 78.5234 121.498 78.275C121.002 78.275 119.759 78.5234 121.002 79.7656C122.244 81.2563 124.231 82.9953 127.709 79.5172C128.206 79.0203 126.964 78.5234 126.716 78.275C126.467 78.0266 126.716 78.0266 126.716 78.0266C127.709 78.5234 127.958 76.7844 127.958 76.7844C127.958 77.7781 128.952 78.0266 128.952 78.0266C129.448 77.5297 129.2 76.2875 129.2 76.2875C130.442 78.7719 131.436 78.275 131.436 78.275C130.691 77.7781 131.188 77.2812 131.188 77.2812C131.933 79.7656 134.417 77.5297 134.417 77.5297C134.169 77.7781 134.417 78.0266 134.666 78.275C134.914 78.5234 135.162 78.5234 135.162 79.0203C135.162 79.5172 133.175 80.0141 133.175 80.0141C133.175 80.0141 131.933 80.0141 132.181 81.0078C132.181 81.2563 136.653 81.5047 136.653 79.0203Z" fill="#FFE62E"/>
<path d="M114.045 113.803C114.045 114.052 114.045 114.052 114.045 113.803ZM111.809 111.319C111.809 110.573 110.816 108.834 110.816 108.834C113.549 109.083 114.542 106.35 114.542 106.35C113.797 106.598 112.306 105.853 112.306 105.853C114.791 105.605 114.542 103.12 114.542 103.12C114.045 104.859 111.064 104.611 111.064 104.611C112.058 104.114 112.555 102.375 112.555 102.375C112.306 103.12 110.567 103.617 109.574 104.114C108.58 104.611 109.077 106.598 109.077 106.598C108.828 106.35 108.083 105.356 108.083 104.611C108.083 103.866 107.586 103.369 106.841 103.369C106.095 103.369 105.599 104.114 105.599 104.114L104.108 104.859H105.35C105.35 104.859 106.095 105.108 106.095 105.853C106.095 106.598 105.35 109.083 106.592 110.573C107.338 111.567 110.319 112.064 110.319 112.064L111.313 114.797L112.306 113.803H114.294C113.797 113.555 111.809 111.319 111.809 111.319Z" fill="#CECECE"/>
<path d="M134.914 102.872C134.914 102.872 134.169 102.623 132.927 102.126C131.684 101.63 130.442 103.369 130.442 103.369C129.945 104.362 131.436 104.362 131.436 104.114C131.436 103.865 131.933 103.369 132.43 103.12C132.927 102.872 133.672 103.865 134.169 103.865C134.914 104.114 134.914 102.872 134.914 102.872Z" fill="#C94747"/>
<path d="M126.219 105.358C126.219 105.358 126.219 103.122 128.455 102.874C129.697 102.874 132.678 104.365 132.927 105.607C133.175 106.849 132.181 107.843 131.436 108.34" fill="#FFE62E"/>
<path d="M134.169 85.9766H136.405C135.908 84.9828 133.92 84.9828 132.181 85.2312C133.175 84.9828 134.417 84.4859 134.666 84.4859C134.169 84.2375 132.181 82.7469 129.448 85.4797C126.964 82.9953 124.728 84.2375 124.231 84.4859C124.48 84.4859 125.722 84.9828 126.716 85.2312C125.225 84.9828 123.238 84.9828 122.492 85.9766H124.728C123.734 86.4734 123.238 86.4734 122.989 87.7156C122.989 87.7156 124.231 87.4672 125.473 86.9703C124.728 87.2187 124.231 87.7156 123.983 88.2125C124.977 88.2125 125.97 87.964 126.716 87.7156C126.219 88.2125 125.97 88.9578 125.97 89.2062C126.467 89.2062 126.964 88.7094 127.461 88.2125C127.212 89.2062 127.212 90.4484 127.461 90.6969C127.958 90.4484 128.206 89.7031 128.455 89.2062V89.9515H129.448V88.9578C129.697 89.7031 129.945 90.4484 130.442 90.6969C130.691 90.2 130.691 89.2062 130.442 88.2125C130.939 88.7094 131.436 89.2062 131.933 89.2062C131.933 88.9578 131.684 88.2125 131.188 87.7156C131.933 87.964 132.927 88.4609 133.92 88.2125C133.672 87.7156 133.175 87.4672 132.43 86.9703C133.672 87.2187 134.914 87.7156 134.914 87.7156C135.659 86.4734 135.163 86.4734 134.169 85.9766Z" fill="#75A843"/>
<path d="M128.952 87.9678H130.442V94.924H128.952V87.9678Z" fill="#C94747"/>
<path d="M126.219 105.358C124.728 105.358 125.97 108.836 125.225 108.339C124.231 107.842 123.734 111.072 125.225 112.065C127.709 113.804 129.697 111.569 129.449 111.072C128.952 110.078 131.684 109.581 131.684 108.836C131.684 106.848 127.709 105.358 126.219 105.358ZM111.064 88.2154C110.816 87.967 110.816 87.967 111.064 88.2154C111.064 87.4701 110.816 86.9732 110.319 86.9732C109.822 86.2279 109.077 86.7248 108.58 87.4701C108.331 87.7185 108.083 87.967 107.834 87.967C107.834 85.731 108.083 83.7435 111.064 86.4763C111.064 86.4763 111.064 85.4826 109.574 84.2404C107.834 82.9982 107.338 84.4888 107.089 86.4763C106.841 86.2279 106.344 85.4826 105.35 84.9857C103.363 84.2404 103.114 85.9794 103.363 87.7185C102.617 86.7248 101.624 86.2279 100.63 87.7185C99.636 89.2091 100.133 89.9545 100.133 89.9545C101.872 86.4763 102.866 88.7123 103.859 90.2029C102.617 89.2091 101.127 88.4638 100.878 90.2029C100.63 91.4451 101.127 91.6935 101.127 91.6935C101.375 87.7185 104.108 91.9419 104.853 91.4451V91.1966C105.102 90.6998 105.102 89.706 105.35 88.7123C106.095 89.2091 107.089 90.9482 107.586 90.6998V90.4513C107.834 90.2029 108.083 89.4576 108.331 88.7123C109.325 88.4638 109.325 91.1966 109.822 91.1966C110.816 90.6998 112.803 86.9732 112.803 90.6998C112.803 90.6998 113.3 90.2029 113.052 88.9607C112.803 87.2216 111.561 88.2154 110.567 89.4576C111.313 87.4701 112.306 85.2341 113.549 88.4638C113.549 88.4638 114.045 87.7185 113.052 86.2279C112.803 85.4826 111.809 86.4763 111.064 88.2154ZM104.853 87.967C104.605 87.967 104.356 87.967 104.108 88.2154V87.4701C104.853 86.7248 105.35 86.7248 105.847 87.2216C105.35 86.9732 105.102 87.4701 104.853 87.967ZM104.356 88.9607C104.605 88.9607 104.605 88.9607 104.356 88.9607C104.605 88.9607 104.356 89.2091 104.356 89.4576C104.605 89.2091 104.605 89.2091 104.356 88.9607ZM108.083 88.2154C108.083 88.4638 107.834 88.7123 107.834 88.9607V88.4638L108.083 88.2154ZM107.089 86.7248C106.841 86.7248 106.841 86.7248 107.089 86.7248ZM105.599 88.2154C105.847 87.967 106.095 87.967 106.344 87.967C106.592 88.4638 106.592 88.9607 106.592 89.2091L105.599 88.2154ZM108.828 88.4638C109.077 88.2154 109.325 87.7185 109.325 87.7185C110.319 87.7185 110.07 89.2091 109.822 90.2029C109.574 89.4576 109.325 88.7123 108.828 88.4638Z" fill="#75A843"/>
<path d="M125.225 112.563L125.474 112.315C125.474 112.066 125.225 112.066 125.225 112.066C125.225 112.066 124.977 112.563 124.977 112.315C123.486 111.321 122.492 115.544 122.492 115.544C122.492 115.544 126.964 113.805 125.225 112.563ZM104.108 90.9489L104.605 94.427L105.35 94.1786L104.853 90.7005L104.108 90.9489ZM106.709 94.027L107.015 90.0645L107.76 90.1216L107.452 94.0842L106.709 94.027ZM108.331 93.9301L109.077 94.1786L110.567 91.1973L109.822 90.9489L108.331 93.9301Z" fill="#C94747"/>
</svg>
