<svg width="164" height="164" viewBox="0 0 164 164" fill="none" xmlns="http://www.w3.org/2000/svg">
<rect width="164" height="164" rx="82" stroke="#DFA9A9"/>
<g clip-path="url(#clip0_497_1066)">
<path d="M166.667 6.16699H85V64.5003H190V29.5003C190 23.3119 187.542 17.377 183.166 13.0012C178.79 8.62532 172.855 6.16699 166.667 6.16699Z" fill="#EDECEC"/>
<path d="M44.1667 6.16699H3.33333C-2.85505 6.16699 -8.78998 8.62532 -13.1658 13.0012C-17.5417 17.377 -20 23.3119 -20 29.5003L-20 64.5003H44.1667V6.16699Z" fill="#EEEEEE"/>
<path d="M166.667 157.833H85V99.5H190V134.5C190 140.688 187.542 146.623 183.166 150.999C178.79 155.375 172.855 157.833 166.667 157.833ZM44.1667 157.833H3.33333C-2.85505 157.833 -8.78998 155.375 -13.1658 150.999C-17.5417 146.623 -20 140.688 -20 134.5V99.5H44.1667V157.833Z" fill="#EDECEC"/>
<path d="M85 6.16699H44.1667V64.5003H-20V99.5003H44.1667V157.834H85V99.5003H190V64.5003H85V6.16699Z" fill="#003580"/>
</g>
<rect x="4.1" y="4.1" width="155.8" height="155.8" rx="77.9" stroke="white" stroke-width="8.2"/>
<defs>
<clipPath id="clip0_497_1066">
<rect width="164" height="164" rx="82" fill="white"/>
</clipPath>
</defs>
</svg>
