<svg width="164" height="164" viewBox="0 0 164 164" fill="none" xmlns="http://www.w3.org/2000/svg">
<rect width="164" height="164" rx="82" stroke="#DFA9A9"/>
<g clip-path="url(#clip0_497_788)">
<g clip-path="url(#clip1_497_788)">
<path d="M164.445 4.44238H14.2788L87.8899 54.4979H188.001V27.9979C188.001 21.7506 185.519 15.7592 181.102 11.3416C176.684 6.92412 170.693 4.44238 164.445 4.44238Z" fill="#DE3830"/>
<path d="M14.2788 157.556H164.445C170.693 157.556 176.684 155.074 181.102 150.656C185.519 146.239 188.001 140.247 188.001 134V107.5H87.8899L14.2788 157.556Z" fill="#002395"/>
<path d="M-24 39.7783V122.223L37.8333 81.0005L-24 39.7783Z" fill="#141414"/>
<path d="M-24 28V39.7778L37.8333 81L-24 122.222V134L55.5 81L-24 28Z" fill="#FFB611"/>
<path d="M-3.14745 4.60938C-8.88695 5.27236 -14.1826 8.02163 -18.0274 12.3343C-21.8721 16.647 -23.9977 22.2224 -24 28L55.5 81L-24 134C-23.9977 139.778 -21.8721 145.353 -18.0274 149.666C-14.1826 153.978 -8.88695 156.728 -3.14745 157.391L84.9444 95.7223H188V66.2778H84.9444L-3.14745 4.60938Z" fill="#007A4D"/>
<path d="M14.2781 4.44238H-0.444094C-1.35884 4.44631 -2.25984 4.50127 -3.14709 4.60727L84.9448 66.2757H188V54.4979H87.8892L14.2781 4.44238ZM-3.14709 157.389C-2.25984 157.495 -1.35884 157.55 -0.444094 157.553H14.2781L87.8892 107.498H188V95.7202H84.9448L-3.14709 157.389Z" fill="#EEEEEE"/>
<g clip-path="url(#clip2_497_788)">
<path d="M181.5 135.248C181.5 141.348 179.077 147.198 174.763 151.511C170.45 155.825 164.6 158.248 158.5 158.248H-2.5C-8.59998 158.248 -14.4501 155.825 -18.7635 151.511C-23.0768 147.198 -25.5 141.348 -25.5 135.248V31.748C-25.5 25.6481 -23.0768 19.7979 -18.7635 15.4846C-14.4501 11.1713 -8.59998 8.74805 -2.5 8.74805H158.5C164.6 8.74805 170.45 11.1713 174.763 15.4846C179.077 19.7979 181.5 25.6481 181.5 31.748V135.248Z" fill="#141414"/>
<path d="M-25.5 54.752H181.5V112.252H-25.5V54.752Z" fill="#EEEEEE"/>
<path d="M158.5 8.74805H-2.5C-8.59998 8.74805 -14.4501 11.1713 -18.7635 15.4846C-23.0768 19.7979 -25.5 25.6481 -25.5 31.748L-25.5 54.748H181.5V31.748C181.5 25.6481 179.077 19.7979 174.763 15.4846C170.45 11.1713 164.6 8.74805 158.5 8.74805Z" fill="#CE1225"/>
<path d="M59.312 103.98C59.312 103.98 59.404 105.418 60.6575 106.137C60.6575 106.137 60.301 107.218 61.6465 107.844C62.992 108.471 67.845 109.46 76.2918 109.46C84.7385 109.46 89.4995 108.563 90.7588 107.931C92.018 107.304 92.1043 105.866 92.1043 105.866C92.1043 105.866 93.4498 105.148 93.3635 104.251C93.2773 103.354 91.4775 102.365 91.4775 102.365C91.4775 102.365 91.029 101.197 89.7698 100.749C88.5105 100.3 84.4683 102.727 76.7403 102.365C69.0123 102.002 64.6135 100.835 63.176 100.927C61.7385 101.019 61.1118 102.457 61.1118 102.457C61.1118 102.457 59.4903 103.175 59.312 103.98Z" fill="#BF9300"/>
<path d="M60.301 103.895C60.2262 104.43 61.382 105.603 61.382 105.603C61.382 105.603 61.382 106.948 62.5492 107.31C63.7165 107.673 68.4775 108.57 76.2055 108.478C83.9335 108.386 89.4132 107.937 90.04 107.397C90.6667 106.856 91.2072 105.689 91.2072 105.689C91.2072 105.689 92.4665 104.792 92.3745 104.073C92.2825 103.354 90.4885 102.906 90.4885 102.906C90.4885 102.906 89.9825 101.825 89.3845 101.376C88.7865 100.928 84.9225 103.17 76.654 103.17C68.5637 103.17 63.8947 101.192 63.0897 101.284C62.2847 101.376 61.7442 102.9 61.7442 102.9C61.7442 102.9 60.393 103.268 60.301 103.895Z" fill="#EEEEEE"/>
<path d="M94.4394 69.0336C94.4394 69.0336 94.2611 64.8131 90.3971 65.3479C86.5331 65.8884 86.2629 67.7744 82.1286 68.2229L81.2776 68.3034C80.5887 66.4337 80.2081 64.4646 80.1506 62.4729C80.1506 59.7761 80.9614 58.6089 78.1726 57.2634C75.3896 55.9179 74.8491 57.1714 74.8491 57.1714C74.8491 57.1714 72.6929 56.0904 71.7039 56.9011C70.7149 57.7119 71.2554 59.7761 71.7039 59.1494C72.1524 58.5226 73.9521 60.3166 73.9521 60.3166C74.5616 63.3009 72.8309 66.5324 71.6464 68.3321C71.2381 68.2919 70.9104 68.2746 70.4504 68.2229C66.3161 67.7744 66.0459 65.8884 62.1819 65.3479C58.3179 64.8074 58.1396 69.0336 58.1396 69.0336L56.6101 101.648L59.7554 99.2211L59.7726 98.8359L66.3161 93.0226L67.4086 91.9301L64.7004 99.8479C64.7004 99.8479 60.5661 99.5776 61.7334 102.901C61.7334 102.901 62.3601 101.015 63.4411 101.372C64.5221 101.728 67.6616 102.539 67.6616 102.539L68.7426 104.247L70.0881 102.987L74.3086 102.809C74.3086 102.809 75.6541 103.166 75.5679 104.339C75.8135 103.834 75.8881 103.263 75.7806 102.711L77.0514 102.625C76.9173 103.204 76.9863 103.811 77.2469 104.344C77.1549 103.177 78.5061 102.815 78.5061 102.815L82.7266 102.993L84.0779 104.252L85.1589 102.545C85.1589 102.545 88.2984 101.734 89.3736 101.377C90.4489 101.021 91.0814 102.907 91.0814 102.907C92.2486 99.5834 88.1144 99.8536 88.1144 99.8536L85.5326 92.3039L86.2571 93.0284L92.8006 98.8416L92.8179 99.2269L95.9631 101.653L94.4394 69.0336ZM76.5741 88.8021C70.0939 84.8001 69.5591 74.6974 69.5591 74.6974C69.5591 74.6974 73.5669 74.4904 76.4764 72.4491C79.0984 74.7779 83.5719 74.5134 83.5719 74.5134C83.5719 74.5134 83.2671 84.6564 76.5741 88.8021ZM91.3861 67.7801L85.9064 72.9896L84.9864 73.3576C84.0434 73.3921 79.4549 73.4036 76.5626 70.8334C72.9689 73.3519 68.0296 73.5301 68.0296 73.5301L67.2649 73.2254L61.1986 67.7801L59.6059 68.4356C59.6749 67.7859 60.0314 66.3254 62.0094 66.6129C65.2524 67.0786 66.5921 68.8611 70.0076 69.2176L70.9736 69.3154L70.6344 69.7524C71.1634 69.7524 71.9454 69.5971 72.5204 69.4706L73.1701 69.5339L72.8769 70.5574C73.3369 70.4194 74.0039 70.0226 74.5501 69.6719L76.0451 69.8156L76.3844 70.2871L77.5229 69.7179L78.2876 69.6431C78.9489 70.0284 79.8919 70.3734 79.8919 70.3734L80.0701 69.4764C80.8809 70.0169 82.2264 70.0169 82.2264 70.0169C82.0711 69.8904 81.9159 69.5684 81.7549 69.2924L82.5829 69.2061C85.9984 68.8496 87.3324 67.0671 90.5811 66.6014C92.5591 66.3196 92.9156 67.7744 92.9846 68.4241L91.3861 67.7801Z" fill="#BF9300"/>
<path d="M74.4058 88.6238L71.1685 100.929L65.7808 99.8535L71.3525 84.041L74.4058 88.6238ZM78.425 88.6238L81.6565 100.929L87.05 99.8535L81.4783 84.041L78.425 88.6238Z" fill="#EEEEEE"/>
<path d="M70.905 75.6858C70.905 75.6858 71.3535 80.8953 73.688 84.9376V74.5186C73.688 74.5186 72.1585 75.4156 70.905 75.6858ZM82.1347 75.8641C82.1347 75.8641 81.6862 81.0736 79.3517 85.1158V74.6968C79.346 74.6968 80.8755 75.5938 82.1347 75.8641Z" fill="#BF9300"/>
<path d="M71.9797 58.0737C71.9797 58.0737 72.6065 57.4469 74.4062 58.7004C75.5735 59.5169 76.6085 60.1379 76.6085 60.1379C76.6085 60.1379 77.3445 59.3617 78.4255 59.5399C79.5065 59.7182 78.9027 61.2189 79.081 64.3584C79.2592 67.5037 80.5185 68.8492 80.5185 68.8492L78.989 67.9522L79.081 68.9412L77.3732 68.1304L76.5625 69.2977L75.7517 68.0384L74.4407 68.8377L74.044 67.7682L72.5145 68.5789C72.5145 68.5789 74.7627 65.7959 74.941 62.7369C74.9927 61.8227 74.7627 59.7699 74.7627 59.7699C74.7627 59.7699 73.331 57.9817 71.9797 58.0737Z" fill="#EEEEEE"/>
<path d="M63.8955 104.524C62.8663 105.139 63.2688 105.513 63.8955 105.783C64.5223 106.053 68.2943 106.507 75.936 106.68C83.7503 106.858 88.6033 105.961 89.23 105.599C89.8568 105.242 89.9488 104.61 88.8735 104.432C87.7925 104.253 82.4048 105.15 75.844 105.15C67.7595 105.156 64.344 104.253 63.8955 104.524Z" fill="#BF9300"/>
</g>
</g>
</g>
<rect x="4.1" y="4.1" width="155.8" height="155.8" rx="77.9" stroke="white" stroke-width="8.2"/>
<defs>
<clipPath id="clip0_497_788">
<rect width="164" height="164" rx="82" fill="white"/>
</clipPath>
<clipPath id="clip1_497_788">
<rect width="212" height="212" fill="white" transform="translate(-24 -25)"/>
</clipPath>
<clipPath id="clip2_497_788">
<rect width="207" height="207" fill="white" transform="translate(-25.5 -20)"/>
</clipPath>
</defs>
</svg>
