<svg width="164" height="164" viewBox="0 0 164 164" fill="none" xmlns="http://www.w3.org/2000/svg">
<rect width="164" height="164" rx="82" stroke="#DFA9A9"/>
<g clip-path="url(#clip0_497_996)">
<path d="M163.667 6.16699H0.333334C-5.85505 6.16699 -11.79 8.62532 -16.1658 13.0012C-20.5417 17.377 -23 23.3119 -23 29.5003L-23 52.8337H187V29.5003C187 23.3119 184.542 17.377 180.166 13.0012C175.79 8.62532 169.855 6.16699 163.667 6.16699Z" fill="#CC162B"/>
<path d="M-23 134.5C-23 140.689 -20.5417 146.624 -16.1658 150.999C-11.79 155.375 -5.85505 157.834 0.333334 157.834H163.667C169.855 157.834 175.79 155.375 180.166 150.999C184.542 146.624 187 140.689 187 134.5V111.167H-23V134.5Z" fill="#3C762C"/>
<path d="M-23 99.4997H187V111.166H-23V99.4997ZM-23 52.833H187V64.4997H-23V52.833Z" fill="#EEEEEE"/>
<path d="M-23 64.5H187V99.5H-23V64.5Z" fill="#0D218A"/>
</g>
<rect x="4.1" y="4.1" width="155.8" height="155.8" rx="77.9" stroke="white" stroke-width="8.2"/>
<defs>
<clipPath id="clip0_497_996">
<rect width="164" height="164" rx="82" fill="white"/>
</clipPath>
</defs>
</svg>
