<svg width="164" height="164" viewBox="0 0 164 164" fill="none" xmlns="http://www.w3.org/2000/svg">
<rect width="164" height="164" rx="82" stroke="#DFA9A9"/>
<g clip-path="url(#clip0_497_1001)">
<path d="M163.667 6.16699H0.333334C-5.85505 6.16699 -11.79 8.62532 -16.1658 13.0012C-20.5417 17.377 -23 23.3119 -23 29.5003L-23 58.667H187V29.5003C187 23.3119 184.542 17.377 180.166 13.0012C175.79 8.62532 169.855 6.16699 163.667 6.16699Z" fill="#CC212D"/>
<path d="M66.9675 105.334H97.2133L82.0933 94.3437L66.9675 105.334ZM87.8917 76.5112H106.646L91.4733 87.5303L97.2542 105.334H187V58.667H82.0933L87.8917 76.5112ZM72.7133 87.5303L57.5408 76.5112H76.295L82.0933 58.667H-23V105.334H66.9267L72.7133 87.5303Z" fill="#FBD116"/>
<path d="M97.2658 105.368L97.2133 105.333H66.9617L66.9092 105.368L66.9267 105.333H-23V134.5C-23 140.688 -20.5417 146.623 -16.1658 150.999C-11.79 155.375 -5.85505 157.833 0.333334 157.833H163.667C169.855 157.833 175.79 155.375 180.166 150.999C184.542 146.623 187 140.688 187 134.5V105.333H97.2542L97.2658 105.368Z" fill="#288541"/>
<path d="M57.5408 76.5112L72.7133 87.5303L66.9266 105.334L66.9149 105.369L66.9674 105.334L82.0933 94.3437L97.2133 105.334L97.2658 105.369L97.2541 105.334L91.4733 87.5303L106.646 76.5112H87.8916L82.0933 58.667L76.2949 76.5112H57.5408Z" fill="black"/>
</g>
<rect x="4.1" y="4.1" width="155.8" height="155.8" rx="77.9" stroke="white" stroke-width="8.2"/>
<defs>
<clipPath id="clip0_497_1001">
<rect width="164" height="164" rx="82" fill="white"/>
</clipPath>
</defs>
</svg>
