<svg width="164" height="164" viewBox="0 0 164 164" fill="none" xmlns="http://www.w3.org/2000/svg">
<rect width="164" height="164" rx="82" stroke="#DFA9A9"/>
<g clip-path="url(#clip0_497_761)">
<g clip-path="url(#clip1_497_761)">
<path d="M164.445 4.44238H14.2788L87.8899 54.4979H188.001V27.9979C188.001 21.7506 185.519 15.7592 181.102 11.3416C176.684 6.92412 170.693 4.44238 164.445 4.44238Z" fill="#DE3830"/>
<path d="M14.2788 157.556H164.445C170.693 157.556 176.684 155.074 181.102 150.656C185.519 146.239 188.001 140.247 188.001 134V107.5H87.8899L14.2788 157.556Z" fill="#002395"/>
<path d="M-24 39.7783V122.223L37.8333 81.0005L-24 39.7783Z" fill="#141414"/>
<path d="M-24 28V39.7778L37.8333 81L-24 122.222V134L55.5 81L-24 28Z" fill="#FFB611"/>
<path d="M-3.14745 4.60938C-8.88695 5.27236 -14.1826 8.02163 -18.0274 12.3343C-21.8721 16.647 -23.9977 22.2224 -24 28L55.5 81L-24 134C-23.9977 139.778 -21.8721 145.353 -18.0274 149.666C-14.1826 153.978 -8.88695 156.728 -3.14745 157.391L84.9444 95.7223H188V66.2778H84.9444L-3.14745 4.60938Z" fill="#007A4D"/>
<path d="M14.2781 4.44238H-0.444094C-1.35884 4.44631 -2.25984 4.50127 -3.14709 4.60727L84.9448 66.2757H188V54.4979H87.8892L14.2781 4.44238ZM-3.14709 157.389C-2.25984 157.495 -1.35884 157.55 -0.444094 157.553H14.2781L87.8892 107.498H188V95.7202H84.9448L-3.14709 157.389Z" fill="#EEEEEE"/>
</g>
<path d="M23.5553 157.555H188.444C192.43 157.553 196.351 156.54 199.839 154.61H12.1603C15.6483 156.54 19.569 157.553 23.5553 157.555Z" fill="#0D5EB0"/>
<path d="M50.0556 89.8354H0V104.558H212V89.8354H82.4444H50.0556ZM0 134.002C0.00785185 135.003 0.0765556 135.985 0.206111 136.947H211.8C211.925 135.985 211.992 135.003 212 134.002V122.224H0V134.002ZM82.4444 57.4465H212V72.1687H82.4444V57.4465ZM82.4444 25.0576V39.7798H212V28.0021C211.992 27.001 211.923 26.0195 211.794 25.0576H82.4444Z" fill="#EEEEEE"/>
<path d="M82.4444 39.7757H212V57.4424H82.4444V39.7757ZM0 104.554H212V122.22H0V104.554ZM12.1606 154.609H199.839C203.083 152.813 205.856 150.277 207.934 147.207C210.013 144.138 211.337 140.621 211.8 136.942H0.206111C0.668251 140.62 1.99173 144.137 4.06896 147.206C6.14618 150.276 8.91851 152.813 12.1606 154.609ZM0 57.4424H32.3889V89.8313H0V57.4424ZM82.4444 72.1646V57.4424H50.0556V89.8313H212V72.1646H82.4444ZM199.839 7.38683C196.351 5.45697 192.431 4.44387 188.444 4.44238H23.5556C17.8208 4.44615 12.2845 6.54182 7.98469 10.3364C3.6849 14.131 0.91706 19.3638 0.200222 25.0535C0.0824445 26.0193 0 26.9968 0 27.9979V39.7757H32.3889V7.38683H50.0556V39.7757H82.4444V25.0535H211.794C211.332 21.3759 210.008 17.8592 207.931 14.7894C205.854 11.7196 203.081 9.18338 199.839 7.38683Z" fill="#0D5EB0"/>
<path d="M50.0556 39.7757V4.44238H32.3889V39.7757H0V57.4424H32.3889V89.8313H50.0556V57.4424H82.4445V39.7757H50.0556Z" fill="#EEEEEE"/>
</g>
<rect x="4.1" y="4.1" width="155.8" height="155.8" rx="77.9" stroke="white" stroke-width="8.2"/>
<defs>
<clipPath id="clip0_497_761">
<rect width="164" height="164" rx="82" fill="white"/>
</clipPath>
<clipPath id="clip1_497_761">
<rect width="212" height="212" fill="white" transform="translate(-24 -25)"/>
</clipPath>
</defs>
</svg>
