<svg width="164" height="164" viewBox="0 0 164 164" fill="none" xmlns="http://www.w3.org/2000/svg">
<rect width="164" height="164" rx="82" stroke="#DFA9A9"/>
<g clip-path="url(#clip0_497_1288)">
<path d="M163.667 6.16699H0.333334C-5.85505 6.16699 -11.79 8.62532 -16.1658 13.0012C-20.5417 17.377 -23 23.3119 -23 29.5003L-23 134.5C-23 140.689 -20.5417 146.624 -16.1658 150.999C-11.79 155.375 -5.85505 157.834 0.333334 157.834H163.667C169.855 157.834 175.79 155.375 180.166 150.999C184.542 146.624 187 140.689 187 134.5V29.5003C187 23.3119 184.542 17.377 180.166 13.0012C175.79 8.62532 169.855 6.16699 163.667 6.16699Z" fill="#009B3A"/>
<path d="M185.612 142.439C186.51 139.96 187 137.288 187 134.5V29.4997C187 26.7172 186.51 24.0455 185.618 21.5722L185.612 21.5605L101.927 81.9997L185.612 142.439ZM62.0733 81.9997L-21.6117 21.5605C-22.5308 24.1045 -23.0006 26.7948 -23 29.4997V134.5C-23 137.288 -22.51 139.96 -21.6117 142.439L62.0733 81.9997Z" fill="#141414"/>
<path d="M166.787 6.37109L81.9998 67.6094L-2.78768 6.37109C-7.01101 6.94681 -11.0026 8.66554 -14.3202 11.3416C-17.6378 14.0177 -20.1612 17.5494 -21.6177 21.5553L62.0732 82.0003L-21.6118 142.439L-21.606 142.457C-20.1543 146.46 -17.635 149.989 -14.321 152.663C-11.0069 155.336 -7.02453 157.052 -2.80518 157.624H-2.78184L81.9998 96.3911L166.782 157.624C171.006 157.055 174.993 155.34 178.312 152.666C181.631 149.991 184.153 146.458 185.606 142.451L185.612 142.434L101.926 82.0003L185.612 21.5611C184.161 17.5507 181.64 14.0144 178.321 11.3364C175.003 8.65841 171.014 6.94111 166.787 6.37109Z" fill="#FFD202"/>
</g>
<rect x="4.1" y="4.1" width="155.8" height="155.8" rx="77.9" stroke="white" stroke-width="8.2"/>
<defs>
<clipPath id="clip0_497_1288">
<rect width="164" height="164" rx="82" fill="white"/>
</clipPath>
</defs>
</svg>
