<svg width="164" height="164" viewBox="0 0 164 164" fill="none" xmlns="http://www.w3.org/2000/svg">
<rect width="164" height="164" rx="82" stroke="#DFA9A9"/>
<g clip-path="url(#clip0_497_1006)">
<path d="M187 134.5C187 140.689 184.542 146.624 180.166 150.999C175.79 155.375 169.855 157.834 163.667 157.834H0.333334C-5.85505 157.834 -11.79 155.375 -16.1658 150.999C-20.5417 146.624 -23 140.689 -23 134.5V29.5003C-23 23.3119 -20.5417 17.377 -16.1658 13.0012C-11.79 8.62532 -5.85505 6.16699 0.333334 6.16699H163.667C169.855 6.16699 175.79 8.62532 180.166 13.0012C184.542 17.377 187 23.3119 187 29.5003V134.5Z" fill="#006600"/>
<path d="M-23 52.833H187V111.166H-23V52.833Z" fill="#BB1600"/>
<path d="M163.667 6.16699H0.333334C-5.85505 6.16699 -11.79 8.62532 -16.1658 13.0012C-20.5417 17.377 -23 23.3119 -23 29.5003L-23 52.8337H187V29.5003C187 23.3119 184.542 17.377 180.166 13.0012C175.79 8.62532 169.855 6.16699 163.667 6.16699Z" fill="#141414"/>
<path d="M-23 52.833H187V58.6663H-23V52.833ZM-23 105.333H187V111.166H-23V105.333Z" fill="#EEEEEE"/>
<path d="M111.482 31.8562C111.097 31.6287 110.397 32.3754 106.85 36.3129C105.59 37.7129 104.015 39.457 102.271 41.3295C98.7241 45.1387 95.0141 49.852 97.7033 52.617L55.3241 123.848C55.2599 123.953 55.2133 124.122 55.3416 124.355C55.5413 124.636 55.7966 124.872 56.0916 125.05C56.3867 125.228 56.7152 125.343 57.0566 125.388H57.0741C57.3424 125.388 57.4708 125.265 57.5349 125.16L99.9316 53.9062C103.583 54.7695 105.905 49.3329 107.544 44.4795C108.361 42.047 109.142 39.8362 109.767 38.0629C111.528 33.0695 111.843 32.072 111.482 31.8562Z" fill="#141414"/>
<path d="M107.112 36.547C105.852 37.947 104.277 39.6911 102.527 41.5695C97.3591 47.1228 95.9708 50.4828 98.0416 52.4661L98.1466 52.5595L55.6216 124.029C55.5983 124.076 55.6274 124.152 55.6508 124.187C55.9954 124.64 56.5008 124.942 57.0625 125.033H57.0741C57.1325 125.033 57.2083 125.027 57.2375 124.974L99.6983 53.6095L99.7683 53.4928L99.8966 53.5278C102.568 54.2861 104.832 51.457 107.212 44.3578C108.028 41.9253 108.81 39.7145 109.434 37.9353C110.414 35.1645 111.266 32.7495 111.266 32.1953C110.787 32.4636 109.078 34.3653 107.112 36.547Z" fill="white"/>
<path d="M66.2965 52.6179C68.9857 49.8529 65.2815 45.1395 61.729 41.3304C59.9849 39.452 58.4099 37.7137 57.1499 36.3137C53.6032 32.382 52.9032 31.6295 52.5182 31.857C52.1565 32.0787 52.4715 33.0704 54.2274 38.0579C54.8515 39.8312 55.6332 42.042 56.4499 44.4745C58.0832 49.3337 60.4049 54.7645 64.0624 53.9012L106.459 125.155C106.523 125.26 106.652 125.383 106.92 125.383H106.937C107.279 125.338 107.607 125.223 107.902 125.045C108.197 124.867 108.453 124.631 108.652 124.35C108.775 124.117 108.734 123.948 108.67 123.843L66.2965 52.6179Z" fill="#141414"/>
<path d="M65.9582 52.4662C68.0291 50.4828 66.6466 47.1228 61.4724 41.5695C59.7224 39.6912 58.1532 37.947 56.8874 36.547C54.9216 34.3653 53.2066 32.4637 52.7224 32.2012C52.7224 32.7553 53.5741 35.1703 54.5541 37.9412C55.1782 39.7203 55.9657 41.9312 56.7766 44.3637C59.1624 51.4628 61.4199 54.292 64.0916 53.5337L64.2199 53.4987L64.2899 53.6153L106.751 124.98C106.78 125.033 106.862 125.039 106.914 125.039H106.926C107.49 124.954 107.997 124.65 108.337 124.193C108.361 124.152 108.39 124.076 108.367 124.035L65.8416 52.5653L65.9582 52.4662Z" fill="white"/>
<path d="M82.105 38.0045L82 37.9229L81.895 38.0045C67.3583 48.9129 60.2883 63.2687 60.2883 81.8887C60.2883 100.509 67.3525 114.865 81.895 125.779L82 125.855L82.105 125.779C96.6417 114.87 103.712 100.515 103.712 81.8887C103.712 63.2629 96.6417 48.9012 82.105 38.0045Z" fill="#141414"/>
<path d="M98.7942 59.0104C95.2767 51.0595 89.7467 44.1937 81.9942 38.3604C74.2592 44.1879 68.735 51.042 65.2117 58.9695C68.2742 65.8587 69.7733 73.3662 69.7733 81.9354C69.7733 90.4929 68.28 97.9829 65.2292 104.849C68.7525 112.759 74.2708 119.601 81.9883 125.423C89.7233 119.595 95.2475 112.741 98.765 104.808C95.7258 97.9362 94.2383 90.452 94.2383 81.9354C94.25 73.407 95.7433 65.9112 98.7942 59.0104Z" fill="#BB1600"/>
<path d="M81.9999 87.4071C83.7849 87.4071 85.2374 84.9338 85.2374 81.8888C85.2374 78.8438 83.7849 76.3646 81.9999 76.3646C80.2149 76.3646 78.7683 78.838 78.7683 81.8888C78.7624 84.9338 80.2149 87.4071 81.9999 87.4071ZM80.6524 72.8413C77.7241 68.5305 76.3008 63.0588 76.3008 56.3855C76.3008 49.7121 77.7241 44.2346 80.6524 39.918V72.8413ZM83.3474 72.8413C86.2699 68.5305 87.6874 63.0588 87.6874 56.3855C87.6874 49.7121 86.2699 44.2346 83.3474 39.918V72.8413ZM80.6524 90.9246C77.7241 95.2296 76.3008 100.707 76.3008 107.38C76.3008 114.065 77.7241 119.525 80.6524 123.842V90.9246ZM83.3474 90.9246C86.2699 95.2296 87.6874 100.707 87.6874 107.38C87.6874 114.065 86.2699 119.525 83.3474 123.842V90.9246Z" fill="white"/>
</g>
<rect x="4.1" y="4.1" width="155.8" height="155.8" rx="77.9" stroke="white" stroke-width="8.2"/>
<defs>
<clipPath id="clip0_497_1006">
<rect width="164" height="164" rx="82" fill="white"/>
</clipPath>
</defs>
</svg>
