<svg width="164" height="164" viewBox="0 0 164 164" fill="none" xmlns="http://www.w3.org/2000/svg">
<rect width="164" height="164" rx="82" stroke="#DFA9A9"/>
<g clip-path="url(#clip0_497_1150)">
<g clip-path="url(#clip1_497_1150)">
<path d="M187 134.5C187 140.689 184.542 146.624 180.166 150.999C175.79 155.375 169.855 157.834 163.667 157.834H0.333334C-5.85505 157.834 -11.79 155.375 -16.1658 150.999C-20.5417 146.624 -23 140.689 -23 134.5V29.5003C-23 23.3119 -20.5417 17.377 -16.1658 13.0012C-11.79 8.62532 -5.85505 6.16699 0.333334 6.16699H163.667C169.855 6.16699 175.79 8.62532 180.166 13.0012C184.542 17.377 187 23.3119 187 29.5003V134.5Z" fill="#EEEEEE"/>
<path d="M163.667 6.16699H0.333334C-5.85505 6.16699 -11.79 8.62532 -16.1658 13.0012C-20.5417 17.377 -23 23.3119 -23 29.5003L-23 82.0003H186.568L187 29.5003C187 23.3119 184.542 17.377 180.166 13.0012C175.79 8.62532 169.855 6.16699 163.667 6.16699Z" fill="#CE1126"/>
<path d="M98.7885 80.4654C100.404 78.2663 102.656 78.2779 105.345 79.6779C104.972 76.1138 100.719 73.8621 98.8002 73.5588C99.5818 70.9338 102.096 69.6213 105.089 70.0121C103.537 66.7863 98.4035 66.6813 96.4844 67.0721C96.3385 64.3246 98.2694 62.2188 101.198 61.5421C98.666 59.0513 93.8069 60.7429 92.1269 61.7638C91.0769 59.2379 92.1677 56.5896 94.7052 54.9329C91.4852 53.4688 87.4777 56.7471 86.2527 58.2929C84.4035 56.2863 84.5494 53.4163 86.3752 50.9838C82.8519 50.7213 80.1977 55.2129 79.5677 57.0854C77.1527 55.8488 76.3185 53.1129 77.1994 50.1904C73.816 51.1763 72.8302 56.3096 72.8769 58.2871C70.1994 57.9663 68.4844 55.6796 68.3269 52.6229C65.4802 54.7288 66.2794 59.8913 66.991 61.7346C64.3602 62.3704 61.9802 60.8071 60.8077 57.9954C58.8419 60.9646 61.3327 65.5379 62.6219 67.0196C60.3585 68.5246 57.6052 67.8946 55.5519 65.6488C54.7002 69.1254 58.5852 72.5613 60.3002 73.5063C58.6844 75.7054 57.7102 77.3213 55.0269 75.9388C55.3944 79.5029 58.381 80.1096 60.306 80.4071L98.7885 80.4654Z" fill="#FFAC33"/>
<path d="M93.2117 76.9955L106.43 72.1946L92.4067 72.2646L103.198 63.1471L90.0326 68.0938L97.1084 55.7738L86.3984 64.9963L88.9009 50.9613L81.9417 63.3455L79.5676 49.293L77.1934 63.3455L70.2401 50.9613L72.7426 64.9963L62.0384 55.7738L69.1084 68.0938L55.9426 63.1471L66.7401 72.2646L52.6992 72.1946L65.9292 76.9955H93.2117Z" fill="#FFF100"/>
<path d="M79.5675 90.8723C87.1042 90.8723 93.2117 84.6656 93.2117 77.0065C93.2117 69.3473 87.1042 63.1406 79.5675 63.1406C72.0308 63.1406 65.9233 69.3415 65.9233 77.0065C65.9233 84.6598 72.0308 90.8723 79.5675 90.8723Z" fill="#FFF100"/>
<path d="M79.5677 91.0475C71.9435 91.0475 65.7485 84.7475 65.7485 77.0067C65.7485 69.2658 71.9435 62.9717 79.5677 62.9717C87.186 62.9717 93.3869 69.2658 93.3869 77.0067C93.3869 84.7475 87.186 91.0475 79.5677 91.0475ZM79.5677 63.3158C72.1419 63.3158 66.0927 69.4583 66.0927 77.0067C66.0927 84.555 72.136 90.6975 79.5677 90.6975C86.9935 90.6975 93.0369 84.555 93.0369 77.0067C93.0369 69.4583 86.9935 63.3158 79.5677 63.3158Z" fill="#F15A29"/>
<path d="M78.7215 32.4396C77.6249 30.9638 76.2657 29.3946 74.6265 28.6538C72.9874 27.9188 70.059 27.4579 66.8974 28.2863C63.3565 29.2079 59.1332 30.6371 55.8082 29.6688C55.1724 29.4879 54.7174 30.1354 55.989 30.8704C57.2607 31.6113 60.4924 31.7979 63.7124 31.3779C65.9874 31.0863 68.9915 31.1913 70.1699 31.6521C71.5815 32.2063 74.1249 34.1021 75.2157 36.0388L78.7215 32.4396ZM85.9024 40.4779C87.2399 40.0771 88.6412 39.9326 90.0324 40.0521C91.2224 40.2504 92.8674 39.6613 93.4099 39.4163C94.3899 38.9788 93.3457 38.2321 89.5424 38.4479C87.0399 38.5821 86.0715 39.6846 85.9024 40.4779Z" fill="#FFAC33"/>
<path d="M100.048 26.5306C92.1792 26.1631 90.1783 27.7789 86.3633 28.0998C82.875 28.3914 80.6817 29.4531 78.9083 31.5181C77.3158 33.3673 75.735 35.0473 74.86 35.6306C74.755 35.7006 74.6908 35.7764 74.6033 35.8523C73.3083 35.7589 72.0075 35.2398 71.2667 34.5223C70.0358 33.3264 68.385 33.1864 67.1775 34.4056C66.95 34.6389 66.6758 35.0123 65.9233 35.0123C64.6283 35.0123 62.5633 35.0356 62.5342 37.2056C63.2167 36.3481 63.695 36.2081 65.9 36.2081C66.2383 36.2081 66.6525 36.3714 66.9908 36.9489C67.2873 37.4079 67.6904 37.7882 68.1658 38.0574C68.6413 38.3266 69.1748 38.4767 69.7208 38.4948C70.8292 38.5181 71.3017 39.2706 72.0367 40.0639C74.1775 42.3739 78.9492 43.8964 83.4058 42.1873C85.71 41.3064 87.8683 38.3023 91.7767 38.4014C95.5042 38.4948 97.4525 37.2931 94.2325 36.4589C91.0008 35.6306 88.5392 35.9514 86.3633 36.3714C85.5757 36.4821 84.7737 36.4305 84.0067 36.2198C84.3217 36.1381 84.555 35.9573 84.6308 35.6539C85.1967 35.8639 86.06 35.5198 86.2467 34.9131C86.8067 35.1464 87.6467 34.8198 87.8625 34.2714C88.6092 34.5456 89.3792 34.3414 89.7175 33.6706C90.2133 33.9681 91.0767 33.6473 91.2167 32.9531C91.7183 33.2798 92.4942 33.2331 92.675 32.4923C93.3108 32.9298 94.0808 32.5856 94.04 31.8448C94.3317 31.9848 94.9383 31.8448 94.9908 31.3839C96.1692 31.4306 97.6684 31.3839 97.6684 30.5089C98.6717 30.5556 100.078 30.1006 100.048 29.0156C100.748 28.9689 101.641 28.4206 101.851 27.6506C102.049 27.0031 101.32 26.5889 100.048 26.5306Z" fill="#FCD116"/>
<path d="M64.5 82H93.6667V93.6667H64.5V82Z" fill="#EEEEEE"/>
<path d="M186.568 138.775C184.328 140.006 181.797 140.601 177.457 140.601C166.858 140.601 166.858 134.861 156.247 134.861C145.642 134.861 145.642 140.695 134.704 140.695C124.426 140.695 124.426 134.861 113.658 134.861C103.222 134.861 103.222 140.695 92.6167 140.695C82.0117 140.695 82.0117 134.861 71.4009 134.861C60.79 134.861 60.7959 140.695 50.1909 140.695C39.5859 140.695 39.5859 134.861 28.9809 134.861C18.3759 134.861 18.3759 140.695 7.77086 140.695C-2.83414 140.695 -2.83414 134.861 -13.445 134.861C-17.89 134.861 -20.4508 135.9 -22.7258 137.095C-21.4308 148.739 -11.6658 157.833 0.33336 157.833H163.667C169.109 157.83 174.378 155.923 178.561 152.442C182.744 148.961 185.577 144.126 186.568 138.775ZM187 125.067V113.727C184.655 115.057 182.065 115.909 177.451 115.909C166.852 115.909 166.852 110.035 156.241 110.035C145.636 110.035 145.636 115.868 134.698 115.868C124.42 115.868 124.42 110.035 113.652 110.035C103.216 110.035 103.216 115.868 92.6109 115.868C82.0059 115.868 82.0059 110.035 71.395 110.035C60.7842 110.035 60.79 115.868 50.185 115.868C39.58 115.868 39.58 110.035 28.975 110.035C18.37 110.035 18.37 115.868 7.76503 115.868C-2.83997 115.868 -2.83997 110.035 -13.4508 110.035C-18.065 110.035 -20.6491 111.143 -22.9941 112.391V124.058C-20.6491 122.81 -18.0591 121.701 -13.4508 121.701C-2.84581 121.701 -2.84581 127.535 7.76503 127.535C18.3759 127.535 18.37 121.701 28.975 121.701C39.58 121.701 39.58 127.535 50.185 127.535C60.79 127.535 60.79 121.701 71.395 121.701C82 121.701 82 127.535 92.6109 127.535C103.222 127.535 103.216 121.701 113.78 121.701C124.426 121.701 124.426 127.535 135.013 127.535C145.642 127.535 145.642 121.701 156.241 121.701C170.113 121.701 169.792 127.482 177.463 127.482C182.065 127.482 184.655 126.275 187 125.067ZM187 100.235V88.8946C184.655 90.2246 182.065 91.0238 177.451 91.0238C166.852 91.0238 166.852 85.1963 156.241 85.1963C145.636 85.1963 145.636 91.0296 134.698 91.0296C124.42 91.0296 124.42 85.1963 113.652 85.1963C103.216 85.1963 103.216 91.0296 92.6109 91.0296C82.0059 91.0296 82.0059 85.1963 71.395 85.1963C60.7842 85.1963 60.79 91.0296 50.185 91.0296C39.58 91.0296 39.58 85.1963 28.975 85.1963C18.37 85.1963 18.37 91.0296 7.76503 91.0296C-2.83997 91.0296 -2.83997 85.1963 -13.4508 85.1963C-18.065 85.1963 -20.6491 86.3105 -22.9941 87.553V99.2196C-20.6491 97.9713 -18.0591 96.863 -13.4508 96.863C-2.84581 96.863 -2.84581 102.696 7.76503 102.696C18.3759 102.696 18.37 96.863 28.975 96.863C39.58 96.863 39.58 102.696 50.185 102.696C60.79 102.696 60.79 96.863 71.395 96.863C82 96.863 82 102.696 92.6109 102.696C103.222 102.696 103.216 96.863 113.78 96.863C124.426 96.863 124.426 102.696 135.013 102.696C145.642 102.696 145.642 96.863 156.241 96.863C166.858 96.863 166.858 102.515 177.463 102.515C182.065 102.521 184.655 101.442 187 100.235Z" fill="#00247D"/>
<path d="M187 88.5628V77.0187C184.655 78.3487 182.065 79.527 177.451 79.527C166.852 79.527 166.852 73.3262 156.241 73.3262C145.636 73.3262 145.636 79.1595 134.698 79.1595C124.42 79.1595 124.42 73.3262 113.652 73.3262C103.216 73.3262 103.216 79.1595 92.6109 79.1595C82.0059 79.1595 82.0059 73.3262 71.395 73.3262C60.7842 73.3262 60.79 79.1595 50.185 79.1595C39.58 79.1595 39.58 73.3262 28.975 73.3262C18.37 73.3262 18.37 79.1595 7.76503 79.1595C-2.83997 79.1595 -2.83997 73.3262 -13.4508 73.3262C-18.065 73.3262 -20.6491 74.4345 -22.9941 75.6828V87.3495C-20.6491 86.107 -18.0591 84.9928 -13.4508 84.9928C-2.84581 84.9928 -2.84581 90.8262 7.76503 90.8262C18.3759 90.8262 18.37 84.9928 28.975 84.9928C39.58 84.9928 39.58 90.8262 50.185 90.8262C60.79 90.8262 60.79 84.9928 71.395 84.9928C82 84.9928 82 90.8262 92.6109 90.8262C103.222 90.8262 103.216 84.9928 113.78 84.9928C124.426 84.9928 124.426 90.8262 135.013 90.8262C145.642 90.8262 145.642 84.9928 156.241 84.9928C166.858 84.9928 166.858 90.7503 177.463 90.7503C182.065 90.7503 184.655 89.7703 187 88.5628Z" fill="#EEEEEE"/>
</g>
</g>
<rect x="4.1" y="4.1" width="155.8" height="155.8" rx="77.9" stroke="white" stroke-width="8.2"/>
<defs>
<clipPath id="clip0_497_1150">
<rect width="164" height="164" rx="82" fill="white"/>
</clipPath>
<clipPath id="clip1_497_1150">
<rect width="210" height="210" fill="white" transform="translate(-23 -23)"/>
</clipPath>
</defs>
</svg>
