<svg width="164" height="164" viewBox="0 0 164 164" fill="none" xmlns="http://www.w3.org/2000/svg">
<rect width="164" height="164" rx="82" stroke="#DFA9A9"/>
<g clip-path="url(#clip0_497_1011)">
<path d="M208.203 143.47H1.79667C3.5679 147.722 6.55823 151.356 10.3908 153.911C14.2234 156.467 18.7268 157.831 23.3333 157.832H186.667C191.273 157.831 195.777 156.467 199.609 153.911C203.442 151.356 206.432 147.722 208.203 143.47ZM0 115.896H210V130.835H0V115.896ZM67.0833 33.1675H210V48.1067H67.0833V33.1675ZM208.203 20.5267C206.432 16.2743 203.442 12.6412 199.609 10.0855C195.777 7.52973 191.273 6.16561 186.667 6.16504H67.0833V20.5267H208.203ZM67.0833 60.7417H210V75.6809H67.0833V60.7417ZM0 88.3159H210V103.255H0V88.3159Z" fill="#BF0A30"/>
<path d="M67.0833 48.1015H210V60.7423H67.0833V48.1015ZM0 75.6815V88.3165H210V75.6815H70H0ZM67.0833 20.5273V33.1682H210V29.499C210 26.3198 209.353 23.2923 208.203 20.5273H67.0833ZM0 103.256H210V115.897H0V103.256ZM0 134.499C0 137.678 0.6475 140.706 1.79667 143.471H208.198C209.385 140.628 209.997 137.579 210 134.499V130.83H0V134.499Z" fill="#EEEEEE"/>
<path d="M23.3333 6.16504C17.145 6.16504 11.21 8.62336 6.83418 12.9992C2.45833 17.3751 0 23.31 0 29.4984L0 75.6809H70V6.16504H23.3333Z" fill="#002868"/>
<path d="M39.6315 36.7635L34.9998 22.5127L30.3682 36.7635H15.3882L27.5099 45.5719L22.8782 59.8227L34.9998 51.0144L47.1215 59.8227L42.4898 45.5719L54.6115 36.7635H39.6315Z" fill="white"/>
</g>
<rect x="4.1" y="4.1" width="155.8" height="155.8" rx="77.9" stroke="white" stroke-width="8.2"/>
<defs>
<clipPath id="clip0_497_1011">
<rect width="164" height="164" rx="82" fill="white"/>
</clipPath>
</defs>
</svg>
