<svg width="164" height="164" viewBox="0 0 164 164" fill="none" xmlns="http://www.w3.org/2000/svg">
<rect width="164" height="164" rx="82" stroke="#DFA9A9"/>
<g clip-path="url(#clip0_497_1051)">
<path d="M-23 117H187V47H-23V117ZM100.958 68.595L106.978 76.8783L116.72 73.7167L110.7 82L116.72 90.2833L106.978 87.1217L100.958 95.405V85.1617L91.2167 82L100.958 78.8325V68.595ZM82 63.0417C87.2617 63.0417 92.0217 65.1883 95.4575 68.6475C92.662 66.6158 89.2941 65.5231 85.8383 65.5267C83.2393 65.5221 80.676 66.1327 78.3581 67.3083C76.0401 68.484 74.0333 70.1914 72.5015 72.2911C70.9697 74.3908 69.9564 76.8231 69.5445 79.3893C69.1326 81.9555 69.3338 84.5828 70.1315 87.0564C70.9293 89.5299 72.301 91.7797 74.1346 93.6217C75.9682 95.4637 78.2116 96.8457 80.6815 97.6548C83.1514 98.4639 85.7778 98.6771 88.3458 98.2769C90.9139 97.8768 93.3508 96.8747 95.4575 95.3525C93.2594 97.568 90.5484 99.2066 87.565 100.123C84.5816 101.039 81.4181 101.205 78.3554 100.605C75.2926 100.005 72.4253 98.6584 70.008 96.6844C67.5906 94.7105 65.698 92.1702 64.498 89.2892C63.2981 86.4082 62.828 83.2755 63.1294 80.1691C63.4308 77.0628 64.4944 74.0789 66.2258 71.4823C67.9572 68.8857 70.3029 66.7567 73.0546 65.2843C75.8064 63.8118 78.8791 63.0415 82 63.0417Z" fill="#141414"/>
<path d="M163.667 6.16699H0.333334C-5.85505 6.16699 -11.79 8.62532 -16.1658 13.0012C-20.5417 17.377 -23 23.3119 -23 29.5003L-23 47.0003H187V29.5003C187 23.3119 184.542 17.377 180.166 13.0012C175.79 8.62532 169.855 6.16699 163.667 6.16699Z" fill="#E70013"/>
<path d="M163.667 157.833H0.333334C-5.85505 157.833 -11.79 155.375 -16.1658 150.999C-20.5417 146.623 -23 140.688 -23 134.5V117H187V134.5C187 140.688 184.542 146.623 180.166 150.999C175.79 155.375 169.855 157.833 163.667 157.833Z" fill="#239E46"/>
<path d="M82 100.959C87.2617 100.959 92.0217 98.812 95.4575 95.3528C92.662 97.3845 89.2942 98.4772 85.8384 98.4737C83.2393 98.4782 80.6761 97.8677 78.3581 96.692C76.0402 95.5163 74.0333 93.8089 72.5015 91.7092C70.9697 89.6096 69.9564 87.1772 69.5445 84.611C69.1327 82.0448 69.3338 79.4176 70.1316 76.944C70.9293 74.4704 72.301 72.2207 74.1346 70.3787C75.9682 68.5366 78.2117 67.1546 80.6816 66.3455C83.1515 65.5365 85.7778 65.3233 88.3458 65.7234C90.9139 66.1236 93.3509 67.1257 95.4575 68.6478C93.2594 66.4323 90.5484 64.7937 87.565 63.8774C84.5816 62.9612 81.4182 62.7956 78.3554 63.3954C75.2927 63.9953 72.4254 65.3419 70.008 67.3159C67.5907 69.2899 65.698 71.8301 64.4981 74.7111C63.2981 77.5922 62.828 80.7249 63.1294 83.8312C63.4308 86.9375 64.4944 89.9214 66.2258 92.518C67.9572 95.1146 70.3029 97.2436 73.0547 98.7161C75.8064 100.188 78.8791 100.959 82 100.959Z" fill="white"/>
<path d="M100.958 85.1614V95.4047L106.978 87.1214L116.72 90.2831L110.7 81.9997L116.72 73.7164L106.978 76.8781L100.958 68.5947V78.8322L91.2166 81.9997L100.958 85.1614Z" fill="white"/>
</g>
<rect x="4.1" y="4.1" width="155.8" height="155.8" rx="77.9" stroke="white" stroke-width="8.2"/>
<defs>
<clipPath id="clip0_497_1051">
<rect width="164" height="164" rx="82" fill="white"/>
</clipPath>
</defs>
</svg>
