<svg width="164" height="164" viewBox="0 0 164 164" fill="none" xmlns="http://www.w3.org/2000/svg">
<rect width="164" height="164" rx="82" stroke="#DFA9A9"/>
<g clip-path="url(#clip0_497_1311)">
<g clip-path="url(#clip1_497_1311)">
<path d="M0.333332 6.16699C-5.85505 6.16699 -11.79 8.62532 -16.1658 13.0012C-20.5417 17.377 -23 23.3119 -23 29.5003L-23 134.5C-23 140.689 -20.5417 146.624 -16.1658 150.999C-11.79 155.375 -5.85505 157.834 0.333332 157.834H41.1667V6.16699H0.333332Z" fill="#006847"/>
<path d="M163.667 6.16699H122.833V157.834H163.667C169.855 157.834 175.79 155.375 180.166 150.999C184.542 146.624 187 140.689 187 134.5V29.5003C187 23.3119 184.542 17.377 180.166 13.0012C175.79 8.62532 169.855 6.16699 163.667 6.16699Z" fill="#CE1126"/>
<path d="M41.1665 6.16699H122.833V157.834H41.1665V6.16699Z" fill="#EEEEEE"/>
<path d="M111.167 82C111.167 89.7355 108.094 97.1541 102.624 102.624C97.1541 108.094 89.7355 111.167 82 111.167C74.2645 111.167 66.8459 108.094 61.3761 102.624C55.9062 97.1541 52.8333 89.7355 52.8333 82H47C47 91.2826 50.6875 100.185 57.2513 106.749C63.815 113.313 72.7174 117 82 117C91.2826 117 100.185 113.313 106.749 106.749C113.313 100.185 117 91.2826 117 82H111.167Z" fill="#A6D388"/>
<path d="M56.0006 95.2362C55.8265 94.8948 55.5868 94.5911 55.2952 94.3424C55.0036 94.0937 54.6658 93.9049 54.3013 93.7868C53.9367 93.6687 53.5524 93.6236 53.1703 93.6541C52.7883 93.6846 52.416 93.7901 52.0748 93.9646C51.7329 94.1382 51.4286 94.3775 51.1793 94.6689C50.93 94.9603 50.7406 95.2979 50.622 95.6626C50.5033 96.0272 50.4577 96.4117 50.4878 96.7939C50.5179 97.1762 50.6231 97.5488 50.7973 97.8904C51.3223 98.9248 51.8978 99.9282 52.524 100.9L52.5473 100.941L52.594 101.011L52.6115 101.052L52.6173 101.064L52.6406 101.093L52.6581 101.128V101.14L52.6756 101.169L52.6815 101.18L52.699 101.21L52.7048 101.221L52.7223 101.245L52.734 101.262L52.7456 101.28L52.7515 101.297L52.769 101.326L52.7748 101.332L52.7865 101.35L52.804 101.385L52.8098 101.396L52.8273 101.425L52.8331 101.437L52.874 101.495V101.501L52.9031 101.542C53.2065 101.985 53.5195 102.431 53.8423 102.866C54.0701 103.173 54.3561 103.431 54.684 103.626C55.0118 103.822 55.3751 103.951 55.7528 104.005C56.1306 104.06 56.5155 104.04 56.8853 103.945C57.2552 103.851 57.6028 103.684 57.9081 103.455C58.528 102.994 58.9394 102.305 59.0521 101.541C59.1647 100.776 58.9694 99.9985 58.509 99.3779C57.5782 98.0569 56.7401 96.673 56.0006 95.2362ZM53.1015 86.0079C52.8768 84.3985 52.7871 82.7731 52.8331 81.1487C52.8551 80.3761 52.5695 79.6263 52.039 79.0641C51.5085 78.5019 50.7766 78.1733 50.004 78.1504L49.794 78.1562C49.0578 78.1883 48.361 78.4979 47.8437 79.0228C47.3265 79.5476 47.027 80.2488 47.0056 80.9854C46.9919 81.59 46.99 82.1948 46.9998 82.7996V83.3246L47.0056 83.3537V83.5171L47.0115 83.5346L47.0056 83.5462V83.5637L47.0115 83.5754V83.7446L47.0173 83.7621V83.8262L47.0231 83.9371L47.029 83.9896V84.0537C47.0834 84.9871 47.1728 85.9146 47.2973 86.8362C47.4058 87.5985 47.8114 88.2869 48.4256 88.7514C49.0397 89.2158 49.8126 89.4186 50.5756 89.3154C50.9591 89.2651 51.3289 89.1396 51.6637 88.9459C51.9985 88.7522 52.2916 88.4943 52.5264 88.1869C52.7611 87.8795 52.9328 87.5288 53.0315 87.1548C53.1302 86.7809 53.1539 86.3911 53.1015 86.0079ZM83.9831 111.091L83.9481 111.097L83.2248 111.144C81.8431 111.201 80.459 111.16 79.0831 111.021C78.3134 110.944 77.5446 111.175 76.9456 111.665C76.3467 112.155 75.9667 112.862 75.8894 113.632C75.812 114.401 76.0436 115.17 76.5331 115.769C77.0227 116.368 77.7301 116.748 78.4998 116.825L79.229 116.89L79.2523 116.895L79.264 116.89L79.2815 116.895H79.2931L79.3281 116.901H79.3631L79.3806 116.907L79.4215 116.901L79.439 116.907H79.4681L79.5031 116.913L79.5323 116.919H79.6081L79.6431 116.925H79.719C80.6056 116.987 81.4981 117.01 82.3965 116.995H82.624L82.6648 116.989L82.6998 116.995H82.7873L82.8165 116.989H82.9273L82.9623 116.983L82.9973 116.989L83.0031 116.983L83.0381 116.989H83.044L83.0731 116.983H83.1198L83.1548 116.977H83.1898L83.1956 116.983L83.2306 116.977H83.2715L83.3006 116.971H83.4173L83.4465 116.965H83.4698L83.4931 116.96L83.5165 116.965H83.5456L83.569 116.96H83.5981L84.339 116.919C85.0944 116.858 85.7954 116.501 86.29 115.927C86.7846 115.353 87.033 114.607 86.9815 113.85C86.9665 113.472 86.8769 113.101 86.718 112.757C86.559 112.413 86.3338 112.105 86.0553 111.848C85.7767 111.592 85.4502 111.393 85.0947 111.263C84.7391 111.133 84.3613 111.075 83.9831 111.091ZM69.7556 108.478C68.2836 107.798 66.871 106.996 65.5323 106.08C65.0133 105.725 64.3933 105.547 63.7648 105.573C63.1539 105.599 62.5666 105.816 62.0859 106.194C61.6051 106.571 61.2552 107.091 61.0856 107.678C60.9161 108.265 60.9354 108.891 61.1408 109.467C61.3463 110.043 61.7275 110.54 62.2306 110.887L62.2365 110.893L62.2715 110.91L62.3065 110.945L62.3415 110.969L62.3765 110.998C63.932 112.056 65.5692 112.981 67.2881 113.775C67.9891 114.098 68.7899 114.131 69.5149 113.865C70.2399 113.6 70.8299 113.057 71.1556 112.357C71.4843 111.657 71.5214 110.855 71.2588 110.128C70.9963 109.4 70.4556 108.807 69.7556 108.478ZM99.0973 106.156C98.5823 106.181 98.0831 106.342 97.6506 106.623C96.2884 107.493 94.8563 108.248 93.369 108.88C92.7272 109.135 92.1972 109.61 91.874 110.22C91.5507 110.83 91.4553 111.536 91.6048 112.21C91.7544 112.884 92.1391 113.482 92.6901 113.899C93.241 114.315 93.9222 114.521 94.6115 114.48C94.9584 114.467 95.3001 114.392 95.6206 114.259L96.4023 113.909H96.414L96.449 113.885L96.4606 113.88L96.484 113.868H96.5073L96.5306 113.856L96.5423 113.845L96.5773 113.839L96.589 113.827L96.6065 113.815L96.6356 113.804L96.6531 113.798L96.6823 113.786L96.694 113.78L96.7231 113.769L96.7348 113.763C96.7465 113.751 96.7562 113.745 96.764 113.745L96.7756 113.74L96.8106 113.722H96.8223L96.8573 113.705L96.8923 113.687L96.904 113.681L96.9331 113.664L96.9448 113.658L96.9798 113.64L96.9856 113.635L97.0265 113.629L97.0673 113.605L97.079 113.6L97.1023 113.582H97.114L97.149 113.559L97.1956 113.547L97.2306 113.524L97.2773 113.5L97.2831 113.495L97.3648 113.46L97.4056 113.442L97.4873 113.395L97.534 113.378L97.569 113.36L97.6565 113.314L97.6915 113.296L97.8256 113.226L97.8665 113.215L97.9481 113.168L97.989 113.145H97.9948C97.9987 113.137 98.0123 113.133 98.0356 113.133C98.0473 113.117 98.059 113.108 98.0706 113.104L98.1173 113.08L98.1523 113.063V113.057L98.234 113.022L98.2806 112.999L98.2865 112.993L98.3156 112.975L98.3623 112.952L98.3973 112.935H98.409L98.444 112.911L98.4848 112.888L98.4906 112.882L98.5256 112.865L98.5606 112.847L98.5723 112.841L98.5956 112.824L98.6131 112.818L98.6423 112.8L98.654 112.795L98.6831 112.777L98.6948 112.771L98.7298 112.76C98.7259 112.756 98.7278 112.754 98.7356 112.754L98.7706 112.736L98.7823 112.73L98.8056 112.713L98.8173 112.707L98.8523 112.69L98.864 112.684C98.864 112.676 98.8717 112.67 98.8873 112.666L98.9048 112.66L98.9281 112.649L98.9456 112.637L98.969 112.625L98.9865 112.614L99.004 112.602L99.0215 112.585L99.0506 112.579L99.074 112.573L99.0856 112.561L99.109 112.55L99.1323 112.532L99.144 112.526L99.1673 112.515L99.1906 112.497L99.2081 112.485C99.2159 112.489 99.2256 112.487 99.2373 112.48L99.249 112.468L99.2723 112.456L99.2898 112.445L99.3073 112.433L99.3306 112.421L99.354 112.404L99.3656 112.398C99.3812 112.398 99.3967 112.392 99.4123 112.38C99.4006 112.38 99.4006 112.377 99.4123 112.38L99.4356 112.363L99.4765 112.334L99.4881 112.328L99.529 112.31L99.599 112.27L99.6456 112.24L99.7623 112.176C100.136 111.955 100.511 111.727 100.876 111.494C101.527 111.077 101.986 110.419 102.152 109.665C102.319 108.91 102.179 108.12 101.763 107.469C101.458 107.051 101.056 106.714 100.591 106.485C100.127 106.257 99.6145 106.144 99.0973 106.156ZM114.095 79.2179L113.955 79.2237C113.205 79.2553 112.496 79.5748 111.975 80.1159C111.455 80.657 111.163 81.378 111.161 82.1287C111.161 83.7446 111.015 85.3779 110.741 86.9646C110.611 87.728 110.789 88.5119 111.237 89.1437C111.685 89.7754 112.366 90.2033 113.129 90.3333C113.893 90.4633 114.677 90.2846 115.308 89.8366C115.94 89.3886 116.368 88.708 116.498 87.9446V87.9154L116.504 87.9037L116.51 87.8921L116.504 87.8804L116.51 87.8687V87.8571L116.516 87.8454V87.8279L116.521 87.8162V87.7637L116.533 87.7404V87.7054C116.659 86.9486 116.76 86.188 116.836 85.4246L116.831 85.4187L116.836 85.4012L116.842 85.3721V85.3079L116.854 85.2904L116.848 85.2671V85.2554L116.854 85.2379V85.2146L116.866 85.2087L116.854 85.1912V85.1679C116.866 85.1601 116.87 85.1543 116.866 85.1504V85.0396L116.877 85.0221C116.958 84.0617 116.999 83.0925 117 82.1287C116.998 81.3582 116.692 80.6196 116.148 80.0742C115.603 79.5288 114.865 79.221 114.095 79.2179ZM111.511 94.9446C111.175 94.7589 110.806 94.6411 110.425 94.5981C110.044 94.555 109.659 94.5876 109.29 94.6937C108.922 94.7999 108.578 94.9777 108.278 95.217C107.979 95.4562 107.729 95.7521 107.544 96.0879C106.757 97.5062 105.854 98.8564 104.843 100.125C104.367 100.731 104.15 101.501 104.239 102.266C104.329 103.032 104.718 103.731 105.322 104.211C105.926 104.69 106.695 104.911 107.461 104.825C108.227 104.74 108.928 104.354 109.411 103.753C110.091 102.897 110.733 102.013 111.336 101.099C111.351 101.06 111.373 101.021 111.4 100.982L111.406 100.976L111.429 100.941L111.452 100.895C111.468 100.883 111.476 100.871 111.476 100.86L111.481 100.865L111.505 100.83V100.825L111.522 100.784L111.534 100.778L111.557 100.743L111.575 100.708L111.581 100.702L111.604 100.667L111.61 100.655L111.621 100.626L111.639 100.615L111.651 100.585H111.662L111.674 100.55L111.68 100.539L111.703 100.515L111.709 100.504C111.709 100.492 111.715 100.482 111.726 100.475L111.732 100.457L111.756 100.44C111.756 100.432 111.76 100.426 111.767 100.422V100.399L111.785 100.387L111.802 100.358L111.808 100.346L111.826 100.311L111.837 100.3L111.849 100.276L111.861 100.259C111.861 100.251 111.865 100.245 111.872 100.241C111.872 100.233 111.876 100.228 111.884 100.224L111.901 100.195L111.907 100.177L111.919 100.16L111.931 100.142C111.942 100.134 111.946 100.128 111.942 100.125C111.954 100.121 111.958 100.113 111.954 100.101L111.966 100.084L111.983 100.06L112.001 100.037V100.02L112.012 100.002L112.03 99.9787L112.047 99.9612V99.9437L112.071 99.9146V99.8971C112.082 99.8932 112.088 99.8854 112.088 99.8737L112.1 99.8621L112.111 99.8446L112.129 99.8154L112.141 99.7979V99.7862L112.164 99.7571C112.164 99.7493 112.168 99.7434 112.176 99.7396L112.181 99.7221L112.199 99.6987L112.211 99.6754L112.222 99.6579L112.234 99.6346C112.234 99.6268 112.238 99.6229 112.246 99.6229L112.257 99.5937L112.269 99.5821L112.281 99.5471L112.292 99.5412L112.304 99.5179L112.316 99.5062L112.327 99.4771L112.339 99.4654L112.351 99.4304C112.358 99.4226 112.358 99.4187 112.351 99.4187L112.374 99.3896L112.38 99.3779L112.403 99.3487V99.3429L112.421 99.3079L112.432 99.2962L112.444 99.2612L112.473 99.2262L112.491 99.1912V99.1854L112.514 99.1446L112.526 99.1387L112.671 98.8646C113.03 98.1894 113.11 97.4003 112.893 96.6671C112.676 95.934 112.179 95.3154 111.511 94.9446Z" fill="#5C913B"/>
<path d="M82 105.334C91.665 105.334 99.5 102.722 99.5 99.5003C99.5 96.2787 91.665 93.667 82 93.667C72.335 93.667 64.5 96.2787 64.5 99.5003C64.5 102.722 72.335 105.334 82 105.334Z" fill="#55ACEE"/>
<path d="M84.9165 105.334C89.749 105.334 93.6665 102.722 93.6665 99.5003C93.6665 96.2787 89.749 93.667 84.9165 93.667C80.084 93.667 76.1665 96.2787 76.1665 99.5003C76.1665 102.722 80.084 105.334 84.9165 105.334Z" fill="#FFCC4D"/>
<path d="M88.5157 101.098C88.0115 101.094 87.5169 100.96 87.0795 100.709C86.6422 100.458 86.277 100.099 86.019 99.6654C85.761 99.2321 85.6191 98.7397 85.6068 98.2356C85.5946 97.7316 85.7124 97.2328 85.949 96.7875C86.8824 95.0686 87.8585 93.5228 88.8774 92.15C88.0417 92.1855 87.2054 92.203 86.369 92.2025C84.759 92.2025 83.289 90.89 83.289 89.28C83.289 87.67 84.4265 86.3634 86.0424 86.3634L86.5207 86.3692C88.2474 86.3692 90.0207 86.2642 91.6074 86.1184C92.0493 86.0738 92.4956 86.1328 92.9107 86.2908C93.3259 86.4487 93.6985 86.7013 93.999 87.0284C94.0768 86.9623 94.1604 86.902 94.2499 86.8475C94.8332 86.4625 95.3776 86.1495 95.8832 85.9084C96.245 85.632 96.6666 85.4442 97.114 85.36L97.324 85.3192C98.4207 84.9634 99.1907 84.9167 99.4999 84.9167C99.9567 84.915 100.407 85.0211 100.816 85.2263C101.224 85.4316 101.578 85.7301 101.849 86.0978C102.12 86.4655 102.3 86.8919 102.376 87.3425C102.451 87.793 102.419 88.255 102.282 88.6909C101.804 90.2425 100.737 90.5925 98.864 90.9659C98.3746 91.1617 97.9089 91.4122 97.4757 91.7125C96.9471 92.053 96.3241 92.2172 95.6964 92.1815C95.0686 92.1459 94.4683 91.9123 93.9815 91.5142C94.3782 92.0275 94.5923 92.6584 94.5902 93.307C94.5881 93.9557 94.3698 94.5852 93.9699 95.0959C92.9743 96.3675 92.0099 97.8609 91.0765 99.5759C90.8259 100.036 90.4558 100.421 90.0052 100.689C89.5545 100.957 89.04 101.098 88.5157 101.098ZM80.2324 91.8292L79.8474 91.8059C77.7639 91.5353 75.7045 91.1043 73.6874 90.5167C73.32 90.4077 72.9776 90.2274 72.6799 89.986C72.3823 89.7446 72.1351 89.4469 71.9525 89.1099C71.7699 88.773 71.6556 88.4033 71.6159 88.0221C71.5763 87.6409 71.6122 87.2557 71.7215 86.8884L71.7565 86.7717L71.6865 86.9059C71.4994 87.2404 71.2482 87.5348 70.9472 87.7722C70.6462 88.0096 70.3014 88.1853 69.9324 88.2893C69.5635 88.3934 69.1777 88.4236 68.797 88.3784C68.4164 88.3332 68.0483 88.2134 67.714 88.0259C65.7707 86.9597 63.9892 85.6221 62.4232 84.0534C61.8919 83.5033 61.5979 82.7665 61.6046 82.0018C61.6112 81.237 61.918 80.5055 62.4587 79.9647C62.9995 79.424 63.731 79.1172 64.4958 79.1106C65.2605 79.1039 65.9973 79.3979 66.5474 79.9292C67.7024 81.0842 69.0401 82.0856 70.5607 82.9334C71.155 83.2664 71.614 83.7971 71.858 84.4332C72.102 85.0693 72.1157 85.7708 71.8965 86.4159C72.2029 85.8019 72.7159 85.3156 73.3454 85.0424C73.9749 84.7693 74.6805 84.7268 75.3382 84.9225C76.9482 85.4009 78.7157 85.7684 80.5882 86.0192C81.3229 86.1126 81.9945 86.4821 82.4668 87.0525C82.9391 87.6229 83.1767 88.3517 83.1314 89.0909C83.0861 89.8301 82.7614 90.5244 82.223 91.0329C81.6846 91.5414 80.9729 91.8261 80.2324 91.8292ZM65.929 78.185C63.444 78.185 60.2299 77.2225 58.2815 74.9242C55.2949 71.4009 53.539 66.88 53.8074 63.415C53.8774 62.4875 52.9732 61.7409 52.0865 61.5075C51.579 61.3734 50.6865 61.2917 50.2665 62.1959C50.1861 62.3698 50.0722 62.5261 49.9313 62.656C49.7905 62.7859 49.6254 62.8867 49.4456 62.9528C49.2657 63.0189 49.0747 63.0489 48.8832 63.0411C48.6918 63.0334 48.5038 62.988 48.3299 62.9075C48.156 62.8271 47.9996 62.7132 47.8697 62.5723C47.7399 62.4315 47.639 62.2664 47.5729 62.0866C47.5068 61.9068 47.4768 61.7157 47.4846 61.5242C47.4924 61.3328 47.5378 61.1448 47.6182 60.9709C48.5282 58.9934 50.5699 58.1125 52.8215 58.6842C54.9099 59.2267 56.9107 61.105 56.7124 63.6425C56.5024 66.3375 58.0307 70.1117 60.504 73.0342C61.8049 74.5742 64.0682 75.1984 65.6082 75.2567C66.8624 75.3209 67.4982 75.035 67.6324 74.9125C67.3057 74.1367 62.9832 71.8617 61.1399 70.8934C59.5707 70.0709 59.104 68.9392 58.9874 68.14C58.5965 65.4859 61.3207 62.7967 63.9574 60.2067C64.8849 59.2909 65.7657 58.4275 66.244 57.7917C66.7865 57.0742 66.699 56.5959 66.594 56.2984C66.1915 55.2075 64.4474 54.1284 62.3474 53.6617C60.399 53.2262 59.1001 52.2948 58.4507 50.8675C57.6049 48.995 58.054 46.545 59.8157 43.3717C59.9088 43.2043 60.0339 43.0569 60.1839 42.9379C60.334 42.8189 60.506 42.7306 60.6902 42.678C60.8743 42.6255 61.0671 42.6097 61.2573 42.6317C61.4476 42.6536 61.6316 42.7128 61.799 42.8059C61.9664 42.899 62.1138 43.0241 62.2328 43.1741C62.3519 43.3242 62.4402 43.4962 62.4927 43.6804C62.5452 43.8645 62.561 44.0572 62.5391 44.2475C62.5171 44.4378 62.4579 44.6218 62.3649 44.7892C60.7024 47.7759 60.8657 49.1292 61.1107 49.6717C61.3557 50.2084 61.9779 50.5875 62.9774 50.8092C65.4449 51.3575 68.414 52.8217 69.324 55.2834C69.8432 56.6892 69.5807 58.2059 68.5774 59.5417C67.9707 60.3525 67.014 61.2917 66.0049 62.2892C64.4999 63.7709 61.694 66.53 61.8749 67.72C61.9099 67.965 62.2307 68.1809 62.499 68.315C66.8799 70.6134 69.7907 72.2759 70.3857 74.3117C70.4884 74.6592 70.5196 75.0239 70.4775 75.3839C70.4354 75.7438 70.3208 76.0914 70.1407 76.4059C69.5749 77.3917 68.3965 77.9984 66.7282 78.15C66.4754 78.1734 66.209 78.185 65.929 78.185Z" fill="#5C913B"/>
<path d="M90.7502 87.8337C92.361 87.8337 93.6668 85.222 93.6668 82.0003C93.6668 78.7787 92.361 76.167 90.7502 76.167C89.1393 76.167 87.8335 78.7787 87.8335 82.0003C87.8335 85.222 89.1393 87.8337 90.7502 87.8337Z" fill="#FFCC4D"/>
<path d="M77.8699 77.2629C77.8699 78.9429 75.8574 80.3021 73.3724 80.3021C70.8933 80.3021 68.8749 78.9429 68.8749 77.2629C68.8749 75.5829 70.8874 74.2237 73.3724 74.2237C75.8516 74.2237 77.8699 75.5829 77.8699 77.2629ZM70.9458 50.2721C71.2374 51.5087 69.6216 52.9554 67.3349 53.4979C65.0483 54.0404 62.9599 53.4746 62.6624 52.2379C62.3708 50.9954 63.9866 49.5487 66.2674 49.0062C68.5599 48.4696 70.6541 49.0296 70.9458 50.2721Z" fill="#FFCC4D"/>
<path d="M108.442 81.7373C108.967 82.1456 109.86 77.4848 109.726 76.0323C109.726 75.9331 109.556 72.8473 110.21 70.6423C110.612 69.8956 110.636 64.3248 110.017 62.8606C110.507 62.8198 111.096 62.6623 111.166 62.0673C108.903 62.9015 108.372 57.3015 106.196 54.0815C104.085 50.8556 101.466 48.9773 98.7298 47.0173C98.9597 46.4457 99.2786 45.9141 99.6748 45.4423C96.3207 47.1223 91.094 41.0381 83.3707 41.4931C81.6382 41.6623 80.8157 41.7673 80.3723 42.829C78.9315 42.9456 77.4673 43.2723 77.4673 45.1681C77.4673 45.6231 77.8815 46.4515 78.8032 46.4573C80.0632 46.8248 81.0898 46.539 81.9473 48.3006L82.1748 50.1206C82.1748 50.1206 81.049 48.6798 80.4307 48.4523L80.8098 47.6765C80.2265 47.3381 79.194 47.6123 79.194 47.6123C79.194 47.6123 76.9482 46.5623 75.1457 46.8423L74.7957 45.384C74.4807 46.2823 73.7748 46.2356 73.6757 47.0815C73.4773 46.4748 73.2148 45.7223 73.0282 45.1156C72.3923 45.979 72.579 46.9123 72.3515 47.8106C72.1065 48.0206 71.6048 48.0265 71.4765 47.449C71.4123 46.7373 71.3248 46.6731 71.3248 45.8273C70.8698 46.6265 70.3215 47.0173 70.1407 48.3881L69.6565 46.8715C69.674 48.6623 68.134 49.7298 66.6757 50.9956C66.2615 51.754 66.7398 51.7598 66.7748 52.1506L67.5448 52.5356L68.9273 52.4365C69.1548 52.7223 68.9682 52.7456 69.569 52.9265C71.179 53.3756 73.1857 51.4448 74.7607 54.484C74.0373 55.0906 73.3082 56.5081 73.5415 56.7765C73.8332 56.7765 72.9582 57.1848 74.1365 56.8115C72.9115 58.0015 72.0832 59.5706 72.0832 59.664C71.9432 60.0023 72.5732 59.6173 72.4448 60.2298L72.7365 60.1948C69.9423 63.2165 72.6432 66.4656 72.3457 68.2098C72.8123 68.9623 72.8707 68.1923 73.454 68.1165C73.944 70.2631 75.3557 71.564 76.219 73.2615L74.399 73.279C74.4398 74.084 75.169 74.8481 75.7465 75.554L74.5273 75.939C73.7409 76.3259 73.0421 76.8699 72.474 77.5373C72.0715 78.5173 74.4165 78.7506 75.5482 78.9256L75.5073 80.1098C77.2748 80.279 79.3165 79.754 79.3165 79.6548L79.7598 79.3106L80.7573 79.859C81.0898 79.859 81.609 78.529 81.3698 77.5081C82.0115 78.2723 82.6182 79.5031 83.2598 80.2731L83.8607 80.1915C84.409 81.0606 85.1615 81.924 85.7098 82.7931L86.3223 83.0265C86.6782 82.904 86.9815 82.8631 87.174 82.1631L87.454 82.6531L88.4223 81.9881L89.099 81.854L89.6065 82.6823C89.904 82.5715 90.1957 81.924 90.2132 81.2356C90.5165 81.8365 90.5981 81.7898 90.8198 81.9473L91.269 81.0023L93.6898 83.2656L95.5215 83.3706C96.1748 83.814 97.9657 84.094 98.269 83.3765C99.739 84.0065 101.471 83.2948 101.384 82.5948C102.737 83.1315 104.82 82.7698 104.82 82.6823C105.071 82.6531 105.712 82.0231 105.106 81.5506C100.631 78.4356 93.999 73.279 91.4382 72.0365C91.4382 71.1148 90.744 67.7956 89.9973 66.8856L90.604 65.8706C92.3482 67.4981 92.9782 67.3406 93.9057 67.5973C94.8973 68.3848 95.2415 69.5806 96.2332 70.6715L97.1198 70.8348C96.3944 68.9381 95.2954 67.2063 93.8882 65.7423C94.8448 66.2206 96.4315 67.4981 97.4932 68.4256C98.1932 69.5981 98.3973 70.5315 99.039 72.0015C99.5057 72.299 99.984 73.3898 99.9198 72.4856C99.809 70.7881 98.6132 68.099 98.6132 67.9065C100.515 69.4115 100.491 71.7565 101.069 73.1856C101.553 73.909 101.798 74.8773 102.008 74.6498L101.448 70.2398L101.121 68.624C102.527 69.4348 103.029 72.5265 103.688 76.2365C103.688 76.8256 103.927 77.4731 103.892 77.8523C104.196 78.2256 104.54 79.2581 104.534 78.6456C104.534 78.6456 104.534 72.614 104.12 71.2315C104.015 70.4906 104.295 69.289 104.295 69.289C104.808 71.7915 105.356 74.504 105.876 77.0006V78.8381L106.646 79.614C106.791 78.0973 106.966 76.5923 107.118 75.0873L106.541 69.6915V68.1515C106.529 67.609 107.036 67.7081 107.357 68.3265C107.433 69.6506 107.433 70.6831 107.486 72.0015C107.713 73.5065 107.871 74.609 107.981 76.5281C108.046 78.0798 108.116 81.8015 108.442 81.7373Z" fill="#C1694F"/>
</g>
</g>
<rect x="4.1" y="4.1" width="155.8" height="155.8" rx="77.9" stroke="white" stroke-width="8.2"/>
<defs>
<clipPath id="clip0_497_1311">
<rect width="164" height="164" rx="82" fill="white"/>
</clipPath>
<clipPath id="clip1_497_1311">
<rect width="210" height="210" fill="white" transform="translate(-23 -23)"/>
</clipPath>
</defs>
</svg>
