<svg width="164" height="164" viewBox="0 0 164 164" fill="none" xmlns="http://www.w3.org/2000/svg">
<rect width="164" height="164" rx="82" stroke="#DFA9A9"/>
<g clip-path="url(#clip0_497_1196)">
<path d="M163.667 6.16699H0.333334C-0.864444 6.16699 -2.03889 6.25449 -3.19 6.42949L-3.21333 16.6612L-19.1383 16.6378C-21.6583 20.4542 -23.0011 24.927 -23 29.5003V134.5C-23 140.689 -20.5417 146.624 -16.1658 150.999C-11.79 155.375 -5.85505 157.834 0.333334 157.834H163.667C169.855 157.834 175.79 155.375 180.166 150.999C184.542 146.624 187 140.689 187 134.5V29.5003C187 23.3119 184.542 17.377 180.166 13.0012C175.79 8.62532 169.855 6.16699 163.667 6.16699Z" fill="#00247D"/>
<path d="M147.298 32.4167H139.931L138.799 29.0334L137.417 24.915L136.034 29.0334L134.903 32.4167H127.535L130.656 35.0009L133.409 37.2759L132.248 40.7L130.691 45.2617L134.518 42.3217L137.417 40.0875L140.316 42.3217L144.143 45.2617L142.585 40.7L141.424 37.2759L144.178 35.0009L147.298 32.4167Z" fill="#EEEDED"/>
<path d="M137.417 29.5L135.953 33.875H131.583L135.113 36.7975L133.625 41.1667L137.417 38.25L141.208 41.1667L139.721 36.7975L143.25 33.875H138.881L137.417 29.5Z" fill="#CF1B2B"/>
<path d="M147.298 127.209H139.931L138.799 123.825L137.417 119.707L136.034 123.825L134.903 127.209H127.535L130.656 129.793L133.409 132.068L132.248 135.492L130.691 140.054L134.518 137.114L137.417 134.88L140.316 137.114L144.143 140.054L142.585 135.492L141.424 132.068L144.178 129.793L147.298 127.209Z" fill="#EEEDED"/>
<path d="M137.417 124.292L135.953 128.667H131.583L135.113 131.589L133.625 135.959L137.417 133.042L141.208 135.959L139.721 131.589L143.25 128.667H138.881L137.417 124.292Z" fill="#CF1B2B"/>
<path d="M170.632 55.7497H163.264L162.132 52.3664L160.75 48.248L159.367 52.3664L158.236 55.7497H150.868L153.989 58.3339L156.742 60.6089L155.582 64.033L154.024 68.5947L157.851 65.6547L160.75 63.4205L163.649 65.6547L167.476 68.5947L165.918 64.033L164.757 60.6089L167.511 58.3339L170.632 55.7497Z" fill="#EEEDED"/>
<path d="M160.75 52.833L159.286 57.208H154.917L158.446 60.1305L156.958 64.4997L160.75 61.583L164.542 64.4997L163.054 60.1305L166.583 57.208H162.214L160.75 52.833Z" fill="#CF1B2B"/>
<path d="M123.965 67.4167H116.597L115.466 64.0334L114.083 59.915L112.701 64.0334L111.569 67.4167H104.202L107.322 70.0009L110.076 72.2759L108.915 75.7L107.357 80.2617L111.184 77.3217L114.083 75.0875L116.982 77.3217L120.809 80.2617L119.252 75.7L118.091 72.2759L120.844 70.0009L123.965 67.4167Z" fill="#EEEDED"/>
<path d="M114.083 64.5L112.619 68.875H108.25L111.779 71.7975L110.292 76.1667L114.083 73.25L117.875 76.1667L116.388 71.7975L119.917 68.875H115.547L114.083 64.5Z" fill="#CF1B2B"/>
<path d="M87.8333 82.0003V6.16699H0.333337C-1.53333 6.16699 -3.19 6.42949 -3.19 6.42949L-3.21333 16.6612L-19.1383 16.6378C-19.1383 16.6378 -19.3833 16.982 -19.8792 17.8337C-21.9253 21.3813 -23.0016 25.4049 -23 29.5003V82.0003H87.8333Z" fill="#00247D"/>
<path d="M87.8333 6.16699H74.2358L47 25.2362V6.16699H17.8333V21.1528L-3.19 6.42949C-6.69681 6.95291 -10.035 8.28059 -12.9433 10.3087L14.485 29.5003H4.35833L-17.3592 14.2812C-18.0014 15.0284 -18.5956 15.8155 -19.1383 16.6378L-0.7575 29.5003H-23V58.667H-0.337499L-23 74.802V82.0003H-3.56333L17.8333 67.0203V82.0003H47V62.9312L74.23 82.0003H87.8333V70.1645L71.4125 58.667H87.8333V29.5003H71.4183L87.8333 18.0028V6.16699Z" fill="#EEEEEE"/>
<path d="M41.1667 6.16699H23.6667V35.3337H-23V52.8337H23.6667V82.0003H41.1667V52.8337H87.8333V35.3337H41.1667V6.16699Z" fill="#CF1B2B"/>
<path d="M87.8334 6.16699H79.3109L47.0001 28.7945V29.5003H56.1642L87.8334 7.32199V6.16699ZM-12.9433 10.3087C-14.5784 11.4393 -16.0624 12.7743 -17.3591 14.2812L4.35841 29.5003H14.4792L-12.9433 10.3087ZM14.5492 58.667L-18.7183 82.0003H-8.64409L17.8334 63.462V58.667H14.5492ZM87.8334 80.8453V73.7287L66.3259 58.667H56.1584L87.8334 80.8453Z" fill="#CF1B2B"/>
</g>
<rect x="4.1" y="4.1" width="155.8" height="155.8" rx="77.9" stroke="white" stroke-width="8.2"/>
<defs>
<clipPath id="clip0_497_1196">
<rect width="164" height="164" rx="82" fill="white"/>
</clipPath>
</defs>
</svg>
