<svg width="164" height="164" viewBox="0 0 164 164" fill="none" xmlns="http://www.w3.org/2000/svg">
<rect width="164" height="164" rx="82" stroke="#DFA9A9"/>
<g clip-path="url(#clip0_497_1380)">
<path d="M187 134.5C187 140.689 184.542 146.624 180.166 150.999C175.79 155.375 169.855 157.834 163.667 157.834H0.333334C-5.85505 157.834 -11.79 155.375 -16.1658 150.999C-20.5417 146.624 -23 140.689 -23 134.5V29.5003C-23 23.3119 -20.5417 17.377 -16.1658 13.0012C-11.79 8.62532 -5.85505 6.16699 0.333334 6.16699H163.667C169.855 6.16699 175.79 8.62532 180.166 13.0012C184.542 17.377 187 23.3119 187 29.5003V134.5Z" fill="#265FB5"/>
<path d="M-23 52.833H187V111.166H-23V52.833Z" fill="#EEEEEE"/>
<path d="M108.582 82.0003C108.635 85.5239 107.986 89.0227 106.673 92.2932C105.361 95.5638 103.412 98.5407 100.938 101.051C98.465 103.561 95.5172 105.555 92.2665 106.915C89.0157 108.276 85.5269 108.977 82.0029 108.977C78.4789 108.977 74.9901 108.276 71.7393 106.915C68.4886 105.555 65.5409 103.561 63.0675 101.051C60.5942 98.5407 58.6447 95.5638 57.3324 92.2932C56.0201 89.0227 55.3711 85.5239 55.4233 82.0003C55.5268 75.0191 58.3726 68.3589 63.346 63.4586C68.3194 58.5584 75.021 55.8115 82.0029 55.8115C88.9848 55.8115 95.6864 58.5584 100.66 63.4586C105.633 68.3589 108.479 75.0191 108.582 82.0003Z" fill="#A9BF4C"/>
<path d="M81.9998 105.334C94.8865 105.334 105.333 94.887 105.333 82.0003C105.333 69.1137 94.8865 58.667 81.9998 58.667C69.1132 58.667 58.6665 69.1137 58.6665 82.0003C58.6665 94.887 69.1132 105.334 81.9998 105.334Z" fill="#EEEEEE"/>
<path d="M63.0884 94.5712L81.9184 61.957L100.748 94.5712H63.0884Z" fill="#265FB5"/>
<path d="M65.1768 93.3052L81.9184 64.3193L98.6543 93.3052H65.1768Z" fill="#55ACEE"/>
<path d="M65.1768 93.3053L69.2193 86.3111L94.4309 85.9961L98.6543 93.3053H65.1768Z" fill="#BBDDF5"/>
<path d="M68.42 88.7438L74.7083 83.6396L77.4442 86.7371L79.8125 84.1822L81.8192 86.1888L83.7325 84.0946L86.0133 86.1888L88.1075 84.0013L90.0208 86.1888L91.8409 84.1822L94.8508 87.9213L95.3992 89.018C95.3992 89.018 92.2083 89.6538 87.8333 89.2921C83.4583 88.9305 80.9033 89.928 77.4442 90.3888C73.9792 90.8438 67.7842 89.9338 67.7842 89.9338L68.42 88.7438Z" fill="#5C913B"/>
<path d="M74.615 84.7354L78.8092 89.2912L76.715 89.472L74.3467 86.0129L74.615 84.7354ZM79.6317 85.097L83.0034 88.107L81.4517 88.3812L79.8125 86.1003L79.6317 85.097ZM83.9133 84.9162L86.83 87.652L86.1008 88.107L83.7325 85.552L83.9133 84.9162ZM87.74 84.9162L86.5558 86.0129L87.1042 86.6487L87.74 84.9162ZM91.3858 85.0095L90.0208 86.7362L90.4758 87.5587L91.4792 85.6454L91.3858 85.0095Z" fill="#E2F09F"/>
<path d="M82.1808 72.8418L82.5716 78.261L85.6691 73.8101L83.3416 78.6518L88.1833 76.3243L83.7325 79.4276L89.1575 79.8126L83.7325 80.1976L88.1833 83.301L83.3416 80.9735L85.6691 85.8151L82.5716 81.3643L82.1808 86.7835L81.7958 81.3643L78.6983 85.8151L81.02 80.9735L76.1783 83.301L80.635 80.1976L75.21 79.8126L80.635 79.4276L76.1783 76.3243L81.02 78.6518L78.6983 73.8101L81.7958 78.261L82.1808 72.8418Z" fill="#BBDDF5"/>
<path d="M82 77.3506L80.9033 78.4473C80.9033 78.4473 81.1775 80.0864 81.0842 80.3606C80.9967 80.6348 82 81.9998 82 81.9998L83.365 80.3606L83.0033 78.1731L82 77.3506Z" fill="#DD2E44"/>
<path d="M82.5481 75.438C87.0164 75.438 89.5656 77.6255 89.5656 77.6255L87.9264 74.7088C87.9264 74.7088 85.2839 72.7021 82.1864 72.7021C79.0889 72.7021 75.6239 75.1638 75.6239 75.1638L74.0723 78.2613C74.0723 78.2613 78.0798 75.438 82.5481 75.438Z" fill="#226699"/>
<path d="M82.5486 75.4372C87.0169 75.4372 89.5661 77.6247 89.5661 77.6247L88.3819 75.5305C88.3819 75.5305 85.1911 73.6172 82.0936 73.6172C78.9961 73.6172 75.1636 76.0789 75.1636 76.0789L74.0669 78.2664C74.0727 78.2605 78.0802 75.4372 82.5486 75.4372Z" fill="#FFCC4D"/>
<path d="M82.5486 75.4377C87.0169 75.4377 89.5661 77.6252 89.5661 77.6252L88.7436 76.2602C88.7436 76.2602 86.2819 74.5277 82.0877 74.7085C78.9902 74.7085 74.7027 76.9894 74.7027 76.9894L74.0669 78.2669C74.0669 78.2669 78.0802 75.4377 82.5486 75.4377Z" fill="#DD2E44"/>
<path d="M79.5907 103.857H85.4008V109.428H79.5907V103.857ZM78.6632 60.6617H74.4866L72.3982 55.5575L76.5749 55.0908L78.6632 60.6617ZM88.1832 62.9833L85.4008 62.0558L86.7949 55.3183L92.1324 55.785L88.1832 62.9833ZM63.1057 91.5491L54.9799 93.4042L54.7466 87.8333L62.8724 86.6725L63.1057 91.5491ZM65.1999 97.3533L58.4624 100.142L56.8349 95.7317L63.1057 93.6375L65.1999 97.3533ZM110.017 92.2492L102.586 90.155V86.2117L110.945 85.045L110.017 92.2492ZM106.302 99.9083L99.3366 96.6592L101.652 92.4767L109.323 94.7983L106.302 99.9083Z" fill="#EEEEEE"/>
</g>
<rect x="4.1" y="4.1" width="155.8" height="155.8" rx="77.9" stroke="white" stroke-width="8.2"/>
<defs>
<clipPath id="clip0_497_1380">
<rect width="164" height="164" rx="82" fill="white"/>
</clipPath>
</defs>
</svg>
