<svg width="181" height="181" viewBox="0 0 181 181" fill="none" xmlns="http://www.w3.org/2000/svg">
<rect x="8.19995" y="8.2002" width="164" height="164" rx="82" stroke="#CCEBDB"/>
<g clip-path="url(#clip0_496_691)">
<g clip-path="url(#clip1_496_691)">
<path fill-rule="evenodd" clip-rule="evenodd" d="M-18.8528 8.39355L199.814 8.39355V172.394H-18.8528L-18.8528 8.39355Z" fill="#F7FCFF"/>
<path fill-rule="evenodd" clip-rule="evenodd" d="M-18.8528 108.618V122.285L199.814 122.285V108.618L-18.8528 108.618ZM-18.8528 133.669V147.336H199.814V133.669H-18.8528ZM-18.8528 58.5024V72.169H199.814V58.5024L-18.8528 58.5024ZM-18.8528 158.727L-18.8528 172.394H199.814V158.727H-18.8528ZM-18.8528 83.5602V97.2269L199.814 97.2269V83.5602L-18.8528 83.5602ZM-18.8528 8.39355V22.0602L199.814 22.0602V8.39355L-18.8528 8.39355ZM-18.8528 33.4514L-18.8528 47.118L199.814 47.118V33.4514L-18.8528 33.4514Z" fill="#E31D1C"/>
<path d="M-18.8528 8.39355L117.814 8.39355V97.2269L-18.8528 97.2269L-18.8528 8.39355Z" fill="#2E42A5"/>
<path fill-rule="evenodd" clip-rule="evenodd" d="M-7.0857 28.4769L-12.0467 31.955L-10.3725 25.764L-14.78 21.8417H-9.01953L-7.09253 16.785L-4.8307 21.8417L0.0756342 21.8417L-3.77837 25.764L-2.2887 31.955L-7.0857 28.4769ZM20.2476 28.4769L15.2866 31.955L16.9608 25.764L12.5601 21.8417H18.3138L20.2408 16.785L22.5026 21.8417H27.409L23.555 25.764L25.0446 31.955L20.2476 28.4769ZM42.62 31.955L47.581 28.47L52.378 31.955L50.8883 25.764L54.7423 21.8417H49.836L47.5741 16.785L45.6471 21.8417H39.8935L44.2941 25.764L42.62 31.955ZM74.9143 28.47L69.9533 31.955L71.6275 25.764L67.2268 21.8417H72.9805L74.9075 16.785L77.1693 21.8417H82.0756L78.2216 25.764L79.7113 31.955L74.9143 28.47ZM-12.0467 59.2952L-7.0857 55.8102L-2.2887 59.2952L-3.77837 53.1042L0.0756342 49.1819H-4.8307L-7.09253 44.1252L-9.01953 49.1819H-14.78L-10.3725 53.1042L-12.0467 59.2952ZM20.2476 55.8102L15.2866 59.2952L16.9608 53.1042L12.5601 49.1819H18.3138L20.2408 44.1252L22.5026 49.1819H27.409L23.555 53.1042L25.0446 59.2952L20.2476 55.8102ZM42.62 59.2952L47.581 55.8102L52.378 59.2952L50.8883 53.1042L54.7423 49.1819H49.836L47.5741 44.1252L45.6471 49.1819L39.8935 49.1819L44.2941 53.1042L42.62 59.2952ZM74.9143 55.8102L69.9533 59.2952L71.6275 53.1042L67.2268 49.1819H72.9805L74.9075 44.1252L77.1693 49.1819H82.0756L78.2216 53.1042L79.7113 59.2952L74.9143 55.8102ZM-12.0467 86.6285L-7.0857 83.1435L-2.2887 86.6285L-3.77837 80.4375L0.0756342 76.5152H-4.8307L-7.09253 71.4585L-9.01953 76.5152H-14.78L-10.3725 80.4375L-12.0467 86.6285ZM20.2476 83.1435L15.2866 86.6285L16.9608 80.4375L12.5601 76.5152H18.3138L20.2408 71.4585L22.5026 76.5152H27.409L23.555 80.4375L25.0446 86.6285L20.2476 83.1435ZM42.62 86.6285L47.581 83.1435L52.378 86.6285L50.8883 80.4375L54.7423 76.5152H49.836L47.5741 71.4585L45.6471 76.5152H39.8935L44.2941 80.4375L42.62 86.6285ZM74.9143 83.1435L69.9533 86.6285L71.6275 80.4375L67.2268 76.5152H72.9805L74.9075 71.4585L77.1693 76.5152H82.0756L78.2216 80.4375L79.7113 86.6285L74.9143 83.1435ZM97.2866 31.9619L102.248 28.4769L107.045 31.9619L105.555 25.7709L109.409 21.8485H104.503L102.241 16.7919L100.314 21.8485H94.5533L98.9608 25.7709L97.2866 31.9619ZM102.248 55.8102L97.2866 59.2952L98.9608 53.1042L94.5533 49.1819H100.314L102.241 44.1252L104.503 49.1819H109.409L105.555 53.1042L107.045 59.2952L102.248 55.8102ZM97.2866 86.6285L102.248 83.1435L107.045 86.6285L105.555 80.4375L109.409 76.5152L104.503 76.5152L102.241 71.4585L100.314 76.5152H94.5533L98.9608 80.4375L97.2866 86.6285ZM6.58097 42.1367L1.61997 45.6217L3.29413 39.4307L-1.11337 35.5084H4.64713L6.57413 30.4517L8.83597 35.5084H13.7423L9.8883 39.4307L11.378 45.6217L6.58097 42.1367ZM28.9533 45.6217L33.9143 42.1367L38.7113 45.6217L37.2216 39.4307L41.0756 35.5084H36.1693L33.9075 30.4517L31.9805 35.5084H26.22L30.6275 39.4307L28.9533 45.6217ZM61.2476 42.1367L56.2866 45.6217L57.9608 39.4307L53.5601 35.5084H59.3138L61.2408 30.4517L63.5026 35.5084H68.409L64.555 39.4307L66.0446 45.6217L61.2476 42.1367ZM1.61997 72.955L6.58097 69.47L11.378 72.955L9.8883 66.764L13.7423 62.8417H8.83597L6.57413 57.785L4.64713 62.8417H-1.11337L3.29413 66.764L1.61997 72.955ZM33.9143 69.47L28.9533 72.955L30.6275 66.764L26.2268 62.8417H31.9805L33.9075 57.785L36.1693 62.8417H41.0756L37.2216 66.764L38.7113 72.955L33.9143 69.47ZM56.2866 72.955L61.2476 69.47L66.0446 72.955L64.555 66.764L68.409 62.8417H63.5026L61.2408 57.785L59.3138 62.8417H53.5601L57.9608 66.764L56.2866 72.955ZM88.581 42.1367L83.62 45.6217L85.2941 39.4307L80.8935 35.5084H86.6471L88.5741 30.4517L90.836 35.5084H95.7423L91.8883 39.4307L93.378 45.6217L88.581 42.1367ZM83.62 72.955L88.581 69.47L93.378 72.955L91.8883 66.764L95.7423 62.8417H90.836L88.5741 57.785L86.6471 62.8417H80.8935L85.2941 66.764L83.62 72.955Z" fill="#F7FCFF"/>
<path d="M1.90972 8.55371C-4.7819 8.55371 -11.1994 11.2119 -15.9311 15.9436C-20.6628 20.6753 -23.321 27.0929 -23.321 33.7845L-23.321 147.323C-23.321 154.015 -20.6628 160.432 -15.9311 165.164C-11.1994 169.895 -4.7819 172.554 1.90972 172.554H52.3712L52.3712 8.55371L1.90972 8.55371Z" fill="#009A49"/>
<path d="M52.3712 8.55371L128.064 8.55371V172.554H52.3712L52.3712 8.55371Z" fill="white"/>
<path d="M178.525 8.55371L128.064 8.55371V172.554H178.525C185.217 172.554 191.634 169.895 196.366 165.164C201.098 160.432 203.756 154.015 203.756 147.323V33.7845C203.756 27.0929 201.098 20.6753 196.366 15.9436C191.634 11.2119 185.217 8.55371 178.525 8.55371Z" fill="#009A49"/>
</g>
</g>
<rect x="4.09995" y="4.1002" width="172.2" height="172.2" rx="86.1" stroke="white" stroke-width="8.2"/>
<defs>
<clipPath id="clip0_496_691">
<rect x="8.19995" y="8.2002" width="164" height="164" rx="82" fill="white"/>
</clipPath>
<clipPath id="clip1_496_691">
<rect x="8.22168" y="8.55371" width="164" height="164" rx="82" fill="white"/>
</clipPath>
</defs>
</svg>
