<svg width="164" height="164" viewBox="0 0 164 164" fill="none" xmlns="http://www.w3.org/2000/svg">
<rect width="164" height="164" rx="82" stroke="#DFA9A9"/>
<g clip-path="url(#clip0_497_1056)">
<path d="M-23 52.833H187V111.166H-23V52.833Z" fill="#EEEEEE"/>
<path d="M163.667 6.16699H0.333334C-5.85505 6.16699 -11.79 8.62532 -16.1658 13.0012C-20.5417 17.377 -23 23.3119 -23 29.5003L-23 52.8337H187V29.5003C187 23.3119 184.542 17.377 180.166 13.0012C175.79 8.62532 169.855 6.16699 163.667 6.16699Z" fill="#E05206"/>
<path d="M82.0001 105.334C94.8867 105.334 105.333 94.887 105.333 82.0003C105.333 69.1137 94.8867 58.667 82.0001 58.667C69.1134 58.667 58.6667 69.1137 58.6667 82.0003C58.6667 94.887 69.1134 105.334 82.0001 105.334Z" fill="#E05206"/>
<path d="M163.667 157.834H0.333334C-5.85505 157.834 -11.79 155.375 -16.1658 150.999C-20.5417 146.624 -23 140.689 -23 134.5V111.167H187V134.5C187 140.689 184.542 146.624 180.166 150.999C175.79 155.375 169.855 157.834 163.667 157.834Z" fill="#0DB02B"/>
</g>
<rect x="4.1" y="4.1" width="155.8" height="155.8" rx="77.9" stroke="white" stroke-width="8.2"/>
<defs>
<clipPath id="clip0_497_1056">
<rect width="164" height="164" rx="82" fill="white"/>
</clipPath>
</defs>
</svg>
