<svg width="164" height="164" viewBox="0 0 164 164" fill="none" xmlns="http://www.w3.org/2000/svg">
<rect width="164" height="164" rx="82" stroke="#DFA9A9"/>
<g clip-path="url(#clip0_497_1403)">
<path d="M46.6665 157.834H186.667C192.855 157.834 198.79 155.375 203.166 150.999C207.542 146.624 210 140.689 210 134.5V111.167H46.6665V157.834Z" fill="#008000"/>
<path d="M186.667 6.16699H46.6665V52.8337H210V29.5003C210 23.3119 207.542 17.377 203.166 13.0012C198.79 8.62532 192.855 6.16699 186.667 6.16699Z" fill="#EEEEEE"/>
<path d="M210 52.8337H52.5V6.16699H23.3333C17.1449 6.16699 11.21 8.62532 6.83418 13.0012C2.45833 17.377 0 23.3119 0 29.5003L0 134.5C0 140.689 2.45833 146.624 6.83418 150.999C11.21 155.375 17.1449 157.834 23.3333 157.834H52.5V111.167H210V52.8337Z" fill="#DB161B"/>
<path d="M21.1456 26.3095C22.9715 29.617 22.9715 30.912 22.4406 31.2036C21.9156 31.4953 21.0523 30.6786 19.2323 27.3711C17.4123 24.0636 15.3123 19.5253 15.8373 19.2336C16.3623 18.942 19.3198 23.0078 21.1456 26.3095ZM32.1765 24.2736C30.3506 27.5811 29.3006 30.4978 29.8315 30.7895C30.3623 31.0811 32.264 28.637 34.0898 25.3353C35.9098 22.0278 36.9656 19.1111 36.4348 18.8195C35.904 18.5278 33.9965 20.972 32.1765 24.2736ZM28.8923 29.5936L27.1598 21.2986L26.9965 21.2636C27.5973 20.9778 28.0698 20.5286 28.0698 19.8811C28.0698 18.9478 27.2123 18.1953 26.1565 18.1953C25.1006 18.1953 24.2431 18.9536 24.2431 19.887C24.2431 20.517 24.6806 21.0128 25.264 21.3045L23.6073 29.6811L28.8923 29.5936Z" fill="#EEEEEE"/>
<path d="M39.1007 45.6355C37.5198 44.3172 31.2315 38.8747 28.2448 35.6255C28.5132 34.6922 28.6707 33.6888 28.6065 32.6155H28.7057V32.6622H33.9032V33.6655H40.2848V30.568H33.9032V31.5713H28.7115V31.618H28.5307V30.0488H23.7882V31.618H21.8748V31.7113H18.1357V30.428H12.1215V33.7997H18.1357V32.528H21.8748V32.6213H23.4848L23.2748 34.803C23.2748 34.803 17.214 35.0713 15.5865 35.3338C11.5732 35.9697 12.8507 37.1538 16.1348 38.2505C17.6457 38.7522 19.1507 38.9505 20.574 39.0263C18.2582 41.4997 13.5332 45.1688 12.3957 45.8163C11.1182 46.5455 11.1182 47.4555 13.5798 46.913C15.9657 46.3822 21.484 41.5113 23.4032 39.0497L25.0657 38.9797C25.9407 38.9447 26.6348 38.3963 27.2182 37.673C29.709 40.6188 34.5915 44.988 36.5515 46.178C38.6457 47.4555 39.6257 47.4263 40.3665 47.3038C41.1073 47.1813 40.7398 47.0005 39.1007 45.6355Z" fill="#EEEEEE"/>
</g>
<rect x="4.1" y="4.1" width="155.8" height="155.8" rx="77.9" stroke="white" stroke-width="8.2"/>
<defs>
<clipPath id="clip0_497_1403">
<rect width="164" height="164" rx="82" fill="white"/>
</clipPath>
</defs>
</svg>
