<svg width="164" height="164" viewBox="0 0 164 164" fill="none" xmlns="http://www.w3.org/2000/svg">
<rect width="164" height="164" rx="82" stroke="#DFA9A9"/>
<g clip-path="url(#clip0_497_1061)">
<path d="M187 134.5C187 140.689 184.542 146.624 180.166 150.999C175.79 155.375 169.855 157.834 163.667 157.834H0.333334C-5.85505 157.834 -11.79 155.375 -16.1658 150.999C-20.5417 146.624 -23 140.689 -23 134.5V29.5003C-23 23.3119 -20.5417 17.377 -16.1658 13.0012C-11.79 8.62532 -5.85505 6.16699 0.333334 6.16699H163.667C169.855 6.16699 175.79 8.62532 180.166 13.0012C184.542 17.377 187 23.3119 187 29.5003V134.5Z" fill="#20603D"/>
<path d="M-23 87.833H187V128.666H-23V87.833Z" fill="#FAD201"/>
<path d="M163.667 6.16699H0.333334C-5.85505 6.16699 -11.79 8.62532 -16.1658 13.0012C-20.5417 17.377 -23 23.3119 -23 29.5003L-23 99.5003H187V29.5003C187 23.3119 184.542 17.377 180.166 13.0012C175.79 8.62532 169.855 6.16699 163.667 6.16699Z" fill="#00A1DE"/>
<path d="M128.667 6.16699L131.712 29.6987L140.742 7.75366L137.598 31.2737L152 12.4203L142.871 34.3245L161.66 19.8345L147.176 38.6295L169.086 29.5003L150.221 43.9028L173.747 40.7528L151.802 49.7828L175.333 52.8337L151.802 55.8845L173.747 64.9087L150.221 61.7645L169.086 76.167L147.176 67.0378L161.66 85.8328L142.871 71.3428L152 93.2528L137.598 74.3878L140.742 97.9137L131.712 75.9687L128.667 99.5003L125.622 75.9687L116.586 97.9137L119.736 74.3878L105.333 93.2528L114.463 71.3428L95.6733 85.8328L110.152 67.0378L88.2475 76.167L107.107 61.7645L83.5867 64.9087L105.526 55.8845L82 52.8337L105.526 49.7828L83.5867 40.7528L107.107 43.9028L88.2475 29.5003L110.152 38.6295L95.6733 19.8345L114.463 34.3245L105.333 12.4203L119.736 31.2737L116.586 7.75366L125.622 29.6987L128.667 6.16699Z" fill="#FAD201"/>
<path d="M128.667 76.1667C141.553 76.1667 152 65.72 152 52.8333C152 39.9467 141.553 29.5 128.667 29.5C115.78 29.5 105.333 39.9467 105.333 52.8333C105.333 65.72 115.78 76.1667 128.667 76.1667Z" fill="#00A1DE"/>
<path d="M128.667 70.333C138.331 70.333 146.167 62.498 146.167 52.833C146.167 43.168 138.331 35.333 128.667 35.333C119.002 35.333 111.167 43.168 111.167 52.833C111.167 62.498 119.002 70.333 128.667 70.333Z" fill="#FAD201"/>
</g>
<rect x="4.1" y="4.1" width="155.8" height="155.8" rx="77.9" stroke="white" stroke-width="8.2"/>
<defs>
<clipPath id="clip0_497_1061">
<rect width="164" height="164" rx="82" fill="white"/>
</clipPath>
</defs>
</svg>
