<svg width="164" height="164" viewBox="0 0 164 164" fill="none" xmlns="http://www.w3.org/2000/svg">
<rect width="164" height="164" rx="82" stroke="#DFA9A9"/>
<g clip-path="url(#clip0_497_874)">
<path d="M1.11111 6.88672C-5.01834 6.88672 -10.8967 9.32163 -15.2309 13.6558C-19.5651 17.99 -22 23.8684 -22 29.9978L-22 133.998C-22 140.127 -19.5651 146.006 -15.2309 150.34C-10.8967 154.674 -5.01834 157.109 1.11111 157.109H47.3333V6.88672H1.11111Z" fill="#00853F"/>
<path d="M47.3336 6.88672H116.667V157.109H47.3336V6.88672Z" fill="#FDEF42"/>
<path d="M162.888 6.88672H116.666V157.109H162.888C169.018 157.109 174.896 154.674 179.231 150.34C183.565 146.006 186 140.127 186 133.998V29.9978C186 23.8684 183.565 17.99 179.231 13.6558C174.896 9.32163 169.018 6.88672 162.888 6.88672Z" fill="#E31B23"/>
<path d="M87.0212 74.3365L82.0003 58.8867L76.9794 74.3365H60.7381L73.8768 83.8814L68.8617 99.3312L82.0003 89.7863L95.139 99.3312L90.1239 83.8814L103.263 74.3365H87.0212Z" fill="#00853F"/>
</g>
<rect x="4.1" y="4.1" width="155.8" height="155.8" rx="77.9" stroke="white" stroke-width="8.2"/>
<defs>
<clipPath id="clip0_497_874">
<rect width="164" height="164" rx="82" fill="white"/>
</clipPath>
</defs>
</svg>
