<svg width="164" height="164" viewBox="0 0 164 164" fill="none" xmlns="http://www.w3.org/2000/svg">
<rect width="164" height="164" rx="82" stroke="#DFA9A9"/>
<g clip-path="url(#clip0_496_756)">
<g clip-path="url(#clip1_496_756)">
<path d="M164.445 4.44238H14.2788L87.8899 54.4979H188.001V27.9979C188.001 21.7506 185.519 15.7592 181.102 11.3416C176.684 6.92412 170.693 4.44238 164.445 4.44238Z" fill="#DE3830"/>
<path d="M14.2788 157.556H164.445C170.693 157.556 176.684 155.074 181.102 150.656C185.519 146.239 188.001 140.247 188.001 134V107.5H87.8899L14.2788 157.556Z" fill="#002395"/>
<path d="M-24 39.7783V122.223L37.8333 81.0005L-24 39.7783Z" fill="#141414"/>
<path d="M-24 28V39.7778L37.8333 81L-24 122.222V134L55.5 81L-24 28Z" fill="#FFB611"/>
<path d="M-3.14745 4.60938C-8.88695 5.27236 -14.1826 8.02163 -18.0274 12.3343C-21.8721 16.647 -23.9977 22.2224 -24 28L55.5 81L-24 134C-23.9977 139.778 -21.8721 145.353 -18.0274 149.666C-14.1826 153.978 -8.88695 156.728 -3.14745 157.391L84.9444 95.7223H188V66.2778H84.9444L-3.14745 4.60938Z" fill="#007A4D"/>
<path d="M14.2781 4.44238H-0.444094C-1.35884 4.44631 -2.25984 4.50127 -3.14709 4.60727L84.9448 66.2757H188V54.4979H87.8892L14.2781 4.44238ZM-3.14709 157.389C-2.25984 157.495 -1.35884 157.55 -0.444094 157.553H14.2781L87.8892 107.498H188V95.7202H84.9448L-3.14709 157.389Z" fill="#EEEEEE"/>
</g>
</g>
<rect x="4.1" y="4.1" width="155.8" height="155.8" rx="77.9" stroke="white" stroke-width="8.2"/>
<defs>
<clipPath id="clip0_496_756">
<rect width="164" height="164" rx="82" fill="white"/>
</clipPath>
<clipPath id="clip1_496_756">
<rect width="212" height="212" fill="white" transform="translate(-24 -25)"/>
</clipPath>
</defs>
</svg>
