<svg width="164" height="164" viewBox="0 0 164 164" fill="none" xmlns="http://www.w3.org/2000/svg">
<rect width="164" height="164" rx="82" stroke="#DFA9A9"/>
<g clip-path="url(#clip0_497_1357)">
<path d="M187 134.5C187 140.689 184.542 146.624 180.166 150.999C175.79 155.375 169.855 157.834 163.667 157.834H0.333334C-5.85505 157.834 -11.79 155.375 -16.1658 150.999C-20.5417 146.624 -23 140.689 -23 134.5V29.5003C-23 23.3119 -20.5417 17.377 -16.1658 13.0012C-11.79 8.62532 -5.85505 6.16699 0.333334 6.16699H163.667C169.855 6.16699 175.79 8.62532 180.166 13.0012C184.542 17.377 187 23.3119 187 29.5003V134.5Z" fill="#C60A1D"/>
<path d="M-23 47H187V117H-23V47Z" fill="#FFC400"/>
<path d="M29.5 76.167V93.667C29.5 98.3083 31.3437 102.759 34.6256 106.041C37.9075 109.323 42.3587 111.167 47 111.167C51.6413 111.167 56.0925 109.323 59.3744 106.041C62.6563 102.759 64.5 98.3083 64.5 93.667V76.167H29.5Z" fill="#EA596E"/>
<path d="M47 70.333H64.5V87.833H47V70.333Z" fill="#F4A2B2"/>
<path d="M29.5 70.333H47V87.833H29.5V70.333Z" fill="#DD2E44"/>
<path d="M47 70.333C56.665 70.333 64.5 66.4155 64.5 61.583C64.5 56.7505 56.665 52.833 47 52.833C37.335 52.833 29.5 56.7505 29.5 61.583C29.5 66.4155 37.335 70.333 47 70.333Z" fill="#EA596E"/>
<path d="M47 61.583C56.665 61.583 64.5 59.6243 64.5 57.208C64.5 54.7918 56.665 52.833 47 52.833C37.335 52.833 29.5 54.7918 29.5 57.208C29.5 59.6243 37.335 61.583 47 61.583Z" fill="#FFAC33"/>
<path d="M17.8335 70.333H23.6668V111.166H17.8335V70.333ZM70.3335 70.333H76.1668V111.166H70.3335V70.333Z" fill="#99AAB5"/>
<path d="M12 105.333H29.5V111.167H12V105.333ZM64.5 105.333H82V111.167H64.5V105.333ZM17.8333 64.5H23.6667V70.3333H17.8333V64.5ZM70.3333 64.5H76.1667V70.3333H70.3333V64.5Z" fill="#66757F"/>
</g>
<rect x="4.1" y="4.1" width="155.8" height="155.8" rx="77.9" stroke="white" stroke-width="8.2"/>
<defs>
<clipPath id="clip0_497_1357">
<rect width="164" height="164" rx="82" fill="white"/>
</clipPath>
</defs>
</svg>
