<svg width="164" height="164" viewBox="0 0 164 164" fill="none" xmlns="http://www.w3.org/2000/svg">
<rect width="164" height="164" rx="82" stroke="#DFA9A9"/>
<g clip-path="url(#clip0_497_864)">
<path d="M166.889 7.88672H80.2222V82.9978H-18V134.998C-18 141.127 -15.5651 147.006 -11.2309 151.34C-6.89674 155.674 -1.01834 158.109 5.11111 158.109H166.889C173.018 158.109 178.897 155.674 183.231 151.34C187.565 147.006 190 141.127 190 134.998V30.9978C190 24.8684 187.565 18.99 183.231 14.6558C178.897 10.3216 173.018 7.88672 166.889 7.88672Z" fill="#FE0000"/>
<path d="M80.2222 7.88672H5.11111C-1.01834 7.88672 -6.89674 10.3216 -11.2309 14.6558C-15.5651 18.99 -18 24.8684 -18 30.9978L-18 82.9978H80.2222V7.88672ZM45.1916 34.5223L56.9493 31.3561L48.3347 39.9476C47.6377 37.9575 46.5713 36.1168 45.1916 34.5223ZM46.6418 45.4423C46.6418 47.2921 46.2774 49.1238 45.5695 50.8328C44.8616 52.5419 43.824 54.0947 42.516 55.4027C41.208 56.7108 39.6551 57.7484 37.9461 58.4563C36.2371 59.1642 34.4054 59.5285 32.5556 59.5285C30.7057 59.5285 28.874 59.1642 27.165 58.4563C25.456 57.7484 23.9031 56.7108 22.5951 55.4027C21.2871 54.0947 20.2495 52.5419 19.5416 50.8328C18.8337 49.1238 18.4693 47.2921 18.4693 45.4423C18.4693 41.7064 19.9534 38.1235 22.5951 35.4818C25.2368 32.8401 28.8197 31.3561 32.5556 31.3561C36.2915 31.3561 39.8743 32.8401 42.516 35.4818C45.1577 38.1235 46.6418 41.7064 46.6418 45.4423ZM46.6418 21.0485L43.4756 32.8063C41.881 31.4265 40.0403 30.3602 38.0502 29.6632L46.6418 21.0485ZM32.5556 17.2756L35.6871 29.0276C34.6702 28.835 33.6264 28.7349 32.5556 28.7272C30.9493 28.7156 30.4351 28.8369 29.424 29.0276L32.5556 17.2756ZM27.0609 29.6632C25.0708 30.3602 23.2301 31.4265 21.6356 32.8063L18.4693 21.0485L27.0609 29.6632ZM19.9196 34.5223C18.5398 36.1168 17.4734 37.9575 16.7764 39.9476L8.16178 31.3561L19.9196 34.5223ZM16.1409 42.3107C15.7472 44.3799 15.7472 46.5047 16.1409 48.5738L4.38889 45.4423L16.1409 42.3107ZM16.7764 50.9312C17.4756 52.9418 18.556 54.7792 19.9196 56.3565L8.16178 59.5227L16.7764 50.9312ZM18.4693 69.8361L21.6356 58.0783C23.2129 59.4418 25.0502 60.5223 27.0609 61.2214L18.4693 69.8361ZM32.5556 73.6089L29.424 61.8569C31.4931 62.2506 33.618 62.2506 35.6871 61.8569L32.5556 73.6089ZM38.0502 61.2214C40.0609 60.5223 41.8982 59.4418 43.4756 58.0783L46.6418 69.8361L38.0502 61.2214ZM45.1916 56.3623C46.5609 54.7849 47.6356 52.9476 48.3347 50.9369L56.9493 59.5285L45.1916 56.3623ZM48.9702 48.5738C49.3639 46.5047 49.3639 44.3799 48.9702 42.3107L60.7222 45.4423L48.9702 48.5738Z" fill="#000095"/>
<path d="M35.6874 29.0274L32.5558 17.2754L29.4242 29.0274C30.4411 28.8348 31.485 28.7347 32.5558 28.7269C34.162 28.7154 34.6762 28.8367 35.6874 29.0274ZM15.8407 45.4421C15.8407 44.3712 15.9408 43.3274 16.1411 42.3105L4.38913 45.4421L16.1411 48.5736C15.9463 47.541 15.8457 46.4929 15.8407 45.4421ZM29.4242 61.8567L32.5558 73.6087L35.6874 61.8567C33.6182 62.2504 31.4934 62.2504 29.4242 61.8567ZM49.2709 45.4421C49.2709 46.5129 49.1708 47.5567 48.9705 48.5736L60.7225 45.4421L48.9705 42.3105C49.1631 43.3274 49.2632 44.3712 49.2709 45.4421ZM46.642 21.0483L38.0505 29.6629C40.0611 30.3678 41.8985 31.4425 43.4758 32.8061L46.642 21.0483ZM45.1918 56.3621L56.9496 59.5283L48.3349 50.9367C47.6379 52.9268 46.5716 54.7675 45.1918 56.3621ZM18.4696 69.8358L27.0611 61.2212C25.071 60.5242 23.2304 59.4578 21.6358 58.0781L18.4696 69.8358ZM19.9198 34.5221L8.16202 31.3558L16.7767 39.9474C17.4758 37.9367 18.5505 36.1052 19.9198 34.5221ZM38.0505 61.2212L46.642 69.8358L43.4758 58.0781C41.8812 59.4578 40.0406 60.5242 38.0505 61.2212ZM16.7767 50.9309L8.16202 59.5225L19.9198 56.3563C18.54 54.7617 17.4737 52.9211 16.7767 50.9309ZM27.0611 29.6629L18.4696 21.0483L21.6358 32.8061C23.2189 31.4367 25.0505 30.3621 27.0611 29.6629ZM56.9496 31.3558L45.1918 34.5221C46.5611 36.0994 47.6358 37.9367 48.3349 39.9474L56.9496 31.3558Z" fill="white"/>
<path d="M32.5554 59.5269C40.335 59.5269 46.6416 53.2203 46.6416 45.4407C46.6416 37.6611 40.335 31.3545 32.5554 31.3545C24.7758 31.3545 18.4692 37.6611 18.4692 45.4407C18.4692 53.2203 24.7758 59.5269 32.5554 59.5269Z" fill="white"/>
</g>
<rect x="4.1" y="4.1" width="155.8" height="155.8" rx="77.9" stroke="white" stroke-width="8.2"/>
<defs>
<clipPath id="clip0_497_864">
<rect width="164" height="164" rx="82" fill="white"/>
</clipPath>
</defs>
</svg>
