<svg width="164" height="164" viewBox="0 0 164 164" fill="none" xmlns="http://www.w3.org/2000/svg">
<rect width="164" height="164" rx="82" stroke="#DFA9A9"/>
<g clip-path="url(#clip0_497_869)">
<path d="M199 134.499C199 140.688 196.542 146.623 192.166 150.999C187.79 155.374 181.855 157.833 175.667 157.833H12.3333C6.14495 157.833 0.210024 155.374 -4.16582 150.999C-8.54167 146.623 -11 140.688 -11 134.499V29.4994C-11 23.311 -8.54167 17.376 -4.16582 13.0002C0.210024 8.62434 6.14495 6.16602 12.3333 6.16602H175.667C181.855 6.16602 187.79 8.62434 192.166 13.0002C196.542 17.376 199 23.311 199 29.4994V134.499Z" fill="#E30917"/>
<path d="M82.3335 117.002C73.0509 117.002 64.1486 113.314 57.5848 106.751C51.021 100.187 47.3335 91.2845 47.3335 82.0019C47.3335 72.7193 51.021 63.8169 57.5848 57.2531C64.1486 50.6894 73.0509 47.0019 82.3335 47.0019C89.9752 47.0019 97.0335 49.481 102.791 53.6402C98.7773 49.0735 93.8359 45.4153 88.2964 42.9096C82.7569 40.4039 76.7467 39.1083 70.6669 39.1094C59.2911 39.1094 48.3812 43.6284 40.3373 51.6723C32.2934 59.7162 27.7744 70.6261 27.7744 82.0019C27.7736 87.6351 28.8825 93.2133 31.0377 98.4179C33.1929 103.623 36.3522 108.352 40.3352 112.335C44.3182 116.319 49.0469 119.479 54.2513 121.635C59.4556 123.791 65.0336 124.9 70.6669 124.9C83.471 124.9 94.9335 119.259 102.791 110.364C96.8449 114.683 89.6829 117.007 82.3335 117.002ZM105.159 83.3435L119.393 86.6219L120.676 101.164L128.189 88.646L142.423 91.9186L132.833 80.9052L140.34 68.381L126.906 74.0977L117.316 63.0785L118.599 77.6269L105.159 83.3435Z" fill="#EEEEEE"/>
</g>
<rect x="4.1" y="4.1" width="155.8" height="155.8" rx="77.9" stroke="white" stroke-width="8.2"/>
<defs>
<clipPath id="clip0_497_869">
<rect width="164" height="164" rx="82" fill="white"/>
</clipPath>
</defs>
</svg>
