<svg width="181" height="181" viewBox="0 0 181 181" fill="none" xmlns="http://www.w3.org/2000/svg">
<rect x="8.19995" y="8.2002" width="164" height="164" rx="82" stroke="#FF8282"/>
<g clip-path="url(#clip0_496_674)">
<path fill-rule="evenodd" clip-rule="evenodd" d="M-19.1357 8.22559V172.201H199.498V8.22559H-19.1357Z" fill="#2E42A5"/>
<mask id="mask0_496_674" style="mask-type:luminance" maskUnits="userSpaceOnUse" x="-20" y="8" width="220" height="165">
<path fill-rule="evenodd" clip-rule="evenodd" d="M-19.1357 8.22559V172.201H199.498V8.22559H-19.1357Z" fill="white"/>
</mask>
<g mask="url(#mask0_496_674)">
<path d="M-43.4783 160.487L4.63471 180.84L200.585 30.3523L225.967 0.112584L174.52 -6.68555L94.5955 58.1597L30.2626 101.859L-43.4783 160.487Z" fill="white"/>
<path d="M-36.8999 174.746L-12.3788 186.552L216.851 -2.69531H182.437L-36.8999 174.746Z" fill="#F50100"/>
<path d="M223.84 160.487L175.727 180.84L-20.2235 30.3523L-45.6055 0.112584L5.84167 -6.68555L85.7658 58.1597L150.099 101.859L223.84 160.487Z" fill="white"/>
<path d="M222.203 170.721L197.689 182.527L100.083 101.496L71.1415 92.4498L-48.0479 0.213867H-13.6268L105.487 90.2635L137.128 101.113L222.203 170.721Z" fill="#F50100"/>
<path fill-rule="evenodd" clip-rule="evenodd" d="M115.998 -5.43457H64.3728V62.8883H-32.6047V117.547H64.3728V185.87H115.998V117.547H213.358V62.8883H115.998V-5.43457Z" fill="#F50100"/>
<mask id="mask1_496_674" style="mask-type:luminance" maskUnits="userSpaceOnUse" x="-33" y="-6" width="247" height="192">
<path fill-rule="evenodd" clip-rule="evenodd" d="M115.998 -5.44238H64.3728V62.8805H-32.6047V117.539H64.3728V185.862H115.998V117.539H213.358V62.8805H115.998V-5.44238Z" fill="white"/>
</mask>
<g mask="url(#mask1_496_674)">
<path d="M64.3711 -5.43796V-19.1025H50.7066V-5.43796H64.3711ZM115.996 -5.43796H129.661V-19.1025H115.996V-5.43796ZM64.3711 62.8849V76.5495H78.0357V62.8849H64.3711ZM-32.6064 62.8849V49.2204H-46.271V62.8849H-32.6064ZM-32.6064 117.543H-46.271V131.208H-32.6064V117.543ZM64.3711 117.543H78.0357V103.879H64.3711V117.543ZM64.3711 185.866H50.7066V199.531H64.3711V185.866ZM115.996 185.866V199.531H129.661V185.866H115.996ZM115.996 117.543V103.879H102.331V117.543H115.996ZM213.356 117.543V131.208H227.021V117.543H213.356ZM213.356 62.8849H227.021V49.2204H213.356V62.8849ZM115.996 62.8849H102.331V76.5495H115.996V62.8849ZM64.3711 8.22662H115.996V-19.1025H64.3711V8.22662ZM78.0357 62.8849V-5.43796H50.7066V62.8849H78.0357ZM-32.6064 76.5495H64.3711V49.2204H-32.6064V76.5495ZM-18.9418 117.543V62.8849H-46.271V117.543H-18.9418ZM64.3711 103.879H-32.6064V131.208H64.3711V103.879ZM78.0357 185.866V117.543H50.7066V185.866H78.0357ZM115.996 172.202H64.3711V199.531H115.996V172.202ZM102.331 117.543V185.866H129.661V117.543H102.331ZM213.356 103.879H115.996V131.208H213.356V103.879ZM199.692 62.8849V117.543H227.021V62.8849H199.692ZM115.996 76.5495H213.356V49.2204H115.996V76.5495ZM102.331 -5.43796V62.8849H129.661V-5.43796H102.331Z" fill="white"/>
</g>
</g>
</g>
<rect x="4.09995" y="4.1002" width="172.2" height="172.2" rx="86.1" stroke="white" stroke-width="8.2"/>
<defs>
<clipPath id="clip0_496_674">
<rect x="8.19995" y="8.2002" width="164" height="164" rx="82" fill="white"/>
</clipPath>
</defs>
</svg>
