<svg width="164" height="164" viewBox="0 0 164 164" fill="none" xmlns="http://www.w3.org/2000/svg">
<rect width="164" height="164" rx="82" stroke="#DFA9A9"/>
<g clip-path="url(#clip0_496_606)">
<g clip-path="url(#clip1_496_606)">
<path fill-rule="evenodd" clip-rule="evenodd" d="M-27.0729 -0.158203L191.594 -0.158203V163.842H-27.0729L-27.0729 -0.158203Z" fill="#F7FCFF"/>
<path fill-rule="evenodd" clip-rule="evenodd" d="M-27.0729 100.066V113.733L191.594 113.733V100.066L-27.0729 100.066ZM-27.0729 125.117V138.784H191.594V125.117L-27.0729 125.117ZM-27.0729 49.9506V63.6173L191.594 63.6173V49.9506L-27.0729 49.9506ZM-27.0729 150.175L-27.0729 163.842H191.594V150.175H-27.0729ZM-27.0729 75.0085V88.6751L191.594 88.6751V75.0085L-27.0729 75.0085ZM-27.0729 -0.158203V13.5085L191.594 13.5085V-0.158203L-27.0729 -0.158203ZM-27.0729 24.8996L-27.0729 38.5663L191.594 38.5663V24.8996L-27.0729 24.8996Z" fill="#E31D1C"/>
<path d="M-27.0729 -0.158203L109.594 -0.158203V88.6751L-27.0729 88.6751L-27.0729 -0.158203Z" fill="#2E42A5"/>
<path fill-rule="evenodd" clip-rule="evenodd" d="M-15.3058 19.9251L-20.2668 23.4033L-18.5926 17.2123L-23.0001 13.29H-17.2396L-15.3126 8.23329L-13.0508 13.29L-8.14446 13.29L-11.9985 17.2123L-10.5088 23.4033L-15.3058 19.9251ZM12.0275 19.9251L7.06654 23.4033L8.74071 17.2123L4.34004 13.29H10.0937L12.0207 8.23329L14.2825 13.29H19.1889L15.3349 17.2123L16.8245 23.4033L12.0275 19.9251ZM34.3999 23.4033L39.3609 19.9183L44.1579 23.4033L42.6682 17.2123L46.5222 13.29H41.6159L39.354 8.23329L37.427 13.29H31.6734L36.074 17.2123L34.3999 23.4033ZM66.6942 19.9183L61.7332 23.4033L63.4074 17.2123L59.0067 13.29H64.7604L66.6874 8.23329L68.9492 13.29H73.8556L70.0016 17.2123L71.4912 23.4033L66.6942 19.9183ZM-20.2668 50.7434L-15.3058 47.2585L-10.5088 50.7434L-11.9985 44.5525L-8.14446 40.6301H-13.0508L-15.3126 35.5735L-17.2396 40.6301H-23.0001L-18.5926 44.5525L-20.2668 50.7434ZM12.0275 47.2585L7.06654 50.7434L8.74071 44.5525L4.34004 40.6301H10.0937L12.0207 35.5735L14.2825 40.6301H19.1889L15.3349 44.5525L16.8245 50.7434L12.0275 47.2585ZM34.3999 50.7434L39.3609 47.2585L44.1579 50.7434L42.6682 44.5525L46.5222 40.6301H41.6159L39.354 35.5735L37.427 40.6301L31.6734 40.6301L36.074 44.5525L34.3999 50.7434ZM66.6942 47.2585L61.7332 50.7434L63.4074 44.5525L59.0067 40.6301H64.7604L66.6874 35.5735L68.9492 40.6301H73.8556L70.0016 44.5525L71.4912 50.7434L66.6942 47.2585ZM-20.2668 78.0768L-15.3058 74.5918L-10.5088 78.0768L-11.9985 71.8858L-8.14446 67.9635H-13.0508L-15.3126 62.9068L-17.2396 67.9635H-23.0001L-18.5926 71.8858L-20.2668 78.0768ZM12.0275 74.5918L7.06654 78.0768L8.74071 71.8858L4.34004 67.9635H10.0937L12.0207 62.9068L14.2825 67.9635H19.1889L15.3349 71.8858L16.8245 78.0768L12.0275 74.5918ZM34.3999 78.0768L39.3609 74.5918L44.1579 78.0768L42.6682 71.8858L46.5222 67.9635H41.6159L39.354 62.9068L37.427 67.9635H31.6734L36.074 71.8858L34.3999 78.0768ZM66.6942 74.5918L61.7332 78.0768L63.4074 71.8858L59.0067 67.9635H64.7604L66.6874 62.9068L68.9492 67.9635H73.8556L70.0016 71.8858L71.4912 78.0768L66.6942 74.5918ZM89.0665 23.4101L94.0275 19.9251L98.8245 23.4101L97.3349 17.2191L101.189 13.2968H96.2825L94.0207 8.24012L92.0937 13.2968H86.3332L90.7407 17.2191L89.0665 23.4101ZM94.0275 47.2585L89.0665 50.7434L90.7407 44.5525L86.3332 40.6301H92.0937L94.0207 35.5735L96.2825 40.6301H101.189L97.3349 44.5525L98.8245 50.7434L94.0275 47.2585ZM89.0665 78.0768L94.0275 74.5918L98.8245 78.0768L97.3349 71.8858L101.189 67.9635L96.2825 67.9635L94.0207 62.9068L92.0937 67.9635H86.3332L90.7407 71.8858L89.0665 78.0768ZM-1.63912 33.585L-6.60012 37.07L-4.92596 30.879L-9.33346 26.9566H-3.57296L-1.64596 21.9L0.615876 26.9566L5.52221 26.9566L1.66821 30.879L3.15788 37.07L-1.63912 33.585ZM20.7332 37.07L25.6942 33.585L30.4912 37.07L29.0015 30.879L32.8555 26.9566H27.9492L25.6874 21.9L23.7604 26.9566H17.9999L22.4074 30.879L20.7332 37.07ZM53.0276 33.585L48.0665 37.07L49.7407 30.879L45.3401 26.9566H51.0937L53.0207 21.9L55.2825 26.9566H60.1889L56.3349 30.879L57.8245 37.07L53.0276 33.585ZM-6.60012 64.4033L-1.63912 60.9183L3.15788 64.4033L1.66821 58.2123L5.52221 54.29H0.615876L-1.64596 49.2333L-3.57296 54.29H-9.33346L-4.92596 58.2123L-6.60012 64.4033ZM25.6942 60.9183L20.7332 64.4033L22.4074 58.2123L18.0067 54.29H23.7604L25.6874 49.2333L27.9492 54.29H32.8555L29.0015 58.2123L30.4912 64.4033L25.6942 60.9183ZM48.0665 64.4033L53.0276 60.9183L57.8245 64.4033L56.3349 58.2123L60.1889 54.29H55.2825L53.0207 49.2333L51.0937 54.29H45.3401L49.7407 58.2123L48.0665 64.4033ZM80.3609 33.585L75.3999 37.07L77.0741 30.879L72.6734 26.9566H78.4271L80.3541 21.9L82.6159 26.9566H87.5222L83.6682 30.879L85.1579 37.07L80.3609 33.585ZM75.3999 64.4033L80.3609 60.9183L85.1579 64.4033L83.6682 58.2123L87.5222 54.29H82.6159L80.3541 49.2333L78.4271 54.29H72.6734L77.0741 58.2123L75.3999 64.4033Z" fill="#F7FCFF"/>
</g>
</g>
<rect x="4.1" y="4.1" width="155.8" height="155.8" rx="77.9" stroke="white" stroke-width="8.2"/>
<defs>
<clipPath id="clip0_496_606">
<rect width="164" height="164" rx="82" fill="white"/>
</clipPath>
<clipPath id="clip1_496_606">
<rect width="164" height="164" rx="82" fill="white"/>
</clipPath>
</defs>
</svg>
