<svg width="164" height="164" viewBox="0 0 164 164" fill="none" xmlns="http://www.w3.org/2000/svg">
<rect width="164" height="164" rx="82" stroke="#D0E2FF"/>
<g clip-path="url(#clip0_496_696)">
<path d="M82 164C127.287 164 164 127.287 164 82C164 36.7126 127.287 0 82 0C36.7126 0 0 36.7126 0 82C0 127.287 36.7126 164 82 164Z" fill="#3E73C4"/>
<path d="M102.613 92.8858C102.613 82.0003 96.0535 78.2693 82.9335 76.7113C73.565 75.4659 71.6943 72.9803 71.6943 68.6241C71.6943 64.2678 74.8206 61.4696 81.0628 61.4696C86.685 61.4696 89.8112 63.3351 91.3692 68.0039C91.5328 68.4546 91.8299 68.8446 92.2209 69.1221C92.6119 69.3995 93.0782 69.5512 93.5576 69.5568H98.5545C98.8431 69.5645 99.1303 69.5135 99.3986 69.4069C99.6669 69.3003 99.9107 69.1403 100.115 68.9367C100.32 68.733 100.481 68.4899 100.589 68.2221C100.697 67.9542 100.749 67.6673 100.743 67.3787V67.0712C100.132 63.6933 98.423 60.6116 95.8809 58.3049C93.3389 55.9983 90.1061 54.5957 86.685 54.3151V46.8531C86.685 45.6077 85.7471 44.6749 84.1891 44.3623H79.4997C78.2543 44.3623 77.3165 45.2951 77.0038 46.8531V54.0076C67.6302 55.2478 61.7006 61.4696 61.7006 69.2493C61.7006 79.5096 67.9428 83.5532 81.0628 85.1112C89.8112 86.6641 92.6197 88.5347 92.6197 93.5111C92.6197 98.4823 88.2481 101.906 82.3133 101.906C74.1902 101.906 71.3817 98.4874 70.4438 93.8186C70.1363 92.5783 69.1933 91.9531 68.2555 91.9531H62.946C62.6578 91.9461 62.3712 91.9976 62.1035 92.1045C61.8358 92.2114 61.5925 92.3715 61.3884 92.5751C61.1844 92.7787 61.0237 93.0216 60.9161 93.289C60.8086 93.5565 60.7564 93.843 60.7627 94.1312V94.4387C62.0081 102.218 67.0101 107.815 77.3165 109.373V116.84C77.3165 118.08 78.2543 119.018 79.8123 119.326H84.5017C85.7471 119.326 86.685 118.393 86.9976 116.84V109.368C96.3712 107.815 102.613 101.281 102.613 92.8807V92.8858Z" fill="white"/>
<path d="M66.0719 125.547C41.7076 116.835 29.2129 89.7746 38.2739 65.8255C42.9581 52.7567 53.2645 42.8091 66.0719 38.1402C67.3224 37.5201 67.9425 36.5874 67.9425 35.0294V30.6731C67.9425 29.4329 67.3224 28.5001 66.0719 28.1875C65.7592 28.1875 65.134 28.1875 64.8214 28.495C57.7921 30.6902 51.2664 34.2541 45.6202 38.9816C39.9739 43.7092 35.3186 49.5069 31.9222 56.041C28.5258 62.5751 26.4555 69.7165 25.8304 77.054C25.2054 84.3915 26.0379 91.7802 28.2801 98.7946C33.8971 116.22 47.3297 129.596 64.8214 135.192C66.0719 135.812 67.3224 135.192 67.6299 133.947C67.9425 133.639 67.9425 133.322 67.9425 132.702V128.345C67.9425 127.413 67.0097 126.172 66.0719 125.547ZM99.1794 28.5001C97.9289 27.8749 96.6784 28.5001 96.3709 29.7404C96.0582 30.053 96.0582 30.3656 96.0582 30.9858V35.342C96.0582 36.5874 96.991 37.8276 97.9289 38.4529C122.293 47.1654 134.788 74.2254 125.727 98.1745C121.043 111.243 110.736 121.191 97.9289 125.86C96.6784 126.48 96.0582 127.413 96.0582 128.971V133.327C96.0582 134.567 96.6784 135.5 97.9289 135.812C98.2415 135.812 98.8667 135.813 99.1794 135.505C106.209 133.31 112.734 129.746 118.381 125.018C124.027 120.291 128.682 114.493 132.079 107.959C135.475 101.425 137.545 94.2835 138.17 86.946C138.795 79.6085 137.963 72.2198 135.721 65.2054C130.104 47.4729 116.358 34.0966 99.1794 28.5001Z" fill="white"/>
</g>
<rect x="4.1" y="4.1" width="155.8" height="155.8" rx="77.9" stroke="white" stroke-width="8.2"/>
<defs>
<clipPath id="clip0_496_696">
<rect width="164" height="164" rx="82" fill="white"/>
</clipPath>
</defs>
</svg>
