<svg width="181" height="181" viewBox="0 0 181 181" fill="none" xmlns="http://www.w3.org/2000/svg">
<rect x="8.19995" y="8.2002" width="164" height="164" rx="82" stroke="#CCEBDB"/>
<g clip-path="url(#clip0_496_715)">
<g clip-path="url(#clip1_496_715)">
<path d="M90.2 172.2C135.487 172.2 172.2 135.488 172.2 90.2002C172.2 44.9128 135.487 8.2002 90.2 8.2002C44.9126 8.2002 8.19995 44.9128 8.19995 90.2002C8.19995 135.488 44.9126 172.2 90.2 172.2Z" fill="#26A17B"/>
<path fill-rule="evenodd" clip-rule="evenodd" d="M100.05 97.2889V97.2787C99.4862 97.3197 96.5803 97.4939 90.0972 97.4939C84.9209 97.4939 81.2771 97.3402 79.9958 97.2787V97.2941C60.0698 96.4177 45.1971 92.9481 45.1971 88.7968C45.1971 84.6456 60.0698 81.1811 79.9958 80.2893V93.8398C81.2976 93.9321 85.0286 94.1524 90.1843 94.1524C96.3702 94.1524 99.4708 93.8962 100.05 93.8449V80.2996C119.935 81.1862 134.772 84.6558 134.772 88.7968C134.772 92.9481 119.935 96.4074 100.05 97.2889ZM100.05 78.8902V66.7644H127.797V48.2734H52.2491V66.7644H79.9958V78.8851C57.4458 79.9203 40.4872 84.3893 40.4872 89.7398C40.4872 95.0903 57.4458 99.5542 79.9958 100.595V139.452H100.05V100.584C122.564 99.5491 139.482 95.0852 139.482 89.7398C139.482 84.3944 122.564 79.9306 100.05 78.8902Z" fill="white"/>
</g>
</g>
<rect x="4.09995" y="4.1002" width="172.2" height="172.2" rx="86.1" stroke="white" stroke-width="8.2"/>
<defs>
<clipPath id="clip0_496_715">
<rect x="8.19995" y="8.2002" width="164" height="164" rx="82" fill="white"/>
</clipPath>
<clipPath id="clip1_496_715">
<rect width="164" height="164" fill="white" transform="translate(8.19995 8.2002)"/>
</clipPath>
</defs>
</svg>
