<svg width="164" height="164" viewBox="0 0 164 164" fill="none" xmlns="http://www.w3.org/2000/svg">
<rect width="164" height="164" rx="82" stroke="#DFA9A9"/>
<g clip-path="url(#clip0_497_1426)">
<path d="M-23 134.5C-23 140.689 -20.5417 146.624 -16.1658 150.999C-11.79 155.375 -5.85505 157.834 0.333334 157.834H163.667C169.855 157.834 175.79 155.375 180.166 150.999C184.542 146.624 187 140.689 187 134.5V111.167H-23V134.5Z" fill="#CF142B"/>
<path d="M-23 111.166H187V52.833H-23V111.166ZM124.677 90.458L126.246 94.7747L130.837 94.6172L127.22 97.4463L128.789 101.763L124.98 99.1963L121.363 102.026L122.629 97.6097L118.82 95.043L123.411 94.8855L124.677 90.458ZM117.583 80.7455L121.842 79.0247L119.409 82.9155L122.361 86.433L117.904 85.3247L115.472 89.2155L115.151 84.6363L110.694 83.528L114.953 81.8072L114.632 77.228L117.583 80.7455ZM100.667 68.233L104.645 70.5313L108.057 67.4572L107.101 71.9488L111.079 74.2472L106.512 74.7255L105.555 79.2172L103.688 75.023L99.1208 75.5013L102.533 72.4272L100.667 68.233ZM88.9883 65.3572L91.1467 61.303L91.7883 65.8472L96.3092 66.6463L92.185 68.6588L92.8267 73.203L89.6358 69.9013L85.5 71.9138L87.6583 67.8597L84.4675 64.558L88.9883 65.3572ZM72.2175 65.8472L72.8592 61.303L75.0175 65.3572L79.5383 64.558L76.3475 67.8597L78.5058 71.9138L74.3817 69.9013L71.1908 73.203L71.8325 68.6588L67.7083 66.6463L72.2175 65.8472ZM55.9483 67.4572L59.3608 70.5313L63.3333 68.233L61.4667 72.4272L64.8792 75.5013L60.3117 75.023L58.445 79.2172L57.4883 74.7255L52.9208 74.2472L56.8992 71.9488L55.9483 67.4572ZM42.1583 79.0247L46.4167 80.7455L49.3683 77.228L49.0475 81.8072L53.3058 83.528L48.8492 84.6363L48.5283 89.2155L46.0958 85.3247L41.6392 86.433L44.5908 82.9155L42.1583 79.0247ZM37.7483 94.7688L39.3175 90.4522L40.5833 94.868L45.1742 95.0255L41.365 97.5922L42.6308 102.008L39.0142 99.1788L35.205 101.746L36.7742 97.4288L33.1575 94.5997L37.7483 94.7688Z" fill="#00247D"/>
<path d="M163.667 6.16699H0.333334C-5.85505 6.16699 -11.79 8.62532 -16.1658 13.0012C-20.5417 17.377 -23 23.3119 -23 29.5003L-23 52.8337H187V29.5003C187 23.3119 184.542 17.377 180.166 13.0012C175.79 8.62532 169.855 6.16699 163.667 6.16699Z" fill="#FFCC00"/>
<path d="M85.5002 71.9145L89.6244 69.902L92.8152 73.2037L92.1736 68.6595L96.3036 66.647L91.7827 65.8479L91.1411 61.3037L88.9886 65.3579L84.4619 64.5587L87.6527 67.8604L85.5002 71.9145ZM103.689 75.0179L105.555 79.212L106.506 74.7262L111.074 74.242L107.101 71.9495L108.052 67.4579L104.639 70.5262L100.667 68.2337L102.534 72.4279L99.1211 75.502L103.689 75.0179ZM110.694 83.5287L115.151 84.637L115.472 89.2162L117.904 85.3254L122.355 86.4337L119.404 82.9162L121.842 79.0254L117.584 80.7462L114.632 77.2287L114.953 81.8079L110.694 83.5287ZM122.629 97.5987L121.364 102.009L124.986 99.1854L128.789 101.752L127.22 97.4354L130.837 94.612L126.252 94.7695L124.677 90.4587L123.411 94.8687L118.826 95.032L122.629 97.5987ZM71.1852 73.2037L74.3761 69.902L78.5002 71.9145L76.3477 67.8604L79.5386 64.5587L75.0119 65.3579L72.8594 61.3037L72.2177 65.8479L67.6969 66.647L71.8269 68.6595L71.1852 73.2037ZM57.4944 74.7262L58.4452 79.212L60.3119 75.0179L64.8794 75.502L61.4669 72.4279L63.3336 68.2337L59.3611 70.5262L55.9486 67.4579L56.8994 71.9495L52.9269 74.242L57.4944 74.7262ZM46.0961 85.3254L48.5286 89.2162L48.8494 84.637L53.3061 83.5287L49.0477 81.8079L49.3686 77.2287L46.4169 80.7462L42.1586 79.0254L44.5969 82.9162L41.6452 86.4337L46.0961 85.3254ZM35.2111 101.752L39.0144 99.1854L42.6369 102.009L41.3711 97.5987L45.1744 95.032L40.5894 94.8687L39.3236 90.4587L37.7486 94.7695L33.1636 94.612L36.7802 97.4354L35.2111 101.752Z" fill="white"/>
</g>
<rect x="4.1" y="4.1" width="155.8" height="155.8" rx="77.9" stroke="white" stroke-width="8.2"/>
<defs>
<clipPath id="clip0_497_1426">
<rect width="164" height="164" rx="82" fill="white"/>
</clipPath>
</defs>
</svg>
