<svg width="52" height="52" viewBox="0 0 52 52" fill="none" xmlns="http://www.w3.org/2000/svg">
<rect width="52" height="52" rx="12" fill="#6714FF"/>
<path d="M30.8562 20.6656C29.0367 19.1436 26.6451 18.1137 24.3373 18.1137C23.0404 18.1137 21.7664 18.4418 20.6526 19.2009C20.2444 19.4755 19.9088 19.8455 19.6608 20.2651L17.8909 23.2327C17.5743 23.7629 17.3989 24.3732 17.3989 24.9912C17.3989 25.1018 17.4065 25.2124 17.418 25.3192C17.6888 27.9969 18.8941 30.1025 20.5839 31.5329C22.2699 32.9671 24.4327 33.73 26.6107 33.73C27.7169 33.73 28.8269 33.5355 29.8835 33.1312C30.6693 32.8298 31.3177 32.2538 31.7144 31.51L33.5225 28.077C33.6484 27.8405 33.7513 27.5888 33.8162 27.3256C33.9039 26.9594 33.9459 26.5932 33.9459 26.227C33.9459 24.2054 32.6795 22.1876 30.86 20.6618L30.8562 20.6656ZM32.3133 27.7986C31.9929 28.3555 31.497 28.7751 30.8943 29.0535C30.2955 29.332 29.5822 29.4693 28.8078 29.4693C27.4728 29.4693 25.9661 29.0612 24.5281 28.2296C22.125 26.8373 20.6221 24.6784 20.6144 22.7941C20.6144 22.2524 20.7403 21.7375 21.0073 21.2759C21.3316 20.719 21.8236 20.2994 22.4263 20.021C23.029 19.7463 23.7385 19.6052 24.5128 19.6052C25.8478 19.6052 27.3545 20.0133 28.7926 20.8449C31.1957 22.2371 32.6986 24.3961 32.7062 26.2804C32.7062 26.8221 32.5803 27.337 32.3133 27.7986Z" fill="white"/>
<path d="M40.7929 17.5759C39.9804 18.9529 38.7407 20.0095 37.2302 20.5932C37.1424 20.6275 37.0509 20.6618 36.9594 20.6923C38.4813 23.0268 39.4273 25.7083 39.4349 28.5462C39.4616 32.2119 37.5353 35.9501 34.3884 37.8573C29.773 40.7066 23.9026 39.3678 19.6456 36.5337C13.6799 32.6735 9.23225 24.686 12.9246 17.8086C16.0639 12.0793 22.1632 11.1868 27.572 13.155C27.6521 12.4379 27.8429 11.736 28.1442 11.0571C28.5829 10.0653 29.2275 9.19945 30.0323 8.51666C25.0126 7.20069 19.4931 8.4213 15.446 11.9191C6.63462 19.2428 6.71473 34.6036 16.5293 41.1606C22.4836 45.3145 30.5816 44.8415 36.0935 40.1955C42.7382 34.7752 44.3441 24.9912 40.7967 17.5721L40.7929 17.5759Z" fill="white"/>
<path d="M38.7979 14.3489C38.6529 15.8594 37.6764 17.2364 36.1583 17.8238C35.7501 17.9802 35.3306 18.0718 34.9148 18.0985C34.8271 18.1061 34.747 18.1061 34.6592 18.1061C32.9923 18.1061 31.417 17.0915 30.7838 15.4436C30.6731 15.1576 30.5968 14.8677 30.5511 14.5778C30.2574 12.6896 31.3063 10.7862 33.1601 10.0691C33.2975 10.0157 33.4348 9.96993 33.5683 9.9356C33.9307 9.83642 34.2968 9.78684 34.6554 9.78684C36.3261 9.78684 37.8977 10.7977 38.5347 12.4493C38.7788 13.0749 38.8589 13.7233 38.7941 14.3489H38.7979Z" fill="white"/>
</svg>
