<svg width="30" height="32" viewBox="0 0 30 32" fill="none" xmlns="http://www.w3.org/2000/svg">
<path d="M19.4306 11.258C17.8133 9.90519 15.6874 8.98975 13.6362 8.98975C12.4834 8.98975 11.3509 9.28133 10.3609 9.95605C9.9981 10.2002 9.69973 10.5291 9.47934 10.902L7.90613 13.5399C7.62471 14.0111 7.46875 14.5536 7.46875 15.1029C7.46875 15.2012 7.47553 15.2996 7.4857 15.3945C7.72643 17.7747 8.79784 19.6462 10.2999 20.9177C11.7985 22.1925 13.7209 22.8707 15.6569 22.8707C16.6402 22.8707 17.6268 22.6977 18.566 22.3383C19.2645 22.0705 19.8409 21.5585 20.1935 20.8974L21.8006 17.8459C21.9125 17.6356 22.004 17.4119 22.0617 17.1779C22.1397 16.8524 22.1769 16.5269 22.1769 16.2014C22.1769 14.4045 21.0513 12.6109 19.434 11.2546L19.4306 11.258ZM20.7258 17.5984C20.441 18.0934 20.0002 18.4663 19.4645 18.7138C18.9322 18.9613 18.2982 19.0834 17.6099 19.0834C16.4232 19.0834 15.0839 18.7206 13.8057 17.9815C11.6696 16.7439 10.3338 14.8249 10.327 13.1499C10.327 12.6685 10.4389 12.2108 10.6762 11.8005C10.9644 11.3055 11.4018 10.9325 11.9375 10.685C12.4732 10.4409 13.1038 10.3155 13.7921 10.3155C14.9788 10.3155 16.3181 10.6782 17.5963 11.4174C19.7324 12.6549 21.0682 14.574 21.075 16.2489C21.075 16.7304 20.9631 17.1881 20.7258 17.5984Z" fill="#6714FF"/>
<path d="M28.2633 8.5118C27.5411 9.73579 26.4392 10.675 25.0965 11.1937C25.0186 11.2242 24.9372 11.2548 24.8558 11.2819C26.2086 13.3569 27.0495 15.7405 27.0563 18.263C27.08 21.5213 25.3678 24.8441 22.5706 26.5394C18.468 29.0721 13.25 27.882 9.46611 25.3628C4.1633 21.9316 0.209915 14.8318 3.49197 8.71863C6.28239 3.62602 11.7039 2.83263 16.5117 4.58216C16.5829 3.94473 16.7524 3.32087 17.0203 2.71735C17.4102 1.83581 17.9832 1.06616 18.6986 0.459249C14.2366 -0.71049 9.33049 0.374486 5.73312 3.48362C-2.09905 9.99347 -2.02785 23.6472 6.69604 29.4756C11.9887 33.1679 19.1868 32.7474 24.0862 28.6178C29.9925 23.7998 31.4199 15.103 28.2667 8.50841L28.2633 8.5118Z" fill="#6714FF"/>
<path d="M26.4901 5.64347C26.3612 6.98613 25.4932 8.21012 24.1438 8.73227C23.781 8.87128 23.408 8.95265 23.0385 8.97638C22.9605 8.98317 22.8893 8.98317 22.8113 8.98317C21.3296 8.98317 19.9293 8.08128 19.3665 6.61656C19.2682 6.36227 19.2004 6.10459 19.1597 5.84691C18.8986 4.16859 19.831 2.4767 21.4788 1.83928C21.6009 1.79181 21.7229 1.75113 21.8416 1.72061C22.1637 1.63246 22.4892 1.58838 22.8079 1.58838C24.293 1.58838 25.6899 2.48687 26.2561 3.95498C26.4731 4.51103 26.5443 5.08742 26.4867 5.64347H26.4901Z" fill="#6714FF"/>
</svg>
