<svg width="113" height="32" viewBox="0 0 113 32" fill="none" xmlns="http://www.w3.org/2000/svg">
<g clip-path="url(#clip0_418_1414)">
<path d="M19.4345 11.2567C17.8172 9.90385 15.6913 8.9884 13.6401 8.9884C12.4873 8.9884 11.3548 9.27999 10.3648 9.95471C10.002 10.1988 9.70364 10.5277 9.48325 10.9007L7.91004 13.5385C7.62862 14.0098 7.47266 14.5523 7.47266 15.1016C7.47266 15.1999 7.47944 15.2982 7.48961 15.3932C7.73034 17.7733 8.80175 19.6449 10.3038 20.9164C11.8024 22.1912 13.7248 22.8693 15.6608 22.8693C16.6441 22.8693 17.6307 22.6964 18.5699 22.337C19.2684 22.0691 19.8448 21.5572 20.1974 20.896L21.8045 17.8445C21.9164 17.6343 22.0079 17.4105 22.0656 17.1766C22.1436 16.8511 22.1809 16.5256 22.1809 16.2001C22.1809 14.4031 21.0552 12.6095 19.4379 11.2533L19.4345 11.2567ZM20.7297 17.597C20.4449 18.092 20.0041 18.465 19.4684 18.7125C18.9361 18.96 18.3021 19.0821 17.6138 19.0821C16.4271 19.0821 15.0878 18.7193 13.8096 17.9801C11.6735 16.7426 10.3377 14.8235 10.3309 13.1486C10.3309 12.6671 10.4428 12.2094 10.6801 11.7992C10.9683 11.3041 11.4057 10.9312 11.9414 10.6837C12.4771 10.4396 13.1077 10.3141 13.796 10.3141C14.9827 10.3141 16.322 10.6769 17.6002 11.416C19.7363 12.6536 21.0721 14.5726 21.0789 16.2476C21.0789 16.729 20.967 17.1868 20.7297 17.597Z" fill="#6714FF"/>
<path d="M28.2672 8.51034C27.545 9.73433 26.4431 10.6735 25.1005 11.1923C25.0225 11.2228 24.9411 11.2533 24.8597 11.2804C26.2126 13.3554 27.0534 15.739 27.0602 18.2616C27.0839 21.5199 25.3717 24.8426 22.5745 26.5379C18.4719 29.0706 13.2539 27.8805 9.47002 25.3614C4.1672 21.9301 0.213821 14.8303 3.49587 8.71716C6.28629 3.62456 11.7078 2.83117 16.5156 4.58069C16.5868 3.94327 16.7563 3.31941 17.0242 2.71589C17.4141 1.83435 17.9871 1.06469 18.7025 0.457785C14.2405 -0.711955 9.3344 0.373021 5.73703 3.48215C-2.09514 9.99201 -2.02394 23.6457 6.69994 29.4741C11.9926 33.1664 19.1907 32.746 24.0901 28.6163C29.9964 23.7983 31.4238 15.1016 28.2706 8.50695L28.2672 8.51034Z" fill="#6714FF"/>
<path d="M26.494 5.64189C26.3651 6.98455 25.4971 8.20853 24.1477 8.73068C23.7849 8.86969 23.412 8.95106 23.0424 8.9748C22.9644 8.98158 22.8932 8.98158 22.8152 8.98158C21.3335 8.98158 19.9333 8.07969 19.3704 6.61498C19.2721 6.36068 19.2043 6.103 19.1636 5.84532C18.9025 4.167 19.8349 2.47512 21.4827 1.83769C21.6048 1.79022 21.7269 1.74954 21.8455 1.71902C22.1676 1.63087 22.4931 1.58679 22.8118 1.58679C24.2969 1.58679 25.6938 2.48529 26.26 3.9534C26.477 4.50945 26.5482 5.08584 26.4906 5.64189H26.494Z" fill="#6714FF"/>
<path d="M51.282 29.5656C44.6772 29.5656 40.083 24.5374 40.083 17.6309C40.083 10.7244 44.6772 5.69617 51.282 5.69617C57.8868 5.69617 62.481 10.7244 62.481 17.6309C62.481 24.5374 57.8868 29.5656 51.282 29.5656ZM51.282 26.8837C56.1779 26.8837 59.4939 23.0287 59.4939 17.6309C59.4939 12.2331 56.1746 8.37809 51.282 8.37809C46.3894 8.37809 43.0701 12.2331 43.0701 17.6309C43.0701 23.0287 46.3894 26.8837 51.282 26.8837Z" fill="#6714FF"/>
<path d="M74.4459 12.2671V14.949H73.0727C69.4855 14.949 68.5124 17.9327 68.5124 20.6485V29.3656H65.7627V12.2671H68.1429L68.5124 14.8473C69.316 13.5385 70.6247 12.2671 73.6762 12.2671H74.4459Z" fill="#6714FF"/>
<path d="M93.6539 20.818C93.6539 26.0462 90.1684 29.569 85.4386 29.569C82.5567 29.569 80.6105 28.3958 79.573 26.7514L79.2034 29.3655H76.8232V5.89954H79.573V15.0167C80.7122 13.4401 82.5567 12.0669 85.4386 12.0669C90.1651 12.0669 93.6539 15.2507 93.6539 20.818ZM90.8398 20.818C90.8398 17.0951 88.5613 14.5149 85.1742 14.5149C81.787 14.5149 79.5425 17.0951 79.5425 20.7501C79.5425 24.4052 81.8209 27.121 85.1742 27.121C88.5274 27.121 90.8398 24.5408 90.8398 20.818Z" fill="#6714FF"/>
<path d="M96.4375 7.60843C96.4375 6.56754 97.2072 5.83179 98.2142 5.83179C99.2211 5.83179 99.9908 6.57093 99.9908 7.60843C99.9908 8.64594 99.2211 9.38508 98.2142 9.38508C97.2072 9.38508 96.4375 8.64594 96.4375 7.60843ZM96.8037 12.267H99.5534V29.3656H96.8037V12.267Z" fill="#6714FF"/>
<path d="M104.581 14.7828H101.496V12.267H104.581V7.47278H107.331V12.267H111.756V14.7828H107.331V24.8731C107.331 26.3141 107.833 26.8498 109.308 26.8498H112.024V29.3656H109.04C105.755 29.3656 104.581 27.9246 104.581 24.907V14.7828Z" fill="#6714FF"/>
</g>
<defs>
<clipPath id="clip0_418_1414">
<rect width="112.024" height="32" fill="white"/>
</clipPath>
</defs>
</svg>
