<svg width="1688" height="498" viewBox="0 0 1688 498" fill="none" xmlns="http://www.w3.org/2000/svg">
<path d="M302.354 175.182C277.188 154.132 244.109 139.887 212.19 139.887C194.252 139.887 176.63 144.424 161.225 154.923C155.579 158.722 150.937 163.839 147.507 169.643L123.027 210.689C118.648 218.022 116.221 226.464 116.221 235.011C116.221 236.541 116.327 238.071 116.485 239.548C120.231 276.585 136.903 305.707 160.275 325.492C183.594 345.329 213.508 355.881 243.634 355.881C258.934 355.881 274.287 353.19 288.901 347.598C299.769 343.43 308.738 335.463 314.225 325.175L339.233 277.693C340.974 274.421 342.398 270.939 343.295 267.299C344.508 262.234 345.089 257.169 345.089 252.105C345.089 224.142 327.573 196.233 302.407 175.13L302.354 175.182ZM322.508 273.841C318.076 281.544 311.218 287.347 302.882 291.199C294.599 295.05 284.733 296.949 274.023 296.949C255.557 296.949 234.718 291.304 214.827 279.803C181.589 260.546 160.803 230.684 160.697 204.622C160.697 197.13 162.438 190.008 166.131 183.624C170.616 175.921 177.422 170.117 185.757 166.266C194.093 162.467 203.906 160.515 214.616 160.515C233.082 160.515 253.922 166.161 273.812 177.662C307.05 196.919 327.837 226.78 327.942 252.843C327.942 260.335 326.201 267.457 322.508 273.841Z" fill="white"/>
<path d="M439.792 132.448C428.554 151.494 411.408 166.108 390.515 174.18C389.302 174.655 388.036 175.13 386.769 175.552C407.82 207.84 420.904 244.93 421.01 284.182C421.379 334.883 394.736 386.587 351.21 412.966C287.372 452.377 206.176 433.859 147.298 394.659C64.783 341.267 3.26639 230.79 54.3368 135.666C97.7572 56.4228 182.118 44.0773 256.93 71.3008C258.038 61.3821 260.676 51.6745 264.844 42.2835C270.911 28.5662 279.827 16.59 290.96 7.14616C221.529 -11.0556 145.187 5.8272 89.2103 54.2069C-32.6623 155.504 -31.5544 367.963 104.194 458.655C186.55 516.109 298.557 509.567 374.793 445.307C466.699 370.337 488.91 235.011 439.845 132.395L439.792 132.448Z" fill="white"/>
<path d="M412.198 87.8138C410.193 108.706 396.687 127.752 375.689 135.877C370.044 138.04 364.24 139.306 358.49 139.676C357.276 139.781 356.168 139.781 354.955 139.781C331.899 139.781 310.11 125.747 301.352 102.956C299.822 98.9987 298.767 94.989 298.134 90.9794C294.071 64.8638 308.58 38.5372 334.221 28.6186C336.12 27.8799 338.019 27.2468 339.866 26.772C344.878 25.4003 349.943 24.7144 354.902 24.7144C378.01 24.7144 399.747 38.6955 408.558 61.54C411.934 70.1924 413.042 79.1614 412.145 87.8138H412.198Z" fill="white"/>
<path d="M742.77 460.079C639.996 460.079 568.508 381.838 568.508 274.369C568.508 166.899 639.996 88.658 742.77 88.658C845.544 88.658 917.032 166.899 917.032 274.369C917.032 381.838 845.544 460.079 742.77 460.079ZM742.77 418.347C818.954 418.347 870.552 358.361 870.552 274.369C870.552 190.377 818.901 130.39 742.77 130.39C666.64 130.39 614.989 190.377 614.989 274.369C614.989 358.361 666.64 418.347 742.77 418.347Z" fill="white"/>
<path d="M1103.22 190.904V232.636H1081.85C1026.03 232.636 1010.89 279.064 1010.89 321.324V456.966H968.102V190.904H1005.14L1010.89 231.054C1023.39 210.689 1043.76 190.904 1091.24 190.904H1103.22Z" fill="white"/>
<path d="M1402.1 323.962C1402.1 405.316 1347.86 460.132 1274.26 460.132C1229.42 460.132 1199.13 441.877 1182.99 416.289L1177.24 456.966H1140.2V91.8233H1182.99V233.691C1200.72 209.159 1229.42 187.791 1274.26 187.791C1347.81 187.791 1402.1 237.332 1402.1 323.962ZM1358.31 323.962C1358.31 266.033 1322.85 225.883 1270.15 225.883C1217.44 225.883 1182.51 266.033 1182.51 322.906C1182.51 379.78 1217.97 422.04 1270.15 422.04C1322.32 422.04 1358.31 381.891 1358.31 323.962Z" fill="white"/>
<path d="M1445.41 118.414C1445.41 102.217 1457.39 90.7684 1473.06 90.7684C1488.72 90.7684 1500.7 102.27 1500.7 118.414C1500.7 134.558 1488.72 146.059 1473.06 146.059C1457.39 146.059 1445.41 134.558 1445.41 118.414ZM1451.11 190.904H1493.9V456.967H1451.11V190.904Z" fill="white"/>
<path d="M1572.14 230.051H1524.13V190.904H1572.14V116.303H1614.92V190.904H1683.78V230.051H1614.92V387.061C1614.92 409.484 1622.73 417.819 1645.68 417.819H1687.94V456.966H1641.52C1590.39 456.966 1572.14 434.544 1572.14 387.589V230.051Z" fill="white"/>
</svg>
