<svg width="40" height="40" viewBox="0 0 40 40" fill="none" xmlns="http://www.w3.org/2000/svg">
<g clip-path="url(#clip0_158_8376)">
<rect width="40" height="40" rx="20" fill="#FFE4CC"/>
<path d="M22.7231 21.3731H17.055C15.3867 21.3731 13.968 19.9361 13.7151 17.9904L13.1955 13.9926C12.8818 11.5782 14.4651 9.40137 16.5354 9.40137H23.2879C25.3758 9.40137 26.9639 11.6138 26.6206 14.0438L26.0558 18.0416C25.7844 19.964 24.375 21.3731 22.7231 21.3731Z" fill="#D46400"/>
<path d="M24.4845 17.7732C23.792 18.8857 23.8587 20.2038 24.6342 20.7171C25.4097 21.2304 26.5997 20.7444 27.2926 19.6319C27.9855 18.5194 27.9184 17.2013 27.1429 16.688C26.3677 16.1747 25.1774 16.6607 24.4845 17.7732Z" fill="#F5F5FF" stroke="#D46400" stroke-width="0.14983" stroke-miterlimit="10" stroke-linecap="round" stroke-linejoin="round"/>
<path d="M26.5593 17.2227C26.8951 17.3537 27.1504 17.6728 27.2046 18.029C27.2591 18.3854 27.1106 18.7658 26.829 18.9912" stroke="#D46400" stroke-width="0.14983" stroke-miterlimit="10" stroke-linecap="round" stroke-linejoin="round"/>
<path d="M15.1326 17.7732C15.8251 18.8857 15.7584 20.2038 14.9829 20.7171C14.2074 21.2304 13.0174 20.7444 12.3245 19.6319C11.6316 18.5194 11.6987 17.2013 12.4742 16.688C13.2496 16.1747 14.4397 16.6607 15.1326 17.7732Z" fill="#F5F5FF" stroke="#D46400" stroke-width="0.14983" stroke-miterlimit="10" stroke-linecap="round" stroke-linejoin="round"/>
<path d="M13.0573 17.2227C12.7215 17.3537 12.4662 17.6728 12.412 18.029C12.3575 18.3854 12.506 18.7658 12.7876 18.9912" stroke="#D46400" stroke-width="0.14983" stroke-miterlimit="10" stroke-linecap="round" stroke-linejoin="round"/>
<path d="M23.662 31.2052C23.7291 33.2159 22.1197 34.8785 20.109 34.8785C18.1384 34.8785 16.5527 33.2793 16.5527 31.3255C16.5527 31.2854 16.5527 31.2453 16.556 31.2052L16.9508 25.906L17.0511 24.5646L17.2483 21.9316H22.9658L23.2804 26.0934L23.5046 29.1211L23.662 31.2052Z" fill="#F5F5FF" stroke="#D46400" stroke-width="0.167279" stroke-miterlimit="10" stroke-linecap="round" stroke-linejoin="round"/>
<path d="M23.5048 29.1211C21.6279 29.2549 19.5606 28.3214 18.1419 26.5082C17.6636 25.8995 17.2988 25.2404 17.0513 24.5646L17.2485 21.9316H22.9661L23.2806 26.0934L23.5048 29.1211Z" fill="#D46400"/>
<path d="M26.2456 19.5719C26.2456 21.1121 25.6161 22.5868 24.5016 23.6505L22.8024 25.1757C22.287 25.739 21.5588 26.0599 20.7947 26.0599H19.2123C18.4542 26.0599 17.735 25.7453 17.2166 25.1937L15.4815 23.6535C14.3457 22.5868 13.7046 21.1002 13.7046 19.545L13.7315 19.0745L13.8875 16.3775L14.0042 14.3788C14.0042 11.0553 16.6772 8.36133 19.9737 8.36133C21.625 8.36133 23.1173 9.03565 24.1963 10.1233C25.2782 11.2113 25.9463 12.7156 25.9463 14.3788L26.078 16.6534L26.207 18.8979L26.2456 19.5719Z" fill="#F5F5FF" stroke="#D46400" stroke-width="0.14983" stroke-miterlimit="10" stroke-linecap="round" stroke-linejoin="round"/>
<path d="M26.0777 16.6531H25.8919C25.0167 15.3706 24.4534 13.875 24.2675 12.3348C24.1508 11.3729 22.7842 11.0493 21.8193 11.1541C21.3847 11.8105 20.6206 12.2391 19.8325 12.263C19.0444 12.287 18.2714 11.7596 17.7979 11.1272C16.8359 11.0224 15.4633 11.346 15.3466 12.3079C15.1727 13.7493 14.6693 15.1519 13.8872 16.3775L14.0039 14.3788C14.0039 11.0553 16.677 8.36133 19.9735 8.36133C21.6247 8.36133 23.117 9.03565 24.196 10.1233C25.278 11.2113 25.946 12.7156 25.946 14.3788L26.0777 16.6531Z" fill="#D46400"/>
<path d="M26.2457 19.5728L26.2068 18.8984C25.7393 19.5159 25.167 20.271 24.7624 20.7176C24.1781 21.359 23.174 21.4281 22.1731 21.4042C21.9124 21.3982 21.5679 21.2785 21.2201 21.1195C20.351 20.7239 19.2723 20.7239 18.4001 21.1195C18.0556 21.2785 17.7049 21.3982 17.4442 21.4042C16.4433 21.4281 15.4394 21.3587 14.8579 20.7176C14.5041 20.3279 14.0848 19.6778 13.731 19.0753L13.7041 19.5458C13.7041 19.8113 13.7295 20.0732 13.7661 20.3327C13.7544 20.3132 13.7424 20.2935 13.731 20.274L13.7041 20.7445C13.7041 22.2997 14.3455 23.7863 15.481 24.853L17.2161 26.3932C17.7345 26.9445 18.4537 27.2594 19.2118 27.2594H20.7942C21.5583 27.2594 22.2865 26.9388 22.8019 26.3753L24.5011 24.85C25.616 23.7863 26.2451 22.3117 26.2451 20.7715L26.211 20.1791C26.2331 19.9786 26.2457 19.7763 26.2457 19.5728Z" fill="#D46400"/>
<path d="M18.9187 27.2419C19.2629 27.2443 19.6071 27.2108 19.9519 27.2054C20.294 27.1877 20.6463 27.1934 20.98 27.1764C21.6492 27.1219 22.2891 26.8211 22.7623 26.3371L22.7653 26.3338L22.7659 26.3332C23.0422 26.0992 23.3229 25.8702 23.6099 25.6484C23.3585 25.91 23.1005 26.1644 22.8383 26.4138L22.8419 26.4102C22.3849 26.9432 21.6986 27.2913 20.9899 27.3239C20.6355 27.3368 20.2982 27.3209 19.9513 27.3099C19.6077 27.2955 19.262 27.294 18.9187 27.2419Z" fill="#F5F5FF"/>
<path d="M22.7634 22.6095C21.9814 23.4068 20.9293 23.8534 19.8806 23.8193C18.9276 23.7887 17.9956 23.3592 17.2764 22.6505H17.4443C17.705 22.6436 18.0554 22.5074 18.4002 22.3266C19.2724 21.8768 20.3511 21.8768 21.2202 22.3266C21.5677 22.5074 21.9125 22.6436 22.1732 22.6505C22.3711 22.6571 22.5689 22.6436 22.7634 22.6095Z" fill="#F5F5FF"/>
<path d="M19.8804 23.4482C20.2117 23.5862 20.3838 23.7245 20.5077 23.8625C20.6254 24.0005 20.681 24.1387 20.681 24.2767C20.6828 24.4147 20.6278 24.553 20.5101 24.6909C20.3865 24.8289 20.2141 24.9672 19.8807 25.1052C19.5473 24.9672 19.3746 24.8289 19.2513 24.6909C19.1336 24.553 19.0786 24.4147 19.0804 24.2767C19.0801 24.1387 19.136 24.0005 19.2534 23.8625C19.3773 23.7245 19.5491 23.5862 19.8804 23.4482Z" fill="#D46400"/>
<path d="M21.2844 15.507C21.563 15.3397 21.868 15.2248 22.1888 15.1389C22.5103 15.0563 22.8518 15.009 23.2041 15.0215C23.5545 15.0329 23.9191 15.1134 24.2387 15.2816C24.5587 15.4471 24.823 15.7057 24.9628 16.0161C24.6395 15.9096 24.3486 15.8536 24.0705 15.8449C23.7925 15.8359 23.5267 15.8716 23.257 15.92C22.7168 16.0164 22.1679 16.2038 21.5501 16.2807C21.3212 16.3091 21.1123 16.1466 21.0838 15.9176C21.0626 15.7485 21.1473 15.5896 21.2844 15.507Z" fill="#D46400"/>
<path d="M18.3924 16.2807C17.7746 16.2038 17.2257 16.0164 16.6855 15.92C16.4158 15.8716 16.15 15.8356 15.8719 15.8449C15.5939 15.8536 15.303 15.9096 14.9797 16.0161C15.1195 15.7057 15.3838 15.4474 15.7037 15.2816C16.0234 15.1134 16.3879 15.0329 16.7384 15.0215C17.0904 15.009 17.4319 15.0563 17.7534 15.1389C18.0745 15.2248 18.3792 15.3397 18.6578 15.507C18.8563 15.6252 18.9209 15.8817 18.8027 16.0802C18.7159 16.2265 18.5513 16.2999 18.3924 16.2807Z" fill="#D46400"/>
<path d="M21.4088 18.0668C21.495 17.9333 21.5862 17.8049 21.6775 17.6744C21.7811 17.5439 21.8924 17.4146 22.028 17.3113C22.2944 17.1 22.6236 16.9668 22.9636 16.9163C23.3042 16.8735 23.6616 16.91 23.9767 17.0513C24.1375 17.1132 24.2817 17.2117 24.4179 17.311C24.543 17.4074 24.669 17.5023 24.751 17.6588C24.7699 17.6947 24.7561 17.739 24.7202 17.7579C24.7058 17.7654 24.6903 17.7678 24.6756 17.7654C24.5005 17.7396 24.3694 17.6522 24.2371 17.566C24.1111 17.4912 23.9839 17.4245 23.8477 17.3781C23.5784 17.2805 23.2902 17.2449 23.0046 17.2682C22.7212 17.2988 22.4362 17.382 22.1929 17.5436C22.0651 17.6154 21.955 17.7145 21.8475 17.8172C21.7353 17.9276 21.6251 18.0419 21.509 18.15C21.4824 18.1748 21.4408 18.1733 21.4159 18.147C21.395 18.1248 21.3926 18.0913 21.4088 18.0668Z" fill="#D46400"/>
<path d="M22.4995 17.5866C22.5213 17.2832 22.7853 17.0548 23.0888 17.0766C23.3923 17.0985 23.6207 17.3622 23.5988 17.666C23.577 17.9695 23.3133 18.1978 23.0095 18.176C22.706 18.1541 22.4776 17.8901 22.4995 17.5866Z" fill="#D46400"/>
<path d="M21.5225 18.1143C21.7894 18.2555 22.0989 18.3241 22.4195 18.3127" stroke="#D46400" stroke-width="0.14983" stroke-miterlimit="10" stroke-linecap="round" stroke-linejoin="round"/>
<path d="M21.4443 17.4503C21.7496 17.0279 22.2318 16.7379 22.7481 16.667" stroke="#D46400" stroke-width="0.14983" stroke-miterlimit="10" stroke-linecap="round" stroke-linejoin="round"/>
<path d="M18.7233 18.15C18.6071 18.0419 18.497 17.9276 18.3848 17.8172C18.2773 17.7145 18.1672 17.6154 18.0394 17.5436C17.796 17.382 17.5108 17.2985 17.2277 17.2682C16.9421 17.2449 16.6542 17.2802 16.3845 17.3781C16.2484 17.4245 16.1215 17.4912 15.9952 17.566C15.8629 17.6522 15.7318 17.7396 15.5567 17.7654C15.5166 17.7714 15.4795 17.7435 15.4735 17.7034C15.4711 17.6876 15.4741 17.672 15.4813 17.6588C15.5633 17.502 15.6893 17.4074 15.8144 17.311C15.9506 17.212 16.0948 17.1132 16.2555 17.0513C16.571 16.91 16.9281 16.8735 17.2687 16.9163C17.6087 16.9668 17.9379 17.1 18.2043 17.3113C18.3399 17.4143 18.4512 17.5439 18.5548 17.6744C18.6458 17.8049 18.737 17.9333 18.8235 18.0668C18.8433 18.0973 18.8346 18.138 18.8041 18.1578C18.7781 18.1739 18.7445 18.17 18.7233 18.15Z" fill="#D46400"/>
<path d="M17.7326 17.5866C17.7108 17.2832 17.4468 17.0548 17.1433 17.0766C16.8398 17.0985 16.6114 17.3622 16.6333 17.666C16.6551 17.9695 16.9188 18.1978 17.2226 18.176C17.5261 18.1541 17.7545 17.8901 17.7326 17.5866Z" fill="#D46400"/>
<path d="M18.7095 18.1143C18.4425 18.2555 18.1331 18.3241 17.8125 18.3127" stroke="#D46400" stroke-width="0.14983" stroke-miterlimit="10" stroke-linecap="round" stroke-linejoin="round"/>
<path d="M18.7879 17.4503C18.4826 17.0279 18.0004 16.7379 17.4841 16.667" stroke="#D46400" stroke-width="0.14983" stroke-miterlimit="10" stroke-linecap="round" stroke-linejoin="round"/>
<path d="M20.0938 20.1185V17.4395" stroke="#D46400" stroke-width="0.138337" stroke-miterlimit="10" stroke-linecap="round" stroke-linejoin="round"/>
<path d="M19.1636 20.583L19.6236 20.7767C19.9181 20.9006 20.2488 20.9006 20.5434 20.7767L21.0034 20.583" stroke="#D46400" stroke-width="0.138337" stroke-miterlimit="10" stroke-linecap="round" stroke-linejoin="round"/>
<path d="M20.4619 22.7075C21.0228 22.7135 21.6103 22.6043 22.0913 22.3154" stroke="#D46400" stroke-width="0.125048" stroke-miterlimit="10" stroke-linecap="round" stroke-linejoin="round"/>
<path d="M19.3943 22.731C18.8331 22.7369 18.2459 22.6277 17.7649 22.3389" stroke="#D46400" stroke-width="0.125048" stroke-miterlimit="10" stroke-linecap="round" stroke-linejoin="round"/>
<path d="M19.3943 22.7303C19.6472 22.9236 20.1231 22.9721 20.4619 22.7061" stroke="#D46400" stroke-width="0.125048" stroke-miterlimit="10" stroke-linecap="round" stroke-linejoin="round"/>
<path d="M19.9441 21.417C20.0677 21.1578 20.3152 21.0015 20.5613 20.9333C20.8103 20.8654 21.0602 20.8785 21.2865 20.921C21.7522 21.0252 22.0862 21.2122 22.3334 21.3158L22.6261 21.4424C22.7027 21.4771 22.7824 21.5068 22.9149 21.5133C23.178 21.5337 23.565 21.4008 24.0568 21.3553C24.0092 21.9243 23.8365 22.4157 23.4061 22.8042C23.1954 22.9943 22.8961 23.1251 22.5947 23.1472C22.2924 23.1739 22.0135 23.0972 21.7845 22.9943C21.323 22.7821 21.0258 22.4642 20.8001 22.2092C20.6813 22.073 20.5708 21.9383 20.446 21.8019C20.3194 21.6633 20.1784 21.5295 19.9441 21.417Z" fill="#D46400"/>
<path d="M19.9467 21.4167C19.7124 21.5292 19.5714 21.663 19.4445 21.8019C19.3197 21.9386 19.2093 22.073 19.0904 22.2092C18.8645 22.4645 18.5676 22.7821 18.106 22.9943C17.8774 23.0972 17.5981 23.1739 17.2958 23.1472C16.9944 23.1251 16.6951 22.9943 16.4844 22.8042C16.054 22.4157 15.8816 21.9243 15.8337 21.3553C16.3255 21.4008 16.7125 21.5337 16.9756 21.5133C17.1082 21.5071 17.1878 21.4774 17.2644 21.4424L17.5571 21.3158C17.8043 21.2122 18.1384 21.0252 18.6041 20.921C18.8306 20.8785 19.0802 20.8654 19.3296 20.9333C19.5756 21.0012 19.8231 21.1575 19.9467 21.4167Z" fill="#D46400"/>
<path d="M20.4471 11.0991C21.5581 10.971 22.7487 10.5978 23.3515 9.65562C23.8588 8.86218 23.828 7.81223 23.4733 6.93977C22.9453 5.6423 21.7036 4.64803 20.3142 4.47204C18.9245 4.29575 17.4484 4.97247 16.7208 6.16937C15.9932 7.36628 16.0872 9.0232 16.9863 10.0971C17.8854 11.1713 19.5402 11.5484 20.7943 10.9241" fill="#D46400"/>
<path d="M23.6854 6.75684C24.2974 7.35035 24.3019 8.3958 23.8724 9.13538C23.4429 9.87525 22.6761 10.3514 21.8887 10.6681C20.6783 11.1548 19.2922 11.3245 18.0771 10.8507C16.8619 10.3769 15.8865 9.16052 15.9404 7.8424" stroke="#D46400" stroke-width="0.121127" stroke-miterlimit="10" stroke-linecap="round" stroke-linejoin="round"/>
<path d="M20.8595 10.3663C22.0022 10.2211 22.9864 9.29746 23.2695 8.18077C23.5526 7.06408 23.1552 5.81899 22.3249 5.02076C21.4943 4.22252 20.2744 3.87384 19.1347 4.04085C18.1033 4.192 17.1186 4.77144 16.5795 5.66396C16.0405 6.55647 16.0025 7.75816 16.5759 8.62882C17.1494 9.49949 18.3463 9.93767 19.3139 9.54977" stroke="#D46400" stroke-width="0.121127" stroke-miterlimit="10" stroke-linecap="round" stroke-linejoin="round"/>
<path d="M32.5635 51.9782L31.2861 48.8751L30.2634 46.3888L29.4014 44.2913L27.5071 39.688C26.5095 37.2661 27.49 34.5829 29.6411 33.846C30.0167 33.7173 30.4013 33.6592 30.7826 33.6622C30.818 33.6625 30.853 33.6628 30.8883 33.6661C32.5563 33.7263 34.1677 34.9648 34.8136 36.8558L36.3469 41.3378L37.0335 43.3476L39.9996 52.0324" fill="#F5F5FF"/>
<path d="M32.5635 51.9782L31.2861 48.8751L30.2634 46.3888L29.4014 44.2913L27.5071 39.688C26.5095 37.2661 27.49 34.5829 29.6411 33.846C30.0167 33.7173 30.4013 33.6592 30.7826 33.6622C30.818 33.6625 30.853 33.6628 30.8883 33.6661C32.5563 33.7263 34.1677 34.9648 34.8136 36.8558L36.3469 41.3378L37.0335 43.3476L39.9996 52.0324" stroke="#D46400" stroke-width="0.160126" stroke-miterlimit="10" stroke-linecap="round" stroke-linejoin="round"/>
<path d="M38.0196 41.5729C37.5167 40.9357 35.1244 41.3358 32.5175 42.5112C29.7858 43.7443 27.8514 45.3614 28.2004 46.1267C28.2067 46.1426 28.2163 46.1555 28.2291 46.1716L28.2004 46.1845L26.9805 43.328C27.5249 42.457 29.1935 41.2625 31.3326 40.2985C33.4974 39.3215 35.5183 38.8573 36.5207 39.0432L38.0196 41.5729Z" fill="#F5F5FF" stroke="#D46400" stroke-width="0.14983" stroke-miterlimit="10" stroke-linecap="round" stroke-linejoin="round"/>
<path d="M36.5207 39.0416C35.5184 38.8557 33.4975 39.3203 31.3326 40.2969C29.1932 41.2609 27.5249 42.4554 26.9805 43.3264L25.1838 39.1152C24.0022 36.3419 25.2799 33.1777 27.9667 32.2394C28.4758 32.0601 28.9948 31.9736 29.5102 31.9736C31.3515 31.9736 33.1162 33.0658 34.0224 34.8335L36.5207 39.0416Z" fill="#D46400"/>
<path d="M7.43582 51.9782L8.71323 48.8751L9.73594 46.3888L10.5982 44.2913L12.4925 39.688C13.4901 37.2661 12.5096 34.5829 10.3585 33.846C9.98286 33.7173 9.59826 33.6592 9.21695 33.6622C9.18163 33.6625 9.14662 33.6628 9.1113 33.6661C7.4433 33.7263 5.83157 34.9648 5.18598 36.8558L3.65266 41.3378L2.96607 43.3476L0 52.0324" fill="#F5F5FF"/>
<path d="M7.43582 51.9782L8.71323 48.8751L9.73594 46.3888L10.5982 44.2913L12.4925 39.688C13.4901 37.2661 12.5096 34.5829 10.3585 33.846C9.98286 33.7173 9.59826 33.6592 9.21695 33.6622C9.18163 33.6625 9.14662 33.6628 9.1113 33.6661C7.4433 33.7263 5.83157 34.9648 5.18598 36.8558L3.65266 41.3378L2.96607 43.3476L0 52.0324" stroke="#D46400" stroke-width="0.160126" stroke-miterlimit="10" stroke-linecap="round" stroke-linejoin="round"/>
<path d="M1.97925 41.5729C2.48207 40.9357 4.87438 41.3358 7.48129 42.5112C10.213 43.7443 12.1474 45.3614 11.7984 46.1267C11.7921 46.1426 11.7825 46.1555 11.7697 46.1716L11.7984 46.1845L13.0186 43.328C12.4742 42.457 10.8056 41.2625 8.66652 40.2985C6.50168 39.3215 4.4808 38.8573 3.47844 39.0432L1.97925 41.5729Z" fill="#F5F5FF" stroke="#D46400" stroke-width="0.14983" stroke-miterlimit="10" stroke-linecap="round" stroke-linejoin="round"/>
<path d="M3.47827 39.0416C4.48063 38.8557 6.50151 39.3203 8.66635 40.2969C10.8057 41.2609 12.474 42.4554 13.0185 43.3264L14.8152 39.1152C15.9968 36.3419 14.7191 33.1777 12.0323 32.2394C11.5232 32.0601 11.0042 31.9736 10.4888 31.9736C8.64749 31.9736 6.88282 33.0658 5.97654 34.8335L3.47827 39.0416Z" fill="#D46400"/>
<path d="M31.436 52.1294H8.59912L8.71764 48.7826L8.80085 46.3679L8.90651 43.4024L9.24591 33.8269L9.29709 32.4019L10.0337 32.1358L14.3155 30.589L15.1418 30.2912L15.5516 30.1407L16.6213 29.5654H16.9448H23.1257H23.2538L24.4546 30.1182L24.8613 30.2658L25.6877 30.5636L30.0943 32.1553L30.7734 32.4019L30.8213 33.8302L31.0039 39.2233L31.1415 43.3449L31.2409 46.3263V46.3424L31.3304 49.0355L31.436 52.1294Z" fill="#F5F5FF" stroke="#D46400" stroke-width="0.160126" stroke-miterlimit="10" stroke-linecap="round" stroke-linejoin="round"/>
<path d="M23.4678 29.4306L24.3624 30.0481L24.7524 30.1885C24.4609 32.5143 22.4756 34.3098 20.0689 34.3098C17.6727 34.3098 15.6911 32.5248 15.3855 30.213L15.7827 30.0691L16.7225 29.3486" fill="#F5F5FF"/>
<path d="M23.4678 29.4306L24.3624 30.0481L24.7524 30.1885C24.4609 32.5143 22.4756 34.3098 20.0689 34.3098C17.6727 34.3098 15.6911 32.5248 15.3855 30.213L15.7827 30.0691L16.7225 29.3486" stroke="#D46400" stroke-width="0.154319" stroke-miterlimit="10" stroke-linecap="round" stroke-linejoin="round"/>
<path d="M12.3865 31.3066V52.0293" stroke="#D46400" stroke-width="0.138337" stroke-miterlimit="10" stroke-linecap="round" stroke-linejoin="round"/>
<path d="M16.3604 32.5527V52.0294" stroke="#D46400" stroke-width="0.138337" stroke-miterlimit="10" stroke-linecap="round" stroke-linejoin="round"/>
<path d="M20.0517 34.3447L20.0505 52.0295" stroke="#D46400" stroke-width="0.138337" stroke-miterlimit="10" stroke-linecap="round" stroke-linejoin="round"/>
<path d="M24.0247 32.2061V52.0281" stroke="#D46400" stroke-width="0.138337" stroke-miterlimit="10" stroke-linecap="round" stroke-linejoin="round"/>
<path d="M27.7151 31.3066V52.0293" stroke="#D46400" stroke-width="0.138337" stroke-miterlimit="10" stroke-linecap="round" stroke-linejoin="round"/>
</g>
<defs>
<clipPath id="clip0_158_8376">
<rect width="40" height="40" rx="20" fill="white"/>
</clipPath>
</defs>
</svg>
