<svg width="40" height="40" viewBox="0 0 40 40" fill="none" xmlns="http://www.w3.org/2000/svg">
<g clip-path="url(#clip0_158_7111)">
<rect width="40" height="40" rx="20" fill="#D5F5E3"/>
<path d="M28.2502 15.1364C27.0346 13.3729 24.9316 12.3324 24.4256 10.1459C24.2097 9.21331 24.3354 8.22186 24.2416 7.26175C24.0143 4.94035 22.4282 3.11894 20.4437 3.00558C20.4047 3.00336 20.3658 3.00178 20.3268 3.00083C20.2233 2.99861 20.1197 3.00083 20.0162 3.00748C19.9126 3.00083 19.8088 2.99861 19.7055 3.00083C19.6666 3.00178 19.6273 3.00336 19.5887 3.00558C17.6042 3.11894 16.0181 4.94035 15.7907 7.26175C15.6967 8.22186 15.8224 9.21331 15.6068 10.1459C15.1007 12.3324 12.9975 13.3729 11.7822 15.1364C10.627 16.8121 10.3373 19.245 11.0567 21.2266C11.6191 22.7754 12.76 24.163 12.6492 25.8409C12.5694 27.0471 11.8354 28.0996 11.7838 29.3077C11.7147 30.9198 13.0048 32.3365 14.3813 32.4495C15.7578 32.5626 24.2758 32.5626 25.6524 32.4495C27.0285 32.3365 28.3189 30.9198 28.2499 29.3077C28.198 28.0993 27.4639 27.0471 27.3845 25.8409C27.2736 24.1633 28.4145 22.7757 28.9769 21.2266C29.6951 19.245 29.4054 16.8124 28.2502 15.1364Z" fill="#176638"/>
<path d="M20.6289 3.68233C22.6102 3.45877 24.6115 5.21083 24.9874 7.49772C25.1574 8.53287 25.0311 9.62596 25.3028 10.631C25.9161 12.8996 28.2831 13.9274 29.1321 16.0896C29.6539 17.4182 29.5076 19.0142 28.9639 20.3308C28.4202 21.6475 27.5181 22.7178 26.5415 23.6307" stroke="#176638" stroke-width="0.14639" stroke-miterlimit="10" stroke-linecap="round" stroke-linejoin="round"/>
<path d="M22.417 10.7451C25.4977 14.0349 27.2891 18.9158 27.2064 23.7942C27.1928 24.5947 27.1374 25.4329 27.4246 26.1599C27.6577 26.7499 28.0915 27.1973 28.3806 27.7524C29.1561 29.2426 28.6026 31.4506 27.2621 32.2147" stroke="#176638" stroke-width="0.14639" stroke-miterlimit="10" stroke-linecap="round" stroke-linejoin="round"/>
<path d="M18.6452 7.29689L17.9736 6.67182C17.3172 6.06099 17.8447 5.24465 18.9742 5.14047C19.3925 5.10183 19.8089 5.07713 20.1655 5.08157C20.6025 5.08695 21.042 5.11102 21.4742 5.15314C22.6867 5.27093 23.2798 6.181 22.5483 6.77789L21.7823 7.40297C21.4844 7.64616 21.017 7.78265 20.5198 7.7722L19.9616 7.76017C19.4372 7.74908 18.9448 7.57587 18.6452 7.29689Z" fill="#F5F5FF"/>
<path d="M15.3291 8.79201C15.6553 8.36738 16.0457 7.98486 16.4681 7.65332C16.5755 7.56845 16.6857 7.48771 16.7968 7.40981L17.1486 7.20462L17.5023 6.99974C17.623 6.93609 17.7474 6.88004 17.8728 6.82653C18.3779 6.62134 18.9086 6.46839 19.4539 6.40442C19.9979 6.33698 20.5558 6.34268 21.0989 6.45129L21.0869 6.4494C21.5257 6.51875 21.9295 6.63464 22.3301 6.79708C22.7268 6.95795 23.1005 7.16598 23.4561 7.40506C23.6416 7.51304 23.8003 7.65174 23.9653 7.78473C24.1296 7.91741 24.2971 8.04629 24.4418 8.20177C24.7376 8.50386 25.0105 8.82653 25.2414 9.17707C24.9611 8.86548 24.6689 8.56751 24.3484 8.30341C24.1907 8.16884 24.021 8.04914 23.8516 7.92976C23.6831 7.81038 23.5178 7.68245 23.3339 7.59094C22.9808 7.38543 22.609 7.20747 22.2271 7.06149C21.8475 6.92279 21.4393 6.81735 21.052 6.75718L21.04 6.75528C20.0207 6.57225 18.9501 6.71095 17.9684 7.07226C17.8449 7.11627 17.7224 7.16282 17.603 7.21697L17.2512 7.39397L16.8981 7.57162C16.7857 7.64097 16.6758 7.7119 16.5685 7.78632C16.1204 8.07669 15.7132 8.41709 15.3291 8.79201Z" fill="#F5F5FF"/>
<path d="M23.7297 31.4773C23.7994 33.5704 22.1559 35.3088 20.1072 35.3088C18.0996 35.3088 16.4846 33.6432 16.4846 31.6008C16.4846 31.5596 16.4846 31.5153 16.4878 31.4773L16.8899 25.9453L16.9406 25.2328L17.0293 24.0264L17.1939 21.7939H23.0204L23.2801 25.3595L23.3402 26.1385L23.5334 28.8079L23.7297 31.4773Z" fill="#F5F5FF" stroke="#176638" stroke-width="0.158328" stroke-miterlimit="10"/>
<path d="M23.5334 28.8079C21.6968 29.0327 19.6259 28.1492 18.2231 26.357C17.6531 25.6318 17.2573 24.8338 17.0293 24.0264L17.194 21.7939H23.0204L23.2801 25.3595L23.3403 26.1385L23.5334 28.8079Z" fill="#176638"/>
<path d="M25.1829 16.2486C24.4508 17.4243 24.5217 18.817 25.3409 19.3594C26.1601 19.9018 27.4179 19.3882 28.15 18.2125C28.8821 17.0367 28.8111 15.6441 27.992 15.102C27.1728 14.5595 25.915 15.0728 25.1829 16.2486Z" fill="#F5F5FF" stroke="#176638" stroke-width="0.158328" stroke-miterlimit="10"/>
<path d="M27.3757 15.666C27.7307 15.8047 28.0002 16.1416 28.0578 16.5181C28.1154 16.8946 27.9584 17.2968 27.661 17.5349" stroke="#176638" stroke-width="0.158328" stroke-miterlimit="10" stroke-linecap="round" stroke-linejoin="round"/>
<path d="M15.3008 16.2486C16.033 17.4243 15.962 18.817 15.1428 19.3594C14.3236 19.9018 13.0659 19.3882 12.3338 18.2125C11.6017 17.0367 11.6726 15.6441 12.4918 15.102C13.3113 14.5595 14.5687 15.0728 15.3008 16.2486Z" fill="#F5F5FF" stroke="#176638" stroke-width="0.158328" stroke-miterlimit="10"/>
<path d="M13.1086 15.666C12.7536 15.8047 12.4841 16.1416 12.4265 16.5181C12.3692 16.8946 12.5259 17.2968 12.8233 17.5349" stroke="#176638" stroke-width="0.158328" stroke-miterlimit="10" stroke-linecap="round" stroke-linejoin="round"/>
<path d="M27.0038 14.6219C27.0038 14.7327 27.0038 14.8404 26.9975 14.9449C26.9848 15.2615 26.9595 15.5814 26.9183 15.8917L26.874 16.335L26.855 16.5757L26.8423 16.7182L26.8233 16.924C26.8043 17.1361 26.7917 17.3451 26.779 17.5541C26.7758 17.608 26.7727 17.6586 26.7695 17.7125C26.7632 17.7916 26.76 17.8708 26.7568 17.95C26.7252 18.4756 26.6967 18.9981 26.627 19.5174C26.627 19.5269 26.6238 19.5364 26.6238 19.5427C26.608 19.6409 26.5922 19.7422 26.5732 19.8404C26.5542 19.9481 26.5383 20.0525 26.5099 20.157C26.475 20.3154 26.4339 20.4705 26.3864 20.632C26.3705 20.689 26.3515 20.7429 26.3325 20.803C26.2945 20.917 26.2502 21.0342 26.2027 21.1513C26.0792 21.4585 25.9304 21.7562 25.7625 22.0538C25.0532 23.2888 23.9671 24.4224 22.881 25.1729C22.8778 25.1824 22.8683 25.1855 22.8651 25.1855C22.7321 25.2805 22.5991 25.366 22.4693 25.4452C21.1425 26.2558 19.5751 26.3002 18.2008 25.6004C17.9158 25.4579 17.6435 25.2932 17.3775 25.0969C17.3743 25.0969 17.368 25.0969 17.3648 25.0905C16.3135 24.3401 15.4111 23.2508 14.7302 22.0538C14.6796 21.9683 14.6352 21.886 14.5877 21.8005C14.5656 21.7562 14.5434 21.7087 14.5212 21.6643C14.4833 21.5915 14.4484 21.5123 14.4073 21.4332C14.2996 21.2273 14.2046 21.012 14.1191 20.803C14.0969 20.7429 14.0684 20.6859 14.0494 20.6257C13.7296 19.7834 13.6156 18.8429 13.5396 17.9151C13.5301 17.8233 13.5238 17.7283 13.5143 17.6333C13.5143 17.5826 13.508 17.532 13.5048 17.4813C13.4921 17.3198 13.4795 17.1551 13.4668 16.9968L13.4288 16.563C13.4193 16.5155 13.413 16.468 13.4066 16.4237C13.394 16.3698 13.3876 16.3192 13.3813 16.2653C13.3465 16.069 13.3211 15.8695 13.3021 15.6637C13.2926 15.5719 13.2831 15.4769 13.2768 15.3819C13.2578 15.1349 13.2483 14.8816 13.2483 14.6219C13.2483 14.5934 13.2483 14.5617 13.2515 14.5301C13.2515 14.3084 13.261 14.0867 13.28 13.8714C13.2926 13.6846 13.3148 13.5009 13.3433 13.3236C13.5016 12.2248 13.8531 11.202 14.3598 10.3059C14.4896 10.081 14.6257 9.86572 14.7714 9.65673C15.2591 8.95692 15.8575 8.35527 16.5257 7.88345C16.5732 7.84545 16.6238 7.81063 16.6713 7.77896C16.7315 7.73779 16.7917 7.69663 16.8518 7.65863C17.0893 7.51297 17.3332 7.37997 17.5833 7.26598C18.6473 6.78149 19.9139 6.55984 21.0697 6.7815C21.1267 6.78783 21.1837 6.80049 21.2407 6.80999C21.7188 6.90182 22.1748 7.04432 22.6086 7.24381C22.748 7.30398 22.8841 7.37047 23.0171 7.44331C23.2103 7.54464 23.3971 7.65546 23.5808 7.77896C23.5934 7.78846 23.6124 7.80113 23.6251 7.81063C23.8214 7.94362 24.0083 8.08294 24.1919 8.23811C24.7334 8.69409 25.2147 9.24191 25.6169 9.85939C25.7214 10.0177 25.8195 10.1792 25.9114 10.3439C25.943 10.3914 25.9652 10.4389 25.9969 10.4927C26.4402 11.3382 26.76 12.285 26.9057 13.3014C26.9057 13.3078 26.912 13.3141 26.912 13.3236C26.9373 13.5009 26.9563 13.6846 26.9722 13.8714C26.9912 14.0867 27.0007 14.3084 27.0007 14.5301C27.0038 14.5617 27.0038 14.5934 27.0038 14.6219Z" fill="#F5F5FF" stroke="#176638" stroke-width="0.158328" stroke-miterlimit="10"/>
<path d="M27.0038 14.6219C27.0038 14.7327 27.0038 14.8404 26.9975 14.9449C26.9848 15.2615 26.9595 15.5814 26.9183 15.8917L26.874 16.335L26.855 16.5757L26.8423 16.7182L26.8233 16.924C26.8043 17.1361 26.7917 17.3451 26.779 17.5541C26.7758 17.608 26.7727 17.6586 26.7695 17.7125C26.0285 15.9455 25.6897 14.0107 25.7942 12.0981C25.2559 11.1038 24.4484 10.3977 23.4193 9.92272C22.7258 9.6029 21.9722 9.43824 21.2122 9.43824C20.848 9.43824 20.4839 9.47624 20.1261 9.55224C19.0178 9.31474 17.8588 9.44773 16.8297 9.92272C15.8037 10.3977 14.9962 11.1038 14.4579 12.0981C14.5624 13.9822 14.2331 15.8885 13.5143 17.6333C13.5143 17.5826 13.508 17.532 13.5048 17.4813C13.4921 17.3198 13.4795 17.1551 13.4668 16.9968L13.4288 16.563C13.4193 16.5155 13.413 16.468 13.4066 16.4237C13.394 16.3698 13.3876 16.3192 13.3813 16.2653C13.3465 16.069 13.3211 15.8695 13.3021 15.6637C13.2926 15.5719 13.2831 15.4769 13.2768 15.3819C13.2578 15.1349 13.2483 14.8816 13.2483 14.6219C13.2483 14.5934 13.2483 14.5617 13.2515 14.5301C13.2515 14.3084 13.261 14.0867 13.28 13.8714C13.2926 13.6846 13.3148 13.5009 13.3433 13.3236C13.5016 12.2248 13.8531 11.202 14.3598 10.3059C14.4896 10.081 14.6257 9.86572 14.7714 9.65673C15.2591 8.95692 15.8575 8.35527 16.5257 7.88345C16.5732 7.84545 16.6238 7.81063 16.6713 7.77896C16.7315 7.73779 16.7917 7.69663 16.8518 7.65863C17.0893 7.51297 17.3332 7.37997 17.5833 7.26598C18.6473 6.78149 19.9139 6.55984 21.0697 6.7815C21.1267 6.78783 21.1837 6.80049 21.2407 6.80999C21.7188 6.90182 22.1748 7.04432 22.6086 7.24381C22.748 7.30398 22.8841 7.37047 23.0171 7.44331C23.2103 7.54464 23.3971 7.65546 23.5808 7.77896C23.5934 7.78846 23.6124 7.80113 23.6251 7.81063C23.8214 7.94362 24.0083 8.08294 24.1919 8.23811C24.7334 8.69409 25.2147 9.24191 25.6169 9.85939C25.7214 10.0177 25.8195 10.1792 25.9114 10.3439C25.943 10.3914 25.9652 10.4389 25.9969 10.4927C26.4402 11.3382 26.76 12.285 26.9057 13.3014C26.9057 13.3078 26.912 13.3141 26.912 13.3236C26.9373 13.5009 26.9563 13.6846 26.9722 13.8714C26.9912 14.0867 27.0007 14.3084 27.0007 14.5301C27.0038 14.5617 27.0038 14.5934 27.0038 14.6219Z" fill="#176638"/>
<path d="M24.0496 9.85254C24.1746 10.7588 24.9273 11.5254 25.7883 11.6233" stroke="#176638" stroke-width="0.152692" stroke-miterlimit="10" stroke-linecap="round" stroke-linejoin="round"/>
<path d="M23.7917 9.32227C23.8253 10.112 24.136 10.8853 24.6499 11.4594C25.1638 12.0335 25.8766 12.4036 26.6204 12.4825" stroke="#176638" stroke-width="0.152692" stroke-miterlimit="10" stroke-linecap="round" stroke-linejoin="round"/>
<path d="M23.8318 9.78711C23.8654 10.5768 24.176 11.3501 24.6899 11.9242C25.2039 12.4983 25.9167 12.8685 26.6605 12.9473" stroke="#176638" stroke-width="0.152692" stroke-miterlimit="10" stroke-linecap="round" stroke-linejoin="round"/>
<path d="M16.2012 9.85254C16.0761 10.7588 15.3234 11.5254 14.4624 11.6233" stroke="#176638" stroke-width="0.152692" stroke-miterlimit="10" stroke-linecap="round" stroke-linejoin="round"/>
<path d="M16.4592 9.32227C16.4257 10.112 16.115 10.8853 15.6014 11.4594C15.0875 12.0335 14.3747 12.4036 13.6309 12.4825" stroke="#176638" stroke-width="0.152692" stroke-miterlimit="10" stroke-linecap="round" stroke-linejoin="round"/>
<path d="M16.4192 9.78711C16.3856 10.5768 16.075 11.3501 15.5614 11.9242C15.0474 12.4983 14.3346 12.8685 13.5908 12.9473" stroke="#176638" stroke-width="0.152692" stroke-miterlimit="10" stroke-linecap="round" stroke-linejoin="round"/>
<path d="M21.97 15.276C22.0821 14.8992 22.3557 14.6006 22.6783 14.3909C23.0039 14.1823 23.3864 14.0632 23.7733 14.0398C24.1603 14.0154 24.5545 14.0879 24.9028 14.2557C25.2483 14.4248 25.5561 14.6892 25.7119 15.0505C25.324 15.0116 25.0105 14.9847 24.7056 14.9761C24.4032 14.966 24.1169 14.9717 23.8303 14.9875C23.5441 15.0046 23.2588 15.0334 22.9598 15.08C22.6577 15.1249 22.3496 15.1899 21.97 15.276Z" fill="#176638"/>
<path d="M18.6059 15.2757C18.2263 15.1895 17.9182 15.1246 17.6164 15.08C17.3171 15.0334 17.0322 15.0046 16.7456 14.9875C16.4593 14.9714 16.1731 14.966 15.8703 14.9761C15.5654 14.9847 15.2519 15.0119 14.864 15.0505C15.0198 14.6889 15.3273 14.4245 15.6731 14.2557C16.0214 14.0879 16.4156 14.0154 16.8026 14.0398C17.1895 14.0632 17.5721 14.1826 17.8976 14.3909C18.2202 14.6002 18.4938 14.8988 18.6059 15.2757Z" fill="#176638"/>
<path d="M21.7454 17.3259C21.8375 17.1857 21.9357 17.0511 22.032 16.9137C22.1412 16.7759 22.26 16.6407 22.4031 16.5327C22.6818 16.305 23.0317 16.1733 23.3885 16.1141C23.7483 16.0723 24.1229 16.1078 24.4604 16.2484C24.6305 16.3139 24.7872 16.4114 24.9348 16.5134C25.0659 16.6163 25.2001 16.7151 25.329 16.8215L25.2372 16.7924C25.2315 16.8012 25.2818 16.7959 25.3205 16.7819C25.3622 16.7686 25.4066 16.7493 25.4506 16.7284C25.538 16.6857 25.6276 16.6337 25.7058 16.578L25.7093 16.5755C25.7407 16.5533 25.7837 16.5606 25.8062 16.5916C25.8246 16.6173 25.8227 16.6511 25.8043 16.6746C25.735 16.7632 25.6618 16.8399 25.5801 16.9156C25.5389 16.9529 25.4959 16.9893 25.4462 17.0235C25.3933 17.0561 25.3474 17.0951 25.2375 17.1097C25.2115 17.1119 25.1865 17.1052 25.1659 17.0929L25.1453 17.0805C25.0022 16.9944 24.8648 16.9004 24.7242 16.8107C24.5947 16.729 24.4645 16.6521 24.3208 16.603C24.0402 16.4912 23.7334 16.4504 23.4313 16.4789C23.1295 16.5052 22.8306 16.6024 22.5703 16.7689C22.4351 16.8459 22.3198 16.952 22.2061 17.0609C22.0877 17.1777 21.9728 17.2997 21.8512 17.4149C21.8233 17.4412 21.7793 17.4402 21.753 17.4124C21.7305 17.3883 21.7283 17.3525 21.7454 17.3259Z" fill="#176638"/>
<path d="M22.898 16.8198C22.9211 16.499 23.1998 16.2577 23.5206 16.2808C23.8413 16.3039 24.0826 16.5826 24.0595 16.9034C24.0364 17.2241 23.7577 17.4654 23.437 17.4423C23.1162 17.4192 22.8749 17.1405 22.898 16.8198Z" fill="#176638"/>
<path d="M24.6624 17.2802C24.8764 17.2324 25.0794 17.1352 25.2507 16.998" stroke="#176638" stroke-width="0.158328" stroke-miterlimit="10" stroke-linecap="round" stroke-linejoin="round"/>
<path d="M21.7832 16.6744C22.1056 16.2283 22.6154 15.9217 23.161 15.8467" stroke="#176638" stroke-width="0.158328" stroke-miterlimit="10" stroke-linecap="round" stroke-linejoin="round"/>
<path d="M18.7244 17.4152C18.6028 17.3 18.4878 17.1781 18.3694 17.0612C18.2557 16.9523 18.1405 16.8465 18.0052 16.7693C17.745 16.6027 17.446 16.5055 17.1443 16.4792C16.8425 16.451 16.5353 16.4916 16.2548 16.6033C16.1113 16.6524 15.9809 16.7294 15.8513 16.8111C15.7108 16.901 15.573 16.9947 15.4302 17.0809L15.4096 17.0932C15.3871 17.1068 15.3624 17.1119 15.338 17.11C15.2285 17.0954 15.1819 17.0565 15.1291 17.0239C15.0793 16.9893 15.0363 16.9529 14.9951 16.9159C14.9134 16.8402 14.8403 16.7636 14.7709 16.6749C14.7472 16.6448 14.7525 16.6011 14.7829 16.5774C14.8076 16.5581 14.8415 16.5581 14.8659 16.5755L14.8694 16.578C14.9476 16.6337 15.0372 16.6857 15.1249 16.7284C15.169 16.7496 15.2133 16.7686 15.2551 16.7819C15.2934 16.7959 15.3441 16.8012 15.3384 16.7924L15.2465 16.8215C15.3754 16.7151 15.5094 16.6163 15.6408 16.5134C15.7883 16.4114 15.9448 16.3136 16.1151 16.2484C16.4527 16.1078 16.8273 16.0723 17.187 16.1141C17.5439 16.1733 17.8938 16.305 18.1724 16.5327C18.3156 16.6407 18.4343 16.7759 18.5439 16.9137C18.6401 17.0514 18.7383 17.1857 18.8304 17.3259C18.8517 17.3579 18.8425 17.401 18.8105 17.4222C18.7829 17.4409 18.7475 17.4368 18.7244 17.4152Z" fill="#176638"/>
<path d="M17.6777 16.8198C17.6546 16.499 17.3759 16.2577 17.0551 16.2808C16.7344 16.3039 16.4931 16.5826 16.5162 16.9034C16.5393 17.2241 16.818 17.4654 17.1387 17.4423C17.4595 17.4192 17.7008 17.1405 17.6777 16.8198Z" fill="#176638"/>
<path d="M15.9138 17.2802C15.6997 17.2324 15.4968 17.1352 15.3254 16.998" stroke="#176638" stroke-width="0.158328" stroke-miterlimit="10" stroke-linecap="round" stroke-linejoin="round"/>
<path d="M18.7928 16.6744C18.4705 16.2283 17.9606 15.9217 17.415 15.8467" stroke="#176638" stroke-width="0.158328" stroke-miterlimit="10" stroke-linecap="round" stroke-linejoin="round"/>
<path d="M20.5613 20.7313C20.7193 20.6604 20.8593 20.5495 20.965 20.4121" stroke="#176638" stroke-width="0.158328" stroke-miterlimit="10" stroke-linecap="round" stroke-linejoin="round"/>
<path d="M20.0148 20.7313C19.8568 20.6604 19.7168 20.5495 19.6111 20.4121" stroke="#176638" stroke-width="0.158328" stroke-miterlimit="10" stroke-linecap="round" stroke-linejoin="round"/>
<path d="M20.2312 17.9395V20.0208" stroke="#176638" stroke-width="0.158328" stroke-miterlimit="10"/>
<path d="M22.3446 22.314L22.2876 22.3691L22.2844 22.3719C22.0976 22.465 21.8727 22.465 21.6606 22.4416C21.4484 22.4185 21.2331 22.3748 21.0209 22.395C20.7645 22.4181 20.5333 22.5287 20.2863 22.5866H20.2831C20.033 22.5283 19.8018 22.4181 19.5485 22.395C19.3332 22.3748 19.121 22.4181 18.9088 22.4416C18.6967 22.4647 18.4687 22.4647 18.2819 22.3691L18.2312 22.3197C18.4465 22.3285 18.8392 22.1803 18.9943 22.0698L19.064 22.0204C19.2318 21.8953 19.406 21.7649 19.6245 21.7038C19.8366 21.6426 20.1216 21.6746 20.28 21.8345C20.4415 21.6746 20.7265 21.643 20.9386 21.7038C21.1571 21.7649 21.3313 21.8953 21.4991 22.0204L21.5688 22.0727C21.7271 22.1832 22.1292 22.3254 22.3446 22.314Z" fill="#176638"/>
<path d="M19.5962 23.5283C19.631 23.54 19.669 23.5486 19.7039 23.5546C19.8178 23.5866 19.9382 23.6069 20.0553 23.6157C20.0902 23.6214 20.125 23.6214 20.1598 23.6243C20.1852 23.6243 20.2137 23.6271 20.239 23.6271C20.2548 23.6271 20.2707 23.6271 20.2865 23.6271C20.2897 23.6271 20.2928 23.6271 20.296 23.6271" stroke="#176638" stroke-width="0.120583" stroke-miterlimit="10" stroke-linecap="round" stroke-linejoin="round"/>
<path d="M22.2844 22.3726C22.0817 22.8403 21.7018 23.2294 21.2014 23.4416C20.9196 23.5635 20.6061 23.6246 20.2958 23.6275C20.2926 23.6275 20.2895 23.6275 20.2863 23.6275C20.2705 23.6275 20.2546 23.6275 20.2388 23.6275C20.2135 23.6275 20.185 23.6246 20.1596 23.6246C20.1248 23.6218 20.09 23.6189 20.0551 23.6161C19.938 23.6044 19.8176 23.5841 19.7037 23.555C19.5865 23.5258 19.4725 23.4882 19.3648 23.4416C18.8677 23.2294 18.4814 22.8374 18.2819 22.3697C18.4687 22.4657 18.6967 22.4657 18.9088 22.4422C19.121 22.4191 19.3332 22.3754 19.5485 22.3957C19.8018 22.4188 20.033 22.5293 20.2831 22.5873H20.2863C20.5333 22.529 20.7645 22.4188 21.0209 22.3957C21.2331 22.3754 21.4484 22.4188 21.6606 22.4422C21.8727 22.4657 22.0976 22.4657 22.2844 22.3726ZM22.2844 22.3726L22.2876 22.3697L22.3446 22.3146C22.1292 22.3263 21.7271 22.1838 21.5688 22.0736L21.4991 22.0214C21.3313 21.8963 21.1571 21.7659 20.9386 21.7047C20.7265 21.6436 20.4415 21.6756 20.28 21.8355C20.1216 21.6756 19.8366 21.6439 19.6245 21.7047C19.406 21.7659 19.2318 21.8963 19.064 22.0214L18.9943 22.0708C18.8392 22.181 18.4465 22.3292 18.2312 22.3206L18.2819 22.37" stroke="#176638" stroke-width="0.120583" stroke-miterlimit="10" stroke-linecap="round" stroke-linejoin="round"/>
<path d="M22.2523 22.4375C22.0167 22.5984 21.6807 22.7298 21.2709 22.8108C20.9632 22.8729 20.6208 22.9039 20.2817 22.9052C20.2782 22.9052 20.2747 22.9052 20.2713 22.9052C20.2538 22.9052 20.2367 22.9052 20.2193 22.9052C20.1918 22.9052 20.1604 22.9036 20.1329 22.9036C20.0949 22.902 20.0569 22.9008 20.0189 22.8992C19.891 22.8932 19.7595 22.883 19.6351 22.8681C19.5072 22.8533 19.3827 22.8343 19.2649 22.8105C18.8967 22.7374 18.5841 22.6224 18.3533 22.4815" stroke="#176638" stroke-width="0.0898353" stroke-miterlimit="10" stroke-linecap="round" stroke-linejoin="round"/>
<path d="M6.10786 43.0694C8.67943 44.2296 11.0274 44.5875 11.3517 43.8683C11.6763 43.1492 9.85454 41.6255 7.28297 40.4649C4.71141 39.3047 2.3634 38.9469 2.03915 39.666C1.71458 40.3854 3.5363 41.9092 6.10786 43.0694Z" fill="#176638"/>
<path d="M0 51.4459C0.00949968 51.4143 0.0221654 51.3858 0.0316651 51.3541L3.45788 41.5663L4.20519 39.432L5.71248 35.1255C6.19063 33.7544 7.20709 32.7537 8.36922 32.3452C8.74604 32.2122 9.13869 32.1426 9.53135 32.1426C9.89234 32.1426 10.2533 32.2027 10.608 32.3262C12.6282 33.0355 13.5339 35.5688 12.5807 37.8455L10.6175 42.5194L9.905 44.2135L9.32552 45.5941L6.8651 51.4459" fill="#F5F5FF"/>
<path d="M0 51.4459C0.00949968 51.4143 0.0221654 51.3858 0.0316651 51.3541L3.45788 41.5663L4.20519 39.432L5.71248 35.1255C6.19063 33.7544 7.20709 32.7537 8.36922 32.3452C8.74604 32.2122 9.13869 32.1426 9.53135 32.1426C9.89234 32.1426 10.2533 32.2027 10.608 32.3262C12.6282 33.0355 13.5339 35.5688 12.5807 37.8455L10.6175 42.5194L9.905 44.2135L9.32552 45.5941L6.8651 51.4459" stroke="#176638" stroke-width="0.158328" stroke-miterlimit="10"/>
<path d="M2.09448 39.5788C2.56978 38.9787 4.82247 39.3565 7.28163 40.4635C9.85382 41.625 11.6778 43.1488 11.3503 43.8698C11.3424 43.8853 11.3348 43.897 11.3231 43.9126L11.3503 43.9243L14.1914 37.2637C15.306 34.6488 14.1018 31.6671 11.5685 30.7827C11.0891 30.6152 10.6021 30.5332 10.1147 30.5332C8.38042 30.5332 6.7164 31.562 5.86269 33.2302L2.09448 39.5788Z" fill="#176638"/>
<path d="M33.8917 43.0694C31.3201 44.2296 28.9721 44.5875 28.6475 43.8683C28.323 43.1492 30.1447 41.6255 32.7163 40.4649C35.2878 39.3047 37.6358 38.9469 37.9604 39.666C38.285 40.3854 36.4633 41.9092 33.8917 43.0694Z" fill="#176638"/>
<path d="M33.135 51.4459L30.5258 45.2426L30.0951 44.2135L29.3827 42.5194L28.9108 41.3984L28.1097 39.4858L27.4194 37.8455C26.4631 35.5688 27.3719 33.0355 29.3922 32.3262C29.7436 32.2027 30.1078 32.1426 30.4656 32.1426C30.7854 32.1426 31.1021 32.1901 31.4124 32.2787C32.6632 32.6302 33.7778 33.672 34.2877 35.1255L35.7949 39.432L36.5423 41.5663L39.9685 51.3541C39.978 51.3858 39.9906 51.4143 40.0001 51.4459" fill="#F5F5FF"/>
<path d="M33.135 51.4459L30.5258 45.2426L30.0951 44.2135L29.3827 42.5194L28.9108 41.3984L28.1097 39.4858L27.4194 37.8455C26.4631 35.5688 27.3719 33.0355 29.3922 32.3262C29.7436 32.2027 30.1078 32.1426 30.4656 32.1426C30.7854 32.1426 31.1021 32.1901 31.4124 32.2787C32.6632 32.6302 33.7778 33.672 34.2877 35.1255L35.7949 39.432L36.5423 41.5663L39.9685 51.3541C39.978 51.3858 39.9906 51.4143 40.0001 51.4459" stroke="#176638" stroke-width="0.158328" stroke-miterlimit="10"/>
<path d="M37.905 39.5788C37.4294 38.9787 35.177 39.3565 32.7179 40.4635C30.1457 41.625 28.3217 43.1488 28.6491 43.8698C28.6571 43.8853 28.6647 43.897 28.6764 43.9126L28.6491 43.9243L25.8081 37.2637C24.6935 34.6488 25.8977 31.6671 28.431 30.7827C28.9104 30.6152 29.3974 30.5332 29.8847 30.5332C31.6191 30.5332 33.2831 31.562 34.1368 33.2302L37.905 39.5788Z" fill="#176638"/>
<path d="M31.4904 36.2861L30.6797 40.162C30.8412 40.5166 30.9679 40.8903 31.0534 41.2798C31.142 41.6851 31.1895 42.1031 31.1895 42.5337C31.1895 43.0467 31.123 43.547 30.9932 44.022C30.8856 44.4337 30.7336 44.8263 30.5404 45.1937C30.2237 45.8016 29.8058 46.3494 29.3023 46.8086L28.3491 51.3969H11.1959L10.2427 46.6788C9.89758 46.3431 9.59359 45.96 9.34027 45.5451C9.03945 45.0512 8.80829 44.5097 8.66579 43.9334C8.55496 43.4869 8.4948 43.0182 8.4948 42.5337C8.4948 42.0429 8.55813 41.5648 8.67212 41.1088C8.74496 40.8206 8.83678 40.542 8.94761 40.2728L8.14331 36.2861C7.79815 34.8168 7.86465 33.3792 8.38397 32.2962C8.81145 31.3969 9.55243 30.7446 10.6291 30.5135C10.9014 30.4565 11.199 30.4248 11.5189 30.4248H28.536C28.8526 30.4248 29.1439 30.4565 29.4099 30.5135C30.4296 30.7351 31.0787 31.3653 31.427 32.2297C31.8735 33.3225 31.8419 34.7886 31.4904 36.2861Z" fill="#F5F5FF" stroke="#176638" stroke-width="0.158328" stroke-miterlimit="10" stroke-linecap="round" stroke-linejoin="round"/>
<path d="M23.6137 30.2227L24.9636 30.4253C24.1973 32.4139 22.2308 33.9497 20.0839 34.0415C17.7786 34.1429 15.5367 32.5659 14.7229 30.4253L16.6384 30.2227" fill="#F5F5FF"/>
<path d="M23.6137 30.2227L24.9636 30.4253C24.1973 32.4139 22.2308 33.9497 20.0839 34.0415C17.7786 34.1429 15.5367 32.5659 14.7229 30.4253L16.6384 30.2227" stroke="#176638" stroke-width="0.158328" stroke-miterlimit="10" stroke-linecap="round" stroke-linejoin="round"/>
</g>
<defs>
<clipPath id="clip0_158_7111">
<rect width="40" height="40" rx="20" fill="white"/>
</clipPath>
</defs>
</svg>
