<svg width="40" height="40" viewBox="0 0 40 40" fill="none" xmlns="http://www.w3.org/2000/svg">
<g clip-path="url(#clip0_158_8267)">
<rect width="40" height="40" rx="20" fill="#3B4EFF" fill-opacity="0.2"/>
<path d="M31.7065 18.6572C32.4376 18.0383 32.374 16.99 31.9942 16.1105C31.6147 15.2313 30.6252 14.6579 29.6735 14.7656C30.437 14.2297 30.334 13.1324 29.9011 12.3063C29.4682 11.4799 28.3849 11.0632 27.5095 11.3858C28.3235 10.7367 28.3505 9.66393 27.8223 8.76661C27.6013 8.39153 27.2577 8.10291 26.8633 7.92109C26.6401 7.05937 26.1433 6.26789 25.4227 5.74278C24.8439 5.32098 24.1455 5.09116 23.4329 5.04253C22.6036 4.48182 21.5464 4.15506 20.6627 4.58767C18.1564 3.68748 15.1427 4.43224 13.3443 6.39631C13.0426 6.72561 12.7651 7.10419 12.6917 7.54474C12.6183 7.9853 12.8064 8.49579 13.2177 8.66966C12.0998 8.12548 11.1094 8.55078 10.253 9.45224C9.39641 10.3534 9.2076 11.8216 9.80804 12.9103C8.8481 12.942 8.0741 14.0701 7.84747 15.0037C7.62051 15.9373 8.08173 16.9945 8.92025 17.4633C7.73653 17.5844 7.2982 19.2119 7.65516 20.3473C7.88879 21.0905 8.61351 21.6009 9.37766 21.7042C8.72127 22.0301 8.1364 22.6553 7.86844 23.27C7.4441 24.2436 7.78675 25.4916 8.64911 26.112C9.51116 26.7322 10.8036 26.6607 11.5916 25.9487C11.3223 26.694 11.8799 27.7061 12.5852 28.0672C13.2909 28.4283 14.1567 28.3501 14.8888 28.0459C15.6208 27.7417 16.247 27.2347 16.8617 26.7347C16.6074 26.8864 16.9857 27.27 17.0989 27.5437C17.212 27.8171 17.4587 28.0125 17.7155 28.16C19.1427 28.9801 21.171 28.496 22.074 27.12C22.0276 28.1028 22.7835 29.024 23.767 29.0523C24.7504 29.0806 25.6672 28.1985 25.677 27.2147C26.3102 28.1677 27.4742 28.4124 28.3772 27.7099C29.28 27.0075 29.4103 25.5119 28.6423 24.6639C29.4748 25.4067 30.9303 25.8574 31.6179 24.9792C32.3057 24.1006 32.0823 22.6575 31.1614 22.0278C32.1884 22.2468 33.3791 21.8444 33.512 20.8028C33.6452 19.7602 32.7558 18.7036 31.7065 18.6572Z" fill="#3B4EFF"/>
<path d="M23.5151 30.5887C23.5841 32.6917 21.935 34.4358 19.8778 34.4358C17.8638 34.4358 16.2405 32.7639 16.2405 30.7124C16.2405 30.6723 16.2405 30.6291 16.2433 30.5887L16.6483 25.035L16.7001 24.3195L16.9528 20.8691H22.8024L23.064 24.4489L23.1216 25.2305L23.5151 30.5887Z" fill="#F5F5FF" stroke="#3B4EFF" stroke-width="0.158931" stroke-miterlimit="10" stroke-linecap="round" stroke-linejoin="round"/>
<path d="M23.3414 27.8297C21.4978 28.0554 19.419 27.1686 18.0108 25.3695C17.4387 24.6416 17.0414 23.8405 16.8125 23.03L16.9778 20.7891H22.8265L23.0871 24.3682L23.1475 25.1501L23.3414 27.8297Z" fill="#3B4EFF"/>
<path d="M25.2905 15.6191C24.5556 16.7994 24.6268 18.1973 25.4492 18.7418C26.2715 19.2863 27.534 18.7707 28.2689 17.5905C29.0038 16.4103 28.9326 15.0123 28.1103 14.4682C27.2877 13.9233 26.0254 14.4389 25.2905 15.6191Z" fill="#F5F5FF" stroke="#3B4EFF" stroke-width="0.158931" stroke-miterlimit="10" stroke-linecap="round" stroke-linejoin="round"/>
<path d="M27.4915 15.0342C27.8478 15.1734 28.1183 15.5116 28.1761 15.8895C28.234 16.2675 28.0763 16.6712 27.7778 16.9102" stroke="#3B4EFF" stroke-width="0.158931" stroke-miterlimit="10" stroke-linecap="round" stroke-linejoin="round"/>
<path d="M14.4176 15.6191C15.1525 16.7994 15.0813 18.1973 14.259 18.7418C13.4367 19.2863 12.1741 18.7707 11.4392 17.5905C10.7043 16.4103 10.7755 15.0123 11.5978 14.4682C12.4201 13.9233 13.6827 14.4389 14.4176 15.6191Z" fill="#F5F5FF" stroke="#3B4EFF" stroke-width="0.158931" stroke-miterlimit="10" stroke-linecap="round" stroke-linejoin="round"/>
<path d="M12.2168 15.0342C11.8605 15.1734 11.5899 15.5116 11.5321 15.8895C11.4742 16.2675 11.6319 16.6712 11.9304 16.9102" stroke="#3B4EFF" stroke-width="0.158931" stroke-miterlimit="10" stroke-linecap="round" stroke-linejoin="round"/>
<path d="M27.1925 13.4117C27.1925 13.5204 27.1925 13.6253 27.1845 13.7245C27.1725 14.0334 27.1445 14.3424 27.1003 14.644L27.0542 15.0766L27.032 15.3109L26.998 15.6498C26.9779 15.8557 26.9639 16.0582 26.95 16.2604C26.942 16.3897 26.9338 16.5169 26.9258 16.6443C26.8937 17.1574 26.8635 17.6631 26.7875 18.1688C26.7875 18.1764 26.7834 18.1857 26.7834 18.1933C26.7672 18.2886 26.7513 18.3862 26.7313 18.4816C26.7112 18.5865 26.6912 18.6895 26.661 18.7905C26.6248 18.9422 26.5806 19.0957 26.5285 19.2511C26.5123 19.3074 26.4922 19.3598 26.4703 19.4161C26.4303 19.5286 26.3819 19.6408 26.3339 19.7569C26.1995 20.0528 26.0409 20.343 25.8584 20.6316C25.0981 21.8341 23.9347 22.9333 22.7672 23.6637C22.7631 23.6713 22.7551 23.6748 22.751 23.6748C22.6086 23.7667 22.4662 23.8509 22.3257 23.9275C20.9036 24.7142 19.2205 24.7571 17.7463 24.0791C17.4414 23.9386 17.1464 23.7794 16.8616 23.5903C16.8575 23.5903 16.8537 23.5903 16.8496 23.583C15.7202 22.8525 14.7514 21.7943 14.0212 20.6313C13.9691 20.5509 13.9208 20.4701 13.8709 20.3859C13.8467 20.343 13.8229 20.2979 13.7987 20.2549C13.7587 20.1818 13.7186 20.1052 13.6763 20.0302C13.56 19.83 13.4577 19.6202 13.3655 19.4158C13.3413 19.3595 13.3133 19.3033 13.2911 19.2435C12.9481 18.425 12.8257 17.5112 12.7456 16.6122C12.7317 16.4717 12.7196 16.3293 12.7075 16.1888C12.6935 16.0315 12.6792 15.8742 12.6674 15.7187L12.6274 15.2972C12.6172 15.2505 12.6093 15.2054 12.6013 15.1606C12.5892 15.11 12.5813 15.0595 12.5753 15.0089C12.539 14.816 12.5111 14.6231 12.4891 14.4228C12.4532 14.0989 12.4329 13.7578 12.4329 13.4114C12.4329 13.3834 12.4329 13.3513 12.437 13.3233C12.437 13.1059 12.4468 12.8926 12.465 12.6809C12.4809 12.501 12.505 12.3233 12.5352 12.1491C12.7037 11.0818 13.0807 10.0891 13.6264 9.21812C13.7628 8.99912 13.909 8.78933 14.0657 8.58685C15.6242 6.57096 18.2879 5.39805 21.011 5.8367C23.1893 6.18762 24.9576 7.52964 26.0208 9.25531C26.0529 9.30013 26.079 9.34718 26.1111 9.39772C26.5885 10.22 26.9296 11.1412 27.0879 12.1282C27.0879 12.1355 27.092 12.1412 27.092 12.1488C27.12 12.323 27.1423 12.501 27.1582 12.6806C27.1782 12.8923 27.1884 13.1056 27.1884 13.323C27.1925 13.3519 27.1925 13.3837 27.1925 13.4117Z" fill="#F5F5FF" stroke="#3B4EFF" stroke-width="0.161665" stroke-miterlimit="10" stroke-linecap="round" stroke-linejoin="round"/>
<path d="M20.7302 4.78295C21.5115 5.49942 21.7032 6.73209 21.173 7.63386C20.6428 8.53532 19.44 9.02324 18.3908 8.76228C18.7159 9.24956 18.4604 9.99685 18.1104 10.4682C17.7601 10.9396 17.0987 11.1793 16.5084 11.0487C17.0081 12.6049 15.9887 14.4291 14.5097 15.2425C14.9095 16.014 14.6956 17.2448 14.2738 18.0057C13.852 18.7667 13.0326 19.315 12.1384 19.4345C12.7296 20.0998 12.9391 21.1624 12.6266 21.9819C12.3145 22.8013 11.5192 23.4354 10.6181 23.5842C9.88254 23.7053 8.75985 23.5168 8.43945 22.8744C8.11904 22.232 8.32438 21.3906 8.90925 20.9485C8.57072 20.2587 8.36157 19.6131 8.31897 18.8525C8.26589 17.9094 8.4617 16.9345 9.00302 16.1434C9.54434 15.3522 10.4576 14.7689 11.4474 14.7206C10.5936 13.5089 10.3829 12.068 11.0049 10.7343C11.6273 9.40054 12.9998 8.41104 14.516 8.20379C14.5008 7.3694 14.8234 6.56521 15.5011 6.03629C16.1784 5.50768 17.1145 5.29376 17.9699 5.4724C18.1899 4.97208 18.9763 4.67743 19.5379 4.59001C20.0996 4.50292 20.7019 4.70921 21.077 5.11735" fill="#3B4EFF"/>
<path d="M21.3855 5.15673C20.8124 6.15959 20.8448 7.47935 21.4672 8.45265C22.0896 9.42594 23.2736 10.0095 24.4246 9.91005C23.889 10.5067 23.9815 11.4946 24.4802 12.1224C24.979 12.7505 25.9478 12.945 26.6503 12.5582C26.2911 12.8598 25.924 13.3153 25.8903 13.7832C25.8563 14.2511 26.1245 14.754 26.5718 14.896C27.019 15.0381 27.5807 14.7015 27.5845 14.2323C27.5947 12.9123 28.4036 11.6713 27.9589 10.4282C27.5146 9.185 26.5146 8.15227 25.2867 7.66785C24.849 5.96855 23.1401 5.13321 21.3855 5.15673Z" fill="#3B4EFF"/>
<path d="M16.3603 18.9028C17.7916 18.9028 18.9519 17.7425 18.9519 16.3113C18.9519 14.88 17.7916 13.7197 16.3603 13.7197C14.9291 13.7197 13.7688 14.88 13.7688 16.3113C13.7688 17.7425 14.9291 18.9028 16.3603 18.9028Z" stroke="#3B4EFF" stroke-width="0.158931" stroke-miterlimit="10" stroke-linecap="round" stroke-linejoin="round"/>
<path d="M23.4946 18.9028C24.9259 18.9028 26.0861 17.7425 26.0861 16.3113C26.0861 14.88 24.9259 13.7197 23.4946 13.7197C22.0633 13.7197 20.9031 14.88 20.9031 16.3113C20.9031 17.7425 22.0633 18.9028 23.4946 18.9028Z" stroke="#3B4EFF" stroke-width="0.158931" stroke-miterlimit="10" stroke-linecap="round" stroke-linejoin="round"/>
<path d="M18.9529 16.0054C19.2393 15.8385 19.5721 15.7432 19.9271 15.7432C20.2873 15.7432 20.6245 15.8414 20.9135 16.0124" stroke="#3B4EFF" stroke-width="0.158931" stroke-miterlimit="10" stroke-linecap="round" stroke-linejoin="round"/>
<path d="M13.7686 16.3111L12.303 14.3594" stroke="#3B4EFF" stroke-width="0.158931" stroke-miterlimit="10" stroke-linecap="round" stroke-linejoin="round"/>
<path d="M26.0383 16.3111L27.5043 14.3594" stroke="#3B4EFF" stroke-width="0.158931" stroke-miterlimit="10" stroke-linecap="round" stroke-linejoin="round"/>
<path d="M21.1489 13.6826C21.299 13.3176 21.5968 13.0491 21.9271 12.8634C22.2611 12.6797 22.6397 12.5796 23.0227 12.5669C23.4057 12.5538 23.7891 12.6304 24.1337 12.7906C24.475 12.9531 24.7891 13.1988 24.968 13.5506L23.9471 13.523C23.6378 13.5173 23.3438 13.5185 23.0526 13.5271C22.7614 13.5363 22.4687 13.5529 22.1613 13.5789C21.8517 13.6037 21.5364 13.639 21.1489 13.6826Z" fill="#3B4EFF"/>
<path d="M18.6585 13.6826C18.2707 13.6391 17.9557 13.6038 17.6458 13.579C17.3387 13.5529 17.046 13.5361 16.7548 13.5272C16.4633 13.5189 16.1696 13.5173 15.8603 13.523L14.8394 13.5507C15.0183 13.1988 15.3324 12.9531 15.6737 12.7907C16.0183 12.6302 16.4017 12.5536 16.7847 12.5669C17.1677 12.5796 17.5463 12.6798 17.8803 12.8635C18.2106 13.0491 18.5084 13.3177 18.6585 13.6826Z" fill="#3B4EFF"/>
<path d="M21.3272 16.2558C21.3962 16.1026 21.4731 15.9542 21.5459 15.8032L21.5519 15.794C21.7334 15.5213 21.961 15.2578 22.2652 15.0855C22.5637 14.9081 22.9229 14.8185 23.2713 14.8401C23.6174 14.8573 23.9585 14.9612 24.2525 15.1401C24.3994 15.2285 24.5332 15.3344 24.6568 15.4488C24.7798 15.561 24.8905 15.6977 24.9359 15.8636L24.9365 15.8665C24.9477 15.9071 24.9238 15.9488 24.8831 15.9599C24.8657 15.9647 24.8479 15.9628 24.8326 15.9561C24.6689 15.8843 24.5624 15.7895 24.4445 15.6964C24.3275 15.6052 24.2026 15.526 24.0729 15.4596C23.8164 15.3248 23.5341 15.2469 23.2487 15.2244C22.9648 15.2015 22.6813 15.2524 22.4235 15.3776C22.1673 15.5054 21.9359 15.6999 21.7376 15.9313L21.7436 15.9224C21.6441 16.0572 21.5491 16.1948 21.4458 16.3277C21.4223 16.3582 21.3784 16.3636 21.3479 16.3401C21.3221 16.3194 21.3142 16.2845 21.3272 16.2558Z" fill="#3B4EFF"/>
<path d="M22.4986 15.6675C22.5218 15.3455 22.8015 15.1033 23.1235 15.1265C23.4455 15.1497 23.6877 15.4295 23.6645 15.7515C23.6413 16.0735 23.3616 16.3157 23.0396 16.2925C22.7176 16.2693 22.4754 15.9895 22.4986 15.6675Z" fill="#3B4EFF"/>
<path d="M24.261 16.2012C24.4759 16.1532 24.6796 16.0556 24.8516 15.918" stroke="#3B4EFF" stroke-width="0.158931" stroke-miterlimit="10" stroke-linecap="round" stroke-linejoin="round"/>
<path d="M18.3611 16.3274C18.2581 16.1945 18.1628 16.0572 18.0633 15.9221L18.0693 15.931C17.871 15.6999 17.6396 15.5054 17.3834 15.3773C17.1256 15.252 16.8424 15.2009 16.5582 15.2241C16.2728 15.2469 15.9905 15.3245 15.734 15.4593C15.6046 15.5257 15.4797 15.6049 15.3624 15.6961C15.2442 15.7892 15.1377 15.8843 14.9743 15.9558C14.9358 15.9726 14.891 15.9551 14.8742 15.9167C14.8669 15.9002 14.8659 15.8824 14.8704 15.8661L14.8713 15.8633C14.9168 15.6974 15.0271 15.5607 15.1504 15.4485C15.274 15.3344 15.4079 15.2285 15.5547 15.1398C15.8484 14.9609 16.1898 14.8573 16.536 14.8401C16.8843 14.8185 17.2435 14.9081 17.542 15.0855C17.8462 15.2578 18.0738 15.5213 18.2553 15.794L18.2613 15.8032C18.3341 15.9542 18.411 16.1026 18.48 16.2558C18.4959 16.2911 18.4803 16.3321 18.445 16.348C18.4148 16.3617 18.3805 16.3522 18.3611 16.3274Z" fill="#3B4EFF"/>
<path d="M17.3091 15.6675C17.2859 15.3455 17.0061 15.1033 16.6841 15.1265C16.3621 15.1497 16.1199 15.4295 16.1431 15.7515C16.1663 16.0735 16.4461 16.3157 16.7681 16.2925C17.09 16.2693 17.3323 15.9895 17.3091 15.6675Z" fill="#3B4EFF"/>
<path d="M15.5462 16.2012C15.3313 16.1532 15.1275 16.0556 14.9556 15.918" stroke="#3B4EFF" stroke-width="0.158931" stroke-miterlimit="10" stroke-linecap="round" stroke-linejoin="round"/>
<path d="M18.8906 18.8719C19.1338 18.5591 19.5149 18.3675 19.9011 18.3643C20.2873 18.3611 20.6703 18.5461 20.9164 18.8551" stroke="#3B4EFF" stroke-width="0.147425" stroke-miterlimit="10" stroke-linecap="round" stroke-linejoin="round"/>
<path d="M19.9652 21.0854C20.2256 21.0838 20.4859 21.0673 20.7443 21.0358C20.8235 21.0263 21.5971 20.9198 21.5917 20.8711C21.5917 20.8711 21.1934 20.565 21.0552 20.4474L20.9938 20.3924C20.8457 20.2599 20.6925 20.1226 20.4996 20.0536C20.3111 19.9887 20.0587 20.0174 19.9131 20.1826C19.7716 20.0132 19.5205 19.9779 19.3292 20.038C19.1356 20.1016 18.9789 20.2348 18.827 20.3632L18.765 20.4156C18.6232 20.5291 18.2163 20.8254 18.2163 20.8254C18.2106 20.8886 18.8832 21.005 18.9605 21.0161C19.244 21.0571 19.5301 21.08 19.8168 21.0844C19.8657 21.0854 19.9153 21.0857 19.9652 21.0854Z" fill="#3B4EFF"/>
<path d="M18.9695 21.5908C19.5559 21.9386 20.3274 21.9497 20.9237 21.6188L18.9695 21.5908Z" fill="#F5F5FF"/>
<path d="M18.9695 21.5908C19.5559 21.9386 20.3274 21.9497 20.9237 21.6188" stroke="#3B4EFF" stroke-width="0.161665" stroke-miterlimit="10" stroke-linecap="round" stroke-linejoin="round"/>
<path d="M7.18643 49.998L9.80561 43.7711L10.2379 42.738L10.9531 41.0374L11.4267 39.9122L12.2309 37.9923L12.9238 36.3458C13.8838 34.0604 12.9715 31.5175 10.9436 30.8054C10.5907 30.6815 10.2252 30.6211 9.866 30.6211C9.54496 30.6211 9.2271 30.6688 8.91559 30.7578C7.66004 31.1106 6.54117 32.1564 6.02941 33.6154L4.51638 37.9383L3.76622 40.0807L0.326954 49.9058C0.317418 49.9376 0.304702 49.9662 0.295166 49.998" fill="#F5F5FF"/>
<path d="M7.18643 49.998L9.80561 43.7711L10.2379 42.738L10.9531 41.0374L11.4267 39.9122L12.2309 37.9923L12.9238 36.3458C13.8838 34.0604 12.9715 31.5175 10.9436 30.8054C10.5907 30.6815 10.2252 30.6211 9.866 30.6211C9.54496 30.6211 9.2271 30.6688 8.91559 30.7578C7.66004 31.1106 6.54117 32.1564 6.02941 33.6154L4.51638 37.9383L3.76622 40.0807L0.326954 49.9058C0.317418 49.9376 0.304702 49.9662 0.295166 49.998" stroke="#3B4EFF" stroke-width="0.158931" stroke-miterlimit="10" stroke-linecap="round" stroke-linejoin="round"/>
<path d="M-0.329834 44.6838C0.147278 44.0814 2.40855 44.4606 4.87707 45.5719C7.45907 46.7378 9.28995 48.2673 8.96128 48.9911C8.95334 49.0067 8.94571 49.0185 8.93395 49.034L8.96128 49.0458L14.5414 35.7611C15.6602 33.1361 14.4514 30.1431 11.9085 29.2554C11.4273 29.0872 10.9384 29.0049 10.4492 29.0049C8.70826 29.0049 7.0379 30.0376 6.18094 31.7121L-0.329834 44.6838Z" fill="#3B4EFF"/>
<path d="M3.99304 40.0798C4.17122 40.0798 4.31567 39.9354 4.31567 39.7572C4.31567 39.579 4.17122 39.4346 3.99304 39.4346C3.81486 39.4346 3.67041 39.579 3.67041 39.7572C3.67041 39.9354 3.81486 40.0798 3.99304 40.0798Z" fill="#F5F5FF"/>
<path d="M6.42406 37.5655C6.42406 37.7795 6.25083 37.9527 6.03723 37.9527C5.82362 37.9527 5.65039 37.7795 5.65039 37.5655C5.65039 37.3519 5.82362 37.1787 6.03723 37.1787C6.25083 37.1787 6.42406 37.3519 6.42406 37.5655Z" fill="#F5F5FF"/>
<path d="M32.6927 49.998L30.0735 43.7711L29.6412 42.738L28.926 41.0374L28.4524 39.9122L27.6482 37.9923L26.9553 36.3458C25.9953 34.0604 26.9076 31.5175 28.9356 30.8054C29.2884 30.6815 29.6539 30.6211 30.0131 30.6211C30.3341 30.6211 30.652 30.6688 30.9635 30.7578C32.2191 31.1106 33.3379 32.1564 33.8497 33.6154L35.3627 37.9383L36.1129 40.0807L39.5522 49.9058C39.5617 49.9376 39.5744 49.9662 39.5839 49.998" fill="#F5F5FF"/>
<path d="M32.6927 49.998L30.0735 43.7711L29.6412 42.738L28.926 41.0374L28.4524 39.9122L27.6482 37.9923L26.9553 36.3458C25.9953 34.0604 26.9076 31.5175 28.9356 30.8054C29.2884 30.6815 29.6539 30.6211 30.0131 30.6211C30.3341 30.6211 30.652 30.6688 30.9635 30.7578C32.2191 31.1106 33.3379 32.1564 33.8497 33.6154L35.3627 37.9383L36.1129 40.0807L39.5522 49.9058C39.5617 49.9376 39.5744 49.9662 39.5839 49.998" stroke="#3B4EFF" stroke-width="0.158931" stroke-miterlimit="10" stroke-linecap="round" stroke-linejoin="round"/>
<path d="M40.2087 44.6838C39.7316 44.0814 37.4703 44.4606 35.0018 45.5719C32.4198 46.7378 30.5889 48.2673 30.9176 48.9911C30.9256 49.0067 30.9332 49.0185 30.9449 49.034L30.9176 49.0458L25.3375 35.7611C24.2187 33.1361 25.4275 30.1431 27.9704 29.2554C28.4516 29.0872 28.9405 29.0049 29.4297 29.0049C31.1706 29.0049 32.841 30.0376 33.698 31.7121L40.2087 44.6838Z" fill="#3B4EFF"/>
<path d="M32.4672 32.5041C32.4672 32.6789 32.3254 32.8207 32.1506 32.8207C31.9758 32.8207 31.834 32.6789 31.834 32.5041C31.834 32.3293 31.9758 32.1875 32.1506 32.1875C32.3254 32.1872 32.4672 32.3289 32.4672 32.5041Z" fill="#F5F5FF"/>
<path d="M35.8859 40.0798C36.0641 40.0798 36.2085 39.9354 36.2085 39.7572C36.2085 39.579 36.0641 39.4346 35.8859 39.4346C35.7077 39.4346 35.5632 39.579 35.5632 39.7572C35.5632 39.9354 35.7077 40.0798 35.8859 40.0798Z" fill="#F5F5FF"/>
<path d="M33.5225 37.4298C33.5225 37.6434 33.3493 37.8166 33.1354 37.8166C32.9218 37.8166 32.7485 37.6434 32.7485 37.4298C32.7485 37.2162 32.9218 37.043 33.1354 37.043C33.3493 37.043 33.5225 37.2162 33.5225 37.4298Z" fill="#F5F5FF"/>
<path d="M31.6089 34.8289L30.7952 38.7196C30.9573 39.0756 31.0845 39.4507 31.1703 39.8416C31.2593 40.2485 31.307 40.6681 31.307 41.1004C31.307 41.6153 31.2402 42.1175 31.1099 42.5943C31.0018 43.0075 30.8492 43.4017 30.6553 43.7704C30.3375 44.3807 29.9179 44.9306 29.4125 45.3915L28.4557 49.9973H11.2371L10.2804 45.2612C9.93389 44.9243 9.62874 44.5396 9.37445 44.1232C9.07248 43.6274 8.84044 43.0838 8.6974 42.5053C8.58615 42.0571 8.52576 41.5867 8.52576 41.1004C8.52576 40.6077 8.58933 40.1277 8.70376 39.67C8.77687 39.3807 8.86905 39.101 8.9803 38.8308L8.17293 34.8289C7.82646 33.3541 7.89321 31.911 8.41451 30.8239C8.84362 29.9212 9.58742 29.2664 10.6681 29.0343C10.9415 28.9771 11.2403 28.9453 11.5613 28.9453H28.6433C28.9611 28.9453 29.2536 28.9771 29.5206 29.0343C30.5441 29.2568 31.1957 29.8894 31.5454 30.7571C31.9935 31.8538 31.9618 33.3255 31.6089 34.8289Z" fill="#3B4EFF"/>
<path d="M31.6345 34.8271C31.5149 35.4788 31.4046 36.1326 31.2759 36.7823C31.1507 37.433 31.0273 38.0837 30.8926 38.7324L30.8878 38.6889C31.1421 39.2477 31.3121 39.8472 31.3783 40.459C31.4425 41.0712 31.4066 41.6917 31.2807 42.2928C31.1561 42.8948 30.9199 43.4698 30.6109 43.9972C30.301 44.5255 29.8954 44.9914 29.4399 45.3916C29.8764 44.9686 30.24 44.4784 30.5318 43.9517C30.8236 43.4241 31.0238 42.8513 31.1453 42.2645C31.3814 41.0884 31.2451 39.8433 30.7591 38.747C30.7527 38.733 30.7514 38.7175 30.7543 38.7035C30.89 38.055 31.0369 37.4091 31.1825 36.7626C31.3233 36.1158 31.4838 35.4724 31.6345 34.8271Z" fill="white"/>
<path d="M10.3066 45.2616C9.88384 44.8643 9.50908 44.4085 9.22142 43.8983C8.93566 43.3885 8.71919 42.8357 8.60063 42.26C8.48429 41.6844 8.44838 41.0916 8.50527 40.5058C8.55963 39.9196 8.71315 39.3446 8.94138 38.8036L8.93725 38.8456C8.67088 37.5102 8.4293 36.1698 8.20044 34.8271C8.51004 36.1539 8.80661 37.4829 9.07838 38.8173C9.08124 38.8316 9.07933 38.8465 9.07425 38.8592C8.64005 39.9199 8.51513 41.1062 8.73541 42.233C8.84634 42.7956 9.03134 43.3452 9.29993 43.8557C9.56852 44.3652 9.90355 44.843 10.3066 45.2616Z" fill="white"/>
<path d="M23.327 28.7453L25.0577 29.005C24.2885 31.0011 22.3146 32.5428 20.1595 32.6349C17.8454 32.7367 15.595 31.1537 14.7781 29.005L16.4605 28.6025" fill="#F5F5FF"/>
<path d="M23.327 28.7453L25.0577 29.005C24.2885 31.0011 22.3146 32.5428 20.1595 32.6349C17.8454 32.7367 15.595 31.1537 14.7781 29.005L16.4605 28.6025" stroke="#3B4EFF" stroke-width="0.158931" stroke-miterlimit="10" stroke-linecap="round" stroke-linejoin="round"/>
<path d="M12.1995 37.0773C12.1995 37.2912 12.0262 37.4644 11.8126 37.4644C11.599 37.4644 11.4258 37.2912 11.4258 37.0773C11.4258 36.8637 11.599 36.6904 11.8126 36.6904C12.0262 36.6904 12.1995 36.8637 12.1995 37.0773Z" fill="#F5F5FF"/>
<path d="M27.3277 40.3488C27.3277 40.6209 27.1071 40.8415 26.835 40.8415C26.5629 40.8415 26.3423 40.6209 26.3423 40.3488C26.3423 40.0767 26.5629 39.8564 26.835 39.8564C27.1071 39.8561 27.3277 40.0767 27.3277 40.3488Z" fill="#F5F5FF"/>
<path d="M20.608 39.9264C21.1715 39.9264 21.6283 39.4696 21.6283 38.9061C21.6283 38.3426 21.1715 37.8857 20.608 37.8857C20.0445 37.8857 19.5876 38.3426 19.5876 38.9061C19.5876 39.4696 20.0445 39.9264 20.608 39.9264Z" fill="#F5F5FF"/>
<path d="M29.1571 31.379C29.1571 31.5926 28.9838 31.7659 28.7699 31.7659C28.5563 31.7659 28.3831 31.5926 28.3831 31.379C28.3831 31.1654 28.5563 30.9922 28.7699 30.9922C28.9838 30.9919 29.1571 31.1651 29.1571 31.379Z" fill="#F5F5FF"/>
<path d="M12.1993 31.8705C12.1993 32.2787 11.8685 32.6093 11.4606 32.6093C11.0525 32.6093 10.7219 32.2784 10.7219 31.8705C10.7219 31.4624 11.0528 31.1318 11.4606 31.1318C11.8685 31.1318 12.1993 31.4627 12.1993 31.8705Z" fill="#F5F5FF"/>
<path d="M26.2019 35.1428C26.2019 35.4148 25.9813 35.6354 25.7095 35.6354C25.4377 35.6354 25.2168 35.4148 25.2168 35.1428C25.2168 34.8707 25.4374 34.6504 25.7095 34.6504C25.9816 34.6504 26.2019 34.8707 26.2019 35.1428Z" fill="#F5F5FF"/>
<path d="M17.758 35.9159C18.0689 35.9159 18.3209 35.6639 18.3209 35.353C18.3209 35.0421 18.0689 34.79 17.758 34.79C17.4471 34.79 17.1951 35.0421 17.1951 35.353C17.1951 35.6639 17.4471 35.9159 17.758 35.9159Z" fill="#F5F5FF"/>
</g>
<defs>
<clipPath id="clip0_158_8267">
<rect width="40" height="40" rx="20" fill="white"/>
</clipPath>
</defs>
</svg>
