<svg width="40" height="40" viewBox="0 0 40 40" fill="none" xmlns="http://www.w3.org/2000/svg">
<g clip-path="url(#clip0_158_6542)">
<rect width="40" height="40" rx="20" fill="#E1D0FF"/>
<path d="M32.5996 52.4282L31.3056 49.3493L30.2696 46.8822L29.3962 44.801L27.4776 40.2336C26.4672 37.8303 27.4234 35.153 29.5589 34.4041C29.9318 34.2734 30.3143 34.2129 30.6935 34.2129C30.7286 34.2129 30.7635 34.2129 30.7986 34.2162C32.4593 34.2641 34.072 35.4848 34.7285 37.3621L36.287 41.8115L36.985 43.8067L40.0001 52.4284" fill="#F5F5FF"/>
<path d="M32.5996 52.4282L31.3056 49.3493L30.2696 46.8823L29.3962 44.801L27.4776 40.2336C26.4672 37.8303 27.4234 35.153 29.5589 34.4041C29.9318 34.2734 30.3143 34.2129 30.6935 34.2129C30.7286 34.2129 30.7635 34.2129 30.7986 34.2162C32.4593 34.2641 34.072 35.4848 34.7285 37.3621L36.287 41.8115L36.985 43.8067L40.0001 52.4284" stroke="#6714FF" stroke-width="0.159365" stroke-miterlimit="10" stroke-linecap="round" stroke-linejoin="round"/>
<path d="M37.9643 42.0641C37.4621 41.4302 35.0832 41.8294 32.4863 42.9982C29.7699 44.2246 27.8439 45.834 28.1894 46.5954C28.1977 46.6118 28.2058 46.6243 28.2183 46.6407L28.1894 46.6532L25.1892 39.6194C24.012 36.8578 25.2839 33.7092 27.9591 32.775C28.4652 32.5981 28.9797 32.5117 29.4944 32.5117C31.3258 32.5117 33.0832 33.5984 33.9846 35.3597L37.9643 42.0641Z" fill="#6714FF"/>
<path d="M0 52.4275L3.01513 43.809L3.71306 41.8105L5.27156 37.3611C5.94089 35.4454 7.60782 34.2119 9.30334 34.2119H9.32568C9.69862 34.2152 10.0716 34.2757 10.438 34.4032C12.5734 35.152 13.5329 37.8296 12.5225 40.2326L10.6039 44.8V44.8033L9.7305 46.8813L8.79993 49.0963L7.40079 52.4272" fill="#F5F5FF"/>
<path d="M0 52.4275L3.01513 43.809L3.71306 41.8105L5.27156 37.3611C5.94089 35.4454 7.60782 34.2119 9.30334 34.2119H9.32568C9.69862 34.2152 10.0716 34.2757 10.438 34.4032C12.5734 35.152 13.5329 37.8296 12.5225 40.2326L10.6039 44.8V44.8033L9.7305 46.8813L8.79993 49.0963L7.40079 52.4272" stroke="#6714FF" stroke-width="0.159365" stroke-miterlimit="10" stroke-linecap="round" stroke-linejoin="round"/>
<path d="M2.03564 42.0641C2.53787 41.4302 4.91672 41.8294 7.51363 42.9982C10.23 44.2246 12.1561 45.834 11.8105 46.5954C11.8022 46.6118 11.7941 46.6243 11.7816 46.6407L11.8105 46.6532L14.8108 39.6194C15.988 36.8578 14.716 33.7092 12.0408 32.775C11.5347 32.5981 11.02 32.5117 10.5055 32.5117C8.67416 32.5117 6.91668 33.5984 6.0153 35.3597L2.03564 42.0641Z" fill="#6714FF"/>
<path d="M24.8045 18.4841C24.0678 19.6676 24.139 21.0694 24.9636 21.6151C25.7881 22.1608 27.0541 21.6443 27.791 20.4608C28.528 19.2773 28.4565 17.8758 27.632 17.3298C26.8071 16.7841 25.5415 17.3006 24.8045 18.4841Z" fill="#F5F5FF" stroke="#6714FF" stroke-width="0.159365" stroke-miterlimit="10" stroke-linecap="round" stroke-linejoin="round"/>
<path d="M27.0115 17.8994C27.3686 18.0388 27.64 18.3781 27.6978 18.757C27.7556 19.1359 27.5977 19.5407 27.2983 19.7805" stroke="#6714FF" stroke-width="0.159365" stroke-miterlimit="10" stroke-linecap="round" stroke-linejoin="round"/>
<path d="M14.8577 18.4841C15.5943 19.6676 15.5231 21.0694 14.6986 21.6151C13.8741 22.1608 12.6081 21.6443 11.8712 20.4608C11.1345 19.2773 11.2057 17.8758 12.0302 17.3298C12.855 16.7841 14.121 17.3006 14.8577 18.4841Z" fill="#F5F5FF" stroke="#6714FF" stroke-width="0.159365" stroke-miterlimit="10" stroke-linecap="round" stroke-linejoin="round"/>
<path d="M12.6507 17.8994C12.2936 18.0388 12.0222 18.3781 11.9644 18.757C11.9066 19.1359 12.0645 19.5407 12.3639 19.7805" stroke="#6714FF" stroke-width="0.159365" stroke-miterlimit="10" stroke-linecap="round" stroke-linejoin="round"/>
<path d="M23.4871 31.747C23.5536 33.7482 21.9522 35.4029 19.951 35.4029C17.9898 35.4029 16.4116 33.8113 16.4116 31.8668C16.4116 31.8269 16.4116 31.787 16.4149 31.747L16.8078 26.4731L16.9076 25.138L17.1042 22.5176H22.7946L23.1076 26.6596L23.3307 29.6729L23.4871 31.747Z" fill="#F5F5FF" stroke="#6714FF" stroke-width="0.166484" stroke-miterlimit="10" stroke-linecap="round" stroke-linejoin="round"/>
<path d="M23.3308 29.6729C21.4628 29.8061 19.4054 28.8773 17.9934 27.0724C17.5174 26.4665 17.1543 25.8106 16.908 25.138L17.1046 22.5176H22.7949L23.108 26.6596L23.3308 29.6729Z" fill="#6714FF"/>
<path d="M26.0627 21.7389C25.8429 22.3094 25.5209 22.9021 25.1352 23.4791C24.3926 24.5852 23.4107 25.6242 22.4292 26.284C21.3518 27.0075 19.9399 27.2434 18.7129 26.8225C17.7472 26.4943 16.9504 25.8026 16.2396 25.0728C15.3504 24.1613 14.5375 23.1413 14.0818 21.9492C13.7312 21.0249 13.5781 19.9955 13.5367 18.9436C13.5176 18.3923 13.5271 17.8376 13.5528 17.283C13.5974 16.3715 13.6835 15.4695 13.7631 14.6342C13.9448 12.6581 15.1431 10.7809 16.8515 9.77346C18.5279 8.78867 20.6667 8.64212 22.4611 9.39098C24.2555 10.1398 25.6579 11.7654 26.1328 13.6491C26.4515 14.9145 26.3687 16.2246 26.3717 17.512C26.3717 17.5916 26.3717 17.6681 26.3749 17.748C26.3812 18.1337 26.4005 18.5192 26.4068 18.9082C26.4357 19.8712 26.4166 20.8307 26.0627 21.7389Z" fill="#F5F5FF" stroke="#6714FF" stroke-width="0.159365" stroke-miterlimit="10" stroke-linecap="round" stroke-linejoin="round"/>
<path d="M18.9765 15.3907C19.5243 15.4163 20.0897 15.3383 20.5684 15.0741C21.0471 14.8098 21.4275 14.3401 21.4927 13.8012C21.854 14.5135 22.5382 15.058 23.3187 15.2543C24.0988 15.4506 24.9615 15.2948 25.6207 14.839C26.4404 14.2722 26.912 13.1676 26.5557 12.2409C26.1628 11.2186 24.9868 10.7393 23.9076 10.5049C21.8049 10.0483 19.5949 10.1066 17.5157 10.6464C16.8744 10.8129 15.0895 11.1403 14.8455 11.8361C14.5953 12.5498 15.6164 13.6925 16.0826 14.1292C16.8634 14.8608 17.8973 15.3401 18.9765 15.3907Z" fill="#6714FF"/>
<path d="M21.6032 16.1229C21.8805 15.9563 22.1838 15.842 22.5034 15.7565C22.8233 15.6742 23.1632 15.6272 23.5138 15.6397C23.8626 15.651 24.2254 15.7311 24.5436 15.8986C24.862 16.0633 25.125 16.3206 25.2641 16.6295C24.9424 16.5235 24.6529 16.4678 24.3762 16.4592C24.0994 16.4502 23.8349 16.4857 23.5665 16.5339C23.0288 16.6295 22.4825 16.8163 21.8677 16.8929C21.6398 16.9212 21.4319 16.7594 21.4036 16.5315C21.3825 16.3632 21.4668 16.2051 21.6032 16.1229Z" fill="#6714FF"/>
<path d="M18.7248 16.8929C18.11 16.8163 17.5639 16.6298 17.026 16.5339C16.7576 16.4857 16.4931 16.4499 16.2163 16.4592C15.9396 16.4678 15.6501 16.5235 15.3284 16.6295C15.4675 16.3206 15.7305 16.0636 16.0489 15.8986C16.3671 15.7311 16.7299 15.651 17.0787 15.6397C17.429 15.6272 17.7692 15.6742 18.0891 15.7565C18.4087 15.842 18.712 15.9563 18.9893 16.1229C19.1865 16.2405 19.2511 16.4958 19.1335 16.6933C19.0468 16.8387 18.8829 16.9116 18.7248 16.8929Z" fill="#6714FF"/>
<path d="M18.68 18.9561C18.5569 18.8572 18.439 18.752 18.3195 18.6504C18.2054 18.5563 18.089 18.4661 17.9567 18.4041C17.7032 18.2614 17.4143 18.1995 17.1307 18.1899C16.8456 18.1875 16.5623 18.2438 16.302 18.3603C16.1703 18.4163 16.0491 18.4917 15.9293 18.5754C15.8045 18.6704 15.6806 18.7669 15.5087 18.805C15.4694 18.8137 15.4304 18.789 15.4218 18.7496C15.4182 18.7341 15.42 18.7184 15.4259 18.7047C15.4959 18.5432 15.6142 18.4398 15.7313 18.335C15.859 18.2266 15.9952 18.1181 16.1501 18.0449C16.4527 17.8816 16.8048 17.8191 17.1459 17.8369C17.4869 17.8623 17.8233 17.9704 18.1033 18.1607C18.2453 18.2531 18.3654 18.3734 18.4777 18.4952C18.5778 18.618 18.6776 18.7389 18.7732 18.8652C18.7949 18.8941 18.7893 18.9352 18.7604 18.957C18.7363 18.9757 18.7029 18.9742 18.68 18.9561Z" fill="#6714FF"/>
<path d="M17.6555 18.4681C17.6117 18.1684 17.3332 17.9611 17.0332 18.0049C16.7336 18.0486 16.5263 18.3272 16.57 18.6271C16.6138 18.9268 16.8924 19.1341 17.1923 19.0903C17.492 19.0462 17.6993 18.7677 17.6555 18.4681Z" fill="#6714FF"/>
<path d="M18.6638 18.9219C18.4092 19.0815 18.1071 19.1721 17.7881 19.1843" stroke="#6714FF" stroke-width="0.149118" stroke-miterlimit="10" stroke-linecap="round" stroke-linejoin="round"/>
<path d="M18.6928 18.2544C18.3592 17.8576 17.859 17.605 17.3413 17.5723" stroke="#6714FF" stroke-width="0.149118" stroke-miterlimit="10" stroke-linecap="round" stroke-linejoin="round"/>
<path d="M21.4768 18.8651C21.5721 18.7388 21.6722 18.6182 21.772 18.4952C21.8843 18.3733 22.0043 18.253 22.1464 18.1607C22.4264 17.9703 22.7627 17.8622 23.1038 17.8369C23.4449 17.8193 23.7969 17.8815 24.0996 18.0448C24.2548 18.1181 24.3906 18.2265 24.5184 18.3349C24.6355 18.4395 24.7534 18.5428 24.8237 18.7046C24.8398 18.7415 24.8228 18.7844 24.7859 18.8005C24.7713 18.8067 24.7555 18.8079 24.7409 18.8047C24.569 18.7665 24.4451 18.67 24.3203 18.575C24.2006 18.4916 24.0793 18.4159 23.9477 18.3599C23.6873 18.2432 23.404 18.1872 23.119 18.1895C22.8357 18.1991 22.5465 18.261 22.293 18.4037C22.1607 18.4657 22.0442 18.5559 21.9301 18.6501C21.8107 18.7516 21.693 18.8568 21.57 18.9557C21.542 18.9783 21.5006 18.9739 21.478 18.9459C21.4589 18.922 21.4592 18.8887 21.4768 18.8651Z" fill="#6714FF"/>
<path d="M22.5945 18.4681C22.6382 18.1684 22.9168 17.9611 23.2167 18.0049C23.5164 18.0486 23.7237 18.3272 23.6799 18.6271C23.6361 18.9268 23.3576 19.1341 23.058 19.0903C22.758 19.0462 22.5507 18.7677 22.5945 18.4681Z" fill="#6714FF"/>
<path d="M21.5862 18.9219C21.8409 19.0815 22.1429 19.1721 22.4619 19.1843" stroke="#6714FF" stroke-width="0.149118" stroke-miterlimit="10" stroke-linecap="round" stroke-linejoin="round"/>
<path d="M21.5571 18.2544C21.8908 17.8576 22.3909 17.605 22.9086 17.5723" stroke="#6714FF" stroke-width="0.149118" stroke-miterlimit="10" stroke-linecap="round" stroke-linejoin="round"/>
<path d="M19.7502 23.0058C19.8465 23.0987 19.9796 23.1523 20.1131 23.152C20.2468 23.152 20.3797 23.0981 20.4759 23.0055C20.6263 22.8601 20.898 22.9492 21.105 22.9792C21.312 23.0093 21.5241 23.051 21.7285 23.0067C21.8747 22.9751 22.0082 22.8878 22.0901 22.7627" stroke="#6714FF" stroke-width="0.132735" stroke-miterlimit="10" stroke-linecap="round" stroke-linejoin="round"/>
<path d="M19.7503 23.0043C19.5999 22.8589 19.3282 22.948 19.1212 22.9781C18.9142 23.0082 18.7024 23.0499 18.4977 23.0055C18.3339 22.9701 18.1838 22.85 18.1355 22.6895" stroke="#6714FF" stroke-width="0.132735" stroke-miterlimit="10" stroke-linecap="round" stroke-linejoin="round"/>
<path d="M19.1541 23.5957C19.6858 23.7804 20.2717 23.8051 20.8168 23.6657" stroke="#6714FF" stroke-width="0.132735" stroke-miterlimit="10" stroke-linecap="round" stroke-linejoin="round"/>
<path d="M20.0789 25.3994V26.3863" stroke="#6714FF" stroke-width="0.159365" stroke-miterlimit="10" stroke-linecap="round" stroke-linejoin="round"/>
<path d="M20.1235 20.9728V18.8701" stroke="#6714FF" stroke-width="0.159365" stroke-miterlimit="10" stroke-linecap="round" stroke-linejoin="round"/>
<path d="M19.4187 21.3848L19.7735 21.6278C20.0031 21.7851 20.2531 21.7851 20.4827 21.6278L20.8375 21.3848" stroke="#6714FF" stroke-width="0.170714" stroke-miterlimit="10" stroke-linecap="round" stroke-linejoin="round"/>
<path d="M26.3719 17.5123C26.2092 17.4453 26.066 17.3339 25.9513 17.1999C25.76 16.98 25.6454 16.706 25.5497 16.4287C25.1226 15.2047 25.1035 13.7609 25.3299 12.4827C23.8798 12.505 22.4774 11.603 21.8367 10.2995C20.1635 11.3674 18.2318 11.8103 16.2527 11.7114C16.1794 13.8341 15.1562 15.8996 13.553 17.283C13.5977 16.3715 13.6837 15.4695 13.7633 14.6342C13.945 12.6581 15.1434 10.7809 16.8517 9.77346C18.5281 8.78867 20.6669 8.64212 22.4613 9.39098C24.2558 10.1398 25.6582 11.7654 26.133 13.6491C26.4517 14.9145 26.3689 16.2246 26.3719 17.5123Z" fill="#6714FF"/>
<path d="M13.0708 12.4403C13.5185 9.85679 15.973 6.68736 18.9316 6.29267C21.8901 5.89798 25.1134 8.3105 26.4032 10.6623C22.0614 12.0277 17.6581 12.8165 13.0708 12.4403Z" fill="#F5F5FF" stroke="#6714FF" stroke-width="0.171459" stroke-miterlimit="10" stroke-linecap="round" stroke-linejoin="round"/>
<path d="M27.0327 11.552C25.1447 12.986 22.6068 13.6321 20.1094 13.9335C17.6117 14.235 15.0732 14.2341 12.5838 14.5829C12.2633 14.1739 12.1283 13.7935 12.1998 13.3038C12.2713 12.8141 12.5549 12.3482 12.9835 12.0164C17.634 11.7349 22.2333 10.9908 26.5784 9.53418C26.7938 9.53716 27.4473 10.8773 27.0327 11.552Z" fill="#F5F5FF" stroke="#6714FF" stroke-width="0.14879" stroke-miterlimit="10" stroke-linecap="round" stroke-linejoin="round"/>
<path d="M13.8663 14.4079C13.6277 13.7945 13.6982 13.0695 14.0509 12.5137" stroke="#6714FF" stroke-width="0.159365" stroke-miterlimit="10" stroke-linecap="round" stroke-linejoin="round"/>
<path d="M25.0994 10.6182C25.4854 11.1079 25.7365 11.7027 25.819 12.3208" stroke="#6714FF" stroke-width="0.159365" stroke-miterlimit="10" stroke-linecap="round" stroke-linejoin="round"/>
<path d="M22.5627 11.4551C22.9244 12.0353 23.1469 12.7014 23.2062 13.3824" stroke="#6714FF" stroke-width="0.159365" stroke-miterlimit="10" stroke-linecap="round" stroke-linejoin="round"/>
<path d="M15.8368 12.4492C15.6849 13.0655 15.8189 13.7459 16.1931 14.2588" stroke="#6714FF" stroke-width="0.159365" stroke-miterlimit="10" stroke-linecap="round" stroke-linejoin="round"/>
<path d="M19.2378 12.1699C19.4529 12.7523 19.5643 13.3725 19.5652 13.9932" stroke="#6714FF" stroke-width="0.159365" stroke-miterlimit="10" stroke-linecap="round" stroke-linejoin="round"/>
<path d="M17.7579 12.6455C17.6986 13.1975 17.9092 13.7724 18.3114 14.1555C18.3206 14.1224 18.3301 14.0893 18.3394 14.0563" stroke="#6714FF" stroke-width="0.159365" stroke-miterlimit="10" stroke-linecap="round" stroke-linejoin="round"/>
<path d="M21.2661 12.2627C21.3912 12.7104 21.4121 13.187 21.3263 13.6437" stroke="#6714FF" stroke-width="0.159365" stroke-miterlimit="10" stroke-linecap="round" stroke-linejoin="round"/>
<path d="M31.4108 52.4273H8.68237L8.80004 49.0965L8.88314 46.6935L8.9883 43.7421L9.32609 34.2118L9.37703 32.7936L10.1101 32.5291L14.3716 30.9896L15.194 30.6932L15.6018 30.5434L16.6664 30.1609L16.9884 30.043H23.1399L23.2674 30.0906L24.4625 30.5211L24.8673 30.6676L25.6897 30.964L30.0754 32.5481L30.751 32.7936L30.7989 34.215L30.9807 39.5825L31.1177 43.6846L31.2166 46.6521V46.6679L31.3056 49.3485L31.4108 52.4273Z" fill="#6714FF"/>
</g>
<defs>
<clipPath id="clip0_158_6542">
<rect width="40" height="40" rx="20" fill="white"/>
</clipPath>
</defs>
</svg>
