<svg width="40" height="40" viewBox="0 0 40 40" fill="none" xmlns="http://www.w3.org/2000/svg">
<g clip-path="url(#clip0_158_7197)">
<rect width="40" height="40" rx="20" fill="#FFCE33"/>
<rect width="40" height="40" rx="20" fill="white" fill-opacity="0.7"/>
<path d="M10.5333 13.9997C10.277 13.2621 10.3307 12.4127 10.6777 11.7169C11.0247 11.0214 11.6596 10.49 12.3838 10.2892C12.4605 9.16043 13.4239 8.27964 14.5031 8.32021C14.5908 7.78822 15.0107 7.29769 15.4925 7.10644C15.9741 6.91518 16.5494 7.01036 16.9516 7.34752C17.0805 6.84715 17.4116 6.37304 17.8959 6.26801C18.3802 6.16299 18.9136 6.36498 19.2216 6.77017C19.4817 6.18566 20.0621 6.04782 20.6764 6.00396C21.2905 5.9598 21.9165 6.2886 22.2503 6.83074C22.6624 6.31307 23.3421 6.18656 23.943 6.42705C24.5439 6.66753 24.9649 7.33231 24.9428 8.00603C25.3298 7.6993 25.9478 7.79448 26.3807 8.02453C26.8136 8.25457 27.1019 8.75524 27.0944 9.26366C27.6342 9.2756 28.1187 9.59695 28.4242 10.063C28.7298 10.5291 28.8065 11.1512 28.6236 11.6835C29.166 11.7557 29.5631 12.4001 29.7424 12.9414C29.9218 13.4826 29.7845 14.1247 29.4017 14.5338C29.8463 14.8286 29.997 15.5256 30.0772 16.0704C30.1575 16.6152 30.0026 17.1935 29.6634 17.6151C30.0211 17.9606 30.0716 18.6988 30.0059 19.2039C29.9406 19.7091 29.6282 20.1718 29.1955 20.4049C29.527 20.7608 29.351 21.5267 29.1412 21.9731C28.9315 22.4192 28.4386 22.6996 27.9668 22.6409C28.1065 23.1117 27.7478 23.8227 27.3692 24.1154C26.9906 24.4084 26.4341 24.4189 26.0459 24.1402C25.9272 25.2934 24.5442 26.56 23.4444 26.4263C23.169 26.8962 22.5308 27.3316 22.0054 27.3635C21.4799 27.3954 20.9462 27.1433 20.6206 26.7098C20.4267 27.22 19.7091 27.7854 19.1852 27.7863C18.6609 27.7875 18.1525 27.4285 17.9568 26.9192C17.076 27.4437 15.5552 26.8518 15.133 25.8865C14.7463 26.2816 13.8771 26.4902 13.4185 26.1915C12.9599 25.8925 12.7362 25.2495 12.9033 24.7116C12.4733 24.7569 11.9347 24.5194 11.6391 24.1891C11.3437 23.8588 11.2055 23.3805 11.2768 22.9339C10.8672 22.8799 10.473 22.389 10.3256 21.985C10.1782 21.581 10.2603 21.095 10.5309 20.7683C10.1669 20.489 10.0034 19.8609 9.97831 19.3889C9.95355 18.9169 10.14 18.4374 10.4724 18.1178C9.82107 17.5017 9.72261 16.1904 10.3692 15.5689C10.109 15.411 10.0323 15.1846 10.0207 14.8701C10.0096 14.5556 10.2856 14.1778 10.5333 13.9997Z" fill="#C29C26"/>
<path d="M24.9967 19.092C24.2589 20.2774 24.3302 21.6815 25.1561 22.2281C25.9823 22.7748 27.2501 22.2574 27.9882 21.0719C28.7264 19.8865 28.6551 18.4824 27.8289 17.9358C27.0027 17.3888 25.7346 17.9065 24.9967 19.092Z" fill="#F5F5FF" stroke="#C29C26" stroke-width="0.159629" stroke-miterlimit="10" stroke-linecap="round" stroke-linejoin="round"/>
<path d="M27.207 18.5039C27.5648 18.6435 27.8366 18.9834 27.8945 19.3629C27.9524 19.7427 27.7942 20.1479 27.4944 20.3881" stroke="#C29C26" stroke-width="0.159629" stroke-miterlimit="10" stroke-linecap="round" stroke-linejoin="round"/>
<path d="M15.0335 19.092C15.7717 20.2774 15.7004 21.6815 14.8742 22.2281C14.048 22.7748 12.7802 22.2574 12.042 21.0719C11.3039 19.8865 11.3755 18.4824 12.2014 17.9358C13.0276 17.3888 14.2953 17.9065 15.0335 19.092Z" fill="#F5F5FF" stroke="#C29C26" stroke-width="0.159629" stroke-miterlimit="10" stroke-linecap="round" stroke-linejoin="round"/>
<path d="M12.8228 18.5039C12.4651 18.6435 12.1932 18.9834 12.1354 19.3629C12.0775 19.7427 12.2356 20.1479 12.5355 20.3881" stroke="#C29C26" stroke-width="0.159629" stroke-miterlimit="10" stroke-linecap="round" stroke-linejoin="round"/>
<path d="M23.5577 32.8121C23.6245 34.8166 22.0202 36.474 20.0157 36.474C18.0512 36.474 16.4705 34.8798 16.4705 32.9321C16.4705 32.8921 16.4705 32.8521 16.4737 32.8121L16.8673 27.5295L16.9672 26.1922L17.1639 23.5674H22.8637L23.1773 27.7162L23.4007 30.7346L23.5577 32.8121Z" fill="#F5F5FF" stroke="#C29C26" stroke-width="0.16676" stroke-miterlimit="10" stroke-linecap="round" stroke-linejoin="round"/>
<path d="M23.4008 30.7336C21.5297 30.867 19.4688 29.9366 18.0546 28.1288C17.5778 27.5219 17.214 26.8649 16.9673 26.1912L17.1639 23.5664H22.8637L23.1773 27.7153L23.4008 30.7336Z" fill="#C29C26"/>
<path d="M26.1171 22.6044C25.8951 23.1734 25.5744 23.769 25.1886 24.3454C24.445 25.4554 23.4601 26.497 22.4767 27.1576C21.3983 27.8799 19.985 28.1162 18.7551 27.6967C17.7878 27.3673 16.9893 26.6748 16.2756 25.9417C15.3859 25.029 14.5734 24.0071 14.1172 22.8157C13.763 21.8889 13.6114 20.8581 13.5712 19.8024C13.5148 18.3398 13.6714 16.8315 13.7967 15.4871C13.9799 13.5065 15.18 11.6264 16.8908 10.6185C18.5683 9.63183 20.7127 9.48384 22.5101 10.2345C24.3057 10.9852 25.7101 12.6135 26.1857 14.5021C26.5259 15.8448 26.4095 17.2388 26.4307 18.6077C26.4361 18.9917 26.4537 19.3796 26.4623 19.7672C26.4889 20.7313 26.4695 21.695 26.1171 22.6044Z" fill="#F5F5FF" stroke="#C29C26" stroke-width="0.159629" stroke-miterlimit="10" stroke-linecap="round" stroke-linejoin="round"/>
<path d="M26.4852 19.7678V19.8155L26.45 19.7836C26.0063 19.3972 25.7348 18.8387 25.7062 18.2544L25.4731 13.8329C25.2401 13.7404 25.0166 13.6446 24.7899 13.5393C24.4515 13.3764 24.1227 13.2009 23.8163 13.0124C23.1491 12.6131 22.5679 12.1566 22.1275 11.6876C21.4952 11.8409 20.7738 11.9206 20.0395 11.9206C19.1838 11.9206 18.357 11.812 17.6483 11.6046C17.2366 12.0644 16.6938 12.5081 16.0682 12.904C15.7107 13.1338 15.3243 13.3477 14.9155 13.5393C14.826 13.5808 14.7273 13.6255 14.6091 13.6765L14.3761 18.2547C14.3442 18.8646 14.0568 19.4327 13.5875 19.8191L13.5523 19.8478L13.549 19.803C13.498 18.443 13.6319 17.0255 13.7468 15.7771L13.7755 15.4865C13.8936 14.2061 14.4235 12.9801 15.2503 11.9937C15.7101 11.4414 16.2624 10.9658 16.8818 10.5985C18.561 9.61211 20.7225 9.46203 22.5198 10.2154C23.4042 10.5824 24.1991 11.1699 24.8313 11.8979C25.4827 12.6418 25.9648 13.539 26.2074 14.4968C26.4691 15.5312 26.4628 16.6101 26.4533 17.6541C26.45 17.9671 26.45 18.2926 26.4533 18.6086C26.4566 18.8288 26.4628 19.0556 26.4724 19.2758C26.4757 19.439 26.4819 19.6019 26.4852 19.7678Z" fill="#C29C26"/>
<path d="M24.8315 11.8989C24.1993 11.1709 23.4044 10.5837 22.52 10.2164C20.7226 9.46301 18.5612 9.61309 16.882 10.5995C16.2626 10.9668 15.7103 11.4424 15.2505 11.9947C15.3654 12.1874 15.5098 12.37 15.6754 12.5437C15.6924 12.9462 15.8699 13.3418 16.1671 13.6148C16.5156 13.9347 17.0183 14.0785 17.4832 13.9911C17.5724 14.3432 17.9875 14.7054 18.347 14.7579C18.7062 14.8104 19.0887 14.6284 19.2749 14.3166C19.4763 14.6281 19.8943 14.9011 20.2637 14.8698C20.6334 14.8385 20.9765 14.5905 21.1227 14.2498C21.3409 14.618 21.6864 14.939 22.1101 14.8814C22.534 14.8239 22.9085 14.495 23.0204 14.0821C23.5542 14.2361 24.1816 13.9812 24.315 13.4421C24.3777 13.1894 24.3234 12.9223 24.1951 12.6965C24.4576 12.4515 24.6755 12.1851 24.8315 11.8989Z" fill="#C29C26"/>
<path d="M21.9117 24.1113C21.9117 24.6066 20.851 25.0085 20.1307 25.0085C19.4534 25.0085 18.075 24.6069 18.075 24.1113" fill="#F5F5FF"/>
<path d="M21.9117 24.1113C21.9117 24.6066 20.851 25.0085 20.1307 25.0085C19.4534 25.0085 18.075 24.6069 18.075 24.1113" stroke="#C29C26" stroke-width="0.185348" stroke-miterlimit="10" stroke-linecap="round" stroke-linejoin="round"/>
<path d="M21.9117 24.0984V24.1076H18.075V24.0984C18.075 23.7215 19.4105 23.416 20.1307 23.416C20.8083 23.416 21.9117 23.7215 21.9117 24.0984Z" fill="#C29C26" stroke="#C29C26" stroke-width="0.13749" stroke-miterlimit="10"/>
<path d="M21.6049 23.7171C21.7985 23.8412 22.1002 23.8657 22.3559 23.7359L22.3583 23.7347C22.398 23.7144 22.4466 23.7305 22.4669 23.7702C22.4827 23.8012 22.4764 23.8376 22.454 23.8618C22.2219 24.1122 21.8445 24.2542 21.4506 24.1844L21.4241 24.1796C21.2862 24.1551 21.1943 24.0238 21.2188 23.886C21.2433 23.7481 21.3745 23.6562 21.5124 23.6807C21.5458 23.6867 21.5777 23.6998 21.6049 23.7171Z" fill="#C29C26"/>
<path d="M18.5797 24.1842C18.1861 24.2537 17.8087 24.112 17.5763 23.8616C17.5458 23.8288 17.5479 23.7778 17.5804 23.7473C17.6058 23.7238 17.6425 23.7196 17.6717 23.7345L17.6741 23.7357C17.9298 23.8655 18.2315 23.841 18.4248 23.7169C18.5427 23.6414 18.6993 23.6754 18.7748 23.7933C18.8503 23.9111 18.8163 24.0678 18.6984 24.1433C18.6698 24.1618 18.6385 24.1737 18.6068 24.1794L18.5797 24.1842Z" fill="#C29C26"/>
<path d="M19.4417 24.0264C19.601 24.1726 19.8125 24.2606 20.0285 24.2704C20.2446 24.2803 20.4633 24.212 20.6354 24.081" fill="#C29C26"/>
<path d="M19.4417 24.0264C19.601 24.1726 19.8125 24.2606 20.0285 24.2704C20.2446 24.2803 20.4633 24.212 20.6354 24.081" stroke="#C29C26" stroke-width="0.274979" stroke-miterlimit="10" stroke-linecap="round" stroke-linejoin="round"/>
<path d="M20.9836 17.4099C21.1343 17.0435 21.4336 16.7735 21.7654 16.5873C22.1007 16.4029 22.4812 16.3021 22.8658 16.2895C23.2504 16.2764 23.6356 16.3534 23.9817 16.5145C24.3245 16.6777 24.6399 16.9242 24.8198 17.2777L23.7946 17.25C23.484 17.2443 23.1886 17.2458 22.8962 17.2542C22.6038 17.2634 22.3096 17.2801 22.0011 17.3064C21.6896 17.3308 21.373 17.366 20.9836 17.4099Z" fill="#C29C26"/>
<path d="M19.0463 17.4102C18.6569 17.3663 18.3404 17.3311 18.0292 17.3061C17.7206 17.2798 17.4268 17.2631 17.1341 17.2539C16.8413 17.2455 16.5463 17.244 16.2357 17.2497L15.2104 17.2777C15.3904 16.9242 15.7057 16.6777 16.0486 16.5145C16.3947 16.3534 16.7796 16.2764 17.1645 16.2895C17.5491 16.3021 17.9295 16.4029 18.2649 16.5873C18.5967 16.7741 18.8956 17.0438 19.0463 17.4102Z" fill="#C29C26"/>
<path d="M21.163 19.9956C21.2322 19.8416 21.3095 19.6924 21.3826 19.5408L21.3889 19.5316C21.5712 19.2577 21.7997 18.993 22.1053 18.82C22.4048 18.6418 22.7658 18.5517 23.1155 18.5735C23.4631 18.5908 23.806 18.695 24.1011 18.8746C24.2485 18.9635 24.383 19.0697 24.5071 19.1843C24.6307 19.2971 24.742 19.4343 24.7873 19.6011L24.7882 19.6041C24.7992 19.6447 24.7754 19.6867 24.7348 19.6978C24.7172 19.7026 24.6996 19.7008 24.6841 19.6942C24.5197 19.6223 24.4129 19.5268 24.2941 19.4331C24.1765 19.3412 24.0509 19.2619 23.9208 19.1953C23.6631 19.0599 23.3799 18.982 23.0929 18.959C22.8076 18.936 22.523 18.9871 22.2643 19.113C22.0071 19.2413 21.7747 19.4367 21.5753 19.6688L21.5813 19.6599C21.4814 19.7953 21.3859 19.9335 21.2823 20.0669C21.2588 20.0973 21.2146 20.103 21.1842 20.0791C21.1576 20.0594 21.1499 20.0245 21.163 19.9956Z" fill="#C29C26"/>
<path d="M22.3392 19.4042C22.3625 19.0808 22.6435 18.8376 22.967 18.8609C23.2904 18.8842 23.5336 19.1653 23.5103 19.4887C23.487 19.8121 23.206 20.0553 22.8825 20.032C22.5591 20.0088 22.3159 19.7277 22.3392 19.4042Z" fill="#C29C26"/>
<path d="M24.1094 19.9406C24.3254 19.8926 24.5298 19.7944 24.7025 19.6562" stroke="#C29C26" stroke-width="0.159629" stroke-miterlimit="10" stroke-linecap="round" stroke-linejoin="round"/>
<path d="M21.1492 19.0102C21.3911 18.5978 21.7826 18.2756 22.2335 18.1172C22.6843 17.9587 23.1912 17.9653 23.6379 18.1357" stroke="#C29C26" stroke-width="0.159629" stroke-miterlimit="10" stroke-linecap="round" stroke-linejoin="round"/>
<path d="M18.7479 20.0678C18.6443 19.9345 18.5489 19.7963 18.4489 19.6609L18.4549 19.6698C18.2556 19.4377 18.0231 19.2422 17.7659 19.1139C17.5072 18.988 17.2226 18.937 16.9374 18.96C16.6506 18.983 16.3675 19.0608 16.1097 19.1963C15.9796 19.2628 15.8543 19.3422 15.7364 19.4341C15.6177 19.5275 15.5108 19.623 15.3464 19.6952C15.3076 19.7122 15.2629 19.6946 15.2459 19.6558C15.2387 19.6391 15.2378 19.6215 15.242 19.6051L15.2429 19.6021C15.2883 19.4353 15.3995 19.298 15.5231 19.1853C15.6472 19.0704 15.7815 18.9642 15.9292 18.8755C16.2242 18.6959 16.5668 18.5918 16.9147 18.5745C17.2644 18.5527 17.6254 18.6428 17.925 18.8209C18.2305 18.994 18.4593 19.2587 18.6414 19.5326L18.6476 19.5418C18.7207 19.6934 18.7977 19.8426 18.8672 19.9965C18.883 20.0317 18.8675 20.0732 18.832 20.0893C18.8019 20.1022 18.7673 20.0926 18.7479 20.0678Z" fill="#C29C26"/>
<path d="M17.6907 19.4042C17.6674 19.0808 17.3864 18.8376 17.0629 18.8609C16.7395 18.8842 16.4963 19.1653 16.5196 19.4887C16.5429 19.8121 16.8239 20.0553 17.1474 20.032C17.4708 20.0088 17.714 19.7277 17.6907 19.4042Z" fill="#C29C26"/>
<path d="M15.9206 19.9406C15.7048 19.8926 15.5001 19.7944 15.3274 19.6562" stroke="#C29C26" stroke-width="0.159629" stroke-miterlimit="10" stroke-linecap="round" stroke-linejoin="round"/>
<path d="M18.8806 19.0102C18.6386 18.5978 18.2471 18.2756 17.7963 18.1172C17.3454 17.9587 16.8385 17.9653 16.3918 18.1357" stroke="#C29C26" stroke-width="0.159629" stroke-miterlimit="10" stroke-linecap="round" stroke-linejoin="round"/>
<path d="M19.0897 22.14C18.7734 22.1785 18.5929 21.8354 18.7415 21.5537" stroke="#C29C26" stroke-width="0.185169" stroke-miterlimit="10" stroke-linecap="round" stroke-linejoin="round"/>
<path d="M20.9399 22.1722C21.2559 22.2107 21.4364 21.8676 21.2881 21.5859" stroke="#C29C26" stroke-width="0.185169" stroke-miterlimit="10" stroke-linecap="round" stroke-linejoin="round"/>
<path d="M19.062 22.0938C19.571 22.561 20.4333 22.575 20.957 22.1245" stroke="#C29C26" stroke-width="0.185169" stroke-miterlimit="10" stroke-linecap="round" stroke-linejoin="round"/>
<path d="M32.5869 53.1792L31.3134 50.0857L30.2939 47.6071L29.4346 45.5161L27.5462 40.9272C26.5517 38.5127 27.5292 35.8378 29.6736 35.1032C30.048 34.9749 30.4314 34.917 30.8115 34.92C30.8468 34.9203 30.8817 34.9206 30.9169 34.9239C32.5797 34.9839 34.1861 36.2185 34.83 38.1037L36.3586 42.5718L37.043 44.5753L39.9999 53.2332" fill="#F5F5FF"/>
<path d="M32.5869 53.1792L31.3134 50.0857L30.2939 47.6071L29.4346 45.5161L27.5462 40.9272C26.5517 38.5127 27.5292 35.8378 29.6736 35.1032C30.048 34.9749 30.4314 34.917 30.8115 34.92C30.8468 34.9203 30.8817 34.9206 30.9169 34.9239C32.5797 34.9839 34.1861 36.2185 34.83 38.1037L36.3586 42.5718L37.043 44.5753L39.9999 53.2332" stroke="#C29C26" stroke-width="0.159629" stroke-miterlimit="10" stroke-linecap="round" stroke-linejoin="round"/>
<path d="M38.0272 42.8055C37.5241 42.1706 35.1413 42.5704 32.5401 43.7412C29.8193 44.9696 27.89 46.5817 28.2361 47.3443C28.2445 47.3607 28.2525 47.3733 28.2651 47.3897L28.2361 47.4022L25.2309 40.3568C24.0518 37.5905 25.3258 34.4368 28.0055 33.5011C28.5124 33.3238 29.0277 33.2373 29.543 33.2373C31.3777 33.2373 33.1378 34.3258 34.0406 36.09L38.0272 42.8055Z" fill="#F5F5FF" stroke="#C29C26" stroke-width="0.159629" stroke-miterlimit="10" stroke-linecap="round" stroke-linejoin="round"/>
<path d="M0 53.234L3.02012 44.6012L3.7192 42.5994L5.28028 38.1427C5.95072 36.2238 7.62041 34.9883 9.31904 34.9883H9.34142C9.71498 34.9916 10.0885 35.0521 10.4555 35.1798C12.5946 35.9299 13.5556 38.612 12.5435 41.019L10.6217 45.5939V45.5972L9.74691 47.6786L8.81479 49.8973L7.41334 53.2337" fill="#F5F5FF"/>
<path d="M0 53.234L3.02012 44.6012L3.7192 42.5994L5.28028 38.1427C5.95072 36.2238 7.62041 34.9883 9.31904 34.9883H9.34142C9.71498 34.9916 10.0885 35.0521 10.4555 35.1798C12.5946 35.9299 13.5556 38.612 12.5435 41.019L10.6217 45.5939V45.5972L9.74691 47.6786L8.81479 49.8973L7.41334 53.2337" stroke="#C29C26" stroke-width="0.159629" stroke-miterlimit="10" stroke-linecap="round" stroke-linejoin="round"/>
<path d="M2.03931 42.8524C2.54236 42.2174 4.92516 42.6172 7.52636 43.7881C10.2472 45.0165 12.1765 46.6286 11.8304 47.3912C11.822 47.4076 11.814 47.4201 11.8014 47.4365L11.8304 47.4491L14.8356 40.4036C16.0147 37.6374 14.7407 34.4836 12.061 33.5479C11.5541 33.3707 11.0388 33.2842 10.5235 33.2842C8.68882 33.2842 6.92872 34.3726 6.02585 36.1369L2.03931 42.8524Z" fill="#F5F5FF" stroke="#C29C26" stroke-width="0.159629" stroke-miterlimit="10" stroke-linecap="round" stroke-linejoin="round"/>
<path d="M31.383 53.2342H8.6167L8.73485 49.8978L8.8178 47.4905L8.92343 44.5343L9.26178 34.9885L9.3134 33.388L14.3156 31.7607L15.1394 31.4638L15.5479 31.3137L16.6142 30.7402H16.9368H23.0985H23.2262L24.4232 31.2913L24.8287 31.4384L25.6525 31.7353L30.7323 33.388L30.7702 34.9917L30.9522 40.3681L31.0895 44.477L31.1882 47.449V47.4652L31.2777 50.1499L31.383 53.2342Z" fill="#F5F5FF" stroke="#C29C26" stroke-width="0.159629" stroke-miterlimit="10" stroke-linecap="round" stroke-linejoin="round"/>
<path d="M23.4325 30.5974L24.2635 31.2219L24.6523 31.3618C24.3617 33.6805 22.3826 35.4704 19.9834 35.4704C17.5946 35.4704 15.6191 33.6909 15.3145 31.3863L15.7104 31.2428L16.6544 30.4834" fill="#F5F5FF"/>
<path d="M23.4325 30.5974L24.2635 31.2219L24.6523 31.3618C24.3617 33.6805 22.3826 35.4704 19.9834 35.4704C17.5946 35.4704 15.6191 33.6909 15.3145 31.3863L15.7104 31.2428L16.6544 30.4834" stroke="#C29C26" stroke-width="0.159629" stroke-miterlimit="10" stroke-linecap="round" stroke-linejoin="round"/>
</g>
<defs>
<clipPath id="clip0_158_7197">
<rect width="40" height="40" rx="20" fill="white"/>
</clipPath>
</defs>
</svg>
